<svg xmlns="http://www.w3.org/2000/svg" xmlns:xlink="http://www.w3.org/1999/xlink" width="162.855" height="120" viewBox="0 0 162.855 120">
  <defs>
    <clipPath id="clip-path">
      <rect id="Rect치ngulo_44367" data-name="Rect치ngulo 44367" width="99.815" height="97.482" transform="translate(0)" fill="#483c8c"/>
    </clipPath>
  </defs>
  <g id="Grupo_146955" data-name="Grupo 146955" transform="translate(-994.001 -255.413)">
    <path id="Trazado_193137" data-name="Trazado 193137" d="M153.239,764.3a1.136,1.136,0,0,1-1.136-1.134v-9.379a1.133,1.133,0,0,1,2.267,0v9.379a1.133,1.133,0,0,1-1.131,1.134" transform="translate(953.328 -404.738)" fill="#fff"/>
    <path id="Trazado_193138" data-name="Trazado 193138" d="M144.621,772.913h-9.376a1.134,1.134,0,1,1,0-2.268h9.376a1.134,1.134,0,1,1,0,2.268" transform="translate(966.633 -418.046)" fill="#fff"/>
    <path id="Rect치ngulo_44246" data-name="Rect치ngulo 44246" d="M0,0H42A45,45,0,0,1,87,45v75a0,0,0,0,1,0,0H45A45,45,0,0,1,0,75V0A0,0,0,0,1,0,0Z" transform="translate(1036.001 255.413)" fill="#8ee5f6"/>
    <g id="Grupo_145416" data-name="Grupo 145416" transform="translate(13885.001 12198.938)">
      <path id="Trazado_192735" data-name="Trazado 192735" d="M3.64,485.1a.275.275,0,0,0-.017.038l.009-.021.007-.017" transform="translate(-12746.112 -12322.392)" fill="#483c8c"/>
      <path id="Trazado_192750" data-name="Trazado 192750" d="M44.349,426.525a.377.377,0,0,0,.182-.233.383.383,0,0,0-.034-.283.4.4,0,0,0-.231-.182.359.359,0,0,0-.281.035.377.377,0,0,0-.182.233.383.383,0,0,0,.034.283.4.4,0,0,0,.231.182.359.359,0,0,0,.281-.035" transform="translate(-12775.057 -12279.672)" fill="#483c8c"/>
      <path id="Trazado_192751" data-name="Trazado 192751" d="M52.322,418.372a.516.516,0,0,0-.336-.635.508.508,0,0,0-.633.34.515.515,0,0,0,.336.635.509.509,0,0,0,.633-.34" transform="translate(-12780.49 -12273.833)" fill="#483c8c"/>
      <path id="Trazado_193076" data-name="Trazado 193076" d="M79,156.99a.628.628,0,0,1-.628-.625v-4.192a.629.629,0,0,1,1.258,0v4.192a.628.628,0,0,1-.63.625" transform="translate(-12960.147 -12070.716)" fill="#483c8c"/>
      <path id="Trazado_193077" data-name="Trazado 193077" d="M65.378,170.615H61.187a.629.629,0,0,1,0-1.258h4.191a.629.629,0,0,1,0,1.258" transform="translate(-12944.435 -12086.434)" fill="#483c8c"/>
      <path id="Trazado_193078" data-name="Trazado 193078" d="M1.97,76.411A1.969,1.969,0,1,1,3.94,74.44a1.971,1.971,0,0,1-1.969,1.97m0-2.682a.712.712,0,1,0,.713.712.712.712,0,0,0-.713-.712" transform="translate(-12891 -12000.946)" fill="#483c8c"/>
      <path id="Trazado_193079" data-name="Trazado 193079" d="M1066.031,868.226a.627.627,0,0,1-.627-.628v-4.192a.628.628,0,1,1,1.256,0V867.6a.629.629,0,0,1-.629.628" transform="translate(-13831.067 -12698.277)" fill="#483c8c"/>
      <path id="Trazado_193080" data-name="Trazado 193080" d="M1052.4,881.853h-4.191a.628.628,0,1,1,0-1.257h4.191a.628.628,0,0,1,0,1.257" transform="translate(-13815.337 -12714)" fill="#483c8c"/>
      <path id="Trazado_193081" data-name="Trazado 193081" d="M1050.341,664.771a.629.629,0,0,1-.629-.628v-5.2a.628.628,0,0,1,1.256,0v5.2a.628.628,0,0,1-.627.628" transform="translate(-13817.221 -12517.87)" fill="#483c8c"/>
      <path id="Trazado_193082" data-name="Trazado 193082" d="M1033.444,681.663h-5.2a.628.628,0,1,1,0-1.257h5.2a.628.628,0,1,1,0,1.257" transform="translate(-13797.727 -12537.361)" fill="#483c8c"/>
      <path id="Trazado_193083" data-name="Trazado 193083" d="M983.37,787.777a.629.629,0,0,1-.628-.628v-3.519a.628.628,0,1,1,1.256,0v3.519a.628.628,0,0,1-.628.628" transform="translate(-13758.129 -12627.887)" fill="#483c8c"/>
      <path id="Trazado_193084" data-name="Trazado 193084" d="M971.935,799.212h-3.521a.628.628,0,0,1,0-1.257h3.521a.628.628,0,0,1,0,1.257" transform="translate(-13744.934 -12641.081)" fill="#483c8c"/>
      <g id="Grupo_145489" data-name="Grupo 145489" transform="translate(-12854.025 -11934.626)" clip-path="url(#clip-path)">
        <path id="Trazado_193771" data-name="Trazado 193771" d="M42.105,123.345a.943.943,0,0,1-.884-1.268L53.385,89.045a9.294,9.294,0,0,1,6.562-6.185l17.8-3.566a13.916,13.916,0,0,0,2.937-1.052,16.638,16.638,0,0,0,2.875-2.108c1.508-1.279,3.371-2.85,5.236-4.422s3.745-3.158,5.26-4.444c.208-.177.6-.508.626-.73a.926.926,0,0,0-.3-.6c-1.141-1.319-3.279-1.374-4.783-.867a15.735,15.735,0,0,0-4.562,2.867l-.416.33a23.26,23.26,0,0,1-2.773,1.98c-1.9,1.21-7.509,3.382-19.245-2.189-6.41-3.043-18.254-6.4-25.56,5.293L16.39,108.92a.942.942,0,0,1-1.63-.947L35.435,72.384c6-9.611,15.937-11.74,27.982-6.023,11.191,5.312,16.145,3.118,17.4,2.32l.1-.062a21.158,21.158,0,0,0,2.5-1.79l.456-.362A17.366,17.366,0,0,1,89,63.291c2.153-.726,5.092-.568,6.811,1.42a2.651,2.651,0,0,1,.741,2.068,3.15,3.15,0,0,1-1.277,1.928c-1.516,1.287-3.391,2.867-5.264,4.447s-3.724,3.141-5.232,4.419a18.016,18.016,0,0,1-3.215,2.339,15.965,15.965,0,0,1-3.389,1.219L60.334,84.705c-3.159.691-4.6,3.424-5.179,4.991L42.99,122.728a.944.944,0,0,1-.884.617" transform="translate(-6.017 -25.862)" fill="#483c8c"/>
        <path id="Trazado_193772" data-name="Trazado 193772" d="M109.476,57.288a.944.944,0,0,1-.924-1.134c.187-.9.572-2.476,1.177-4.822a.943.943,0,0,1,1.825.471c-.6,2.316-.976,3.865-1.156,4.734a.943.943,0,0,1-.922.751" transform="translate(-44.629 -20.817)" fill="#483c8c"/>
        <path id="Trazado_193773" data-name="Trazado 193773" d="M111.38,27.131a.944.944,0,0,1-.911-1.186l.741-2.768c.838-3.133,1.564-5.839,1.891-7.158.071-.28.167-.625.277-1.015.49-1.735,1.4-4.964.661-6.27a.92.92,0,0,0-.6-.461c-1.162-.342-2.15.48-2.958,2.439-.729,1.768-2.249,5.856-2.905,7.81a.942.942,0,1,1-1.787-.6c.609-1.817,2.149-5.989,2.95-7.93,1.624-3.933,3.963-3.9,5.214-3.533a2.8,2.8,0,0,1,1.729,1.345c1.128,1.99.156,5.432-.486,7.71-.1.369-.2.694-.261.959-.333,1.335-1.059,4.049-1.9,7.19l-.74,2.767a.943.943,0,0,1-.91.7" transform="translate(-43.479 -2.592)" fill="#483c8c"/>
        <path id="Trazado_193774" data-name="Trazado 193774" d="M137.282,43.726c-.03,0-.059,0-.09,0a.942.942,0,0,1-.85-1.027c.815-8.655,1.172-17.451,1.517-25.956l.026-.645a4.143,4.143,0,0,0-.9-2.994,1.21,1.21,0,0,0-1.083-.251,2.537,2.537,0,0,0-1.845,1.988.942.942,0,1,1-1.837-.42,4.4,4.4,0,0,1,3.351-3.423,3.078,3.078,0,0,1,2.653.687,5.832,5.832,0,0,1,1.545,4.491l-.026.645c-.346,8.53-.7,17.351-1.524,26.057a.942.942,0,0,1-.937.854" transform="translate(-54.36 -4.496)" fill="#483c8c"/>
        <path id="Trazado_193775" data-name="Trazado 193775" d="M123.077,37.005a.962.962,0,0,1-.182-.018.942.942,0,0,1-.744-1.106c.933-4.757,1.818-9.595,2.631-14.38l.383-2.232c.637-3.7,1.238-7.19,1.687-10.854.042-.348.094-.7.145-1.05a8.3,8.3,0,0,0-.163-4.623,1.386,1.386,0,0,0-.862-.784,1.766,1.766,0,0,0-1.43.194c-1.572.936-2.594,5.422-3.2,8.1-.191.839-.356,1.564-.513,2.11a.942.942,0,1,1-1.811-.523c.143-.494.3-1.194.487-2,.764-3.357,1.811-7.956,4.077-9.3a3.649,3.649,0,0,1,2.965-.37,3.263,3.263,0,0,1,2.013,1.815,9.973,9.973,0,0,1,.306,5.659c-.049.337-.1.674-.139,1.009-.455,3.709-1.088,7.387-1.7,10.944l-.382,2.229c-.816,4.8-1.7,9.654-2.64,14.427a.943.943,0,0,1-.924.761" transform="translate(-48.924 0)" fill="#483c8c"/>
        <path id="Trazado_193776" data-name="Trazado 193776" d="M94.447,54.467a.944.944,0,0,1-.872-1.3q.6-1.456,1.214-2.9A.942.942,0,0,1,96.523,51q-.611,1.434-1.2,2.877a.943.943,0,0,1-.873.586" transform="translate(-38.449 -20.434)" fill="#483c8c"/>
        <path id="Trazado_193777" data-name="Trazado 193777" d="M89.982,29.546a.942.942,0,0,1-.82-1.4c2.14-3.8,3.881-6.788,5.943-9.943,1.385-2.118,3.149-2.8,4.842-1.881,1.529.834,1.972,2.6,1.216,4.841s-1.652,4.6-2.834,7.444a.942.942,0,1,1-1.74-.722c1.165-2.808,2.052-5.134,2.789-7.323.255-.758.551-2.1-.334-2.585-.752-.411-1.547.013-2.362,1.258-2.035,3.112-3.758,6.07-5.879,9.836a.943.943,0,0,1-.822.48" transform="translate(-36.614 -6.545)" fill="#483c8c"/>
        <path id="Trazado_193778" data-name="Trazado 193778" d="M56.018,67.274a.943.943,0,0,1-.759-1.5c2.8-3.817,7.434-6.533,9.945-7.812.23-.117.463-.232.7-.347.575-.282,1.118-.549,1.624-.858a.942.942,0,0,1,.983,1.608c-.581.355-1.188.654-1.776.942-.225.111-.451.221-.674.335-2.362,1.2-6.708,3.744-9.281,7.248a.941.941,0,0,1-.76.384" transform="translate(-22.648 -23.282)" fill="#483c8c"/>
        <path id="Trazado_193779" data-name="Trazado 193779" d="M14.111,41.409c-4.392,0-8.818-.186-13.248-.558a.942.942,0,1,1,.158-1.878,153.229,153.229,0,0,0,25.355.052,8.234,8.234,0,0,0,4.487-2.069c.536-.4,1.09-.8,1.719-1.2,2.508-1.584,4.959-3.368,7.329-5.094,2.413-1.757,4.909-3.575,7.492-5.2,3.332-2.1,6.909-3.906,10.489-2.925a.942.942,0,0,1-.5,1.818c-3.02-.828-6.222.961-8.987,2.7-2.53,1.594-5,3.392-7.388,5.131s-4.87,3.547-7.431,5.164c-.572.362-1.1.75-1.609,1.125A10.091,10.091,0,0,1,26.531,40.9c-4.089.338-8.24.506-12.42.506" transform="translate(0 -9.153)" fill="#483c8c"/>
        <path id="Trazado_193780" data-name="Trazado 193780" d="M70.452,51.376a.942.942,0,0,1-.457-1.767,96.4,96.4,0,0,1,10.776-4.863q.948-.382,1.891-.764c1.656-.674,4.2-.435,7.154-.157,5.638.532,9.67.665,10.216-2.468.183-1.051-.913-1.663-1.589-1.858-.9-.26-1.8-.544-2.706-.829a41.67,41.67,0,0,0-7.712-1.9,23.811,23.811,0,0,0-6.882.732c-.636.128-1.259.253-1.855.36A.942.942,0,1,1,78.957,36c.584-.1,1.192-.227,1.815-.352a25.494,25.494,0,0,1,7.462-.758A43.09,43.09,0,0,1,96.3,36.873c.891.28,1.778.56,2.663.816,1.657.48,3.278,1.934,2.922,3.991-.888,5.092-7.188,4.5-12.25,4.022-2.477-.233-5.038-.475-6.267.026q-.945.384-1.9.767a94.978,94.978,0,0,0-10.567,4.763.94.94,0,0,1-.456.118" transform="translate(-28.582 -14.32)" fill="#483c8c"/>
        <path id="Trazado_193781" data-name="Trazado 193781" d="M151.711,53.511a7.579,7.579,0,0,1-1.367-.129c-2.839-.522-8.539-2.22-8.78-2.292a.942.942,0,1,1,.538-1.806c.058.017,5.845,1.74,8.582,2.243a3.6,3.6,0,0,0,2.82-.408,1.594,1.594,0,0,0,.5-1.327c-.021-1.449-1.009-2.071-2.62-2.965-.258-.144-.516-.287-.768-.436-2.19-1.3-9.117-4.547-9.186-4.579a.942.942,0,1,1,.8-1.707c.288.135,7.079,3.322,9.347,4.664.237.14.479.274.723.41,1.583.878,3.552,1.972,3.589,4.586a3.424,3.424,0,0,1-1.171,2.793,4.62,4.62,0,0,1-3.009.951" transform="translate(-57.935 -16.456)" fill="#483c8c"/>
        <path id="Trazado_193782" data-name="Trazado 193782" d="M155.909,69.354a9.083,9.083,0,0,1-1.22-.092l-.74-.1c-1.958-.266-4.177-.566-6.2-.776a.942.942,0,1,1,.194-1.875c2.057.213,4.292.516,6.264.783l.74.1a4.383,4.383,0,0,0,2.087-.1,2.028,2.028,0,0,0,1.244-1.339,2.892,2.892,0,0,0-.771-2.522,33.112,33.112,0,0,0-6.032-2.519.942.942,0,1,1,.609-1.783c1.755.6,5.93,2.092,6.794,3.01a4.7,4.7,0,0,1,1.222,4.3,3.883,3.883,0,0,1-2.4,2.621,5.053,5.053,0,0,1-1.781.3" transform="translate(-60.405 -24.293)" fill="#483c8c"/>
        <path id="Trazado_193783" data-name="Trazado 193783" d="M133.138,81.81a.943.943,0,0,1-.053-1.884c1.324-.075,2.691-.171,4.073-.267,2.8-.195,5.689-.4,8.4-.448a2.273,2.273,0,0,0,2-1.445A2.384,2.384,0,0,0,147,75.3a.942.942,0,0,1,1.3-1.367,4.284,4.284,0,0,1,1.025,4.5,4.167,4.167,0,0,1-3.732,2.668c-2.664.051-5.532.251-8.3.445-1.39.1-2.765.193-4.1.269l-.055,0" transform="translate(-54.36 -30.293)" fill="#483c8c"/>
      </g>
      <path id="Trazado_193784" data-name="Trazado 193784" d="M37.313,98.343a5.164,5.164,0,1,1,5.164-5.164,5.164,5.164,0,0,1-5.164,5.164" transform="translate(-12867.247 -11970.818)" fill="#f6f6f6"/>
      <path id="Trazado_193785" data-name="Trazado 193785" d="M64.276,74.909a3.34,3.34,0,1,1,1.868,4.338,3.34,3.34,0,0,1-1.868-4.338" transform="translate(-12880.36 -11964.563)" fill="none" stroke="#f6f6f6" stroke-width="1"/>
      <path id="Trazado_193786" data-name="Trazado 193786" d="M43.826,29.747a3.34,3.34,0,1,1,4.338-1.868,3.34,3.34,0,0,1-4.338,1.868" transform="translate(-12871.185 -11944.208)" fill="#f6f6f6"/>
      <path id="Trazado_193798" data-name="Trazado 193798" d="M43.373,28.36a2.622,2.622,0,1,1,3.4-1.466,2.621,2.621,0,0,1-3.4,1.466" transform="translate(-12840.042 -11959.074)" fill="#f6f6f6"/>
      <path id="Trazado_193797" data-name="Trazado 193797" d="M43.826,29.747a3.34,3.34,0,1,1,4.338-1.868,3.34,3.34,0,0,1-4.338,1.868" transform="translate(-12814.356 -11944.208)" fill="none" stroke="#f6f6f6" stroke-width="1"/>
      <path id="Trazado_194236" data-name="Trazado 194236" d="M43.5,28.689a2.781,2.781,0,0,1-1.58-3.626,2.837,2.837,0,0,1,3.67-1.562,2.781,2.781,0,0,1,1.58,3.627,2.836,2.836,0,0,1-3.67,1.561" transform="translate(-12821.503 -11899.119)" fill="#f6f6f6"/>
    </g>
  </g>
</svg>
