<svg xmlns="http://www.w3.org/2000/svg" xmlns:xlink="http://www.w3.org/1999/xlink" width="101.157" height="150.948" viewBox="0 0 101.157 150.948">
  <defs>
    <clipPath id="clip-path">
      <rect id="Rect치ngulo_44337" data-name="Rect치ngulo 44337" width="98.365" height="69.178" fill="#483c8c"/>
    </clipPath>
  </defs>
  <g id="Grupo_146957" data-name="Grupo 146957" transform="translate(-1379.635 -451.413)">
    <path id="Rect치ngulo_44256" data-name="Rect치ngulo 44256" d="M0,0H42.476a45,45,0,0,1,45,45v76.757a0,0,0,0,1,0,0H45a45,45,0,0,1-45-45V0A0,0,0,0,1,0,0Z" transform="translate(1480.792 585.484) rotate(180)" fill="#fff"/>
    <g id="Grupo_145417" data-name="Grupo 145417" transform="translate(14630.473 12948.688)">
      <path id="Trazado_193085" data-name="Trazado 193085" d="M399.828,69.281a.675.675,0,0,1-.676-.672V64.1a.676.676,0,0,1,1.353,0v4.509a.675.675,0,0,1-.677.672" transform="translate(-13584.189 -12550.694)" fill="#483c8c"/>
      <path id="Trazado_193086" data-name="Trazado 193086" d="M390.053,79.065h-4.508a.676.676,0,0,1,0-1.353h4.508a.676.676,0,0,1,0,1.353" transform="translate(-13572.159 -12562.73)" fill="#483c8c"/>
      <path id="Trazado_193087" data-name="Trazado 193087" d="M338.414,4.236a2.118,2.118,0,1,1,2.118-2.119,2.12,2.12,0,0,1-2.118,2.119m0-2.884a.766.766,0,1,0,.766.765.766.766,0,0,0-.766-.765" transform="translate(-13531.247 -12497.275)" fill="#483c8c"/>
      <path id="Trazado_193088" data-name="Trazado 193088" d="M165.569,925.138a.685.685,0,0,1-.685-.686v-4.579a.686.686,0,1,1,1.372,0v4.579a.687.687,0,0,1-.687.686" transform="translate(-13386.876 -13271.466)" fill="#483c8c"/>
      <path id="Trazado_193089" data-name="Trazado 193089" d="M155.627,935.074h-4.577a.686.686,0,1,1,0-1.372h4.577a.686.686,0,0,1,0,1.372" transform="translate(-13374.644 -13283.69)" fill="#483c8c"/>
      <path id="Trazado_193090" data-name="Trazado 193090" d="M152.79,759.7a.688.688,0,0,1-.687-.686v-5.677a.686.686,0,0,1,1.372,0v5.677a.686.686,0,0,1-.685.686" transform="translate(-13376.111 -13131.2)" fill="#483c8c"/>
      <path id="Trazado_193091" data-name="Trazado 193091" d="M140.471,772.017H134.8a.686.686,0,1,1,0-1.372h5.675a.686.686,0,1,1,0,1.372" transform="translate(-13360.955 -13146.357)" fill="#483c8c"/>
      <path id="Trazado_193092" data-name="Trazado 193092" d="M98.24,859.424a.687.687,0,0,1-.686-.686v-3.843a.686.686,0,1,1,1.372,0v3.843a.686.686,0,0,1-.686.686" transform="translate(-13330.165 -13216.739)" fill="#483c8c"/>
      <path id="Trazado_193093" data-name="Trazado 193093" d="M89.9,867.762H86.058a.686.686,0,0,1,0-1.373H89.9a.686.686,0,0,1,0,1.373" transform="translate(-13319.906 -13226.997)" fill="#483c8c"/>
      <g id="Grupo_145466" data-name="Grupo 145466" transform="translate(-13250.838 -12454.685)">
        <g id="Grupo_145465" data-name="Grupo 145465" transform="translate(0 0)" clip-path="url(#clip-path)">
          <path id="Trazado_193189" data-name="Trazado 193189" d="M98.269,19.468l-.2.036v0l.2-.039a5.913,5.913,0,0,0-.3-1.041,6.351,6.351,0,0,0-.49-.975,7.577,7.577,0,0,0-.661-.89,13.438,13.438,0,0,0-3.4-2.638c-.589-.342-1.191-.667-1.781-.975l-.05-.132h-.078L90.6,11.383l.07.914-.52-.364c-.462-.326-.926-.652-1.4-.963L85.966,9.088c-1.533-1.042-3.56-2.407-5.643-3.716a44.833,44.833,0,0,0-6.1-3.239A26.765,26.765,0,0,0,67.4.188,20.211,20.211,0,0,0,63.786.019l-.894.058c-.308.019-.611.056-.915.1L61.86.194c-.263.037-.526.075-.783.129l-.239.048c-.216.043-.433.086-.638.139l-.862.222c-.2.057-.4.121-.6.187l-.269.088a13.259,13.259,0,0,0-1.656.7c-.2.1-.4.207-.592.317l-.954.609A11.874,11.874,0,0,0,53.9,3.753a12.421,12.421,0,0,0-2.147,2.683,15.138,15.138,0,0,0-.766,1.49,15.644,15.644,0,0,0-.576,1.555,17.506,17.506,0,0,0-.718,5.626l-.7.074c-.141.012-.285.021-.429.028a11.755,11.755,0,0,1-2.007-.06,7.713,7.713,0,0,1-1.858-.47,17.726,17.726,0,0,1-3.513-1.97l-.388-.262c-.452-.308-.909-.617-1.371-.914L34.141,8.069c-1.133-.733-2.352-1.514-3.591-2.257-1.3-.782-2.539-1.458-3.781-2.067A33.962,33.962,0,0,0,22.716,2.07,25.481,25.481,0,0,0,18.387,1a20.125,20.125,0,0,0-6.759.08,21.636,21.636,0,0,0-2.19.542l-.323.11c-.25.084-.5.168-.732.269l-.16.063c-.124.05-.249.1-.366.155l-.485.23c-.122.056-.24.121-.358.185l-.391.216c-.062.035-.123.074-.184.113l.239.372-.365-.294c-.134.084-.272.17-.411.264l-.452.322A12.456,12.456,0,0,0,3.822,5.09,12.979,12.979,0,0,0,2.5,6.775,14.864,14.864,0,0,0,1.483,8.607a16.217,16.217,0,0,0-.73,1.93,17.962,17.962,0,0,0-.709,4A18.815,18.815,0,0,0,.014,16.54c0,.243.02.484.038.725l.019.284c.022.342.063.681.116,1.021l.2,1.2c.054.264.108.527.175.78.143.6.319,1.233.542,1.945a28.981,28.981,0,0,0,1.53,3.748A39.577,39.577,0,0,0,4.627,29.79c.695,1.1,1.473,2.235,2.314,3.368.807,1.087,1.652,2.173,2.514,3.233.911,1.122,1.787,2.145,2.667,3.119.339.394.694.779,1.049,1.165L14.216,41.8c.237.251.474.5.714.747A103.156,103.156,0,0,0,27.466,53.548c2.581,1.939,4.766,3.489,6.876,4.875l3.6,2.267c1.369.8,2.53,1.458,3.74,2.075.471.253.954.486,1.435.72l.5.243c.261.125.525.242.789.359l.686.307c.118.055.238.1.359.153l2.183.869,2.063.719A65.861,65.861,0,0,0,58.2,68.286c1.568.283,3,.49,4.364.635l1.657.156,1.933.1c.092,0,.185.006.283.006h.041l.56-.012a19.259,19.259,0,0,0,8.708-2.337,21.135,21.135,0,0,0,3.622-2.485,25.108,25.108,0,0,0,3-3.039,39.311,39.311,0,0,0,4.525-6.88c1.192-2.238,2.336-4.606,3.5-7.24,1.041-2.363,2.039-4.86,2.962-7.423C94.256,37.244,95.08,34.7,95.8,32.2c.363-1.268.711-2.555,1.033-3.827l.152-.609c.11-.437.22-.875.318-1.314l.165-.709c.1-.406.191-.811.276-1.22L97.9,23.8c.089-.405.178-.809.253-1.21a10.813,10.813,0,0,0,.217-2.057,6.015,6.015,0,0,0-.1-1.066m-1.392,4.86,0,.012-.269-.063c-.127.54-.266,1.076-.405,1.614l-.074.284c-.164.635-.334,1.263-.508,1.894-.354,1.262-.732,2.528-1.124,3.764-.784,2.48-1.665,4.978-2.619,7.425A128.878,128.878,0,0,1,85.215,53.61C84.584,54.76,83.9,55.9,83.186,57a31.3,31.3,0,0,1-2.348,3.166,23.276,23.276,0,0,1-2.788,2.8A19.139,19.139,0,0,1,74.757,65.2a17.931,17.931,0,0,1-2.45,1.085q.606-.839,1.2-1.687c.8-1.153,1.6-2.336,2.357-3.518.311-.486.612-.974.915-1.464l.2-.327c.37-.6.727-1.205,1.085-1.813.765-1.32,1.43-2.526,2.031-3.687a77.43,77.43,0,0,0,3.477-7.629c.525-1.348.993-2.673,1.39-3.932.159-.482.3-.968.445-1.455l.347-1.236c.119-.439.238-.877.348-1.313l.178-.691c.617-2.4,1.256-4.876,1.689-7.359a30.955,30.955,0,0,0,.441-8.328,13.69,13.69,0,0,0-.347-2.124,8.909,8.909,0,0,0-.812-2.078,15.511,15.511,0,0,0-2.7-3.467c-.468-.472-.949-.93-1.431-1.386-.558-.532-1.115-1.062-1.649-1.613A14.771,14.771,0,0,1,80.141,9.6c-.229-.307-.463-.648-.7-1.013.145-.009.293-.028.435-.032.366.005.689.016,1.026.048a7.372,7.372,0,0,1,.99.174,8.688,8.688,0,0,1,1.882.74c.636.325,1.254.71,1.784,1.044l.407.259c.46.292.922.586,1.394.863.378.222.757.439,1.137.655l.7.4c.5.282,1,.552,1.5.823l.178.095.066.12h.139l.807,1.373-.068-.956c.145.077.3.142.441.214.062.035.12.064.182.1l.455.264A17.61,17.61,0,0,1,94.6,15.9a8.646,8.646,0,0,1,1.423,1.322,6,6,0,0,1,.543.754,5.251,5.251,0,0,1,.4.813,4.832,4.832,0,0,1,.3,1.715,17.606,17.606,0,0,1-.665,3.747ZM1.23,16.506a16.939,16.939,0,0,1,.035-1.9,16.248,16.248,0,0,1,.7-3.718,14.808,14.808,0,0,1,.693-1.769A12.514,12.514,0,0,1,3.6,7.468a11.783,11.783,0,0,1,1.215-1.49A11.155,11.155,0,0,1,6.282,4.707L6.7,4.42c.073-.047.147-.092.222-.136l.814-.459c.082-.043.163-.089.255-.129l.479-.216c.094-.043.192-.081.292-.118l.178-.068c.207-.087.425-.154.642-.222l.3-.1A20.338,20.338,0,0,1,11.9,2.51a19.066,19.066,0,0,1,2.064-.227q.443-.02.888-.02a19.455,19.455,0,0,1,3.26.276A23.984,23.984,0,0,1,22.138,3.6c.628.222,1.262.471,1.94.759.639.273,1.264.573,1.882.875,1.174.588,2.361,1.249,3.627,2.021,1.184.723,2.363,1.483,3.532,2.242l3.51,2.311q.88.578,1.77,1.148c.491.314.973.635,1.46.96l.269.179a19.5,19.5,0,0,0,3.895,2.145,10.192,10.192,0,0,0,1.143.349c.187.042.38.082.57.119s.359.056.6.084a13.388,13.388,0,0,0,2.332.042,28.8,28.8,0,0,0,4.4-.7q2.121-.472,4.228-.994c2.795-.7,5.6-1.486,8.341-2.336,1.372-.421,2.755-.87,4.107-1.332.893-.3,1.775-.635,2.628-.963.47-.181.939-.361,1.418-.537a24.776,24.776,0,0,1,3.038-.941l.027.019.035-.035c.308-.075.612-.167.92-.23.2-.037.4-.064.6-.093.313.542.615,1.037.913,1.478a15.7,15.7,0,0,0,1.357,1.72c.525.58,1.076,1.138,1.626,1.7.456.463.913.924,1.361,1.407a14.254,14.254,0,0,1,2.4,3.239,8.057,8.057,0,0,1,.658,1.793,12.3,12.3,0,0,1,.278,1.93,27.319,27.319,0,0,1,0,3.986,37.111,37.111,0,0,1-.526,3.988c-.457,2.513-1.121,5.051-1.764,7.507l-.115.441a74.407,74.407,0,0,1-5.765,15.323c-1.2,2.4-2.552,4.847-4.013,7.28-.715,1.194-1.458,2.388-2.206,3.547q-.577.88-1.158,1.755c-.215.325-.436.647-.655.971a17.448,17.448,0,0,1-3.826.541l-.516.013c-.131,0-.263,0-.391-.009l-3.281-.235c-1.407-.149-2.827-.347-4.219-.593a63.963,63.963,0,0,1-8.245-2.042l-4.109-1.508c-.1-.041-.21-.083-.316-.132l-.83-.369c-.2-.09-.408-.18-.6-.27l-.587-.282c-.434-.207-.868-.416-1.3-.645-1.3-.65-2.572-1.377-3.659-2l-3.547-2.2c-2.393-1.544-4.7-3.2-6.841-4.756A104.491,104.491,0,0,1,16.006,41.583c-.242-.239-.478-.48-.714-.727l-1.009-1.044c-.374-.391-.743-.777-1.106-1.182-.982-1.062-1.906-2.138-2.679-3.05-.869-1.025-1.717-2.084-2.523-3.149s-1.585-2.18-2.293-3.282a30.8,30.8,0,0,1-3.429-7.015c-.231-.713-.4-1.3-.527-1.873-.059-.213-.1-.431-.144-.648l-.054-.277c-.063-.3-.106-.611-.142-.922l-.03-.268c-.027-.231-.053-.463-.075-.693-.03-.309-.046-.624-.051-.948M67.187,1.642a23.492,23.492,0,0,1,3.272.7,29.176,29.176,0,0,1,3.158,1.119c1.033.436,2.052.916,3.03,1.426.908.473,1.86,1.011,2.913,1.645.621.373,1.243.76,1.861,1.146-.133-.022-.266-.059-.4-.074a10.4,10.4,0,0,0-1.147-.066,13.119,13.119,0,0,0-2.25.21c-.237.041-.468.09-.689.139a23.978,23.978,0,0,0-3.248-2.59,22.155,22.155,0,0,0-4.072-2.139,17.746,17.746,0,0,0-4.583-1.136,14.535,14.535,0,0,0-2.4-.069,13.337,13.337,0,0,0-2.367.346,16.026,16.026,0,0,0-2.248.712l-.159.069c-.116.05-.23.1-.348.148s-.247.106-.366.164l-.183.087a10.97,10.97,0,0,0-1.01.573,10.2,10.2,0,0,0-2.3,1.978,12.214,12.214,0,0,1,1.2-1.313,10.612,10.612,0,0,1,1.235-.968l.864-.526c.166-.093.332-.184.515-.269a11.855,11.855,0,0,1,1.486-.61L59.08,2.3c.217-.07.436-.14.667-.2l.807-.2a18.422,18.422,0,0,1,6.633-.26M52.206,14.589c.011-.3.042-.6.08-.989l.064-.5c.012-.119.03-.234.047-.352l.019-.131c.054-.329.117-.657.184-.979a14.343,14.343,0,0,1,.547-1.891,13.472,13.472,0,0,1,.809-1.8,9.958,9.958,0,0,1,.512-.855,8.411,8.411,0,0,1,.6-.794,7.227,7.227,0,0,1,1.491-1.346,7.908,7.908,0,0,1,.883-.511l.171-.078c.105-.05.211-.1.319-.142l.5-.2a12.177,12.177,0,0,1,2.088-.536,15.69,15.69,0,0,1,2.16-.172,17.685,17.685,0,0,1,2.159.143,18.877,18.877,0,0,1,4.184,1.11,26.727,26.727,0,0,1,3.911,1.872c.652.364,1.3.778,1.837,1.134l.524.355c.123.082.249.166.374.256L75.7,8.2c-.778.214-1.553.448-2.308.719-.507.175-1.009.358-1.509.541-.825.3-1.678.609-2.524.874-1.358.425-2.734.839-4.109,1.233-2.73.781-5.53,1.5-8.321,2.134q-2.1.48-4.206.907l-.523.1Zm-.759-4.25c-.082.351-.156.7-.214,1.057a13.4,13.4,0,0,0-.1,3.506c-.165.028-.334.053-.5.079a17.8,17.8,0,0,1,.927-5.151c.037-.112.092-.216.133-.326-.1.292-.181.572-.243.835" transform="translate(0 0)" fill="#483c8c"/>
          <path id="Trazado_193190" data-name="Trazado 193190" d="M1.889,17.6c.029.2.066.407.1.609l.057.326a20.061,20.061,0,0,0,1.106,3.626A31.884,31.884,0,0,0,4.8,25.575c.526.96,1.139,2,1.93,3.258C7.4,29.9,8.069,30.965,8.749,32.021c.65,1.01,1.357,2.092,2.123,3.156a37.927,37.927,0,0,0,2.4,3.033,26.635,26.635,0,0,0,2.815,2.763,19.067,19.067,0,0,0,7.175,3.88,18.671,18.671,0,0,0,2.048.441,16.585,16.585,0,0,0,2.1.183l.32,0a15.384,15.384,0,0,0,1.79-.105,14.387,14.387,0,0,0,2.062-.4,13.77,13.77,0,0,0,3.769-1.659l1.1-.766c.186-.142.371-.285.536-.433a15.309,15.309,0,0,0,1.421-1.385,9.74,9.74,0,0,0,1.181-1.6,10.346,10.346,0,0,0,.827-1.767,14.485,14.485,0,0,0,.786-3.714,19.487,19.487,0,0,0-.064-3.763l-.3.034v-.007l.3-.033a22.669,22.669,0,0,0-.724-3.706,25.41,25.41,0,0,0-3.249-6.9,45.344,45.344,0,0,0-4.814-6.033c-.8-.86-1.691-1.765-2.72-2.765-.55-.531-1.013-.955-1.46-1.337-.55-.468-1.06-.877-1.556-1.244a25.982,25.982,0,0,0-7.149-3.854c-.223-.081-.452-.149-.682-.217l-.4-.117c-.317-.085-.631-.168-.945-.232a15.832,15.832,0,0,0-2.1-.336A16.335,16.335,0,0,0,13.2,3.081l-.234.016c-.279.018-.558.035-.828.077l-.179.021c-.119.014-.238.028-.35.049l-.515.09a13.844,13.844,0,0,0-2.04.558,11.7,11.7,0,0,0-1.93.862,9.624,9.624,0,0,0-3.054,2.75,11.494,11.494,0,0,0-1.695,3.517,13.776,13.776,0,0,0-.411,1.854,16.481,16.481,0,0,0-.2,1.958c-.011.294-.019.589-.012.885l.036.951Zm34.147,2.671c.121.177.24.355.349.538.068.118.142.235.215.351.091.144.183.288.266.438s.156.275.236.409.154.26.224.387l.431.811c.075.15.147.3.22.452l.181.373c.082.169.156.343.23.515l.136.312c.215.49.415,1.023.628,1.675a21.169,21.169,0,0,1,.806,3.487,18.18,18.18,0,0,1,.173,3.547l.189.01v.009l-.179-.008a12.727,12.727,0,0,1-.652,3.465A8.791,8.791,0,0,1,37.7,40.1a14.42,14.42,0,0,1-1.351,1.3c-.158.143-.331.273-.5.4l-1.01.695a12.222,12.222,0,0,1-3.519,1.473,13.477,13.477,0,0,1-1.915.321,14.015,14.015,0,0,1-1.947.045,15.332,15.332,0,0,1-1.931-.219,16.662,16.662,0,0,1-1.883-.461,18.43,18.43,0,0,1-1.8-.675c-.122-.053-.244-.113-.429-.2l-.133-.065c-.1-.045-.2-.092-.3-.147l-.42-.214-1.507-.911c-.168-.113-.337-.224-.5-.348l-.881-.667c-.08-.062-.161-.124-.24-.191l-.359-.3a33.405,33.405,0,0,1-5.027-5.543c-1.217-1.638-2.366-3.363-3.476-5.032l-.779-1.168c-.567-.86-1.3-2-1.981-3.163a28.557,28.557,0,0,1-1.639-3.273,17.682,17.682,0,0,1-1.053-3.405L3.06,18.02c-.032-.189-.065-.378-.089-.548L2.885,16.6l-.027-.911c-.006-.291.007-.585.022-.878A13.824,13.824,0,0,1,3.5,11.338,10.428,10.428,0,0,1,5.083,8.195a8.424,8.424,0,0,1,2.7-2.335A11.251,11.251,0,0,1,9.52,5.128a12.538,12.538,0,0,1,1.838-.476l.5-.081c.085-.015.173-.023.261-.032l.207-.022c.232-.029.467-.04.7-.051l.243-.013c.118,0,.235,0,.353,0a15.246,15.246,0,0,1,1.574.082,16.554,16.554,0,0,1,1.909.325c.206.042.409.1.61.152l.648.188c.194.06.389.12.583.191a24.357,24.357,0,0,1,6.694,3.68A30.938,30.938,0,0,1,28.5,11.534c.9.877,1.8,1.79,2.669,2.715.954,1.018,1.769,1.941,2.492,2.826.788.963,1.537,1.966,2.223,2.977Z" transform="translate(-0.199 -0.349)" fill="#483c8c"/>
        </g>
      </g>
    </g>
  </g>
</svg>
