<svg xmlns="http://www.w3.org/2000/svg" width="170" height="170" viewBox="0 0 170 170">
  <g id="Grupo_146956" data-name="Grupo 146956" transform="translate(-1026 -2945)">
    <circle id="Elipse_5478" data-name="Elipse 5478" cx="85" cy="85" r="85" transform="translate(1026 2945)" fill="#fff"/>
    <g id="esterilizacion" transform="translate(1029.75 2970.063)">
      <g id="Grupo_145667" data-name="Grupo 145667" transform="translate(19.64 19.639)">
        <rect id="Rect치ngulo_44558" data-name="Rect치ngulo 44558" width="122.908" height="77.637" rx="7.29" fill="#f18385"/>
        <path id="Trazado_194625" data-name="Trazado 194625" d="M43.921,75.849v28.774a9.68,9.68,0,0,0-13.861,0V75.849Z" transform="translate(-14.956 1.788)" fill="#f18385"/>
        <path id="Trazado_194626" data-name="Trazado 194626" d="M101.651,75.849v28.774a9.68,9.68,0,0,0-13.861,0V75.849Z" transform="translate(6.152 1.788)" fill="#f18385"/>
        <path id="Trazado_194627" data-name="Trazado 194627" d="M47.468,104.489A9.744,9.744,0,1,1,44.682,97.7a9.744,9.744,0,0,1,2.786,6.787Z" transform="translate(-15.717 8.709)" fill="#dfdad6"/>
        <path id="Trazado_194628" data-name="Trazado 194628" d="M105.176,104.489A9.721,9.721,0,1,1,102.4,97.7a9.721,9.721,0,0,1,2.772,6.787Z" transform="translate(5.4 8.709)" fill="#dfdad6"/>
        <path id="Trazado_194629" data-name="Trazado 194629" d="M40.21,83.494h64.977v9.381H40.21Z" transform="translate(-11.245 4.583)" fill="#b85456"/>
        <rect id="Rect치ngulo_44559" data-name="Rect치ngulo 44559" width="98.244" height="52.555" rx="3.634" transform="translate(12.332 12.38)" fill="#8ee5f6"/>
        <path id="Trazado_194630" data-name="Trazado 194630" d="M40.712,28.064h63.6v2.595a7.548,7.548,0,0,1-7.548,7.548H48.26a7.548,7.548,0,0,1-7.548-7.548V28.064Z" transform="translate(-11.061 -15.684)" fill="#b85456"/>
        <g id="Grupo_145666" data-name="Grupo 145666" transform="translate(29.651 33.083)">
          <path id="Trazado_194631" data-name="Trazado 194631" d="M58.972,56.3V47.306H48.73V56.3L40.712,73.584H66.99Z" transform="translate(-40.712 -41.731)" fill="#fff"/>
          <path id="Trazado_194632" data-name="Trazado 194632" d="M82.768,50.017V43.224H75.049v6.793l-3.359,4.1V75.076H86.128V54.114Z" transform="translate(-29.385 -43.224)" fill="#fff"/>
        </g>
      </g>
      <g id="Grupo_145668" data-name="Grupo 145668" transform="translate(17.25 17.25)">
        <path id="Trazado_194633" data-name="Trazado 194633" d="M132.592,17.25H74.129a2.39,2.39,0,0,0,0,4.78h58.463a7.574,7.574,0,0,1,7.566,7.566V87.321a7.575,7.575,0,0,1-7.566,7.567H29.6a7.575,7.575,0,0,1-7.566-7.567V29.6A7.574,7.574,0,0,1,29.6,22.03H41.681a2.39,2.39,0,1,0,0-4.78H29.6A12.359,12.359,0,0,0,17.25,29.6V87.321A12.36,12.36,0,0,0,29.6,99.666h2.759v25.477a11.978,11.978,0,0,0-2.772,7.694,12.1,12.1,0,1,0,24.2,0,11.977,11.977,0,0,0-2.786-7.7v-5.654h60.2v5.654a12.093,12.093,0,1,0,18.641,0v-9.2a2.39,2.39,0,0,0-4.78,0v5.68a12.1,12.1,0,0,0-9.082-.007V99.666h9.082V103.6a2.39,2.39,0,1,0,4.78,0V99.666h2.759A12.36,12.36,0,0,0,144.938,87.32V29.6A12.359,12.359,0,0,0,132.592,17.25ZM46.215,99.666v21.954a12.093,12.093,0,0,0-9.082,0V99.666Zm-4.534,40.491a7.32,7.32,0,1,1,7.32-7.32A7.328,7.328,0,0,1,41.681,140.158ZM51,114.709v-4.6h60.2v4.6Zm74.746,13.019a7.238,7.238,0,0,1,2.085,5.11,7.331,7.331,0,1,1-2.085-5.11Zm-14.548-22.4H51V99.666h60.2Z" transform="translate(-17.25 -17.25)" fill="#12263f"/>
        <path id="Trazado_194634" data-name="Trazado 194634" d="M47.015,22.03H49.61a2.39,2.39,0,1,0,0-4.78H47.015a2.39,2.39,0,0,0,0,4.78Z" transform="translate(-7.241 -17.25)" fill="#12263f"/>
        <path id="Trazado_194635" data-name="Trazado 194635" d="M26.28,33.669V76.3a7.362,7.362,0,0,0,7.354,7.354H121.95A7.362,7.362,0,0,0,129.3,76.3V33.669a7.362,7.362,0,0,0-7.354-7.354H33.634a7.362,7.362,0,0,0-7.354,7.354Zm23.452,45.2,6.443-13.89a2.406,2.406,0,0,0,.221-1.005v-6.6h5.463v6.6a2.412,2.412,0,0,0,.221,1.005l6.444,13.891Zm40.951,0V61.153L93.5,57.717a2.394,2.394,0,0,0,.546-1.516V51.8h2.939v4.4a2.387,2.387,0,0,0,.546,1.516l2.819,3.436V78.872Zm33.841-45.2V76.3a2.577,2.577,0,0,1-2.574,2.574H105.123V60.3a2.389,2.389,0,0,0-.546-1.516l-2.817-3.436V49.408a2.39,2.39,0,0,0-2.39-2.39H91.653a2.391,2.391,0,0,0-2.39,2.39v5.938l-2.817,3.436A2.4,2.4,0,0,0,85.9,60.3V78.872H73.793L66.64,63.447V54.98a2.39,2.39,0,0,0-2.39-2.39H54.008a2.39,2.39,0,0,0-2.39,2.39v8.467L44.462,78.872H33.634A2.577,2.577,0,0,1,31.06,76.3V33.669a2.578,2.578,0,0,1,2.574-2.574H43.6V31.3a9.95,9.95,0,0,0,9.938,9.938h48.506a9.95,9.95,0,0,0,9.938-9.938v-.209h9.969a2.578,2.578,0,0,1,2.57,2.574Zm-17.319-2.574V31.3a5.163,5.163,0,0,1-5.158,5.158H53.537A5.164,5.164,0,0,1,48.379,31.3v-.209Z" transform="translate(-13.948 -13.935)" fill="#12263f"/>
      </g>
    </g>
  </g>
</svg>
