<svg xmlns="http://www.w3.org/2000/svg" xmlns:xlink="http://www.w3.org/1999/xlink" width="189.819" height="184.819" viewBox="0 0 189.819 184.819">
  <defs>
    <linearGradient id="linear-gradient" x1="0.037" y1="0.968" x2="1.103" y2="0.023" gradientUnits="objectBoundingBox">
      <stop offset="0" stop-color="#d4d4d4"/>
      <stop offset="1" stop-color="#fff"/>
    </linearGradient>
    <linearGradient id="linear-gradient-2" x1="0.029" y1="0.973" x2="1.361" y2="-0.324" gradientUnits="objectBoundingBox">
      <stop offset="0" stop-color="#fff"/>
      <stop offset="1" stop-color="#fff"/>
    </linearGradient>
  </defs>
  <g id="Grupo_146959" data-name="Grupo 146959" transform="translate(-915 -3634)">
    <g id="Grupo_146648" data-name="Grupo 146648">
      <g id="Grupo_57022" data-name="Grupo 57022" transform="translate(1069.324 4897.525)">
        <rect id="Rectángulo_6318" data-name="Rectángulo 6318" width="189.819" height="184.819" rx="12" transform="translate(-154.324 -1263.525)" fill="url(#linear-gradient)"/>
        <rect id="Rectángulo_6319" data-name="Rectángulo 6319" width="175.106" height="170.106" rx="11.045" transform="translate(-146.968 -1256.169)" fill="url(#linear-gradient-2)"/>
      </g>
      <g id="Grupo_57034" data-name="Grupo 57034" transform="translate(617.166 4896.525)">
        <path id="Trazado_196786" data-name="Trazado 196786" d="M-26.437-4.746V0h-2.224V-12.8h4.9a4.95,4.95,0,0,1,3.406,1.117A3.757,3.757,0,0,1-19.1-8.723a3.633,3.633,0,0,1-1.235,2.93,5.19,5.19,0,0,1-3.458,1.047Zm0-1.793h2.672A2.632,2.632,0,0,0-21.955-7.1a2.051,2.051,0,0,0,.624-1.613,2.213,2.213,0,0,0-.633-1.657A2.439,2.439,0,0,0-23.7-11h-2.733Zm14.88,3.56h-4.957L-17.552,0h-2.312l4.834-12.8h2L-8.191,0h-2.32Zm-4.333-1.793h3.709l-1.854-5.309ZM-.053-3.3A1.545,1.545,0,0,0-.646-4.6a7.138,7.138,0,0,0-2.14-.923A10.335,10.335,0,0,1-5.247-6.557,3.284,3.284,0,0,1-7-9.422a3.118,3.118,0,0,1,1.261-2.549,5.1,5.1,0,0,1,3.274-1,5.53,5.53,0,0,1,2.382.492,3.909,3.909,0,0,1,1.644,1.4,3.6,3.6,0,0,1,.6,2.017H-.053A2.005,2.005,0,0,0-.681-10.63a2.594,2.594,0,0,0-1.8-.567,2.709,2.709,0,0,0-1.692.466,1.551,1.551,0,0,0-.6,1.3,1.4,1.4,0,0,0,.65,1.173,7.493,7.493,0,0,0,2.145.914,9.865,9.865,0,0,1,2.4,1.011,3.816,3.816,0,0,1,1.327,1.3,3.388,3.388,0,0,1,.422,1.718A3.045,3.045,0,0,1,.945-.769,5.318,5.318,0,0,1-2.382.176,6.251,6.251,0,0,1-4.935-.338,4.289,4.289,0,0,1-6.746-1.758a3.537,3.537,0,0,1-.646-2.109h2.224A2.07,2.07,0,0,0-4.447-2.18a3.156,3.156,0,0,0,2.065.6,2.742,2.742,0,0,0,1.745-.47A1.517,1.517,0,0,0-.053-3.3ZM14.335-6.064a7.851,7.851,0,0,1-.65,3.3,4.918,4.918,0,0,1-1.859,2.18,5.113,5.113,0,0,1-2.782.76,5.125,5.125,0,0,1-2.773-.76A4.993,4.993,0,0,1,4.39-2.751a7.606,7.606,0,0,1-.672-3.243v-.721a7.784,7.784,0,0,1,.664-3.3,4.987,4.987,0,0,1,1.872-2.193,5.1,5.1,0,0,1,2.773-.76,5.142,5.142,0,0,1,2.773.751,4.924,4.924,0,0,1,1.868,2.162,7.767,7.767,0,0,1,.668,3.283Zm-2.224-.668a5.594,5.594,0,0,0-.8-3.261,2.631,2.631,0,0,0-2.281-1.134A2.623,2.623,0,0,0,6.772-10,5.486,5.486,0,0,0,5.941-6.8v.738A5.552,5.552,0,0,0,6.763-2.8,2.646,2.646,0,0,0,9.044-1.652a2.615,2.615,0,0,0,2.272-1.125,5.671,5.671,0,0,0,.8-3.287Zm11.048-.642h1.3a2.328,2.328,0,0,0,1.56-.51,1.819,1.819,0,0,0,.576-1.45,1.982,1.982,0,0,0-.479-1.419,1.928,1.928,0,0,0-1.463-.505,2.039,2.039,0,0,0-1.415.5,1.659,1.659,0,0,0-.554,1.3H20.549a3.233,3.233,0,0,1,.523-1.793,3.513,3.513,0,0,1,1.459-1.261,4.753,4.753,0,0,1,2.1-.453,4.4,4.4,0,0,1,3.01.962,3.377,3.377,0,0,1,1.094,2.676,2.719,2.719,0,0,1-.549,1.622,3.445,3.445,0,0,1-1.419,1.147,3.14,3.14,0,0,1,1.6,1.134,3.1,3.1,0,0,1,.549,1.846A3.437,3.437,0,0,1,27.734-.844,4.59,4.59,0,0,1,24.627.176,4.555,4.555,0,0,1,21.6-.809a3.242,3.242,0,0,1-1.178-2.619h2.136a1.787,1.787,0,0,0,.567,1.371,2.15,2.15,0,0,0,1.525.527,2.217,2.217,0,0,0,1.564-.527,1.978,1.978,0,0,0,.571-1.529,2,2,0,0,0-.6-1.556,2.555,2.555,0,0,0-1.775-.545H23.159Z" transform="translate(392.653 -1116.374)" fill="#12263f"/>
        <rect id="Rectángulo_6327" data-name="Rectángulo 6327" width="48.945" height="1.512" transform="translate(368.181 -1141.378)" fill="#00357b"/>
      </g>
      <g id="outline" transform="translate(960.871 3655)">
        <path id="Trazado_195245" data-name="Trazado 195245" d="M245.13,289.1a1.1,1.1,0,0,0-2.2,0,1.963,1.963,0,0,1-.691,1.477,4.085,4.085,0,0,0,0,5.856,1.963,1.963,0,0,1,.691,1.477,1.1,1.1,0,0,0,2.2,0,4.089,4.089,0,0,0-1.236-2.928,1.924,1.924,0,0,1,0-2.955A4.089,4.089,0,0,0,245.13,289.1Z" transform="translate(-194.026 -237.334)" fill="#483c8c"/>
        <path id="Trazado_195246" data-name="Trazado 195246" d="M293.13,289.1a1.1,1.1,0,0,0-2.2,0,1.963,1.963,0,0,1-.691,1.477,4.085,4.085,0,0,0,0,5.856,1.964,1.964,0,0,1,.691,1.477,1.1,1.1,0,0,0,2.2,0,4.089,4.089,0,0,0-1.236-2.928,1.924,1.924,0,0,1,0-2.955A4.089,4.089,0,0,0,293.13,289.1Z" transform="translate(-235.419 -237.334)" fill="#483c8c"/>
        <path id="Trazado_195247" data-name="Trazado 195247" d="M197.13,289.1a1.1,1.1,0,0,0-2.2,0,1.963,1.963,0,0,1-.691,1.477,4.085,4.085,0,0,0,0,5.856,1.963,1.963,0,0,1,.691,1.477,1.1,1.1,0,0,0,2.2,0,4.089,4.089,0,0,0-1.236-2.928,1.924,1.924,0,0,1,0-2.955A4.089,4.089,0,0,0,197.13,289.1Z" transform="translate(-152.634 -237.334)" fill="#483c8c"/>
        <path id="Trazado_195248" data-name="Trazado 195248" d="M115.76,144H65.1a1.1,1.1,0,0,0-1.1,1.1v39.646a1.1,1.1,0,0,0,1.1,1.1H115.76a1.1,1.1,0,0,0,1.1-1.1V145.1A1.1,1.1,0,0,0,115.76,144Zm-1.1,39.646H66.2V146.2h48.456Z" transform="translate(-41.392 -110.38)" fill="#483c8c"/>
        <path id="Trazado_195249" data-name="Trazado 195249" d="M76.02,16H22.057A6.064,6.064,0,0,0,16,22.057V76.02a6.064,6.064,0,0,0,6.057,6.057H76.02a6.064,6.064,0,0,0,6.057-6.057V22.057A6.064,6.064,0,0,0,76.02,16ZM18.2,22.057A3.859,3.859,0,0,1,22.057,18.2H76.02a3.859,3.859,0,0,1,3.854,3.854v4.956H18.2ZM76.02,79.874H22.057A3.859,3.859,0,0,1,18.2,76.02v-46.8H79.874v46.8a3.859,3.859,0,0,1-3.854,3.854Z" transform="translate(0 0)" fill="#483c8c"/>
        <path id="Trazado_195250" data-name="Trazado 195250" d="M208.519,40H193.1a1.1,1.1,0,0,0-1.1,1.1v4.405a1.1,1.1,0,0,0,1.1,1.1h15.418a1.1,1.1,0,0,0,1.1-1.1V41.1A1.1,1.1,0,0,0,208.519,40Zm-1.1,4.405H194.2V42.2h13.215Z" transform="translate(-151.772 -20.696)" fill="#483c8c"/>
        <path id="Trazado_195251" data-name="Trazado 195251" d="M99.31,187.013h37.444a3.3,3.3,0,0,0,1.1-6.418V177.1a1.1,1.1,0,0,0-1.1-1.1h-4.405a1.1,1.1,0,0,0-1.1,1.1v3.3H104.817v-3.3a1.1,1.1,0,0,0-1.1-1.1H99.31a1.1,1.1,0,0,0-1.1,1.1v3.493a3.3,3.3,0,0,0,1.1,6.418Zm34.14-8.81h2.2v2.2h-2.2Zm-33.038,0h2.2v2.2h-2.2Zm-1.1,4.405h37.444a1.1,1.1,0,0,1,0,2.2H99.31a1.1,1.1,0,0,1,0-2.2Z" transform="translate(-68.994 -137.974)" fill="#483c8c"/>
        <path id="Trazado_195256" data-name="Trazado 195256" d="M99.31,187.013h37.444a3.3,3.3,0,0,0,1.1-6.418V177.1a1.1,1.1,0,0,0-1.1-1.1h-4.405a1.1,1.1,0,0,0-1.1,1.1v3.3H104.817v-3.3a1.1,1.1,0,0,0-1.1-1.1H99.31a1.1,1.1,0,0,0-1.1,1.1v3.493a3.3,3.3,0,0,0,1.1,6.418Zm34.14-8.81h2.2v2.2h-2.2Zm-33.038,0h2.2v2.2h-2.2Zm-1.1,4.405h37.444a1.1,1.1,0,0,1,0,2.2H99.31a1.1,1.1,0,0,1,0-2.2Z" transform="translate(-68.994 -116.682)" fill="#483c8c"/>
        <path id="Trazado_195252" data-name="Trazado 195252" d="M131.3,40a3.3,3.3,0,1,0,3.3,3.3A3.3,3.3,0,0,0,131.3,40Zm0,4.405a1.1,1.1,0,1,1,1.1-1.1,1.1,1.1,0,0,1-1.1,1.1Z" transform="translate(-96.582 -20.696)" fill="#483c8c"/>
        <path id="Trazado_195253" data-name="Trazado 195253" d="M67.3,40a3.3,3.3,0,1,0,3.3,3.3A3.3,3.3,0,0,0,67.3,40Zm0,4.405a1.1,1.1,0,1,1,1.1-1.1,1.1,1.1,0,0,1-1.1,1.1Z" transform="translate(-41.392 -20.696)" fill="#483c8c"/>
        <path id="Trazado_195254" data-name="Trazado 195254" d="M403.3,40a3.3,3.3,0,1,0,3.3,3.3A3.3,3.3,0,0,0,403.3,40Zm0,4.405a1.1,1.1,0,1,1,1.1-1.1,1.1,1.1,0,0,1-1.1,1.1Z" transform="translate(-331.138 -20.696)" fill="#483c8c"/>
        <path id="Trazado_195255" data-name="Trazado 195255" d="M339.3,40a3.3,3.3,0,1,0,3.3,3.3A3.3,3.3,0,0,0,339.3,40Zm0,4.405a1.1,1.1,0,1,1,1.1-1.1,1.1,1.1,0,0,1-1.1,1.1Z" transform="translate(-275.949 -20.696)" fill="#483c8c"/>
      </g>
    </g>
  </g>
</svg>
