<svg xmlns="http://www.w3.org/2000/svg" width="29.173" height="37.547" viewBox="0 0 29.173 37.547">
  <path id="Trazado_194893" data-name="Trazado 194893" d="M451.5,165.547V130h10.937a16.608,16.608,0,0,1,8.386,2.112,14.724,14.724,0,0,1,5.774,6.006,18.53,18.53,0,0,1,2.076,8.85V148.6a18.571,18.571,0,0,1-2.039,8.813,14.6,14.6,0,0,1-5.749,5.982,16.727,16.727,0,0,1-8.374,2.148Zm7.324-29.614v23.73h3.54a7.952,7.952,0,0,0,6.567-2.807q2.271-2.807,2.32-8.032v-1.88q0-5.421-2.246-8.215a7.928,7.928,0,0,0-6.568-2.8Z" transform="translate(-450.504 -129)" fill="none" stroke="#5e8cd2" stroke-linecap="round" stroke-linejoin="round" stroke-width="2"/>
</svg>
