<svg xmlns="http://www.w3.org/2000/svg" width="170" height="170" viewBox="0 0 170 170">
  <g id="Grupo_146746" data-name="Grupo 146746" transform="translate(-406 -2542)">
    <circle id="Elipse_5508" data-name="Elipse 5508" cx="85" cy="85" r="85" transform="translate(406 2542)" fill="#fff"/>
    <g id="lista-de-verificacion" transform="translate(443 2567.001)">
      <path id="Trazado_195764" data-name="Trazado 195764" d="M15.629,10H94.439a5.63,5.63,0,0,1,5.629,5.629V119.77a5.63,5.63,0,0,1-5.629,5.629H15.629A5.63,5.63,0,0,1,10,119.77V15.629A5.63,5.63,0,0,1,15.629,10Zm0,0" transform="translate(-7.655 -7.655)" fill="#f18385"/>
      <path id="Trazado_195765" data-name="Trazado 195765" d="M104.025,50H121.3v96.635H50V50H67.279" transform="translate(-38.273 -38.273)" fill="#fff"/>
      <path id="Trazado_195766" data-name="Trazado 195766" d="M131.816,26.888h25.292a4.984,4.984,0,0,0,4.984-4.984V10H126.832V21.9A4.985,4.985,0,0,0,131.816,26.888Zm0,0" transform="translate(-97.084 -7.655)" fill="#ff6977"/>
      <path id="Trazado_195767" data-name="Trazado 195767" d="M131.816,26.888h25.292a4.984,4.984,0,0,0,4.984-4.984V10H126.832V21.9A4.985,4.985,0,0,0,131.816,26.888Zm0,0" transform="translate(-97.084 -7.655)" fill="#bdd9ff"/>
      <path id="Trazado_195768" data-name="Trazado 195768" d="M316.706,164.944l27.482-27.482a6.2,6.2,0,0,1,8.773,8.773l-27.482,27.482-15.814,7.04Zm0,0" transform="translate(-237.032 -103.83)" fill="#ffc15a"/>
      <path id="Trazado_195769" data-name="Trazado 195769" d="M325.478,269.331l-8.773-8.773-7.041,15.813Zm0,0" transform="translate(-237.032 -199.445)" fill="#98a1b3"/>
      <path id="Trazado_195770" data-name="Trazado 195770" d="M452.765,149.25l3.016-3.016a6.2,6.2,0,0,0-8.773-8.773l-3.016,3.015Zm0,0" transform="translate(-339.854 -103.829)" fill="#ff6977"/>
      <path id="Trazado_195771" data-name="Trazado 195771" d="M98,130h15.011v15.011H98Zm0,0" transform="translate(-75.014 -99.509)" fill="#8ee5f6"/>
      <path id="Trazado_195772" data-name="Trazado 195772" d="M98,240h15.011v15.011H98Zm0,0" transform="translate(-75.014 -183.708)" fill="#8ee5f6"/>
      <path id="Trazado_195773" data-name="Trazado 195773" d="M98,350h15.011v15.011H98Zm0,0" transform="translate(-75.014 -267.907)" fill="#ff6977"/>
      <path id="Trazado_195774" data-name="Trazado 195774" d="M194.346,452a2.346,2.346,0,1,0,1.658.687A2.364,2.364,0,0,0,194.346,452Zm0,0" transform="translate(-146.966 -345.983)"/>
      <path id="Trazado_195775" data-name="Trazado 195775" d="M117.586,31.974a8.558,8.558,0,0,0-12.09,0L94.759,42.712V7.974A7.984,7.984,0,0,0,86.784,0H7.974A7.984,7.984,0,0,0,0,7.974V112.115a7.984,7.984,0,0,0,7.975,7.975H86.784a7.984,7.984,0,0,0,7.975-7.975V66.891l22.828-22.828a8.558,8.558,0,0,0,0-12.09Zm-27.519-24V47.4l-4.691,4.691V11.727a2.345,2.345,0,0,0-2.346-2.346H67.356V4.691H86.784a3.288,3.288,0,0,1,3.284,3.284ZM77.261,72.3l3.166-7.114,3.947,3.947ZM62.664,4.69v9.558a2.642,2.642,0,0,1-2.639,2.639H34.733a2.642,2.642,0,0,1-2.639-2.639V4.69ZM86.784,115.4H7.975a3.288,3.288,0,0,1-3.284-3.284V7.974A3.288,3.288,0,0,1,7.975,4.69H27.4V9.382H11.727a2.345,2.345,0,0,0-2.346,2.346v96.635a2.345,2.345,0,0,0,2.346,2.346H38a2.346,2.346,0,1,0,0-4.691H14.073V14.073H27.4v.176a7.338,7.338,0,0,0,7.33,7.33H60.026a7.338,7.338,0,0,0,7.33-7.33v-.176h13.33V56.785l-2.672,2.671a2.373,2.373,0,0,0-.484.7L70.49,75.973a2.346,2.346,0,0,0,3.1,3.1l7.1-3.161v30.107H56.761a2.346,2.346,0,1,0,0,4.691h26.27a2.346,2.346,0,0,0,2.346-2.346V73.821L89.4,72.03a2.338,2.338,0,0,0,.668-.451v40.536a3.288,3.288,0,0,1-3.284,3.284Zm18.743-65.911L88.446,66.57,82.99,61.114l21.149-21.149,5.456,5.456Zm8.743-8.742L112.912,42.1l-5.455-5.455,1.357-1.357a3.858,3.858,0,1,1,5.456,5.455Zm0,0" transform="translate(0 0)"/>
      <path id="Trazado_195776" data-name="Trazado 195776" d="M105.357,120H90.346A2.345,2.345,0,0,0,88,122.346v15.011a2.345,2.345,0,0,0,2.346,2.346h15.011a2.345,2.345,0,0,0,2.346-2.346V122.346A2.345,2.345,0,0,0,105.357,120Zm-2.346,15.011H92.691v-10.32h10.32Zm0,0" transform="translate(-67.36 -91.854)"/>
      <path id="Trazado_195777" data-name="Trazado 195777" d="M105.357,230H90.346A2.345,2.345,0,0,0,88,232.346v15.011a2.345,2.345,0,0,0,2.346,2.346h15.011a2.345,2.345,0,0,0,2.346-2.346V232.346A2.345,2.345,0,0,0,105.357,230Zm-2.346,15.011H92.691v-10.32h10.32Zm0,0" transform="translate(-67.36 -176.054)"/>
      <path id="Trazado_195778" data-name="Trazado 195778" d="M105.357,340H90.346A2.345,2.345,0,0,0,88,342.346v15.011a2.345,2.345,0,0,0,2.346,2.345h15.011a2.345,2.345,0,0,0,2.346-2.345V342.346A2.345,2.345,0,0,0,105.357,340Zm-2.346,15.011H92.691v-10.32h10.32Zm0,0" transform="translate(-67.36 -260.253)"/>
      <path id="Trazado_195779" data-name="Trazado 195779" d="M214.307,144.02a2.345,2.345,0,0,0,3.317,0l10.59-10.59a2.346,2.346,0,0,0-3.318-3.317l-8.93,8.93-3.56-3.56a2.346,2.346,0,0,0-3.318,3.317Zm0,0" transform="translate(-159.521 -99.07)"/>
      <path id="Trazado_195780" data-name="Trazado 195780" d="M214.307,254.022a2.345,2.345,0,0,0,3.317,0l10.59-10.589a2.346,2.346,0,0,0-3.318-3.318l-8.93,8.931-3.56-3.56a2.346,2.346,0,0,0-3.318,3.317Zm0,0" transform="translate(-159.521 -183.271)"/>
      <path id="Trazado_195781" data-name="Trazado 195781" d="M227.166,360.384l3.636,3.636a2.345,2.345,0,1,0,3.317-3.317l-3.636-3.636,3.636-3.636a2.345,2.345,0,0,0-3.317-3.317l-3.636,3.636-3.636-3.636a2.346,2.346,0,0,0-3.318,3.317l3.636,3.636-3.636,3.636a2.346,2.346,0,0,0,3.318,3.317Zm0,0" transform="translate(-168.037 -267.468)"/>
    </g>
  </g>
</svg>
