<svg xmlns="http://www.w3.org/2000/svg" width="170" height="170" viewBox="0 0 170 170">
  <g id="Grupo_146745" data-name="Grupo 146745" transform="translate(-1026 -2542)">
    <circle id="Elipse_5507" data-name="Elipse 5507" cx="85" cy="85" r="85" transform="translate(1026 2542)" fill="#fff"/>
    <g id="_15._Garbage_Truck" data-name="15. Garbage Truck" transform="translate(1041 2510.453)">
      <path id="Trazado_195782" data-name="Trazado 195782" d="M364.547,171.031v28.463H312V136h32.324a4.379,4.379,0,0,1,3.917,2.42Z" transform="translate(-226.612 -52.295)" fill="#b1da7a"/>
      <path id="Trazado_195783" data-name="Trazado 195783" d="M312,344h52.547v6.568H312Z" transform="translate(-226.612 -203.369)" fill="#96bf5b"/>
      <path id="Trazado_195784" data-name="Trazado 195784" d="M358.736,195.873H306.189A2.189,2.189,0,0,1,304,193.683V130.189A2.189,2.189,0,0,1,306.189,128h13.137a2.189,2.189,0,1,1,0,4.379H308.379v59.115h48.168V165.738l-16.073-32.149a2.189,2.189,0,0,0-1.96-1.21h-10.43a2.189,2.189,0,1,1,0-4.379h10.43a6.53,6.53,0,0,1,5.876,3.632L360.7,164.241a2.211,2.211,0,0,1,.23.98v28.463a2.189,2.189,0,0,1-2.189,2.189Z" transform="translate(-220.801 -46.484)"/>
      <path id="Trazado_195785" data-name="Trazado 195785" d="M8,312H91.2v15.326H8Z" transform="translate(-5.811 -180.127)" fill="#b1da7a"/>
      <path id="Trazado_195786" data-name="Trazado 195786" d="M8,344H91.2v6.568H8Z" transform="translate(-5.811 -203.369)" fill="#96bf5b"/>
      <path id="Trazado_195787" data-name="Trazado 195787" d="M85.388,323.7H2.189a2.189,2.189,0,0,1,0-4.379H83.2V308.379H4.379v4.379a2.189,2.189,0,1,1-4.379,0v-6.568A2.189,2.189,0,0,1,2.189,304h83.2a2.189,2.189,0,0,1,2.189,2.189v15.326A2.189,2.189,0,0,1,85.388,323.7Z" transform="translate(0 -174.317)"/>
      <path id="Trazado_195788" data-name="Trazado 195788" d="M127.578,101.137V88H55.326L40,149.3h74.441V101.137Z" transform="translate(-29.053 -17.432)" fill="#b1da7a"/>
      <path id="Trazado_195789" data-name="Trazado 195789" d="M108.631,145.683H34.19a2.189,2.189,0,0,1-2.124-2.72l15.326-61.3A2.189,2.189,0,0,1,49.516,80h72.252a2.189,2.189,0,0,1,2.189,2.189V95.326a2.189,2.189,0,0,1-2.189,2.189H110.821v45.978A2.189,2.189,0,0,1,108.631,145.683ZM37,141.3h69.446V95.326a2.189,2.189,0,0,1,2.189-2.189h10.947V84.379H51.227Z" transform="translate(-23.243 -11.621)"/>
      <path id="Trazado_195790" data-name="Trazado 195790" d="M32.084,88A24.084,24.084,0,0,0,8,112.084V149.3h8.758Z" transform="translate(-5.811 -17.432)" fill="#e9a648"/>
      <path id="Trazado_195791" data-name="Trazado 195791" d="M10.947,145.683H2.189A2.189,2.189,0,0,1,0,143.494V106.273A26.3,26.3,0,0,1,26.273,80,2.189,2.189,0,0,1,28.4,82.72l-15.326,61.3A2.189,2.189,0,0,1,10.947,145.683ZM4.379,141.3H9.237L23.422,84.562A21.933,21.933,0,0,0,4.379,106.273Z" transform="translate(0 -11.621)"/>
      <path id="Trazado_195792" data-name="Trazado 195792" d="M416.842,194.273H384V168H403.7Z" transform="translate(-278.907 -75.537)" fill="#a8edfd"/>
      <path id="Trazado_195793" data-name="Trazado 195793" d="M411.031,190.652H378.189A2.189,2.189,0,0,1,376,188.463V162.189A2.189,2.189,0,0,1,378.189,160h19.7a2.189,2.189,0,0,1,1.96,1.21l13.137,26.273a2.189,2.189,0,0,1-1.96,3.169Zm-30.652-4.379H407.49l-10.947-21.894H380.379Z" transform="translate(-273.096 -69.727)"/>
      <path id="Trazado_195794" data-name="Trazado 195794" d="M8,368H143.746v8.758H8Z" transform="translate(-5.811 -220.801)" fill="#dcdcdc"/>
      <path id="Trazado_195795" data-name="Trazado 195795" d="M137.935,373.137H2.189A2.189,2.189,0,0,1,0,370.947v-8.758A2.189,2.189,0,0,1,2.189,360H137.935a2.189,2.189,0,0,1,2.189,2.189v8.758A2.189,2.189,0,0,1,137.935,373.137ZM4.379,368.758H135.746v-4.379H4.379Z" transform="translate(0 -214.991)"/>
      <circle id="Elipse_5510" data-name="Elipse 5510" cx="13.137" cy="13.137" r="13.137" transform="translate(13.137 140.631)" fill="#596060"/>
      <path id="Trazado_195796" data-name="Trazado 195796" d="M61.142,389.852A13.137,13.137,0,0,1,48.418,380a13.137,13.137,0,1,0,25.452,0A13.137,13.137,0,0,1,61.142,389.852Z" transform="translate(-34.869 -229.517)" fill="#4c5657"/>
      <path id="Trazado_195797" data-name="Trazado 195797" d="M55.326,366.652a15.326,15.326,0,1,1,15.326-15.326,15.326,15.326,0,0,1-15.326,15.326Zm0-26.273a10.947,10.947,0,1,0,10.947,10.947A10.947,10.947,0,0,0,55.326,340.379Z" transform="translate(-29.053 -197.559)"/>
      <circle id="Elipse_5511" data-name="Elipse 5511" cx="4.379" cy="4.379" r="4.379" transform="translate(21.894 149.388)" fill="#dcdcdc"/>
      <path id="Trazado_195798" data-name="Trazado 195798" d="M78.568,381.137a6.568,6.568,0,1,1,6.568-6.568A6.568,6.568,0,0,1,78.568,381.137Zm0-8.758a2.189,2.189,0,1,0,2.189,2.189A2.189,2.189,0,0,0,78.568,372.379Z" transform="translate(-52.295 -220.801)"/>
      <circle id="Elipse_5512" data-name="Elipse 5512" cx="13.137" cy="13.137" r="13.137" transform="translate(96.336 140.631)" fill="#596060"/>
      <path id="Trazado_195799" data-name="Trazado 195799" d="M365.142,389.852A13.137,13.137,0,0,1,352.418,380a13.137,13.137,0,1,0,25.452,0,13.137,13.137,0,0,1-12.729,9.853Z" transform="translate(-255.67 -229.517)" fill="#4c5657"/>
      <path id="Trazado_195800" data-name="Trazado 195800" d="M359.326,366.652a15.326,15.326,0,1,1,15.326-15.326A15.326,15.326,0,0,1,359.326,366.652Zm0-26.273a10.947,10.947,0,1,0,10.947,10.947A10.947,10.947,0,0,0,359.326,340.379Z" transform="translate(-249.854 -197.559)"/>
      <circle id="Elipse_5513" data-name="Elipse 5513" cx="4.379" cy="4.379" r="4.379" transform="translate(105.093 149.388)" fill="#dcdcdc"/>
      <path id="Trazado_195801" data-name="Trazado 195801" d="M382.568,381.137a6.568,6.568,0,1,1,6.568-6.568A6.568,6.568,0,0,1,382.568,381.137Zm0-8.758a2.189,2.189,0,1,0,2.189,2.189A2.189,2.189,0,0,0,382.568,372.379Z" transform="translate(-273.096 -220.801)"/>
      <path id="Trazado_195802" data-name="Trazado 195802" d="M461.474,306.947h7.663V296h-7.663a5.474,5.474,0,1,0,0,10.947Z" transform="translate(-331.202 -168.506)" fill="#f6f6f6"/>
      <path id="Trazado_195803" data-name="Trazado 195803" d="M463.326,303.326h-7.663a7.663,7.663,0,0,1,0-15.326h7.663a2.189,2.189,0,0,1,2.189,2.189v10.947A2.189,2.189,0,0,1,463.326,303.326Zm-7.663-10.947a3.284,3.284,0,0,0,0,6.568h5.474v-6.568Z" transform="translate(-325.391 -162.696)"/>
      <path id="Trazado_195804" data-name="Trazado 195804" d="M382.568,292.379h-4.379a2.189,2.189,0,1,1,0-4.379h4.379a2.189,2.189,0,1,1,0,4.379Z" transform="translate(-273.096 -162.696)"/>
      <path id="Trazado_195805" data-name="Trazado 195805" d="M133.15,229.452H122.2a2.189,2.189,0,0,1-1.891-3.284l5.11-8.758A2.189,2.189,0,0,1,129.2,219.6l-3.188,5.474h7.135a2.189,2.189,0,0,1,0,4.379Z" transform="translate(-87.172 -110.715)"/>
      <path id="Trazado_195806" data-name="Trazado 195806" d="M169.556,165.159a2.189,2.189,0,0,1-1.891-1.095l-3.218-5.506-3.218,5.506a2.189,2.189,0,1,1-3.782-2.189l5.11-8.758a2.189,2.189,0,0,1,3.782,0l5.11,8.758a2.189,2.189,0,0,1-1.891,3.284Z" transform="translate(-114.089 -63.939)"/>
      <path id="Trazado_195807" data-name="Trazado 195807" d="M205.137,228.821H194.189a2.189,2.189,0,0,1,0-4.379h7.135l-3.188-5.474a2.189,2.189,0,1,1,3.782-2.189l5.11,8.758a2.189,2.189,0,0,1-1.891,3.284Z" transform="translate(-139.453 -110.085)"/>
      <path id="Trazado_195808" data-name="Trazado 195808" d="M314.189,72.758A2.189,2.189,0,0,1,312,70.568V66.189a2.189,2.189,0,1,1,4.379,0v4.379A2.189,2.189,0,0,1,314.189,72.758Z" transform="translate(-226.612)"/>
      <path id="Trazado_195809" data-name="Trazado 195809" d="M282.189,72.758A2.189,2.189,0,0,1,280,70.568V66.189a2.189,2.189,0,1,1,4.379,0v4.379A2.189,2.189,0,0,1,282.189,72.758Z" transform="translate(-203.369)"/>
      <path id="Trazado_195810" data-name="Trazado 195810" d="M250.189,72.758A2.189,2.189,0,0,1,248,70.568V66.189a2.189,2.189,0,1,1,4.379,0v4.379A2.189,2.189,0,0,1,250.189,72.758Z" transform="translate(-180.127)"/>
    </g>
  </g>
</svg>
