<svg xmlns="http://www.w3.org/2000/svg" width="297.744" height="113.59" viewBox="0 0 297.744 113.59">
  <g id="Grupo_146751" data-name="Grupo 146751" transform="translate(-283.5 -3185.41)">
    <path id="Trazado_195812" data-name="Trazado 195812" d="M8592-8420h293.744" transform="translate(-8306.5 11717)" fill="none" stroke="#483c8c" stroke-linecap="round" stroke-width="4"/>
    <g id="Grupo_146750" data-name="Grupo 146750" transform="translate(7.857 11.41)">
      <g id="_x32_2_Trash_bin" transform="translate(391.96 3174)">
        <g id="Trash_bin_2_" transform="translate(0 0)">
          <g id="Trash_bin_1_" transform="translate(1.981 1.981)">
            <path id="Trazado_195825" data-name="Trazado 195825" d="M171,131v83.211h44.908V131Z" transform="translate(-129.394 -109.207)" fill="#60d243"/>
            <path id="Trazado_195826" data-name="Trazado 195826" d="M171,173.5v42.266h23.352c5.785,0,10.461-4.412,10.461-9.853V178.44a5.1,5.1,0,0,0-5.23-4.94Z" transform="translate(-129.394 -140.48)" fill="#88dd72"/>
            <path id="Trazado_195827" data-name="Trazado 195827" d="M186,76.237h36.983V57.746a9.256,9.256,0,0,0-9.246-9.246H195.246A9.256,9.256,0,0,0,186,57.746Z" transform="translate(-140.432 -48.5)" fill="#2a950f"/>
            <path id="Trazado_195828" data-name="Trazado 195828" d="M186,72.275h18.491a9.256,9.256,0,0,0,9.246-9.246V48.5H195.246A9.256,9.256,0,0,0,186,57.746Z" transform="translate(-140.432 -48.5)" fill="#38c714"/>
            <path id="Trazado_195829" data-name="Trazado 195829" d="M234.868,66.991h-9.246A4.611,4.611,0,0,1,221,62.369V48.5h18.491V62.369A4.611,4.611,0,0,1,234.868,66.991Z" transform="translate(-166.186 -48.5)" fill="#1c640a"/>
            <path id="Trazado_195830" data-name="Trazado 195830" d="M243.406,63.029h-7.925a2,2,0,0,1-1.981-1.981V48.5h11.887V61.048A2,2,0,0,1,243.406,63.029Z" transform="translate(-175.384 -48.5)" fill="#2a950f"/>
            <path id="Trazado_195831" data-name="Trazado 195831" d="M326,131v83.211h36.983V131Z" transform="translate(-243.449 -109.207)" fill="#c0f6ff"/>
            <path id="Trazado_195832" data-name="Trazado 195832" d="M326,173.5v42.266h20.6c5.1,0,9.246-4.412,9.246-9.853V178.44a4.788,4.788,0,0,0-4.623-4.94Z" transform="translate(-243.449 -140.48)" fill="#e0f4ff"/>
            <path id="Trazado_195833" data-name="Trazado 195833" d="M326,76.237h36.983V57.746a9.256,9.256,0,0,0-9.246-9.246H335.246A9.256,9.256,0,0,0,326,57.746Z" transform="translate(-243.449 -48.5)" fill="#75eeff"/>
            <path id="Trazado_195834" data-name="Trazado 195834" d="M326,72.275h18.491a9.256,9.256,0,0,0,9.246-9.246V48.5H335.246A9.256,9.256,0,0,0,326,57.746Z" transform="translate(-243.449 -48.5)" fill="#0cf"/>
            <path id="Trazado_195835" data-name="Trazado 195835" d="M374.868,66.991h-9.246A4.611,4.611,0,0,1,361,62.369V48.5h18.491V62.369A4.611,4.611,0,0,1,374.868,66.991Z" transform="translate(-269.204 -48.5)" fill="#27aae1"/>
            <path id="Trazado_195836" data-name="Trazado 195836" d="M383.406,63.029h-7.925a2,2,0,0,1-1.981-1.981V48.5h11.887V61.048A2,2,0,0,1,383.406,63.029Z" transform="translate(-278.402 -48.5)" fill="#0cf"/>
            <path id="Trazado_195837" data-name="Trazado 195837" d="M46,131v83.211H82.983V131Z" transform="translate(-37.415 -109.207)" fill="#f6c4a9"/>
            <path id="Trazado_195838" data-name="Trazado 195838" d="M46,173.5v42.266H66.6c5.1,0,9.246-4.412,9.246-9.853V178.44a4.788,4.788,0,0,0-4.623-4.94Z" transform="translate(-37.415 -140.48)" fill="#f8d3bf"/>
            <path id="Trazado_195839" data-name="Trazado 195839" d="M46,76.237H82.983V57.746A9.256,9.256,0,0,0,73.737,48.5H55.246A9.256,9.256,0,0,0,46,57.746Z" transform="translate(-37.415 -48.5)" fill="#ed844d"/>
            <path id="Trazado_195840" data-name="Trazado 195840" d="M46,72.275H64.491a9.256,9.256,0,0,0,9.246-9.246V48.5H55.246A9.256,9.256,0,0,0,46,57.746Z" transform="translate(-37.415 -48.5)" fill="#f19d71"/>
            <path id="Trazado_195841" data-name="Trazado 195841" d="M94.869,66.991H85.623A4.611,4.611,0,0,1,81,62.369V48.5H99.491V62.369A4.611,4.611,0,0,1,94.869,66.991Z" transform="translate(-63.169 -48.5)" fill="#f26522"/>
            <path id="Trazado_195842" data-name="Trazado 195842" d="M103.406,63.029H95.481A2,2,0,0,1,93.5,61.048V48.5h11.887V61.048A2,2,0,0,1,103.406,63.029Z" transform="translate(-72.367 -48.5)" fill="#ed844d"/>
            <g id="Grupo_146749" data-name="Grupo 146749" transform="translate(4.623 86.513)">
              <path id="Trazado_195843" data-name="Trazado 195843" d="M446,376h9.246v18.491H446Z" transform="translate(-336.373 -376)" fill="#f26522"/>
              <path id="Trazado_195844" data-name="Trazado 195844" d="M31,376h9.246v18.491H31Z" transform="translate(-31 -376)" fill="#f26522"/>
              <path id="Trazado_195845" data-name="Trazado 195845" d="M171,376h9.246v18.491H171Z" transform="translate(-134.017 -376)" fill="#f26522"/>
              <path id="Trazado_195846" data-name="Trazado 195846" d="M306,376h9.246v18.491H306Z" transform="translate(-233.355 -376)" fill="#f26522"/>
            </g>
            <path id="Trazado_195847" data-name="Trazado 195847" d="M18.123,437.746H137a4.623,4.623,0,0,0,0-9.246H18.123a4.623,4.623,0,0,0,0,9.246Z" transform="translate(-13.5 -328.118)" fill="#ed844d"/>
            <path id="Trazado_195848" data-name="Trazado 195848" d="M13.5,433.123h105a4.611,4.611,0,0,0,4.623-4.623h-105A4.611,4.611,0,0,0,13.5,433.123Z" transform="translate(-13.5 -328.118)" fill="#f19d71"/>
            <path id="Trazado_195849" data-name="Trazado 195849" d="M18.123,367.746H137a4.623,4.623,0,0,0,0-9.246H18.123a4.623,4.623,0,0,0,0,9.246Z" transform="translate(-13.5 -276.61)" fill="#ed844d"/>
            <path id="Trazado_195850" data-name="Trazado 195850" d="M13.5,363.123h105a4.611,4.611,0,0,0,4.623-4.623h-105A4.611,4.611,0,0,0,13.5,363.123Z" transform="translate(-13.5 -276.61)" fill="#f19d71"/>
          </g>
          <g id="Trash_bin">
            <path id="Trazado_195851" data-name="Trazado 195851" d="M374.607,217.353a1.989,1.989,0,0,0-2.51,1.242l-.026.053A10.3,10.3,0,1,0,363.8,235.1a10.184,10.184,0,0,0,4.676-1.136,1.985,1.985,0,1,0-1.8-3.54,6.418,6.418,0,0,1-2.879.687,6.34,6.34,0,1,1,5.6-9.325l-2.272-.766a1.98,1.98,0,0,0-1.268,3.751l5.574,1.9a1.776,1.776,0,0,0,.634.106,2.008,2.008,0,0,0,1.876-1.347l1.9-5.574A1.989,1.989,0,0,0,374.607,217.353Z" transform="translate(-261.704 -168.668)"/>
            <path id="Trazado_195852" data-name="Trazado 195852" d="M94.607,217.353a1.989,1.989,0,0,0-2.51,1.242l-.026.053A10.3,10.3,0,1,0,83.8,235.1a10.184,10.184,0,0,0,4.676-1.136,1.985,1.985,0,1,0-1.8-3.54,6.418,6.418,0,0,1-2.879.687,6.34,6.34,0,1,1,5.6-9.325l-2.272-.766a1.98,1.98,0,1,0-1.268,3.751l5.574,1.9a1.776,1.776,0,0,0,.634.106,2.008,2.008,0,0,0,1.876-1.347l1.9-5.574A1.989,1.989,0,0,0,94.607,217.353Z" transform="translate(-55.669 -168.668)"/>
            <path id="Trazado_195853" data-name="Trazado 195853" d="M234.607,217.353a1.989,1.989,0,0,0-2.51,1.242l-.026.053A10.3,10.3,0,1,0,223.8,235.1a10.184,10.184,0,0,0,4.676-1.136,1.985,1.985,0,1,0-1.8-3.54,6.418,6.418,0,0,1-2.879.687,6.34,6.34,0,1,1,5.6-9.325l-2.272-.766a1.98,1.98,0,1,0-1.268,3.751l5.574,1.9a1.776,1.776,0,0,0,.634.106,2.008,2.008,0,0,0,1.876-1.347l1.9-5.574A1.989,1.989,0,0,0,234.607,217.353Z" transform="translate(-158.686 -168.668)"/>
            <path id="Trazado_195854" data-name="Trazado 195854" d="M133.458,141.7v-5.891a6.6,6.6,0,0,0-1.981-12.891H129.5V52.227A11.251,11.251,0,0,0,118.269,41H99.778a11.24,11.24,0,0,0-9.246,4.861A11.24,11.24,0,0,0,81.286,41H62.795a11.24,11.24,0,0,0-9.246,4.861A11.24,11.24,0,0,0,44.3,41H25.812A11.251,11.251,0,0,0,14.585,52.227V122.89H12.6a6.6,6.6,0,0,0-1.981,12.891v5.891A6.612,6.612,0,0,0,12.6,154.59H131.477a6.6,6.6,0,0,0,1.981-12.891Zm-31.7-96.736h14.529V56.85a2.649,2.649,0,0,1-2.642,2.642H104.4a2.649,2.649,0,0,1-2.642-2.642Zm-3.962.264V56.85a6.606,6.606,0,0,0,6.6,6.6h9.246a6.606,6.606,0,0,0,6.6-6.6V45.227a7.3,7.3,0,0,1,5.283,7v16.51H92.513V52.227A7.3,7.3,0,0,1,97.8,45.227Zm-36.983,0V47.6a1.981,1.981,0,1,0,3.962,0V44.962H79.305V56.85a2.649,2.649,0,0,1-2.642,2.642H67.418a2.649,2.649,0,0,1-2.642-2.642,1.981,1.981,0,0,0-3.962,0,6.606,6.606,0,0,0,6.6,6.6h9.246a6.606,6.606,0,0,0,6.6-6.6V45.227a7.3,7.3,0,0,1,5.283,7v16.51H55.53V52.227A7.3,7.3,0,0,1,60.814,45.227ZM55.53,72.7h33.02V122.89H55.53ZM27.793,44.962H42.322V56.85a2.649,2.649,0,0,1-2.642,2.642H30.435a2.649,2.649,0,0,1-2.642-2.642Zm-9.246,7.264a7.3,7.3,0,0,1,5.283-7V56.85a6.606,6.606,0,0,0,6.6,6.6h9.246a6.606,6.606,0,0,0,6.6-6.6V45.227a7.3,7.3,0,0,1,5.283,7v16.51H18.548ZM51.568,72.7V122.89H18.548V72.7ZM9.962,129.494a2.649,2.649,0,0,1,2.642-2.642H103.74a1.981,1.981,0,1,0,0-3.962H92.513V72.7h33.02V122.89H112.986a1.981,1.981,0,1,0,0,3.962h18.491a2.642,2.642,0,1,1,0,5.283H12.6A2.649,2.649,0,0,1,9.962,129.494ZM129.5,136.1v5.283h-5.283V136.1Zm-9.246,0v5.283H96.476V136.1Zm-27.737,0v5.283H87.23V136.1Zm-9.246,0v5.283H60.814V136.1Zm-26.416,0v5.283H51.568V136.1Zm-36.983,0v5.283H14.585V136.1Zm111.609,14.529H12.6a2.642,2.642,0,0,1,0-5.283H30.831a1.981,1.981,0,1,0,0-3.962h-7V136.1H47.606v5.283H40.077a1.981,1.981,0,0,0,0,3.962h91.4a2.642,2.642,0,1,1,0,5.283Z" transform="translate(-6 -41)"/>
          </g>
        </g>
      </g>
      <g id="Scale" transform="translate(324.142 3233.104)">
        <path id="Trazado_195813" data-name="Trazado 195813" d="M93.718,49.218H1L9.062,21H85.655C93.718,49.38,92.166,43.736,93.718,49.218Z" transform="translate(0.995 3.187)" fill="#db5669"/>
        <path id="Trazado_195814" data-name="Trazado 195814" d="M82.1,45.187H19.357a8.062,8.062,0,0,1-7.74-10.28L15.648,21H75.189Z" transform="translate(11.461 3.187)" fill="#f26674"/>
        <path id="Trazado_195815" data-name="Trazado 195815" d="M81.593,16.047a6.047,6.047,0,0,1-6.047,6.047h-64.5a6.047,6.047,0,1,1,0-12.094h64.5A6.047,6.047,0,0,1,81.593,16.047Z" transform="translate(5.057 -7.984)" fill="#dad7e5"/>
        <path id="Trazado_195816" data-name="Trazado 195816" d="M76.515,16.047a6.047,6.047,0,0,1-6.047,6.047H16.047a6.047,6.047,0,1,1,0-12.094H70.468A6.047,6.047,0,0,1,76.515,16.047Z" transform="translate(10.135 -7.984)" fill="#edebf2"/>
        <path id="Trazado_195817" data-name="Trazado 195817" d="M21,16H33.094V26.078H21Z" transform="translate(21.307 -1.891)" fill="#7c7d7d"/>
        <path id="Trazado_195818" data-name="Trazado 195818" d="M45.219,40.177H35.141a4.031,4.031,0,1,0-8.062,0H17V38.161a14.109,14.109,0,0,1,24.187-9.977C45.219,32.215,45.219,36.388,45.219,40.177Z" transform="translate(17.244 6.182)" fill="#dad7e5"/>
        <path id="Trazado_195819" data-name="Trazado 195819" d="M45.218,38.109v2.016H35.14a4.031,4.031,0,1,0-8.062,0H17V38.109a14.109,14.109,0,1,1,28.218,0Z" transform="translate(17.244 6.234)" fill="#dad7e5"/>
        <path id="Trazado_195820" data-name="Trazado 195820" d="M41.187,38.028v2.016H35.14a4.031,4.031,0,0,0-6.047-3.487,4.031,4.031,0,0,0-6.047,3.487H17V38.028A14.109,14.109,0,0,1,29.094,24.08,14.109,14.109,0,0,1,41.187,38.028Z" transform="translate(17.244 6.315)" fill="#edebf2"/>
        <path id="Trazado_195821" data-name="Trazado 195821" d="M26.031,29.016c0,6.047.5,3.1-2.016,4.575A4.031,4.031,0,0,0,22,33.047V29.016a2.016,2.016,0,0,1,4.031,0Z" transform="translate(22.322 9.281)" fill="#dad7e5"/>
        <path id="Trazado_195822" data-name="Trazado 195822" d="M21,16H33.094v4.031H21Z" transform="translate(21.307 -1.891)" fill="#747575"/>
        <g id="Grupo_146748" data-name="Grupo 146748" transform="translate(0 0)">
          <path id="Trazado_195823" data-name="Trazado 195823" d="M96.738,60.862,88.676,32.643a2.016,2.016,0,0,0-2.016-1.471H56.426V25.125H80.614A8.062,8.062,0,0,0,80.614,9h-64.5a8.062,8.062,0,0,0,0,16.125H40.3v6.047H10.067a2.016,2.016,0,0,0-2.016,1.471C-.575,63.079-.474,61.406.393,62.615s-4.434.806,94.33.806a2.016,2.016,0,0,0,2.016-2.56Zm-84.655-43.8a4.031,4.031,0,0,1,4.031-4.031h64.5a4.031,4.031,0,1,1,0,8.062h-64.5A4.031,4.031,0,0,1,12.083,17.062Zm32.25,8.062H52.4v6.047H44.333ZM4.686,59.39,11.579,35.2h73.57L92.042,59.39Z" transform="translate(-0.01 -9)"/>
          <path id="Trazado_195824" data-name="Trazado 195824" d="M32.125,23A16.125,16.125,0,0,0,16,39.125V41.14a2.016,2.016,0,0,0,2.016,2.016H28.094a2.016,2.016,0,0,0,2.016-2.016,2.016,2.016,0,1,1,4.031,0,2.016,2.016,0,0,0,2.016,2.016H46.234A2.016,2.016,0,0,0,48.25,41.14V39.125A16.125,16.125,0,0,0,32.125,23Zm5.7,16.125a6.047,6.047,0,0,0-3.689-3.668V31.062a2.016,2.016,0,1,0-4.031,0v4.394a6.047,6.047,0,0,0-3.689,3.668H20.031a12.094,12.094,0,0,1,24.187,0Z" transform="translate(16.229 5.218)" fill="#231f20"/>
        </g>
      </g>
    </g>
  </g>
</svg>
