<svg xmlns="http://www.w3.org/2000/svg" xmlns:xlink="http://www.w3.org/1999/xlink" width="135" height="161.273" viewBox="0 0 135 161.273">
  <defs>
    <clipPath id="clip-path">
      <rect id="Rect치ngulo_45323" data-name="Rect치ngulo 45323" width="98.259" height="151.632" fill="none"/>
    </clipPath>
  </defs>
  <g id="Grupo_146937" data-name="Grupo 146937" transform="translate(-1090 -6650.727)">
    <ellipse id="Elipse_5516" data-name="Elipse 5516" cx="67.5" cy="8.5" rx="67.5" ry="8.5" transform="translate(1090 6795)" fill="#bab5d3"/>
    <g id="Grupo_146934" data-name="Grupo 146934" transform="translate(1105 6650.727)">
      <g id="Grupo_146933" data-name="Grupo 146933" transform="translate(0)">
        <g id="Grupo_146932" data-name="Grupo 146932" clip-path="url(#clip-path)">
          <path id="Trazado_196444" data-name="Trazado 196444" d="M22.82,23.3c.218-.3.351-.567.3-.607a.036.036,0,0,0-.03,0,3.248,3.248,0,0,0-.6-.252c-.325-.135-.569-.3-.617-.253s.147.314.514.471c-.247-.019-.438-.04-.458.015s.149.162.407.212c-.216.08-.363.172-.348.224s.213.047.46-.014c-.209.15-.37.267-.348.32s.2.023.413-.088c-.145.223-.223.4-.179.435s.273-.167.492-.463" transform="translate(-3.359 -3.408)" fill="#60380e"/>
          <path id="Trazado_196445" data-name="Trazado 196445" d="M40.822,22.946c-1.87-.636-4.03-3.368-7.085-2.866-2.685.443-5.548,3.2-7.868,6.093L22.58,14.648c3.252.821,6.687,2.032,9.3.759,2.073-1.01,3.375-3.546,4.96-6.152Z" transform="translate(-3.47 -1.422)" fill="#efe5ca"/>
          <path id="Trazado_196446" data-name="Trazado 196446" d="M43.245,22.946a11.057,11.057,0,0,0,1.171-4.58c-.043-1.086-.942-1.789-1.3-2.815-.369-1.058-.2-2.466-.788-3.423a14.758,14.758,0,0,0-3.065-2.873,17.688,17.688,0,0,0-.913,3.208,6.347,6.347,0,0,1,1.6,5.8c.91.68,1.922,2.066,1.574,3.136.449.888.5,1.045,1.72,1.545" transform="translate(-5.894 -1.422)" fill="#ed280d"/>
          <path id="Trazado_196447" data-name="Trazado 196447" d="M43.166,16.175a9.907,9.907,0,0,0,.946-.4,9.51,9.51,0,0,0,1.01-.588,8.727,8.727,0,0,0,1.636-1.436c.2-.223.35-.421.46-.561l.172-.239c.047-.062.259.014.473.168s.344.337.289.407l-.207.251c-.132.147-.316.355-.553.584a8.656,8.656,0,0,1-1.924,1.4,8.327,8.327,0,0,1-1.153.5,7,7,0,0,1-1.055.268Z" transform="translate(-6.634 -1.986)" fill="#60380e"/>
          <path id="Trazado_196448" data-name="Trazado 196448" d="M43.658,22.844a2.908,2.908,0,0,0,.53-2.118,2.473,2.473,0,0,0-.37-2c-.478-.646-1.277-.585-1.853-1.078-.342-.294-.852-.838-1.341-.54a.354.354,0,0,0-.157.346,7.82,7.82,0,0,0,.437,1.911c.208.649.744.939,1.034,1.525.2.407.911,2.76,1.72,1.959" transform="translate(-6.219 -2.615)" fill="#ff402c"/>
          <path id="Trazado_196449" data-name="Trazado 196449" d="M44.143,17.895c-.013.027-.19-.016-.425-.19a1.844,1.844,0,0,1-.625-2.052c.1-.275.221-.41.246-.394s-.033.177-.08.438a2.072,2.072,0,0,0,.572,1.88c.185.19.328.287.311.319" transform="translate(-6.608 -2.345)" fill="#a00f04"/>
          <path id="Trazado_196450" data-name="Trazado 196450" d="M41.61,14.337c.4-.354.9-.7.779-1.3a.927.927,0,0,0-.162-.372,1.015,1.015,0,0,0-.219-.284c-.5-.444-1.085-.755-1.589-1.176a.557.557,0,0,0-.963.238,2.064,2.064,0,0,0-.073.7c-.009.287-.128.552-.119.838a.959.959,0,0,0,.562.884,3.854,3.854,0,0,0,.059.664.9.9,0,0,0,.414.575c.483.215,1-.487,1.311-.761" transform="translate(-6.034 -1.693)" fill="#ff402c"/>
          <path id="Trazado_196451" data-name="Trazado 196451" d="M22.1,15.433a9.988,9.988,0,0,0-.791,3.937c.063.941.785,1.575,1.093,2.474.317.927.227,2.142.709,2.987A13.328,13.328,0,0,0,25.586,27.4a15.832,15.832,0,0,0,.627-2.755c-1.061-1.3-1.77-3.419-1.16-4.952a7.838,7.838,0,0,1-1.512-2.184c-.375-.781-.476-1.614-1.442-2.08" transform="translate(-3.273 -2.372)" fill="#ed280d"/>
          <path id="Trazado_196452" data-name="Trazado 196452" d="M22.261,16.644a2.814,2.814,0,0,0-.214,1.779,2.873,2.873,0,0,0,.372,1.739c.356.583.878.581,1.29,1.04.244.273.614.771.917.548a.3.3,0,0,0,.081-.286A9.364,9.364,0,0,0,24.3,19.8a12.323,12.323,0,0,0-.779-1.37c-.158-.361-.775-2.419-1.258-1.786" transform="translate(-3.382 -2.539)" fill="#dd1905"/>
          <path id="Trazado_196453" data-name="Trazado 196453" d="M24.4,24.7c-.242.277-.548.54-.43,1.066a1.738,1.738,0,0,0,.292.585c.356.413.763.716,1.122,1.108.264.289.531.256.62-.141a2.242,2.242,0,0,0,0-.593c-.013-.245.049-.464.025-.709a1.048,1.048,0,0,0-.427-.792,4.4,4.4,0,0,0-.081-.571.979.979,0,0,0-.31-.519c-.332-.214-.627.353-.815.568" transform="translate(-3.68 -3.701)" fill="#dd1905"/>
          <path id="Trazado_196454" data-name="Trazado 196454" d="M23.546,25.35a3.8,3.8,0,0,1-.312-1.82,3.185,3.185,0,0,0,.055-1.354,3.112,3.112,0,0,0-.732-.943,3.976,3.976,0,0,1-.86-1.884,8.42,8.42,0,0,1-.133-1.2,2.846,2.846,0,0,0-.029-.581,6.894,6.894,0,0,0-.226,2.132c.063.942.785,1.576,1.093,2.474.317.928.227,2.142.71,2.987a6.361,6.361,0,0,0,.911,1.14,7.956,7.956,0,0,1-.477-.949" transform="translate(-3.273 -2.699)" fill="#c90e05"/>
          <path id="Trazado_196455" data-name="Trazado 196455" d="M24.548,16.715c-.505-.1.5.831.941,1.019a3.962,3.962,0,0,1,1.038.429.94.94,0,0,1,.22,1.127c-.215.4-.733.664-.738,1.121a.813.813,0,0,0,.6.7,5.066,5.066,0,0,0,.976.145c.382.053.824.27.834.655a.967.967,0,0,1-.112.4c-.451,1.019-1.162,2.616-1.354,3.058s.5-.008.7-.163a2.807,2.807,0,0,0,.487-.569,12.9,12.9,0,0,1,4.92-3.6c.271-.132,1.022-.525.625-.6s-1.51.2-2.269.229a1.008,1.008,0,0,1-.464-.055.351.351,0,0,1-.216-.377A.517.517,0,0,1,31,19.957l.908-.555c.136-.083.284-.184.316-.339a.4.4,0,0,0-.2-.392,1.157,1.157,0,0,0-.449-.129c-.778-.112-2.252-.012-2.332-.335s1.38-.285,1.44-.453-1.05-.207-1.449-.273l-1.561-.256c-1.04-.17-2.616-.413-3.121-.511" transform="translate(-3.751 -2.568)" fill="#f9f3e4"/>
          <path id="Trazado_196456" data-name="Trazado 196456" d="M33.606,16.676c-.179.115-.384.271-.362.482a.4.4,0,0,0,.384.312,1.418,1.418,0,0,0,.524-.107c.736-.233,2.444-.293,2.287-.053a6.235,6.235,0,0,1-1.276.795c-.074.047-.158.109-.156.2,0,.107.125.162.228.191a17.074,17.074,0,0,1,2.127.626c.21.16-.985.372-1.479.559a.253.253,0,0,0-.124.076.181.181,0,0,0,.1.25.626.626,0,0,0,.3.021c1.449-.108,4.5,2.037,4.117,1.3s-1.682-1.572-1.792-1.9.372-.812.372-.812.177-.409.049-.57a.7.7,0,0,0-.528-.187l-.766-.047c-.169-.01-.372-.041-.443-.2-.093-.206.135-.416.35-.486s.474-.1.594-.294a.5.5,0,0,0-.323-.675,9.892,9.892,0,0,1-1.366-.18c-.368-.169.518-.994.713-1.44.145-.328.4-1.132.176-1.473-.209-.314-.351.123-.465.307q-.231.369-.491.719a10.632,10.632,0,0,1-2.75,2.582" transform="translate(-5.108 -1.991)" fill="#f9f3e4"/>
          <path id="Trazado_196457" data-name="Trazado 196457" d="M9.091,9.443a22.114,22.114,0,0,1,3.324,3.664l.724.9.754.984c.522.674,1.045,1.4,1.594,2.154,1.079,1.516,2.209,3.151,3.28,4.827,2.158,3.345,4.147,6.811,5.583,9.47.719,1.33,1.3,2.454,1.719,3.257l.675,1.33a.863.863,0,0,1-.549,1.067.873.873,0,0,1-1.181-.223l-.633-1.335c-.388-.806-.934-1.937-1.6-3.275-1.336-2.678-3.18-6.175-5.17-9.577-.987-1.706-2.026-3.377-3.01-4.936-.5-.773-.978-1.527-1.452-2.227L12.462,14.5l-.649-.949A34.624,34.624,0,0,1,9.091,9.443" transform="translate(-1.396 -1.451)" fill="#e5e4e3"/>
          <path id="Trazado_196458" data-name="Trazado 196458" d="M31.111,52.8a1.741,1.741,0,0,0,1.309.092c.445-.206.616-1.184.616-1.184s.71,0,.784-.138c.727-1.335,3.546-8.259.315-13.408-1.014-1.616-7.214.358-8.987,1.464-1.015.633-1.848,1.506-2.816,2.208-.614.445-2.453,1.571-2.275,2.1A22,22,0,0,0,31.111,52.8" transform="translate(-3.08 -5.771)" fill="#ccc"/>
          <path id="Trazado_196459" data-name="Trazado 196459" d="M32.42,53.03a1.17,1.17,0,0,0,.476-.671c-.227-.017-.534.113-.823.085a2.546,2.546,0,0,1-1.319-.568,8.977,8.977,0,0,1-1.6-2.044,13.824,13.824,0,0,0-2.911-3.105,15.95,15.95,0,0,1-1.6-1.3,3.039,3.039,0,0,1-.941-1.788,3.668,3.668,0,0,1,1.356-2.788,16.514,16.514,0,0,1,3.324-2.429,15.551,15.551,0,0,0-3.234,1.337c-1.015.634-1.849,1.506-2.817,2.208-.614.446-2.453,1.572-2.275,2.1a22,22,0,0,0,11.055,8.864,1.745,1.745,0,0,0,1.309.092" transform="translate(-3.08 -5.905)" fill="#b7b3b2"/>
          <path id="Trazado_196460" data-name="Trazado 196460" d="M36.666,39.762c.156-.045.206-.344.112-.669s-.3-.551-.45-.506-.206.344-.113.669.3.551.451.506" transform="translate(-5.558 -5.929)" fill="#a09d9d"/>
          <path id="Trazado_196461" data-name="Trazado 196461" d="M37.273,42.145c.158-.032.243-.276.189-.544s-.227-.46-.386-.427-.243.276-.188.544.227.46.385.427" transform="translate(-5.666 -6.327)" fill="#a09d9d"/>
          <path id="Trazado_196462" data-name="Trazado 196462" d="M35.59,40.364c.064.34.245.592.4.562s.236-.33.172-.67-.245-.592-.4-.562-.235.33-.171.67" transform="translate(-5.466 -6.1)" fill="#a09d9d"/>
          <path id="Trazado_196463" data-name="Trazado 196463" d="M36.562,42.828c-.028-.34-.223-.577-.378-.537s-.228.3-.2.586.137.531.3.544.313-.252.284-.592" transform="translate(-5.528 -6.498)" fill="#a09d9d"/>
          <path id="Trazado_196464" data-name="Trazado 196464" d="M37.133,44.457c-.03.4.076.735.238.747s.317-.3.346-.7-.077-.735-.238-.747-.317.3-.346.7" transform="translate(-5.706 -6.724)" fill="#a09d9d"/>
          <path id="Trazado_196465" data-name="Trazado 196465" d="M36.179,45.639c.041-.436.01-.8-.07-.8s-.179.34-.221.776-.01.8.07.8.179-.339.221-.776" transform="translate(-5.512 -6.89)" fill="#a09d9d"/>
          <path id="Trazado_196466" data-name="Trazado 196466" d="M37.287,48.271c.077.018.222-.323.251-.771s-.069-.8-.148-.8-.116.355-.145.778-.038.772.042.79" transform="translate(-5.721 -7.177)" fill="#a09d9d"/>
          <path id="Trazado_196467" data-name="Trazado 196467" d="M35.3,38.505c-.043-.179-.14-.308-.22-.289s-.107.179-.065.356.14.308.219.289.108-.179.066-.357" transform="translate(-5.379 -5.873)" fill="#a09d9d"/>
          <path id="Trazado_196468" data-name="Trazado 196468" d="M35.319,40.743c-.115-.342-.27-.6-.347-.572s-.046.323.069.665.27.6.347.573.046-.324-.069-.666" transform="translate(-5.368 -6.173)" fill="#a09d9d"/>
          <path id="Trazado_196469" data-name="Trazado 196469" d="M36.631,48.413c.063-.381.05-.7-.03-.713s-.2.284-.259.665-.05.7.03.713.2-.284.259-.665" transform="translate(-5.579 -7.33)" fill="#a09d9d"/>
          <path id="Trazado_196470" data-name="Trazado 196470" d="M37.049,50.857c.058-.248.042-.464-.036-.482s-.19.167-.249.415-.042.464.036.482.19-.167.249-.415" transform="translate(-5.644 -7.741)" fill="#a09d9d"/>
          <path id="Trazado_196471" data-name="Trazado 196471" d="M25.078,37c3.656-1.859,6.887-2.75,6.827-3a4.952,4.952,0,0,0-2.21.3,25.754,25.754,0,0,0-5.011,1.91,26.229,26.229,0,0,0-4.534,2.861c-1.072.86-1.647,1.491-1.574,1.579s.79-.358,1.933-1.072,2.734-1.67,4.568-2.583" transform="translate(-2.854 -5.218)" fill="#f2f2f2"/>
          <path id="Trazado_196472" data-name="Trazado 196472" d="M29.978,30.376a4.359,4.359,0,0,0-2.163.118c-.328.068-.688.14-1.066.252-.189.055-.388.1-.587.17l-.613.208A20.23,20.23,0,0,0,22.921,32.3a24.849,24.849,0,0,0-2.437,1.512c-.717.511-1.339,1-1.84,1.435-1,.866-1.555,1.479-1.48,1.568s.769-.345,1.856-1.074c.542-.366,1.19-.793,1.914-1.256s1.535-.942,2.4-1.412,1.72-.861,2.505-1.193l.577-.234c.187-.077.374-.137.551-.2.355-.138.693-.241,1-.345,1.233-.4,2.025-.587,2.007-.719" transform="translate(-2.637 -4.656)" fill="#f2f2f2"/>
          <path id="Trazado_196473" data-name="Trazado 196473" d="M27.3,27.59c-.01-.11-.782-.166-2.015.015-.307.047-.644.1-1,.189s-.735.183-1.131.3a16.508,16.508,0,0,0-4.791,2.371c-.331.245-.647.477-.923.719s-.532.463-.756.68c-.89.871-1.315,1.518-1.233,1.594s.675-.4,1.637-1.121c.241-.18.5-.377.8-.575s.6-.408.933-.625c.669-.421,1.42-.856,2.235-1.264s1.62-.734,2.36-1.012c.373-.129.726-.262,1.064-.361s.651-.2.94-.284c1.157-.327,1.9-.491,1.884-.622" transform="translate(-2.374 -4.224)" fill="#f2f2f2"/>
          <path id="Trazado_196474" data-name="Trazado 196474" d="M24.521,24.22c-.024-.112-.687-.092-1.721.153a14.7,14.7,0,0,0-1.78.555,19.35,19.35,0,0,0-2.076.949,19.106,19.106,0,0,0-3.416,2.32c-.8.692-1.22,1.2-1.146,1.288.168.2,2.212-1.362,4.975-2.833.691-.366,1.36-.691,1.975-.977s1.179-.52,1.657-.71c.954-.388,1.56-.62,1.532-.745" transform="translate(-2.209 -3.712)" fill="#f2f2f2"/>
          <path id="Trazado_196475" data-name="Trazado 196475" d="M22.166,21.5c-.023-.113-.6-.122-1.5.052a12.452,12.452,0,0,0-1.559.413A14.895,14.895,0,0,0,15.563,23.7a12.418,12.418,0,0,0-1.281.979c-.69.608-1.036,1.066-.96,1.154.17.194,1.922-1.158,4.342-2.331,2.41-1.194,4.552-1.752,4.5-2" transform="translate(-2.046 -3.291)" fill="#f2f2f2"/>
          <path id="Trazado_196476" data-name="Trazado 196476" d="M19.718,18.606c-.016-.114-.5-.168-1.271-.062a8.6,8.6,0,0,0-1.33.3,10.155,10.155,0,0,0-2.977,1.507,8.533,8.533,0,0,0-1.032.891c-.542.558-.786.981-.7,1.061.185.178,1.563-1.051,3.558-2.046,1.982-1.018,3.788-1.4,3.754-1.656" transform="translate(-1.904 -2.841)" fill="#f2f2f2"/>
          <path id="Trazado_196477" data-name="Trazado 196477" d="M17.717,15.846c-.014-.114-.448-.184-1.141-.1a6.678,6.678,0,0,0-1.192.275,8.29,8.29,0,0,0-1.378.6,8.412,8.412,0,0,0-1.238.851,6.728,6.728,0,0,0-.862.868c-.441.542-.611.948-.52,1.02.2.159,1.325-1.031,3.048-1.972,1.709-.967,3.313-1.294,3.284-1.548" transform="translate(-1.746 -2.414)" fill="#f2f2f2"/>
          <path id="Trazado_196478" data-name="Trazado 196478" d="M14.907,13.065c-.037-.112-.364-.14-.857-.048a6.434,6.434,0,0,0-3.328,1.869c-.335.374-.482.669-.405.758.163.187,1.119-.491,2.357-1.179s2.308-1.163,2.233-1.4" transform="translate(-1.582 -1.992)" fill="#f2f2f2"/>
          <path id="Trazado_196479" data-name="Trazado 196479" d="M8.992,12.088C6.672,10.023-2.257,7.5.535,5.918a7.606,7.606,0,0,1,5.756-.559S7.8,2.211,8.424,1.306a1.723,1.723,0,0,1,.624-.62A1.165,1.165,0,0,1,9.931.672a1.959,1.959,0,0,1,1.2,1.494A8.5,8.5,0,0,1,11.194,4.2c-.045,1.74-.79,3.829.2,6.652.11.312-.552.391-1.148.812-.625.438-.763.863-1.253.427" transform="translate(0 -0.091)" fill="#ccc"/>
          <path id="Trazado_196480" data-name="Trazado 196480" d="M11.9,3.75a12.579,12.579,0,0,0-.14,3.01,11.425,11.425,0,0,0,.587,2.863,3.85,3.85,0,0,0,.5,1.086,8.861,8.861,0,0,0-.324-1.152,14.9,14.9,0,0,1-.507-2.848,16.006,16.006,0,0,1,.065-2.963A10.113,10.113,0,0,0,12.222,2.5,4.931,4.931,0,0,0,11.9,3.75" transform="translate(-1.802 -0.384)" fill="#a09d9d"/>
          <path id="Trazado_196481" data-name="Trazado 196481" d="M10.521,3.73a10.725,10.725,0,0,0-.1,1.351A11.369,11.369,0,0,0,10.534,6.7a10.837,10.837,0,0,0,.357,1.561,9.231,9.231,0,0,0,.473,1.2,3.643,3.643,0,0,0,.617,1.013,9.868,9.868,0,0,0-.449-1.093,12.427,12.427,0,0,1-.415-1.209,13.282,13.282,0,0,1-.332-1.54,13.815,13.815,0,0,1-.129-1.593c-.005-.5.01-.946.043-1.326a10.959,10.959,0,0,0,.107-1.236,4.6,4.6,0,0,0-.285,1.245" transform="translate(-1.602 -0.382)" fill="#a09d9d"/>
          <path id="Trazado_196482" data-name="Trazado 196482" d="M10.653,10.152a2.565,2.565,0,0,0,.52.709c.068-.041-.612-1.187-1.221-2.71s-.928-2.831-1-2.807a2.7,2.7,0,0,0,.124.886,13.435,13.435,0,0,0,.64,2.029,13.307,13.307,0,0,0,.941,1.893" transform="translate(-1.373 -0.821)" fill="#a09d9d"/>
          <path id="Trazado_196483" data-name="Trazado 196483" d="M8.512,8.034A5.849,5.849,0,0,0,7.494,6.616a5.85,5.85,0,0,0,.791,1.553A5.87,5.87,0,0,0,9.3,9.587a5.837,5.837,0,0,0-.791-1.553" transform="translate(-1.15 -1.016)" fill="#a09d9d"/>
          <path id="Trazado_196484" data-name="Trazado 196484" d="M4.324,6.378a5.591,5.591,0,0,0,.822.823C5.671,7.692,6.4,8.37,7.18,9.134s1.474,1.473,1.974,1.985a5.766,5.766,0,0,0,.845.8A4.594,4.594,0,0,0,9.3,11c-.465-.543-1.136-1.272-1.921-2.04S5.842,7.536,5.28,7.076a5.067,5.067,0,0,0-.956-.7" transform="translate(-0.664 -0.98)" fill="#a09d9d"/>
          <path id="Trazado_196485" data-name="Trazado 196485" d="M6.938,10.134A6.815,6.815,0,0,0,4.876,8.307,7.823,7.823,0,0,0,2.261,7.13C2.222,7.2,3.422,7.67,4.709,8.5s2.167,1.682,2.228,1.631" transform="translate(-0.347 -1.095)" fill="#a09d9d"/>
          <path id="Trazado_196486" data-name="Trazado 196486" d="M9.177,12.5a8.112,8.112,0,0,0-.755-.682,17.81,17.81,0,0,0-2.9-1.814c-1.2-.621-2.294-1.16-3.094-1.546A8.383,8.383,0,0,0,1.1,7.885a7.979,7.979,0,0,0,1.22.724c.772.422,1.855.986,3.049,1.6a24.109,24.109,0,0,1,2.923,1.742c.7.5,1.08.867,1.111.84.014-.011-.068-.114-.229-.289" transform="translate(-0.169 -1.211)" fill="#a09d9d"/>
          <path id="Trazado_196487" data-name="Trazado 196487" d="M32.541,41.984c.672.277,1.192.416,1.238.315s-.4-.41-1.051-.746c.223-.557.325-.981.23-1.026s-.355.3-.642.823l-.058-.027c-.9-.416-1.671-.653-1.728-.529s.624.561,1.521.977l.04.018c-.014.027-.027.053-.04.081-.378.8-.585,1.5-.461,1.554s.53-.543.907-1.342c.016-.033.029-.065.044-.1" transform="translate(-4.691 -6.227)" fill="#a09d9d"/>
          <path id="Trazado_196488" data-name="Trazado 196488" d="M32.525,52.83a3.823,3.823,0,0,1,1.26.515,3.8,3.8,0,0,1,1.147.734,3.846,3.846,0,0,1-1.26-.515,3.822,3.822,0,0,1-1.147-.734" transform="translate(-4.998 -8.117)" fill="#a09d9d"/>
          <path id="Trazado_196489" data-name="Trazado 196489" d="M36.623,6.268c-2.623,3.751-2.565,8.766-2.6,13.165-.019,2.461-.262,4.932-.218,7.389a37.348,37.348,0,0,0,.961,7.171c.112.506.24,1.009.378,1.509.045.162.11.664.245.777.25.653,1.191-1.486,1.254-1.638a19.194,19.194,0,0,0,1.424-7.057,51.078,51.078,0,0,0-.973-7.719c-.338-2.423-.73-4.851-.873-7.3a17.1,17.1,0,0,1,.157-4.017,9.741,9.741,0,0,1,.407-1.6c.04-.108.214-.376.194-.492a.206.206,0,0,0-.359-.194" transform="translate(-5.195 -0.95)" fill="#666636"/>
          <path id="Trazado_196490" data-name="Trazado 196490" d="M35.426,41.037a.575.575,0,0,0,.418-.7,33,33,0,0,1-.784-6.746,36.23,36.23,0,0,0-.89-7.447c-.783-3.123-1.947-7.918-2.572-8.262-.392-.217-1.186.637-.311,2.89a38.157,38.157,0,0,1,1.766,5.651,35.267,35.267,0,0,1,.856,7.22,34.371,34.371,0,0,0,.818,6.974.575.575,0,0,0,.7.418" transform="translate(-4.747 -2.743)" fill="#7f824d"/>
          <path id="Trazado_196491" data-name="Trazado 196491" d="M21.812,15.162a16.244,16.244,0,0,0,1.244,4.008,23.72,23.72,0,0,0,2.872,4.254,22,22,0,0,1,1.95,2.74c.871,1.5,1.644,3.026,2.62,4.467a21.121,21.121,0,0,0,2.61,3.471c.388.386.334-.788.333-.917a12.851,12.851,0,0,0-2.168-7.026,26.5,26.5,0,0,0-2.759-3.087,48.735,48.735,0,0,1-4.061-4.036,18.427,18.427,0,0,1-1.645-2.473c-.231-.405-.411-.843-.61-1.265-.058-.124-.468-.531-.386-.135" transform="translate(-3.35 -2.304)" fill="#999964"/>
          <path id="Trazado_196492" data-name="Trazado 196492" d="M84.544,26.824C83.23,29.043,81.892,31.361,82,34.185a14.339,14.339,0,0,1,.08,2.708c-.139.853-.657,1.761-1.669,1.7a3.11,3.11,0,0,1-2.341-1.745,5.446,5.446,0,0,1-1.38,1.241,2.581,2.581,0,0,1-2.184-.07,2.794,2.794,0,0,1-1.484-3.087,5.094,5.094,0,0,1,2.009-2.251c3.6-2.836,6.784-8.742,9.541-12.989,6.694-10.312,4.961-13.06,5.763-14.77a2.513,2.513,0,0,1,3.012-1.308c1.861.534,2.14,2.867,2.14,2.867a2.484,2.484,0,0,1,3.274-.439,2.555,2.555,0,0,1,.9,3.459A4.612,4.612,0,0,1,96.9,10.71c-2.244.463-4.466,3.759-5.686,5.493-2.405,3.419-4.537,7.021-6.667,10.621" transform="translate(-11.209 -0.539)" fill="#f9f3e4"/>
          <path id="Trazado_196493" data-name="Trazado 196493" d="M99.013,8.888a4.519,4.519,0,0,1,2.112-1.357,3.215,3.215,0,0,1,2.752.6c.037.031.069.063.1.1a2.806,2.806,0,0,0-1.211-1.8,2.483,2.483,0,0,0-3.273.44,2.684,2.684,0,0,1-.483,2.026" transform="translate(-15.216 -0.918)" fill="#e2d3b5"/>
          <path id="Trazado_196494" data-name="Trazado 196494" d="M74.961,38.191a2.93,2.93,0,0,1-.819-2.346,4.692,4.692,0,0,1,1.849-2.679,20.086,20.086,0,0,0,2.218-2.61c4.676-5.788,8.484-11.5,10.53-16.126,2.017-4.564,1.688-7.373,2.631-8.771.86-1.275,2.811-2.19,4.055.492a3.29,3.29,0,0,0-2.077-2.536,2.513,2.513,0,0,0-3.012,1.308c-.8,1.71.929,4.457-5.763,14.769-2.756,4.247-5.945,10.153-9.541,12.989a5.093,5.093,0,0,0-2.009,2.251,2.8,2.8,0,0,0,1.484,3.087,2.681,2.681,0,0,0,.454.172" transform="translate(-11.209 -0.539)" fill="#e2d3b5"/>
          <path id="Trazado_196495" data-name="Trazado 196495" d="M94.335,13.082a5.513,5.513,0,0,0,.724-2.223c-.081-.033-.413.95-.987,2.073s-1.16,1.961-1.088,2.015a5.266,5.266,0,0,0,1.352-1.865" transform="translate(-14.288 -1.669)" fill="#e2d3b5"/>
          <path id="Trazado_196496" data-name="Trazado 196496" d="M95,14.782c-.3.474-.487.9-.417.941s.371-.3.671-.774.487-.9.417-.941-.371.3-.671.774" transform="translate(-14.532 -2.152)" fill="#e2d3b5"/>
          <path id="Trazado_196497" data-name="Trazado 196497" d="M93.7,16.216c.2-.361.309-.689.237-.732s-.294.214-.5.575-.309.689-.238.732.294-.214.5-.575" transform="translate(-14.32 -2.379)" fill="#e2d3b5"/>
          <path id="Trazado_196498" data-name="Trazado 196498" d="M92.378,19.537c.248-.483.391-.908.318-.95s-.333.316-.581.8-.391.908-.319.95.333-.316.581-.8" transform="translate(-14.104 -2.856)" fill="#e2d3b5"/>
          <path id="Trazado_196499" data-name="Trazado 196499" d="M89.516,22.818a6.025,6.025,0,0,0-1.143,1.519,6.109,6.109,0,0,0-.89,1.685A6.024,6.024,0,0,0,88.627,24.5a6.1,6.1,0,0,0,.889-1.686" transform="translate(-13.443 -3.506)" fill="#e2d3b5"/>
          <path id="Trazado_196500" data-name="Trazado 196500" d="M88.353,26.4c.2-.347.313-.664.242-.708s-.295.2-.5.548-.312.664-.241.708.294-.2.5-.548" transform="translate(-13.498 -3.947)" fill="#e2d3b5"/>
          <path id="Trazado_196501" data-name="Trazado 196501" d="M85.236,33.432a37.326,37.326,0,0,0,1.073,6.984,6.024,6.024,0,0,1-6.364,1.59,6.7,6.7,0,0,0-1.645-.434c-.658-.023-1.18.3-1.824.322a5.1,5.1,0,0,1-2.969-1.315,14.257,14.257,0,0,1-3.086-3.115,6.184,6.184,0,0,1-1.247-3.68c.118-2.111,8.407-4.91,10.186-7.091.657-.8.718-5.094,1.678-5.6A8.629,8.629,0,0,0,83.5,19.818a5.6,5.6,0,0,1,2.4-.881q-.264.462-.531.911c.5.256.568-.124.831.336a3.371,3.371,0,0,0,2.259,1.622l1.13-1.719c.407.278-.177,1.24-.044,1.416.311.416-.262,1.83-.416,2.147.723,2.4-3.812,7.554-3.9,9.782" transform="translate(-10.63 -2.91)" fill="#bc6931"/>
          <path id="Trazado_196502" data-name="Trazado 196502" d="M80.916,41.893c-2.054-.647-1.349.944-2.917,1.492-1.305.456,1.023,1.216,1.5,1.477.031,0,.063,0,.095,0a6.7,6.7,0,0,1,1.645.434,6.027,6.027,0,0,0,6.364-1.59s-.388-1.6-.7-3.374c-2.1.99-4.761,1.934-5.989,1.564" transform="translate(-11.926 -6.198)" fill="#cc7c3f"/>
          <path id="Trazado_196503" data-name="Trazado 196503" d="M88.816,26.429a1.752,1.752,0,0,0-.017-.219,4.919,4.919,0,0,0-.326-1.18c-.055-.135-.661-1.105-.636-1.15q-.551.975-1.1,1.95c-.086.152-.189.317-.388.343-.434.058-.842-.558-.814-.965s.261-.76.142-1.193c-.206-.746-1.236-1.173-2.057-1.409a7.812,7.812,0,0,0-2.875-.46c-.049.006-.092.02-.14.027-.565,1.335-.7,4.347-1.243,5.009-1.781,2.182-10.069,4.981-10.186,7.092a3.973,3.973,0,0,0,.007.5,9.267,9.267,0,0,0,1.582,1.682,11.353,11.353,0,0,0,3.1,2.1,4.607,4.607,0,0,0,3.072-.2c1.248-.3,2.76,1.483,3.166,1.988a2.284,2.284,0,0,0,1.5.828,1.135,1.135,0,0,0,1.186-.608c.185-.436.119-1.094.626-1.216a1.4,1.4,0,0,1,1.016.329c.313.225,1.137,1.153,1.874,1.232a37.378,37.378,0,0,1-1.074-6.984c.063-1.657,2.589-4.933,3.581-7.492" transform="translate(-10.63 -3.4)" fill="#f7be97"/>
          <path id="Trazado_196504" data-name="Trazado 196504" d="M85.693,23.783c-.244-.187-1.148,1.708-1.622,2.1s-.344-.859-.471-1.295-.877-2.226-.926-1.086.284,3.218-3.107,6.187c-.058.051-.116.119-.08.206a.262.262,0,0,0,.253.133.367.367,0,0,0,.211-.122L82.6,27.409a12.6,12.6,0,0,1-1.891,5.219,1.122,1.122,0,0,0-.227.522c-.015.2-.068.866.306.593a25.455,25.455,0,0,0,3.1-3.906,26.361,26.361,0,0,1,2.8-3.722.363.363,0,0,0,.124-.245.267.267,0,0,0-.217-.239.2.2,0,0,0-.157.08c-.124.124-.382.37-.664.179s.3-1.34.215-1.546a.961.961,0,0,0-.3-.563" transform="translate(-12.214 -3.554)" fill="#e29e6f"/>
          <path id="Trazado_196505" data-name="Trazado 196505" d="M85.342,35.722a36.261,36.261,0,0,1,.691-4.364c.164-.907-.922,1.375-1.169,1.858-.269.526-.095-1.561-.387-1.209a7.583,7.583,0,0,0-1.321,2.827c-.11.971-2.12,1.918-2.955,3.191a.164.164,0,0,0,.159.275.417.417,0,0,0,.2-.1l.84-.665a15.951,15.951,0,0,0,.3,2.124,1.148,1.148,0,0,0,.177.464.376.376,0,0,0,.7-.048l1.56-2.686a2.106,2.106,0,0,1,.541,1.113A4.676,4.676,0,0,0,85,39.672c.144.285.617.865.73.329a4.162,4.162,0,0,0-.229-1.33,13.435,13.435,0,0,1-.155-2.949" transform="translate(-12.317 -4.787)" fill="#e29e6f"/>
          <path id="Trazado_196506" data-name="Trazado 196506" d="M79.275,32.4a.573.573,0,0,0,.093-.3.376.376,0,0,0-.206-.307.355.355,0,0,0-.413.126,5.983,5.983,0,0,0-.795,1.044.426.426,0,0,1-.173.19.275.275,0,0,1-.3-.063.313.313,0,0,1-.057-.279c.041-.265.3-.486.125-.8s-.414.377-.621.565A.261.261,0,0,1,76.8,32.3.33.33,0,0,0,76.752,32a.356.356,0,0,0-.383-.042,13.073,13.073,0,0,0-4.764,3.511.5.5,0,0,0-.168.267.333.333,0,0,0,.177.324c.283.142.439-.25.733-.168a.451.451,0,0,1,.289.323.805.805,0,0,1-.034.37,3.615,3.615,0,0,0,0,1.566.893.893,0,0,0,.357.608.552.552,0,0,0,.552.019.946.946,0,0,0,.314-.364l2.743-4.6a.725.725,0,0,1,.344.658,1.343,1.343,0,0,1-.257.581,5.18,5.18,0,0,0-.686,3.267c.042.413.361,1,.739.588.317-.352.3-1.034.428-1.5A19.533,19.533,0,0,1,78.4,34.1c.277-.579.571-1.147.874-1.71" transform="translate(-10.978 -4.881)" fill="#e29e6f"/>
          <path id="Trazado_196507" data-name="Trazado 196507" d="M66.129,19.466a14.418,14.418,0,0,0,6.125,6.425,23.82,23.82,0,0,0,5,1.723,12.629,12.629,0,0,0,4.069.047c2.7-.168,3.261.577,5.864.223.742-.1,2-2.321,3.447-2.545s1.625-1.231,2.194-1.981c1.169-1.54,1.8-2.734,4.954-2.617s2.546-4.923,6.381-10.963c0,0,7.212,18.656-12.333,23.2-20.913,4.866-25.7-13.516-25.7-13.516" transform="translate(-10.162 -1.503)" fill="#ff402c"/>
          <path id="Trazado_196508" data-name="Trazado 196508" d="M60.689,12.383c1.249,11.654,13.654,22.869,25.668,21.981,11.756-.868,10,6.077-4.148,4.888-7.9-.663-19.807-4.329-24.187-9.684-2.355-4.8-1.936-10.911-1.221-16.98Z" transform="translate(-8.643 -1.903)" fill="#0e5103"/>
          <path id="Trazado_196509" data-name="Trazado 196509" d="M60.791,11.955C62.04,23.608,74.445,34.824,86.459,33.935c11.756-.868,21.42-13.217,18.06-24.279l1.162-.061c4.6,14.15-3.1,28.175-18.215,29.362C71.921,40.179,57.985,27.2,56.9,12.159Z" transform="translate(-8.745 -1.475)" fill="#137a04"/>
          <path id="Trazado_196510" data-name="Trazado 196510" d="M61.991,11.915c1.315,11.724,12.347,21.53,24.423,20.654,11.815-.858,19.85-11.641,16.563-22.808l1.773-.093C109,23,101.606,36.1,87.341,37.195,72.694,38.321,59.507,26.224,58.4,12.1Z" transform="translate(-8.975 -1.486)" fill="#d9e0ba"/>
          <path id="Trazado_196511" data-name="Trazado 196511" d="M62.821,11.906a.461.461,0,0,1,.466.594,3.96,3.96,0,0,0-.179,1.648,4.423,4.423,0,0,0,2.912,3.683,1.781,1.781,0,0,1,1.154,1.643,4.559,4.559,0,0,0,.167,1.131,4.811,4.811,0,0,0,2.969,3.187,4.222,4.222,0,0,0,1.137.246,1.6,1.6,0,0,1,1.418,1.483,5.1,5.1,0,0,0,4.508,4.646,3.916,3.916,0,0,0,1.293-.141,5.46,5.46,0,0,1,4.574.821,4.342,4.342,0,0,0,3.291.73A3.713,3.713,0,0,0,89.407,27.9a4.958,4.958,0,0,0-.08-1.047,1.116,1.116,0,0,1,1.048-1.378l.054,0a3.282,3.282,0,0,0,2.869-2,1.076,1.076,0,0,1,1.49-.508,4.087,4.087,0,0,0,2.639.242c1.526-.4,3.1-1.4,3.665-5.94a22.064,22.064,0,0,1,2.237-7.5c3.52,11.371-2.487,24.115-16.1,25.132-13.958,1.044-25.484-10.9-26.542-22.891Z" transform="translate(-9.326 -1.502)" fill="#ed280d"/>
          <path id="Trazado_196512" data-name="Trazado 196512" d="M96.959,30.066c-.444.01-.476,1.787-.358,2.42s.58,1.144,1.031,1.133.715-.537.592-1.172-.823-2.391-1.265-2.381" transform="translate(-14.836 -4.62)" fill="#4f2510"/>
          <path id="Trazado_196513" data-name="Trazado 196513" d="M100.852,28.5c-.341.234.406,1.869.771,2.383s.941.741,1.283.5.317-.851-.05-1.363-1.666-1.753-2-1.519" transform="translate(-15.485 -4.376)" fill="#4f2510"/>
          <path id="Trazado_196514" data-name="Trazado 196514" d="M105.8,27.843c-.408-.459-1.159-.972-1.448-.734s-.008,1.15.4,1.614.978.644,1.268.4.19-.818-.22-1.279" transform="translate(-16.018 -4.157)" fill="#4f2510"/>
          <path id="Trazado_196515" data-name="Trazado 196515" d="M36.028,27.286l-1.29.185-.045,2.185-1.208.519-.1.655-1.152.438.017,1.077-.889.291.591,1.161,1.232-.126,2.95-4.292Z" transform="translate(-4.819 -4.193)" fill="#fcddb9"/>
          <path id="Trazado_196516" data-name="Trazado 196516" d="M18.555,26.114,20.5,29.438l6.763-.326-.887-1.292-.509-.038-1.09-1.047L22.68,26.55l-.619-1.228-.62.08-.4-.337-.867-.025-.266.365-.728-.052Z" transform="translate(-2.851 -3.848)" fill="#fcddb9"/>
          <path id="Trazado_196517" data-name="Trazado 196517" d="M25.51,28.451a2.871,2.871,0,0,0-1.305-.882c-.29-.1-.589-.1-.881-.173a5.026,5.026,0,0,1-1.379-.764,3.193,3.193,0,0,0-3.315.063c-.347.223-.059.567.294.717-.066.23.49.559.724.619a.987.987,0,0,0,.719.461c.088.24.625.478.776.482q2.021.063,4.039-.023c.266-.012.581-.211.328-.5" transform="translate(-2.839 -4.026)" fill="#f9c898"/>
          <path id="Trazado_196518" data-name="Trazado 196518" d="M28.236,31.413a5.522,5.522,0,0,1-9.795-5.1c.294.117.645.116.939.234l.13.6,1.231.432.315.724,1.051-.493.645.333.475-.321.9.349,1.089-.384.915.918.595-.336.952.421,1.272.152.155.812Z" transform="translate(-2.738 -4.043)" fill="#f9974e"/>
          <path id="Trazado_196519" data-name="Trazado 196519" d="M20.148,32.239a6.85,6.85,0,0,1-2.23-1.851,5.522,5.522,0,0,0,10.334,1.583l.869-1.668-.069-.36a6.875,6.875,0,0,1-8.9,2.3" transform="translate(-2.754 -4.602)" fill="#f7883c"/>
          <path id="Trazado_196520" data-name="Trazado 196520" d="M32.056,33.3c2.286,1.092,6.128,1.007,7.515-.652,1.336-1.6.789-5.721-1.669-8.6l-.373.87-.507.028-.579,1.183-.645.027,0,1-.523.081.146.526-.763.324.41,1.4-1.184.252.138,1.232-1.168.479L32.85,33Z" transform="translate(-4.926 -3.696)" fill="#f9974e"/>
          <path id="Trazado_196521" data-name="Trazado 196521" d="M38.538,25.034c1.147,2.459,1.211,5.1.2,6.307-1.093,1.307-3.709,1.636-5.888,1.183l0,.627-.794.3c2.286,1.093,6.128,1.007,7.515-.652,1.212-1.449.874-4.977-1.033-7.765" transform="translate(-4.926 -3.847)" fill="#f7883c"/>
          <path id="Trazado_196522" data-name="Trazado 196522" d="M18.827,27.725c-.1-.013-.222.171-.3.4a1.944,1.944,0,0,0-.107.652c.017.289.221.5.427.465a.459.459,0,0,0,.332-.509,3.865,3.865,0,0,0-.116-.585c-.06-.218-.132-.414-.237-.427" transform="translate(-2.831 -4.261)" fill="#ffae6c"/>
          <path id="Trazado_196523" data-name="Trazado 196523" d="M20.68,30.031a.389.389,0,0,0,.325-.443c-.029-.218-.278-.813-.486-.786s-.3.667-.267.884a.389.389,0,0,0,.428.345" transform="translate(-3.111 -4.426)" fill="#ffae6c"/>
          <path id="Trazado_196524" data-name="Trazado 196524" d="M20.616,31.164a4.325,4.325,0,0,0-.476-.292c-.187-.1-.369-.187-.454-.124s-.048.273.059.489a1.7,1.7,0,0,0,.394.52.418.418,0,0,0,.621-.024.452.452,0,0,0-.145-.569" transform="translate(-3.018 -4.722)" fill="#ffae6c"/>
          <path id="Trazado_196525" data-name="Trazado 196525" d="M39.485,27.228c.15-.04.2-.335.116-.66s-.278-.556-.427-.516-.2.336-.116.661.278.556.427.515" transform="translate(-5.996 -4.003)" fill="#ffae6c"/>
          <path id="Trazado_196526" data-name="Trazado 196526" d="M37.864,27.462c-.143.067-.146.359-.139.676s.043.616.193.667c.074.021.166-.034.243-.157a.966.966,0,0,0,.126-.53.955.955,0,0,0-.167-.523c-.088-.117-.186-.163-.256-.134" transform="translate(-5.797 -4.219)" fill="#ffae6c"/>
          <path id="Trazado_196527" data-name="Trazado 196527" d="M39.905,28.121c-.055-.109-.137-.161-.212-.148a.284.284,0,0,0-.184.162,1.147,1.147,0,0,0-.111.309c-.048.234-.048.478.087.558s.386-.092.463-.439a.68.68,0,0,0-.042-.442" transform="translate(-6.05 -4.298)" fill="#ffae6c"/>
          <rect id="Rect치ngulo_45322" data-name="Rect치ngulo 45322" width="76.485" height="10.986" transform="translate(14.211 133.428)"/>
          <path id="Trazado_196528" data-name="Trazado 196528" d="M79.448,158.641H30.122a9.493,9.493,0,0,1-9.48-8.995L15.172,45.611H94.4L88.927,149.646a9.493,9.493,0,0,1-9.48,8.995" transform="translate(-2.332 -7.009)" fill="#327f32"/>
          <path id="Trazado_196529" data-name="Trazado 196529" d="M75.629,158.641H37.088c-3.946,0-7.2-3.952-7.407-8.995L25.406,45.611h61.9L83.036,149.646c-.207,5.042-3.462,8.995-7.407,8.995" transform="translate(-3.904 -7.009)" fill="#36ad36"/>
          <path id="Trazado_196530" data-name="Trazado 196530" d="M15.163,170.2H10.375a.766.766,0,0,1-.766-.766V156.176a.766.766,0,0,1,.766-.766h4.789a.766.766,0,0,1,.766.766v13.257a.766.766,0,0,1-.766.766" transform="translate(-1.477 -23.883)" fill="#327f32"/>
          <path id="Trazado_196531" data-name="Trazado 196531" d="M17.948,174.549H12.26a1.126,1.126,0,0,1-1.126-1.126V150.255a1.125,1.125,0,0,1,1.126-1.126h5.688a1.125,1.125,0,0,1,1.126,1.126v23.169a1.126,1.126,0,0,1-1.126,1.126" transform="translate(-1.711 -22.918)" fill="#2d2d2d"/>
          <path id="Trazado_196532" data-name="Trazado 196532" d="M107.646,170.2h4.788a.766.766,0,0,0,.766-.766V156.176a.766.766,0,0,0-.766-.766h-4.788a.766.766,0,0,0-.766.766v13.257a.766.766,0,0,0,.766.766" transform="translate(-16.425 -23.883)" fill="#327f32"/>
          <path id="Trazado_196533" data-name="Trazado 196533" d="M104.567,174.549h5.688a1.126,1.126,0,0,0,1.126-1.126V150.255a1.126,1.126,0,0,0-1.126-1.126h-5.688a1.125,1.125,0,0,0-1.126,1.126v23.169a1.126,1.126,0,0,0,1.126,1.126" transform="translate(-15.896 -22.918)" fill="#2d2d2d"/>
          <path id="Trazado_196534" data-name="Trazado 196534" d="M53.848,66.156H53.7c-2.948,0-6.606,6.622-7.255,7.843L54.4,78.5a60.151,60.151,0,0,1,4.949-8.049c-1.633-2.273-3.616-4.3-5.5-4.3" transform="translate(-7.137 -10.167)" fill="#fff"/>
          <path id="Trazado_196535" data-name="Trazado 196535" d="M65.023,76.487l.079.173-2.161,1.482h8.737l3.6-7.14-2.155.881-.091-.2c-.026-.055-2.6-5.53-5.828-5.53H57.233c3.963,2,7.616,9.947,7.79,10.331" transform="translate(-8.795 -10.167)" fill="#fff"/>
          <path id="Trazado_196536" data-name="Trazado 196536" d="M68.3,96.785l-.19-.019-.19-2.613L63.513,101.7l4.354,6.706.325-2.306.216.02c.061.007,6.088.54,7.713-2.244l5.026-8.608c-3.725,2.415-12.43,1.561-12.85,1.518" transform="translate(-9.76 -14.469)" fill="#fff"/>
          <path id="Trazado_196537" data-name="Trazado 196537" d="M80.353,81.479l-7.9,4.6a60.2,60.2,0,0,1,4.454,8.333c2.785-.264,5.532-.954,6.484-2.58l.078-.133c1.486-2.546-2.387-9.042-3.114-10.219" transform="translate(-11.134 -12.521)" fill="#fff"/>
          <path id="Trazado_196538" data-name="Trazado 196538" d="M48.541,88.81l.109-.156,2.373,1.11-4.431-7.521-7.491.894,1.362,1.035-.123.178c-.035.051-3.442,5.052-1.807,7.828l5.059,8.588c-.289-4.429,4.7-11.609,4.948-11.955" transform="translate(-5.854 -12.639)" fill="#fff"/>
          <path id="Trazado_196539" data-name="Trazado 196539" d="M46.462,97.708c-1.131,2.56-1.869,5.3-.916,6.92v0h0l.076.129c1.5,2.539,9.057,2.332,10.439,2.271l-.156-9.141a60.149,60.149,0,0,1-9.446-.181" transform="translate(-6.932 -15.015)" fill="#fff"/>
          <path id="Trazado_196540" data-name="Trazado 196540" d="M97.23,43.948H11.085V38.72a3.93,3.93,0,0,1,3.929-3.93H93.3a3.93,3.93,0,0,1,3.93,3.93Z" transform="translate(-1.703 -5.346)" fill="#265e26"/>
          <path id="Trazado_196541" data-name="Trazado 196541" d="M55.084,4.419c-.658-.168-.6-1.628-1.443-3.228l-1.533.622c.14.657.806,2.389-.172,3.021Z" transform="translate(-7.981 -0.183)" fill="#ffd13f"/>
          <path id="Trazado_196542" data-name="Trazado 196542" d="M49.025,7.446C48.9,15.594,50.75,23,46.941,26.177c-1.774,1.477-7.01,1.724-9.062.278-.222-.157-.158-.73-.052-.842,9.427-.978,6.469-9.925,11.2-18.167" transform="translate(-5.798 -1.144)" fill="#ffe8a9"/>
          <path id="Trazado_196543" data-name="Trazado 196543" d="M49.033,6.905c-.124,8.148,1.725,15.557-2.084,18.731-1.774,1.477-7.078,1.816-9.062.278a.289.289,0,0,1,.158-.51c9.427-.978,6.259-10.257,10.988-18.5" transform="translate(-5.806 -1.061)" fill="#ffbc00"/>
          <path id="Trazado_196544" data-name="Trazado 196544" d="M51.277,5.223C46.19,6.437,48.547,24.6,43.706,27.9a25.378,25.378,0,0,1-4.85,3.231.638.638,0,0,0,.286.922s7.873,3.112,12.578-2.848c3.913-4.956,2.847-18.066-.443-23.984" transform="translate(-5.955 -0.803)" fill="#ffe8a9"/>
          <path id="Trazado_196545" data-name="Trazado 196545" d="M59.819,18.226a24.383,24.383,0,0,0,2.7,2.622c4.448,3.607,13.267,3.739,13.267,3.739a.763.763,0,0,1-.454.754c-5.971,1.877-10.517,1.473-14.85-.8a20.436,20.436,0,0,1-.669-6.317" transform="translate(-9.189 -2.801)" fill="#fce09a"/>
          <path id="Trazado_196546" data-name="Trazado 196546" d="M59.87,17.379A17.447,17.447,0,0,0,62.4,19.986c4.544,3.684,12.492,2.717,13.376,4.339a.192.192,0,0,1-.12.267c-6.079,1.87-11.125,1.451-15.332-.823a20.36,20.36,0,0,1-.457-6.389" transform="translate(-9.189 -2.671)" fill="#ffbc00"/>
          <path id="Trazado_196547" data-name="Trazado 196547" d="M53.552,4.432c.494,16.385,7.288,27.712,22.589,26.64.5-.058.746-.405.665-.781s-8.566-2.11-12.055-6.652C60.091,17.57,57.7,5.813,53.552,4.432" transform="translate(-8.23 -0.681)" fill="#ffe8a9"/>
          <path id="Trazado_196548" data-name="Trazado 196548" d="M51.28,4.432c-5.087,1.214-2.73,19.38-7.571,22.68-3.037,2.538-4.323,3.522-4.85,3.9a.214.214,0,0,0,.054.378c1.679.587,8.283,2.464,12.513-2.583C54.9,24.66,54.57,10.351,51.28,4.432" transform="translate(-5.958 -0.681)" fill="#ffd63f"/>
          <path id="Trazado_196549" data-name="Trazado 196549" d="M53.552,4.432c1.493,16.679,7.915,26.991,23.064,26.027a.2.2,0,0,0,.187-.243c-.512-1.776-8.443-2.687-12-7.316C60.143,16.83,59.921,4.882,53.552,4.432" transform="translate(-8.23 -0.681)" fill="#ffd63f"/>
          <path id="Trazado_196550" data-name="Trazado 196550" d="M66.421,26.832c.006-.016-.069-.071-.214-.159l-.27-.158-.341-.255A7.668,7.668,0,0,1,63.864,24.2a24.016,24.016,0,0,1-1.709-3.675c-.548-1.433-1.082-3.037-1.657-4.722s-1.153-3.285-1.762-4.712a21.479,21.479,0,0,0-1.945-3.64c-.666-.977.934,2.4,1.519,3.819s1.14,3.012,1.713,4.7,1.125,3.29,1.7,4.728a21.564,21.564,0,0,0,1.84,3.7,7,7,0,0,0,1.919,2.033l.38.225c.118.052.22.089.3.12.163.06.251.084.257.068" transform="translate(-8.703 -1.118)" fill="#ffaa21"/>
          <path id="Trazado_196551" data-name="Trazado 196551" d="M42.523,30.763a2.881,2.881,0,0,0,1.078-.358,6.53,6.53,0,0,0,2.36-2.012A13.029,13.029,0,0,0,47.9,24.228a35.08,35.08,0,0,0,1.052-5.5c.472-3.936,1.105-11.381.8-10.111-.63,2.548-.832,6.141-1.3,10.049a38.177,38.177,0,0,1-1,5.438,13.405,13.405,0,0,1-1.786,4.084,6.889,6.889,0,0,1-2.167,2.048c-.616.36-1,.487-.985.53" transform="translate(-6.535 -1.302)" fill="#fc9c12"/>
          <path id="Trazado_196552" data-name="Trazado 196552" d="M56.256,18c.11-.041-.578-1.985-1.148-4.453-.591-2.465-.828-4.508-.921-4.5a14.558,14.558,0,0,0,.554,4.589,24.805,24.805,0,0,0,.944,3.134A4.463,4.463,0,0,0,56.256,18" transform="translate(-8.32 -1.389)" fill="#ffbc00"/>
          <path id="Trazado_196553" data-name="Trazado 196553" d="M50.779,26.078c.085-.355.262-.618.4-.587s.176.347.091.7-.262.619-.4.587-.175-.347-.091-.7" transform="translate(-7.797 -3.917)" fill="#d48408"/>
          <path id="Trazado_196554" data-name="Trazado 196554" d="M53.447,26.727c.135-.016.294.4.236.923s-.3.9-.429.851-.118-.441-.069-.9.123-.855.262-.87" transform="translate(-8.168 -4.107)" fill="#d48408"/>
          <path id="Trazado_196555" data-name="Trazado 196555" d="M50.584,28.54c.13.041.109.468-.119.919s-.559.721-.669.641.014-.453.222-.867.433-.736.567-.693" transform="translate(-7.646 -4.385)" fill="#d48408"/>
          <path id="Trazado_196556" data-name="Trazado 196556" d="M51.986,29.124c-.136-.027-.214-.207-.174-.4s.181-.33.317-.3.213.208.174.4-.182.331-.317.3" transform="translate(-7.961 -4.367)" fill="#d48408"/>
          <path id="Trazado_196557" data-name="Trazado 196557" d="M52,31.276c.125.054.062.476-.225.893s-.655.629-.752.531.082-.44.338-.816.511-.665.639-.609" transform="translate(-7.836 -4.805)" fill="#d48408"/>
          <path id="Trazado_196558" data-name="Trazado 196558" d="M48.157,32.2c.107.09-.028.427-.3.756s-.58.522-.686.433.028-.427.3-.755.58-.522.686-.434" transform="translate(-7.243 -4.945)" fill="#d48408"/>
          <path id="Trazado_196559" data-name="Trazado 196559" d="M45.776,34.953c.487-.223.917-.354.989-.234s-.263.453-.779.69-.988.277-1.03.146.333-.376.819-.6" transform="translate(-6.908 -5.329)" fill="#d48408"/>
          <path id="Trazado_196560" data-name="Trazado 196560" d="M59.5,20.888c-.173-.43-.21-.821-.081-.873s.373.255.547.685.21.821.081.873-.373-.256-.547-.686" transform="translate(-9.119 -3.075)" fill="#d48408"/>
          <path id="Trazado_196561" data-name="Trazado 196561" d="M61.682,23.071c.177.262.228.537.113.615s-.351-.072-.528-.334-.228-.537-.113-.615.352.072.529.334" transform="translate(-9.388 -3.491)" fill="#d48408"/>
          <path id="Trazado_196562" data-name="Trazado 196562" d="M59.057,22.383c.126-.057.383.237.572.658s.24.807.114.864-.383-.238-.572-.658-.24-.807-.114-.864" transform="translate(-9.065 -3.439)" fill="#d48408"/>
          <path id="Trazado_196563" data-name="Trazado 196563" d="M61.786,25.148c.146.216.172.454.057.531s-.326-.035-.472-.251-.172-.454-.057-.531.326.035.472.251" transform="translate(-9.411 -3.822)" fill="#d48408"/>
          <path id="Trazado_196564" data-name="Trazado 196564" d="M54.078,21.492c.179.019.3.233.278.476s-.192.427-.371.409-.3-.233-.278-.477.192-.427.372-.408" transform="translate(-8.253 -3.303)" fill="#d48408"/>
          <path id="Trazado_196565" data-name="Trazado 196565" d="M53.045,18.61c.179.014.307.273.285.579s-.186.543-.366.529-.307-.272-.285-.576.186-.544.366-.531" transform="translate(-8.095 -2.86)" fill="#d48408"/>
          <path id="Trazado_196566" data-name="Trazado 196566" d="M51.524,23.173c-.179-.025-.251-.531-.162-1.126s.3-1.058.483-1.033.251.532.162,1.127-.3,1.058-.482,1.032" transform="translate(-7.887 -3.229)" fill="#d48408"/>
          <path id="Trazado_196567" data-name="Trazado 196567" d="M74.716,33.718c.613.108,1.085.34,1.054.517s-.554.234-1.167.125-1.085-.34-1.054-.517.554-.234,1.167-.125" transform="translate(-11.302 -5.173)" fill="#d48408"/>
          <path id="Trazado_196568" data-name="Trazado 196568" d="M71.817,31.667c.34.234.533.543.431.691s-.46.08-.8-.153-.533-.543-.432-.692.46-.08.8.154" transform="translate(-10.909 -4.831)" fill="#d48408"/>
          <path id="Trazado_196569" data-name="Trazado 196569" d="M69.769,31.874c.387.163.644.43.575.6s-.441.168-.828.005-.645-.43-.575-.6.44-.168.828-.005" transform="translate(-10.593 -4.88)" fill="#d48408"/>
          <path id="Trazado_196570" data-name="Trazado 196570" d="M73.617,24.7a.331.331,0,1,1-.385.326.36.36,0,0,1,.385-.326" transform="translate(-11.254 -3.795)" fill="#d48408"/>
          <path id="Trazado_196571" data-name="Trazado 196571" d="M70.165,24.867c-.3-.025-.531-.19-.516-.371s.271-.3.57-.279.531.19.516.37-.271.306-.57.28" transform="translate(-10.703 -3.721)" fill="#d48408"/>
          <path id="Trazado_196572" data-name="Trazado 196572" d="M70.185,25.663c0-.18.289-.331.651-.337s.658.135.661.316-.288.331-.651.337-.658-.135-.661-.316" transform="translate(-10.786 -3.892)" fill="#d48408"/>
          <path id="Trazado_196573" data-name="Trazado 196573" d="M67.92,24.683c.511.129.89.376.845.55s-.494.212-1.005.082-.89-.376-.845-.55.494-.212,1.005-.082" transform="translate(-10.283 -3.781)" fill="#d48408"/>
          <path id="Trazado_196574" data-name="Trazado 196574" d="M53.144.218C53.092.123,53,.135,52.884.084a.647.647,0,0,0-.526-.046L51.673.32c-.162.067-.03.19-.169.285a.243.243,0,0,0,.014.4,2.336,2.336,0,0,1,.509.622l1.533-.622s-.311-.6-.416-.79" transform="translate(-7.9 0)" fill="#d48408"/>
          <path id="Trazado_196575" data-name="Trazado 196575" d="M52.03,4.851c.855-.675.23-2.321.093-2.959l.438-.178a4.22,4.22,0,0,0,.533.986,2.21,2.21,0,0,0,1.4.9H54.5c.152.488.3.823.6.9l-.014,0c-1.429.076-1.56,1.977-1.56,1.977s-.549-1.717-1.5-1.627" transform="translate(-7.996 -0.264)" fill="#ffbc00"/>
          <path id="Trazado_196576" data-name="Trazado 196576" d="M29.906,19.625a55.5,55.5,0,0,0-2.4,13.365.575.575,0,0,0,1.149.052,54.339,54.339,0,0,1,2.353-13.085c.762-2.525-.306-2.968-1.1-.333" transform="translate(-4.227 -2.742)" fill="#7f824d"/>
          <path id="Trazado_196577" data-name="Trazado 196577" d="M30.146,42.649c.007-3.634-.949-6.582-2.134-6.584s-2.153,2.941-2.16,6.575.949,6.582,2.134,6.584,2.153-2.942,2.16-6.576" transform="translate(-3.973 -5.542)" fill="#bc3949"/>
          <path id="Trazado_196578" data-name="Trazado 196578" d="M28.41,41.191c-.774,3.836-2.592,7.261-3.5,7.151-.928-.113-2.6-3.849-1.668-8.387.764-3.738,3.217-5.273,4.266-5.27s1.659,2.767.9,6.507" transform="translate(-3.529 -5.33)" fill="#e7515d"/>
          <path id="Trazado_196579" data-name="Trazado 196579" d="M27.327,41.187c.759,3.839,2.564,7.271,3.476,7.163.928-.109,2.609-3.838,1.7-8.38-.749-3.741-3.2-5.284-4.245-5.286s-1.671,2.761-.93,6.5" transform="translate(-4.15 -5.33)" fill="#e57683"/>
          <path id="Trazado_196580" data-name="Trazado 196580" d="M68.095,24.98a5.021,5.021,0,0,0,.752,2.507,4.677,4.677,0,0,0,2.228,1.429,3.969,3.969,0,0,0,2.739.367,5.1,5.1,0,0,0,1.931-1.443,25.171,25.171,0,0,0,5.249-8.549c.085-.23-3.471-2.158-3.825-2.356q-2.017-1.126-4.122-2.07c-1.084-.484-1.594-.553-2.426.692a15.559,15.559,0,0,0-1.956,4.194,14.3,14.3,0,0,0-.57,5.229" transform="translate(-10.457 -2.235)" fill="#efe5ca"/>
          <path id="Trazado_196581" data-name="Trazado 196581" d="M70.223,30.13c-.19-.1-.614.4-.711.6a.407.407,0,0,0,.17.538.382.382,0,0,0,.516-.19c.1-.2.214-.849.025-.945" transform="translate(-10.676 -4.628)" fill="#f9f3e4"/>
          <path id="Trazado_196582" data-name="Trazado 196582" d="M72.6,28.9c-.218.073-.3.843-.268,1.094a.348.348,0,0,0,.454.322.554.554,0,0,0,.335-.587c-.033-.251-.3-.9-.52-.83" transform="translate(-11.114 -4.441)" fill="#f9f3e4"/>
          <path id="Trazado_196583" data-name="Trazado 196583" d="M71.639,30.724c-.22.034-.407.83-.41,1.1s.173.465.393.431a.553.553,0,0,0,.4-.553c0-.272-.168-1.014-.388-.98" transform="translate(-10.946 -4.721)" fill="#f9f3e4"/>
          <path id="Trazado_196584" data-name="Trazado 196584" d="M73.629,30.981c-.2.135-.091.907.005,1.139a.353.353,0,0,0,.539.179.571.571,0,0,0,.19-.668c-.1-.234-.533-.785-.735-.65" transform="translate(-11.298 -4.758)" fill="#f9f3e4"/>
          <path id="Trazado_196585" data-name="Trazado 196585" d="M75.176,29.248a.49.49,0,0,0,.422-.454c.014-.231-.126-.869-.346-.85s-.436.691-.449.922a.342.342,0,0,0,.373.383" transform="translate(-11.495 -4.294)" fill="#f9f3e4"/>
          <path id="Trazado_196586" data-name="Trazado 196586" d="M73.416,27.886a.458.458,0,0,0,.545-.323c.1-.256.236-1.047.039-1.126s-.651.586-.754.842a.452.452,0,0,0,.17.607" transform="translate(-11.249 -4.062)" fill="#f9f3e4"/>
          <path id="Trazado_196587" data-name="Trazado 196587" d="M71.227,27.618a1.627,1.627,0,0,0-.577.309.535.535,0,0,0-.134.7.387.387,0,0,0,.566,0,3.9,3.9,0,0,0,.383-.457c.136-.187.258-.376.223-.489s-.235-.122-.46-.055" transform="translate(-10.824 -4.238)" fill="#f9f3e4"/>
          <path id="Trazado_196588" data-name="Trazado 196588" d="M72.084,25.973c.155-.091.533-.531.458-.754s-.578-.146-.733-.055a.494.494,0,0,0-.143.57c.075.223.263.331.418.24" transform="translate(-11.008 -3.853)" fill="#f9f3e4"/>
          <path id="Trazado_196589" data-name="Trazado 196589" d="M68.6,25.41a.635.635,0,0,0-.351.7c.091.215.363.254.616.11.245-.159.958-.678.928-.911-.033-.256-.906-.087-1.193.1" transform="translate(-10.484 -3.87)" fill="#f9f3e4"/>
          <path id="Trazado_196590" data-name="Trazado 196590" d="M69.259,26.823a.538.538,0,0,0-.159.64.339.339,0,0,0,.535.1c.191-.149.651-.737.547-.942s-.73.052-.923.2" transform="translate(-10.612 -4.079)" fill="#f9f3e4"/>
          <path id="Trazado_196591" data-name="Trazado 196591" d="M68.178,29.034a.525.525,0,0,0-.18.611.323.323,0,0,0,.489.177c.185-.12.64-.636.555-.854s-.68-.054-.864.066" transform="translate(-10.444 -4.435)" fill="#f9f3e4"/>
          <path id="Trazado_196592" data-name="Trazado 196592" d="M67.737,27.12a.51.51,0,0,0-.338.526c.008.251.171.421.365.38s.737-.357.729-.607-.563-.339-.756-.3" transform="translate(-10.358 -4.166)" fill="#f9f3e4"/>
          <path id="Trazado_196593" data-name="Trazado 196593" d="M68.646,23.758c-.011.253.317.421.732.376s1.6-.379,1.614-.632-1.158-.329-1.573-.284-.762.288-.773.541" transform="translate(-10.549 -3.566)" fill="#f9f3e4"/>
          <path id="Trazado_196594" data-name="Trazado 196594" d="M68.648,21.761c.351.134,1.424.316,1.519.073s-.823-.818-1.175-.952-.713-.045-.808.2.113.548.464.681" transform="translate(-10.475 -3.199)" fill="#f9f3e4"/>
          <path id="Trazado_196595" data-name="Trazado 196595" d="M67.6,23.283c.235-.027.909-.31.919-.562s-.648-.381-.883-.354a.534.534,0,0,0-.443.507.368.368,0,0,0,.407.409" transform="translate(-10.325 -3.437)" fill="#f9f3e4"/>
          <path id="Trazado_196596" data-name="Trazado 196596" d="M68.429,24.63c.012-.253-.761-.377-1.038-.349a.58.58,0,0,0-.522.51.4.4,0,0,0,.478.407c.277-.029,1.07-.316,1.082-.569" transform="translate(-10.276 -3.731)" fill="#f9f3e4"/>
          <path id="Trazado_196597" data-name="Trazado 196597" d="M72.339,23.282c-.127-.184-.976.394-1.238.651s-.373.614-.246.8.443.125.707-.132.9-1.133.778-1.317" transform="translate(-10.88 -3.572)" fill="#f9f3e4"/>
          <path id="Trazado_196598" data-name="Trazado 196598" d="M73.741,25.384c.1-.291.2-1.164-.005-1.222s-.641.719-.736,1.011-.007.575.2.633.448-.13.543-.421" transform="translate(-11.212 -3.713)" fill="#f9f3e4"/>
          <path id="Trazado_196599" data-name="Trazado 196599" d="M75.2,25.213c-.206-.056-.517.351-.568.51a.336.336,0,0,0,.279.392.371.371,0,0,0,.465-.188c.051-.159.03-.658-.176-.714" transform="translate(-11.468 -3.874)" fill="#f9f3e4"/>
          <path id="Trazado_196600" data-name="Trazado 196600" d="M77.075,26.794c-.047-.227-.353-.8-.568-.7s-.256.809-.21,1.036a.33.33,0,0,0,.473.245.536.536,0,0,0,.3-.576" transform="translate(-11.722 -4.008)" fill="#f9f3e4"/>
          <path id="Trazado_196601" data-name="Trazado 196601" d="M75.435,30.587c-.207.121-.135.923-.051,1.171a.356.356,0,0,0,.526.229.581.581,0,0,0,.222-.669c-.084-.249-.491-.853-.7-.732" transform="translate(-11.572 -4.698)" fill="#f9f3e4"/>
          <path id="Trazado_196602" data-name="Trazado 196602" d="M76.7,28.232c-.2.13-.107.915-.014,1.155a.355.355,0,0,0,.537.2.577.577,0,0,0,.2-.669c-.092-.24-.52-.814-.723-.684" transform="translate(-11.768 -4.336)" fill="#f9f3e4"/>
          <path id="Trazado_196603" data-name="Trazado 196603" d="M79.022,27.136a.459.459,0,0,0,.579-.282.45.45,0,0,0-.23-.6c-.223-.086-.934-.135-1.031.107s.459.685.682.771" transform="translate(-12.037 -4.024)" fill="#f9f3e4"/>
          <path id="Trazado_196604" data-name="Trazado 196604" d="M78.849,28.106c-.121-.184-.611-.568-.794-.4s.012.833.133,1.017a.348.348,0,0,0,.549.024.528.528,0,0,0,.112-.644" transform="translate(-11.984 -4.252)" fill="#f9f3e4"/>
          <path id="Trazado_196605" data-name="Trazado 196605" d="M68.668,18.7c1.476,1.888,3.683,2.83,5.8,3.806a14.264,14.264,0,0,0,3.72,1.383,5.563,5.563,0,0,0,1.838-.059c.463-1.012.812-1.851,1.026-2.363,1.194-2.875.883-6.686-4.662-6.914-3.963-3.724-6.993-1.3-8.188,1.573-.13.314-.314.757-.525,1.287.363.379.574.754.99,1.286" transform="translate(-10.4 -1.944)" fill="#ffc200"/>
          <path id="Trazado_196606" data-name="Trazado 196606" d="M74.693,23.123a14.308,14.308,0,0,0,3.72,1.384,8.874,8.874,0,0,0,3.176-.328c1-.2,2.309.293,3.394.222.4-2.885-1.111-6.608-7.013-6.738-4.252-1.766-7.582-1.066-8.776,1.808-.018.041-.04.092-.058.137,1.469,1.7,3.553,2.591,5.559,3.515" transform="translate(-10.624 -2.566)" fill="#fc0"/>
          <path id="Trazado_196607" data-name="Trazado 196607" d="M66.842,17.03a7.766,7.766,0,0,1,1.441,1.694c1.476,1.888,3.683,2.829,5.8,3.805a14.388,14.388,0,0,0,3.7,1.38c.165-.42.3-.773.412-1.037,1.2-2.874-.658-5.729-4.91-7.5-3.2-3.081-6.094-2.958-8.08-1.721a3.588,3.588,0,0,0,1.638,3.374" transform="translate(-10.015 -1.973)" fill="#fc0"/>
          <path id="Trazado_196608" data-name="Trazado 196608" d="M79.817,18.356c-.2.472-1.9.213-3.806-.579s-3.292-1.817-3.1-2.289,2.029-.521,3.935.271,3.164,2.125,2.967,2.6" transform="translate(-11.203 -2.327)" fill="#1b7f03"/>
          <path id="Trazado_196609" data-name="Trazado 196609" d="M75.185,15.746c2.025-4.02,5.137-5.2,9.01-4.4l-.236,1.186c-3.21-.592-5.238.691-5.623,4.583a2.65,2.65,0,0,1-3.151-1.366" transform="translate(-11.554 -1.707)" fill="#36b716"/>
          <path id="Trazado_196610" data-name="Trazado 196610" d="M75.185,15.844a11.821,11.821,0,0,1,.736-1.269c1.062,1.787,2.276-1.027,4.162-2.239a5.755,5.755,0,0,1,4.011-.389l-.135.68c-3.21-.592-5.238.691-5.623,4.583a2.65,2.65,0,0,1-3.151-1.366" transform="translate(-11.554 -1.805)" fill="#1e9b04"/>
          <path id="Trazado_196611" data-name="Trazado 196611" d="M68.676,19.185c1.476,1.888,3.683,2.83,5.8,3.806a14.264,14.264,0,0,0,3.72,1.383,6.087,6.087,0,0,0,2.187-.124c.667-2.307.129-5.159-2.867-6.17a17.71,17.71,0,0,1-2.137-.589,13.357,13.357,0,0,1-1.653-.977,4.3,4.3,0,0,0-6,1.429c.338.364.549.73.95,1.242" transform="translate(-10.408 -2.433)" fill="#f9dc06"/>
          <path id="Trazado_196612" data-name="Trazado 196612" d="M82.526,24.019c-.076.349-.185.725-.311,1.115.212-.036.424-.076.638-.121.074-.311.138-.614.179-.9a5.252,5.252,0,0,0-.078-2.266,1.237,1.237,0,0,0-.564-.724,1.735,1.735,0,0,1,.288.785,6.167,6.167,0,0,1-.152,2.114" transform="translate(-12.634 -3.246)" fill="#ffb600"/>
          <path id="Trazado_196613" data-name="Trazado 196613" d="M67.9,18.21c.018-.029.036-.062.054-.09a6.15,6.15,0,0,1,1.391-1.6c.4-.3.671-.4.655-.458s-.322-.037-.807.218a5.255,5.255,0,0,0-1.653,1.534,4.046,4.046,0,0,1,.361.4" transform="translate(-10.379 -2.465)" fill="#ffb600"/>
          <path id="Trazado_196614" data-name="Trazado 196614" d="M72.185,17.765a.585.585,0,0,1-.691-.146.493.493,0,0,1,.126-.766,1.478,1.478,0,0,1,.751-.178c.289.006.523.112.542.256s-.146.306-.306.463a4.124,4.124,0,0,1-.423.37" transform="translate(-10.967 -2.563)" fill="#f9e706"/>
          <path id="Trazado_196615" data-name="Trazado 196615" d="M72.429,19.813a.413.413,0,0,1-.59.1.459.459,0,0,1-.207-.589c.106-.189.585-.614.8-.478s.1.783-.008.972" transform="translate(-11.001 -2.891)" fill="#f9e706"/>
          <path id="Trazado_196616" data-name="Trazado 196616" d="M74.293,18.467c-.019.211-.269.361-.559.335s-.509-.218-.491-.429.307-.788.6-.763.471.646.453.856" transform="translate(-11.255 -2.706)" fill="#f9e706"/>
          <path id="Trazado_196617" data-name="Trazado 196617" d="M85.617,20.7a.718.718,0,0,1-.408,1.066.866.866,0,0,1-.96-.362c-.074-.149-.166-.465-.271-.779s-.208-.633-.083-.807.5-.14.884.071a2.168,2.168,0,0,1,.838.81" transform="translate(-12.884 -3.029)" fill="#f9e406"/>
        </g>
      </g>
    </g>
  </g>
</svg>
