<svg xmlns="http://www.w3.org/2000/svg" xmlns:xlink="http://www.w3.org/1999/xlink" width="135" height="155.207" viewBox="0 0 135 155.207">
  <defs>
    <clipPath id="clip-path">
      <rect id="Rectángulo_45321" data-name="Rectángulo 45321" width="88.643" height="145.565" fill="none"/>
    </clipPath>
  </defs>
  <g id="Grupo_146936" data-name="Grupo 146936" transform="translate(-733 -6656.793)">
    <ellipse id="Elipse_5515" data-name="Elipse 5515" cx="67.5" cy="8.5" rx="67.5" ry="8.5" transform="translate(733 6795)" fill="#bab5d3"/>
    <g id="Grupo_146931" data-name="Grupo 146931" transform="translate(756 6656.793)">
      <g id="Grupo_146930" data-name="Grupo 146930" transform="translate(0 0)">
        <path id="Trazado_196381" data-name="Trazado 196381" d="M40.865,2.343,23.394,5.223l-.354,51.711,17.116-4.026Z" transform="translate(-3.541 -0.36)" fill="#eaaf75"/>
        <path id="Trazado_196382" data-name="Trazado 196382" d="M42.369,4.252l1.467-1.908V7.531Z" transform="translate(-6.511 -0.36)" fill="#f4d6ae"/>
        <path id="Trazado_196383" data-name="Trazado 196383" d="M49.054,5l-6.685-.4.179,2.614h6.507Z" transform="translate(-6.511 -0.706)" fill="#d8a26c"/>
        <path id="Trazado_196384" data-name="Trazado 196384" d="M47.224,5.069,30.461,7.949V60.66l16.762-5.025Z" transform="translate(-4.681 -0.779)" fill="#f4d6ae"/>
        <path id="Trazado_196385" data-name="Trazado 196385" d="M23.041,57.458l6.28,3.307V8.053L28.97,6.421l-5.575-.675Z" transform="translate(-3.541 -0.883)" fill="#d8a26c"/>
        <path id="Trazado_196386" data-name="Trazado 196386" d="M29.321,69.822l-1.1-5.135-5.184,1.828Z" transform="translate(-3.541 -9.941)" fill="#f4d6ae"/>
        <path id="Trazado_196387" data-name="Trazado 196387" d="M28.225,55.63,28.97,6.421l-5.576-.675-.353,51.712Z" transform="translate(-3.541 -0.883)" fill="#edbf8a"/>
        <path id="Trazado_196388" data-name="Trazado 196388" d="M20.4,14.451l4.839-2.189,1.02,1.3,3.778-1.268,4.277,2.846.873,8.294L32.2,27.2l-3.516-1.027.907,5.642-11.407,2.5L8.657,27.692l.056-4.3,1.968-.5.031-2.4,2.751-.366-1.718-3.65,1.792-2.061,2.141,1.276,2.777-2.407Z" transform="translate(-1.33 -1.884)" fill="#e5e3e1"/>
        <path id="Trazado_196389" data-name="Trazado 196389" d="M37.654,24.387l-3.338,2.672-2.979-1.134,1.92-2.186L32.649,21.4l-2.613-2.685L27,18.459l-1.044,2.169.608,3.257,4.031-.347.165,1.115-1.21,1.554-.873,4.473-3.961,1.506,4.886-.661,1.549-4.4,3.516,1.027Z" transform="translate(-3.798 -2.837)" fill="#c1c1c1"/>
        <path id="Trazado_196390" data-name="Trazado 196390" d="M29.578,29.5,31,26.736l1.639.306L31.2,25.992l1.995-2.1-.52-2.145L29.943,19.3,27.4,19.47l-.647,1.258,2.723,1.289,1.445-.832,1.443.97-1.148,1.775.29.885-1.283,1.395Z" transform="translate(-4.111 -2.966)" fill="#8e8d8d"/>
        <path id="Trazado_196391" data-name="Trazado 196391" d="M13.553,21.555l-2.167,1.211-.364,2.4-1.771.581.789,2.982,3.679,1.236,2.288-1.969-2.433-2.46,1.13-2.4Z" transform="translate(-1.422 -3.312)" fill="#c1c1c1"/>
        <path id="Trazado_196392" data-name="Trazado 196392" d="M16.345,16.65l-1.858,1.735,2.2,3.8,7.115.431-2.886,5.28L19.64,31.4l1.932,2.036,1.746-.3-.075-1-1.093.384-1.075-3.774,1.781-1.315,1.528-4.888-2.022-3.994L17.51,19.614Z" transform="translate(-2.226 -2.559)" fill="#c1c1c1"/>
        <path id="Trazado_196393" data-name="Trazado 196393" d="M16.194,17.914l.6-.277,1.222,2.669,4.5-1.176,1.154,3.276-6.155-.6Z" transform="translate(-2.489 -2.71)" fill="#8e8d8d"/>
        <path id="Trazado_196394" data-name="Trazado 196394" d="M16.727,24.087l-.173.964,2.093.962L19.7,28.989l.807.168,1.4-2.485-.539-.714,1.1-1.581-2.531-.66-.54.415Z" transform="translate(-2.544 -3.645)" fill="#f7f7f7"/>
        <path id="Trazado_196395" data-name="Trazado 196395" d="M37.536,15.239l-1.559,5.727-2.1-3.59L34.9,15.868,33.321,12.9l-3.7,1.234.29,2.481,2.849-1,.723.822L32.249,18.2l3.5,4.2.848-.2Z" transform="translate(-4.552 -1.982)" fill="#c1c1c1"/>
        <path id="Trazado_196396" data-name="Trazado 196396" d="M26.538,25.628l2.251-.454.335.73-2.449,5.311-2.7.893L23.2,30.423l2.9-.135L27.82,27Z" transform="translate(-3.565 -3.868)" fill="#f7f7f7"/>
        <path id="Trazado_196397" data-name="Trazado 196397" d="M18.886,16.088l.243,2.041,2.987-1.368,2.473,2.211.781-.9-2.013-2.383.147-1.105-1.288.629L20.278,13.8l-.79.669.564.625-.2,1.591Z" transform="translate(-2.902 -2.12)" fill="#f7f7f7"/>
        <path id="Trazado_196398" data-name="Trazado 196398" d="M10.022,30.7l3.3.675,2.14-.288,1.391-2.078L16.1,27.356l.443-.738.581.34,1.042,2.894.784.006-.234,2.547-2.557-.116-1.77.322.148.632,2.108.109,1.425,1.1.515,1.28,2.32.236-2.514.551Z" transform="translate(-1.54 -4.09)" fill="#c1c1c1"/>
        <path id="Trazado_196399" data-name="Trazado 196399" d="M74.22,0,69.381,2.717,67.435,1.27,64.657,4.258l-2.14-1.584L60.726,5.232l1.716,4.53-2.75.454L59.661,13.2l-1.967.619-.056,5.333,9.523,8.215,11.407-3.1-.907-7,3.517,1.275,2.99-4.672L83.295,3.574,79.018.041,75.239,1.615Z" transform="translate(-8.858 0)" fill="#a0a0a0"/>
        <path id="Trazado_196400" data-name="Trazado 196400" d="M86.635,15.05,83.3,18.366l-2.979-1.407,1.92-2.713-.608-2.9L79.017,8.015l-3.041-.323-1.044,2.692.608,4.043L79.572,14l.165,1.385-1.21,1.929-.873,5.552-3.961,1.87,4.886-.821,1.549-5.464,3.516,1.275Z" transform="translate(-11.325 -1.182)" fill="#969696"/>
        <path id="Trazado_196401" data-name="Trazado 196401" d="M78.559,21.4l1.424-3.433,1.639.38-1.441-1.3,1.995-2.613-.52-2.662L78.924,8.741l-2.544.206-.647,1.561,2.723,1.6L79.9,11.075l1.443,1.2-1.148,2.2.29,1.1L79.2,17.312Z" transform="translate(-11.638 -1.343)" fill="#8e8d8d"/>
        <path id="Trazado_196402" data-name="Trazado 196402" d="M62.534,11.535l-2.167,1.5L60,16.011l-1.771.72.79,3.7L62.7,21.967l2.288-2.446-2.433-3.053,1.13-2.98Z" transform="translate(-8.949 -1.772)" fill="#969696"/>
        <path id="Trazado_196403" data-name="Trazado 196403" d="M65.326,5.447,63.469,7.6l2.2,4.712,7.116.535L69.9,19.4l-1.277,4.351,1.932,2.528,1.745-.372-.074-1.245-1.093.477-1.075-4.684,1.781-1.632,1.528-6.068L71.344,7.8,66.492,9.126Z" transform="translate(-9.754 -0.837)" fill="#969696"/>
        <path id="Trazado_196404" data-name="Trazado 196404" d="M65.175,7.015l.6-.343L67,9.984l4.5-1.458,1.154,4.067L66.5,11.846Z" transform="translate(-10.016 -1.025)" fill="#8e8d8d"/>
        <path id="Trazado_196405" data-name="Trazado 196405" d="M65.708,14.677l-.174,1.2,2.093,1.2,1.055,3.693.807.209,1.4-3.084L70.35,17l1.1-1.962-2.531-.819-.541.514Z" transform="translate(-10.071 -2.185)" fill="#dddcdb"/>
        <path id="Trazado_196406" data-name="Trazado 196406" d="M78.6,2.325,78.892,5.4,81.74,4.165l.722,1.021-1.233,2.18,3.5,5.214.848-.244.94-8.641L84.957,10.8l-2.1-4.457,1.027-1.872L82.3.794Z" transform="translate(-12.079 -0.122)" fill="#969696"/>
        <path id="Trazado_196407" data-name="Trazado 196407" d="M75.519,16.59l2.251-.564.335.907-2.449,6.591-2.7,1.108-.771-2.09,2.9-.168,1.723-4.08Z" transform="translate(-11.092 -2.463)" fill="#dddcdb"/>
        <path id="Trazado_196408" data-name="Trazado 196408" d="M67.867,4.749l.243,2.533,2.987-1.7L73.57,8.329l.781-1.111L72.337,4.26l.147-1.372L71.2,3.668l-1.937-1.76-.79.829.564.777-.2,1.975Z" transform="translate(-10.43 -0.293)" fill="#dddcdb"/>
        <path id="Trazado_196409" data-name="Trazado 196409" d="M59,22.887l3.3.839,2.14-.358,1.391-2.578-.758-2.055.443-.917.581.422,1.042,3.593.784.008L67.695,25l-2.557-.143-1.77.4.147.785,2.109.135L67.05,27.54l.515,1.589,2.32.294-2.514.683Z" transform="translate(-9.067 -2.738)" fill="#969696"/>
        <g id="Grupo_146929" data-name="Grupo 146929" transform="translate(0 0)">
          <g id="Grupo_146928" data-name="Grupo 146928" clip-path="url(#clip-path)">
            <path id="Trazado_196410" data-name="Trazado 196410" d="M90.263,25.638,88.183,10.874S72.19,15.982,71.79,16.02s-.781,10.031-.781,10.031Z" transform="translate(-10.912 -1.671)" fill="#f7f7f7"/>
            <path id="Trazado_196411" data-name="Trazado 196411" d="M73.489,35.535c-.125.563-2.3.558-4.853-.012s-4.524-1.487-4.4-2.051,2.3-.558,4.853.012,4.524,1.488,4.4,2.051" transform="translate(-9.871 -5.08)" fill="#efefef"/>
            <path id="Trazado_196412" data-name="Trazado 196412" d="M66.035,13.256l-1.8,17.175,9.251,2.062,5.669-16.311Z" transform="translate(-9.872 -2.037)" fill="#efefef"/>
            <path id="Trazado_196413" data-name="Trazado 196413" d="M80.087,15.236,65.915,12.077a2.465,2.465,0,0,0-.324.7L80.084,16a2.182,2.182,0,0,0,0-.768" transform="translate(-10.08 -1.856)" fill="#d6d8d8"/>
            <path id="Trazado_196414" data-name="Trazado 196414" d="M80.083,16.051c-.157.7-3.528.548-7.531-.344s-7.12-2.184-6.964-2.886,3.528-.548,7.531.344,7.12,2.185,6.964,2.887" transform="translate(-10.079 -1.903)" fill="#d6d8d8"/>
            <path id="Trazado_196415" data-name="Trazado 196415" d="M64.491,31.08l-.036.338A27.279,27.279,0,0,0,74.1,33.568l.112-.321a23.265,23.265,0,0,1-4.962-.631,23.227,23.227,0,0,1-4.761-1.536" transform="translate(-9.905 -4.776)" fill="#d6d8d8"/>
            <path id="Trazado_196416" data-name="Trazado 196416" d="M64.606,29.972l-.036.348a25.1,25.1,0,0,0,4.825,1.56,25.037,25.037,0,0,0,5.031.636l.115-.33a23.081,23.081,0,0,1-5.073-.633,23.124,23.124,0,0,1-4.861-1.581" transform="translate(-9.923 -4.606)" fill="#d6d8d8"/>
            <path id="Trazado_196417" data-name="Trazado 196417" d="M64.725,28.829l-.037.359a24.912,24.912,0,0,0,4.927,1.605,24.936,24.936,0,0,0,5.143.64l.118-.341a23.015,23.015,0,0,1-5.186-.635,23.02,23.02,0,0,1-4.965-1.628" transform="translate(-9.941 -4.43)" fill="#d6d8d8"/>
            <path id="Trazado_196418" data-name="Trazado 196418" d="M76.591,25.487l.139-.4a22.437,22.437,0,0,1-5.815-.635,22.441,22.441,0,0,1-5.534-1.895l-.043.42a24.3,24.3,0,0,0,5.489,1.868,24.318,24.318,0,0,0,5.764.641" transform="translate(-10.041 -3.467)" fill="#d6d8d8"/>
            <path id="Trazado_196419" data-name="Trazado 196419" d="M65.241,23.893,65.2,24.3a24.407,24.407,0,0,0,5.371,1.81,24.427,24.427,0,0,0,5.631.642l.135-.387a22.521,22.521,0,0,1-5.681-.636,22.534,22.534,0,0,1-5.413-1.837" transform="translate(-10.019 -3.672)" fill="#d6d8d8"/>
            <path id="Trazado_196420" data-name="Trazado 196420" d="M65.106,25.185l-.041.394a24.514,24.514,0,0,0,5.255,1.755,24.578,24.578,0,0,0,5.5.643l.13-.375a22.639,22.639,0,0,1-5.552-.636,22.646,22.646,0,0,1-5.3-1.782" transform="translate(-9.999 -3.87)" fill="#d6d8d8"/>
            <path id="Trazado_196421" data-name="Trazado 196421" d="M64.849,27.652l-.039.372a24.887,24.887,0,0,0,5.034,1.652,24.817,24.817,0,0,0,5.259.642l.123-.352a22.9,22.9,0,0,1-5.3-.636,22.885,22.885,0,0,1-5.072-1.677" transform="translate(-9.96 -4.249)" fill="#d6d8d8"/>
            <path id="Trazado_196422" data-name="Trazado 196422" d="M64.976,26.438l-.04.383a24.692,24.692,0,0,0,5.142,1.7,24.687,24.687,0,0,0,5.379.642l.127-.363a22.764,22.764,0,0,1-5.427-.636,22.733,22.733,0,0,1-5.182-1.728" transform="translate(-9.979 -4.063)" fill="#d6d8d8"/>
            <path id="Trazado_196423" data-name="Trazado 196423" d="M80.136,15.278c-.157.7-3.466.562-7.392-.313s-6.98-2.154-6.825-2.855,3.466-.562,7.392.313,6.981,2.154,6.825,2.855" transform="translate(-10.129 -1.792)" fill="#efefef"/>
            <path id="Trazado_196424" data-name="Trazado 196424" d="M79.569,15.177c-.112.5-3.074.265-6.617-.525s-6.324-1.835-6.212-2.335,3.1-.391,6.644.4,6.3,1.961,6.185,2.461" transform="translate(-10.256 -1.846)" fill="#9da0a0"/>
            <path id="Trazado_196425" data-name="Trazado 196425" d="M67.855,13.237a29.466,29.466,0,0,0,5.27,1.6,29.464,29.464,0,0,0,5.451.787,25.305,25.305,0,0,0-5.25-1.691,25.364,25.364,0,0,0-5.471-.7" transform="translate(-10.428 -2.034)" fill="#848484"/>
            <rect id="Rectángulo_45319" data-name="Rectángulo 45319" width="76.485" height="10.986" transform="translate(6.079 127.362)"/>
            <path id="Trazado_196426" data-name="Trazado 196426" d="M69.839,151.473H20.513a9.493,9.493,0,0,1-9.48-8.994L5.563,38.443H84.789L79.318,142.479a9.492,9.492,0,0,1-9.48,8.994" transform="translate(-0.855 -5.908)" fill="#363738"/>
            <path id="Trazado_196427" data-name="Trazado 196427" d="M66.02,151.473H27.479c-3.946,0-7.2-3.952-7.407-8.994L15.8,38.443H77.7L73.427,142.479c-.207,5.042-3.462,8.994-7.407,8.994" transform="translate(-2.428 -5.908)" fill="#464849"/>
            <path id="Trazado_196428" data-name="Trazado 196428" d="M5.554,163.031H.766A.766.766,0,0,1,0,162.265V149.008a.766.766,0,0,1,.766-.766H5.554a.766.766,0,0,1,.766.766v13.257a.766.766,0,0,1-.766.766" transform="translate(0 -22.781)" fill="#464849"/>
            <path id="Trazado_196429" data-name="Trazado 196429" d="M8.339,167.381H2.651a1.126,1.126,0,0,1-1.126-1.126V143.087a1.125,1.125,0,0,1,1.126-1.126H8.339a1.125,1.125,0,0,1,1.126,1.126v23.169a1.126,1.126,0,0,1-1.126,1.126" transform="translate(-0.234 -21.816)" fill="#2d2d2d"/>
            <path id="Trazado_196430" data-name="Trazado 196430" d="M98.037,163.031h4.788a.766.766,0,0,0,.766-.766V149.008a.766.766,0,0,0-.766-.766H98.037a.766.766,0,0,0-.766.766v13.257a.766.766,0,0,0,.766.766" transform="translate(-14.948 -22.781)" fill="#464849"/>
            <path id="Trazado_196431" data-name="Trazado 196431" d="M94.958,167.381h5.688a1.126,1.126,0,0,0,1.126-1.126V143.087a1.125,1.125,0,0,0-1.126-1.126H94.958a1.125,1.125,0,0,0-1.126,1.126v23.169a1.126,1.126,0,0,0,1.126,1.126" transform="translate(-14.42 -21.816)" fill="#2d2d2d"/>
            <path id="Trazado_196432" data-name="Trazado 196432" d="M87.621,36.78H1.476V31.552a3.93,3.93,0,0,1,3.93-3.93H83.691a3.93,3.93,0,0,1,3.929,3.93Z" transform="translate(-0.227 -4.245)" fill="#1e1e1e"/>
            <path id="Trazado_196433" data-name="Trazado 196433" d="M87.8,15.675c.058.075.66.84-.27.63s-.779.989-.179.69,1.049,0,.959.36-.03,2.1.57.99a1.281,1.281,0,0,0,0-1.56c.03-.15,0-.63.539-.18s.815.24.438-.119-.887-.18-.677-.54a1.677,1.677,0,0,0-.09-1.35c-.151-.119-.24-.269-.24.33s.008.9-.4.33-.229-1.3-.5-.769a.717.717,0,0,0,.21.889s-.75-.21-.36.3" transform="translate(-13.35 -2.198)" fill="#ff9a00"/>
            <path id="Trazado_196434" data-name="Trazado 196434" d="M62.033,11.444q-.029.093-.051.183c-.015.061-.027.121-.037.18s-.019.118-.025.176-.01.116-.013.173,0,.113,0,.168,0,.111.007.165.008.109.015.162.013.107.021.158.017.1.027.156.02.1.031.151.022.1.034.149.024.1.036.146.025.1.036.143l.036.14c.012.046.023.091.034.136s.021.09.03.134c.016.077.03.149.041.218s.019.132.025.192.008.118.009.173,0,.107,0,.157-.008.1-.014.146-.014.1-.023.142-.019.093-.03.141-.023.1-.035.146-.025.1-.038.155-.026.111-.04.17-.026.123-.039.19-.025.137-.037.213-.023.157-.033.243-.019.179-.026.278-.014.2-.019.316-.008.233-.009.361c0,.144,0,.278,0,.405s.009.245.017.358.016.218.027.317.024.193.036.282.028.171.043.251.03.154.047.226.032.14.048.207.033.13.048.193.031.124.046.185.028.122.04.183.024.123.033.185.017.128.023.195.009.136.011.208,0,.148,0,.229-.011.164-.02.253-.023.184-.04.284c-.014.08-.027.156-.042.229s-.03.145-.047.212-.034.134-.051.2-.036.124-.053.184-.036.116-.053.172L62,22.321c-.018.053-.034.1-.05.156s-.032.1-.047.15-.029.1-.041.146-.024.1-.034.145-.019.1-.026.145-.013.1-.016.148-.005.1,0,.151,0,.1.008.158.013.11.022.167.023.116.038.178c.008.03.016.059.025.089s.018.058.027.086.019.058.03.085.02.056.031.082.022.053.034.08l.036.078.037.074c.014.025.026.049.04.073s.026.047.04.07l.041.068.043.066.043.063c.014.021.03.041.044.061s.03.04.045.059.029.038.044.056l.045.054-.24-.053-.24-.054-.24-.053-.24-.054-.24-.053-.24-.054-.24-.053-.24-.054-.24-.053-.24-.054-.24-.053-.24-.054-.24-.053-.24-.054-.24-.053-.24-.054h-.005l-.005,0H58.6l-.005,0H58.59l-.006,0h-.005l-.006,0h-.005l-.005,0h-.006l-.005,0h-.011l-.006,0-.231-.052-.232-.052-.231-.052-.232-.052-.231-.052-.231-.052-.232-.052-.232-.052-.231-.052-.231-.052-.232-.052-.231-.052-.232-.052-.231-.052-.232-.052-.231-.052V8.473l.226.051.227.051.226.051.226.051.227.051.226.051.226.051.227.051.226.051.226.051.227.051.226.051.226.051L58,9.184l.226.051.226.05.258.058.257.058.257.058.258.058.257.058L60,9.631l.258.058.257.058.257.058.258.058.257.058.257.058.257.058.258.058.257.058.257.058v.08l-.017.031-.016.031-.018.031-.017.031c-.005.011-.011.022-.017.032s-.011.021-.017.032-.011.022-.017.032-.011.022-.017.033-.011.022-.017.033-.011.022-.017.033-.011.023-.017.034l-.017.034-.016.034-.017.034c-.006.012-.011.024-.017.035s-.011.024-.017.035l-.025.052-.024.049c-.008.015-.014.031-.022.046s-.014.03-.02.044l-.02.042-.018.04c-.007.013-.012.025-.018.038s-.011.025-.016.037-.011.024-.016.036-.01.024-.014.036-.009.024-.014.035l-.014.035-.013.035-.013.036c0,.011-.008.023-.012.036l-.012.036" transform="translate(-8.426 -1.302)" fill="#e4e4e4"/>
            <path id="Trazado_196435" data-name="Trazado 196435" d="M58.7,9.809V23.7c0,.009,0,.019,0,.028l0,.028,0,.027-.005.028-.006.027a.162.162,0,0,1-.008.027l-.008.027c0,.009-.006.018-.009.027l-.011.027-.013.026a.273.273,0,0,1-.014.027l-.014.026-.016.027-.018.026-.019.026-.02.026-.231-.052-.232-.052-.231-.052-.232-.052-.231-.052-.231-.052-.232-.052-.232-.052-.231-.052-.231-.052-.232-.052-.231-.052-.232-.052-.231-.052-.232-.052-.231-.052V8.473l.226.051.227.051.226.051.226.051.227.051.226.051.226.051.227.05.226.052.226.051.226.051.227.051.226.051.227.05.226.051.226.051.03.031c.01.011.019.021.028.032s.018.021.026.032l.025.031.022.032a.348.348,0,0,1,.02.033c.007.01.013.021.019.032s.012.022.017.033l.015.033c0,.011.009.022.013.033s.008.022.011.033.007.022.009.034.005.022.007.033a.253.253,0,0,1,.005.034c0,.011,0,.023,0,.034s0,.023,0,.034" transform="translate(-8.426 -1.302)" fill="#d1d1d1"/>
            <path id="Trazado_196436" data-name="Trazado 196436" d="M40.758,10.281v13.5a.565.565,0,0,0,.039.2.786.786,0,0,0,.113.2,1.291,1.291,0,0,0,.184.19,2.145,2.145,0,0,0,.251.182,3.251,3.251,0,0,0,.314.173c.115.057.24.111.374.163s.278.1.431.152.313.1.482.141.346.087.531.127.377.079.576.114.4.069.616.1.429.058.653.084.453.047.686.066.473.036.716.049.491.024.742.03.505.01.763.01.513,0,.764-.01.5-.017.741-.03.482-.03.716-.049.463-.041.686-.066.442-.053.653-.084.417-.063.616-.1.39-.074.575-.114.361-.083.531-.127.33-.092.482-.141.3-.1.43-.152.259-.107.374-.163a3.374,3.374,0,0,0,.315-.173,2.218,2.218,0,0,0,.251-.182,1.282,1.282,0,0,0,.184-.19.764.764,0,0,0,.113-.2.564.564,0,0,0,.038-.2v-13.5H40.758Z" transform="translate(-6.264 -1.58)" fill="#ddd"/>
            <path id="Trazado_196437" data-name="Trazado 196437" d="M55.7,9.921a.56.56,0,0,1-.038.2.81.81,0,0,1-.113.2,1.323,1.323,0,0,1-.184.19,2.232,2.232,0,0,1-.252.182,3.25,3.25,0,0,1-.314.173c-.115.057-.24.111-.374.163s-.278.1-.431.152-.313.1-.482.141-.346.087-.531.128-.377.078-.575.113-.4.069-.616.1-.43.058-.653.084-.453.047-.686.067-.473.036-.716.048-.491.024-.741.03-.506.01-.764.01-.513,0-.764-.01-.5-.017-.741-.03-.482-.03-.716-.048-.463-.041-.686-.067-.441-.053-.653-.084-.416-.063-.615-.1-.391-.074-.576-.113-.361-.084-.531-.128-.33-.092-.482-.141-.3-.1-.43-.152-.259-.107-.374-.163a3.373,3.373,0,0,1-.315-.173,2.2,2.2,0,0,1-.251-.182,1.287,1.287,0,0,1-.184-.19.81.81,0,0,1-.113-.2.556.556,0,0,1,0-.4.79.79,0,0,1,.113-.2,1.291,1.291,0,0,1,.184-.19,2.205,2.205,0,0,1,.251-.182,3.373,3.373,0,0,1,.315-.173c.115-.057.24-.111.374-.163s.278-.1.43-.152.313-.1.482-.14.346-.088.531-.128.377-.079.576-.114.4-.069.615-.1.43-.058.653-.084.452-.047.686-.067.473-.036.716-.048.491-.024.741-.03.506-.01.764-.01.513,0,.764.01.5.017.741.03.482.03.716.048.463.041.686.067.441.053.653.084.417.063.616.1.39.074.575.114.361.083.531.128.33.091.482.14.3.1.431.152.259.107.374.163a3.25,3.25,0,0,1,.314.173,2.232,2.232,0,0,1,.252.182,1.327,1.327,0,0,1,.184.19.79.79,0,0,1,.113.2.564.564,0,0,1,.038.2" transform="translate(-6.264 -1.22)" fill="#efefef"/>
            <path id="Trazado_196438" data-name="Trazado 196438" d="M52.728,10.1a.3.3,0,0,1-.019.1.425.425,0,0,1-.058.1.684.684,0,0,1-.095.1,1.114,1.114,0,0,1-.129.093,1.671,1.671,0,0,1-.162.089c-.059.03-.123.058-.192.085s-.143.053-.221.078-.161.049-.248.073-.178.045-.273.065-.194.041-.3.058-.207.036-.317.052-.221.03-.336.042-.232.025-.352.035-.244.018-.368.025-.252.012-.382.016-.26.005-.393.005-.263,0-.393-.005-.256-.009-.381-.016-.248-.014-.368-.025-.238-.022-.353-.035-.227-.027-.336-.042-.214-.033-.317-.052-.2-.037-.3-.058-.186-.042-.273-.065-.169-.047-.247-.073-.152-.051-.221-.078-.134-.055-.193-.085a1.671,1.671,0,0,1-.162-.089,1.177,1.177,0,0,1-.129-.093.6.6,0,0,1-.095-.1.425.425,0,0,1-.058-.1.3.3,0,0,1-.019-.1.3.3,0,0,1,.019-.1.425.425,0,0,1,.058-.1.6.6,0,0,1,.095-.1,1.077,1.077,0,0,1,.129-.094,1.671,1.671,0,0,1,.162-.089c.059-.029.124-.058.193-.084s.142-.053.221-.079.161-.049.247-.072.179-.046.273-.066.193-.041.3-.058.208-.036.317-.052.221-.03.336-.042.233-.025.353-.035.243-.018.368-.025.252-.012.381-.016.261-.005.393-.005.264,0,.393.005.256.009.382.016.248.015.368.025.238.021.352.035.228.027.336.042.215.033.317.052.2.037.3.058.185.042.273.066.169.047.248.072.151.051.221.079.133.055.192.084a1.671,1.671,0,0,1,.162.089,1.024,1.024,0,0,1,.129.094.68.68,0,0,1,.095.1.425.425,0,0,1,.058.1.3.3,0,0,1,.019.1" transform="translate(-6.923 -1.395)" fill="#919191"/>
            <path id="Trazado_196439" data-name="Trazado 196439" d="M58.7,51.675a3.768,3.768,0,0,1,1.618.71,3.225,3.225,0,1,1-5.262,2.525,3.212,3.212,0,0,1,2.715-3.183.61.61,0,0,0,.129-.052Z" transform="translate(-8.46 -7.941)" fill="#1e1e1e"/>
            <path id="Trazado_196440" data-name="Trazado 196440" d="M60.67,65.269h-.617v.362q0,12.039,0,24.077a2.235,2.235,0,0,1-.3,1.311,1.853,1.853,0,0,1-2.04.716,1.778,1.778,0,0,1-1.313-1.52,5.529,5.529,0,0,1-.04-.625q0-6.8,0-13.6v-.389H55.66v.325q0,7.041,0,14.081a1.765,1.765,0,0,1-1.27,1.7,1.793,1.793,0,0,1-2.068-.738,1.834,1.834,0,0,1-.251-.856c-.022-2.636-.018-5.273-.021-7.909q-.005-4.1-.01-8.194-.01-4.221-.026-8.441a1.252,1.252,0,0,0-.02-.14c-.217.3-.409.56-.6.825-.515.73-1.039,1.453-1.539,2.193a1.533,1.533,0,0,1-1.324.708q-2.929.022-5.857,0A1.334,1.334,0,0,1,41.3,68.105a1.412,1.412,0,0,1,.518-1.546,1.579,1.579,0,0,1,.945-.251c1.57,0,3.14-.005,4.71,0a.454.454,0,0,0,.438-.223c.957-1.4,1.914-2.811,2.9-4.2a3.489,3.489,0,0,1,3.022-1.532c1.991.01,3.981-.006,5.971.024a3.809,3.809,0,0,1,3.62,3.039,9.425,9.425,0,0,1,.123,1.729c.011,2.971.006,5.94.005,8.911a1.5,1.5,0,0,1-.744,1.439A1.413,1.413,0,0,1,60.7,74.343c-.05-1.063-.022-2.129-.024-3.194q0-2.783,0-5.565v-.315" transform="translate(-6.338 -9.276)" fill="#1e1e1e"/>
            <path id="Trazado_196441" data-name="Trazado 196441" d="M33.834,78.287h2.314q1.306,6.982,2.611,13.964h3.982q1.339-6.967,2.685-13.959h2.3C46.706,83.7,45.693,89.1,44.673,94.542H43.2c-2.035,0-4.07-.006-6.1,0-.2,0-.264-.055-.3-.261-.457-2.508-.93-5.013-1.395-7.519q-.616-3.325-1.223-6.651c-.112-.605-.227-1.209-.342-1.825" transform="translate(-5.199 -12.031)" fill="#1e1e1e"/>
            <path id="Trazado_196442" data-name="Trazado 196442" d="M40.1,72.081l1.655,1.749-1.638,1.61-1.653-1.655,1.636-1.7" transform="translate(-5.911 -11.077)" fill="#1e1e1e"/>
            <path id="Trazado_196443" data-name="Trazado 196443" d="M43.695,77.639l-1.7,1.627L40.33,77.624,41.983,75.9l1.712,1.741" transform="translate(-6.198 -11.664)" fill="#1e1e1e"/>
            <rect id="Rectángulo_45320" data-name="Rectángulo 45320" width="2.36" height="2.307" transform="translate(33.867 68.831)" fill="#1e1e1e"/>
          </g>
        </g>
      </g>
    </g>
  </g>
</svg>
