<svg xmlns="http://www.w3.org/2000/svg" xmlns:xlink="http://www.w3.org/1999/xlink" width="135" height="162" viewBox="0 0 135 162">
  <defs>
    <clipPath id="clip-path">
      <rect id="Rectángulo_45318" data-name="Rectángulo 45318" width="88.643" height="153.378" fill="none"/>
    </clipPath>
    <clipPath id="clip-path-3">
      <rect id="Rectángulo_45311" data-name="Rectángulo 45311" width="32.147" height="40.53" fill="none"/>
    </clipPath>
    <clipPath id="clip-path-4">
      <rect id="Rectángulo_45312" data-name="Rectángulo 45312" width="32.147" height="37.468" fill="none"/>
    </clipPath>
    <clipPath id="clip-path-5">
      <rect id="Rectángulo_45313" data-name="Rectángulo 45313" width="11.91" height="8.056" fill="none"/>
    </clipPath>
    <clipPath id="clip-path-6">
      <rect id="Rectángulo_45314" data-name="Rectángulo 45314" width="7.269" height="21.1" fill="none"/>
    </clipPath>
    <clipPath id="clip-path-7">
      <rect id="Rectángulo_45315" data-name="Rectángulo 45315" width="29.058" height="38.488" fill="none"/>
    </clipPath>
  </defs>
  <g id="Grupo_146935" data-name="Grupo 146935" transform="translate(-375 -6650)">
    <ellipse id="Elipse_5514" data-name="Elipse 5514" cx="67.5" cy="8.5" rx="67.5" ry="8.5" transform="translate(375 6795)" fill="#bab5d3"/>
    <g id="Grupo_146927" data-name="Grupo 146927" transform="translate(398 6650)">
      <g id="Grupo_146926" data-name="Grupo 146926" transform="translate(0 0)">
        <g id="Grupo_146925" data-name="Grupo 146925" clip-path="url(#clip-path)">
          <g id="Grupo_146924" data-name="Grupo 146924">
            <g id="Grupo_146923" data-name="Grupo 146923" clip-path="url(#clip-path)">
              <g id="Grupo_146910" data-name="Grupo 146910" transform="translate(48.979 2.17)" opacity="0.58">
                <g id="Grupo_146909" data-name="Grupo 146909">
                  <g id="Grupo_146908" data-name="Grupo 146908" clip-path="url(#clip-path-3)">
                    <path id="Trazado_196302" data-name="Trazado 196302" d="M64.5,2.681a8.99,8.99,0,0,1,7.021,1.8l2.7,5.475L73.77,19.5l.448,5.8c5.975.364,10.681,2.71,13.883,7.4l1.919,4.472c-.267,1.345-1.249,1.65-2.472,1.606a1.535,1.535,0,0,0-1.436.881c-.881,1.854-2.189,2.722-4.249,1.847a1.544,1.544,0,0,0-1.607.222c-2.316,1.966-4.353,1.887-6.039-.79l-1.705-3.97.156-6.2-2.184,1.482a20.327,20.327,0,0,1-7.146-4.306l-2.525-6.688-.7-7.619-2.241-1.414a9.885,9.885,0,0,1,2.274-5.678Z" transform="translate(-57.873 -2.564)" fill="#74d3da"/>
                  </g>
                </g>
              </g>
              <g id="Grupo_146913" data-name="Grupo 146913" transform="translate(48.979 5.233)" opacity="0.4" style="mix-blend-mode: multiply;isolation: isolate">
                <g id="Grupo_146912" data-name="Grupo 146912">
                  <g id="Grupo_146911" data-name="Grupo 146911" clip-path="url(#clip-path-4)">
                    <path id="Trazado_196303" data-name="Trazado 196303" d="M74.216,41.5c1.687,2.677,3.725,2.756,6.039.79a1.545,1.545,0,0,1,1.607-.222c2.06.875,3.368.008,4.249-1.847a1.535,1.535,0,0,1,1.435-.881c1.223.044,2.206-.262,2.473-1.606l-.9-2.1-1.652-1.064-1.176,1.742-.933-2.173L72.6,29.275l-1.737,1.191L67.4,23.093l3.176-1.71,1.109-5.674L66,13.9l-.664-7a13.242,13.242,0,0,0-4.158-.706L60.147,7.1a9.873,9.873,0,0,0-2.274,5.678l2.24,1.414.7,7.619L63.336,28.5a20.33,20.33,0,0,0,7.147,4.306l2.183-1.482-.155,6.2Z" transform="translate(-57.873 -6.183)" fill="#46c9cc"/>
                  </g>
                </g>
              </g>
              <g id="Grupo_146916" data-name="Grupo 146916" transform="translate(64.852 31.642)" opacity="0.4" style="mix-blend-mode: multiply;isolation: isolate">
                <g id="Grupo_146915" data-name="Grupo 146915">
                  <g id="Grupo_146914" data-name="Grupo 146914" clip-path="url(#clip-path-5)">
                    <path id="Trazado_196304" data-name="Trazado 196304" d="M77.826,37.388l-1.2,3.961L78.36,44.6l3.371.847,6.808-3.639-5.39-1.445-1.363,1.785L78.95,40.7Z" transform="translate(-76.628 -37.388)" fill="#46c9cc"/>
                  </g>
                </g>
              </g>
              <g id="Grupo_146919" data-name="Grupo 146919" transform="translate(52.651 8.054)" opacity="0.4" style="mix-blend-mode: multiply;isolation: isolate">
                <g id="Grupo_146918" data-name="Grupo 146918">
                  <g id="Grupo_146917" data-name="Grupo 146917" clip-path="url(#clip-path-6)">
                    <path id="Trazado_196305" data-name="Trazado 196305" d="M62.38,10.893l2.8-1.378-.831,7.162,4.021,1.6,1.105,2.695-.8,9.647L64.99,26.145l-1.231-7-1.548-3.434Z" transform="translate(-62.211 -9.516)" fill="#46c9cc"/>
                  </g>
                </g>
              </g>
              <g id="Grupo_146922" data-name="Grupo 146922" transform="translate(50.281 3.069)" opacity="0.86" style="mix-blend-mode: multiply;isolation: isolate">
                <g id="Grupo_146921" data-name="Grupo 146921">
                  <g id="Grupo_146920" data-name="Grupo 146920" clip-path="url(#clip-path-7)">
                    <path id="Trazado_196306" data-name="Trazado 196306" d="M66.846,3.626l4.682.809,1.228,1.708-2.811,2.1,1.357.853L69.19,10.544l-.717,1.644L70.6,13.7l-2.571-.826L67.5,9.933l4.16-4.261Z" transform="translate(-60.554 -3.626)" fill="#46c9cc"/>
                    <path id="Trazado_196307" data-name="Trazado 196307" d="M74.784,10.952l-.812,1.338,1.088.919-1.134.24-.739,2.891.58.543-.737.614-.222.986-1.452.624,3.338-.3L74.5,13.748l1.027-.145Z" transform="translate(-61.246 -4.752)" fill="#46c9cc"/>
                    <path id="Trazado_196308" data-name="Trazado 196308" d="M90.723,40.486c-.554,2.607-2.054,4.429-5.856,4.346-3.488,2.7-5.818,2.62-7.327.572.84,2.617,2.729,3.057,5.632,1.393q4.349.307,5.279-2.266c2.6-.675,3.473-1.982,2.272-4.045" transform="translate(-62.197 -9.291)" fill="#46c9cc"/>
                    <path id="Trazado_196309" data-name="Trazado 196309" d="M75.637,35.273l8.119,3.395,2.683,1.867-5.809,3.187,6.729-2.889.464-2.03A30.159,30.159,0,0,1,75.4,34.337l-1.587.186-.838,1.845.893-.333.716-.753.86-.468Z" transform="translate(-61.495 -8.346)" fill="#46c9cc"/>
                    <path id="Trazado_196310" data-name="Trazado 196310" d="M67.739,17.844,66.19,19.5l-1.251.537-2.789,2.732,3.491-1.5,1.553-1.161Z" transform="translate(-59.832 -5.811)" fill="#46c9cc"/>
                    <path id="Trazado_196311" data-name="Trazado 196311" d="M65.072,7.519l1.7,2.068.229,5.445,3.16.87L66.7,15.858l-.894-6.1Z" transform="translate(-60.281 -4.224)" fill="#46c9cc"/>
                    <path id="Trazado_196312" data-name="Trazado 196312" d="M60.731,8.787l-1.32,3.735,3.858,3.472-2.9-3.439Z" transform="translate(-59.411 -4.419)" fill="#46c9cc"/>
                    <path id="Trazado_196313" data-name="Trazado 196313" d="M86.662,36.141q-2.509-4.07-8.8-5.131a19.214,19.214,0,0,1,8.8,5.131" transform="translate(-62.247 -7.834)" fill="#46c9cc"/>
                    <path id="Trazado_196314" data-name="Trazado 196314" d="M70.625,23.048c-.675,2.8-.052,6.454,1.247,10.552l-2.208-6.328Z" transform="translate(-60.987 -6.611)" fill="#46c9cc"/>
                    <path id="Trazado_196315" data-name="Trazado 196315" d="M73.124,22.353l-1.3,1.313-.061,3.875,2.874,2.676L72.778,27.2l2.211,1.971-2.417-2.823Z" transform="translate(-61.309 -6.504)" fill="#46c9cc"/>
                  </g>
                </g>
              </g>
              <path id="Trazado_196316" data-name="Trazado 196316" d="M60.225,6.926c.782,1,2.594.9,4.047-.234s2-2.864,1.215-3.867-2.593-.9-4.046.234-2,2.864-1.216,3.867" transform="translate(-9.2 -0.328)" fill="#0e9ead"/>
              <path id="Trazado_196317" data-name="Trazado 196317" d="M60.363,6.094c.686.881,2.211.841,3.4-.089s1.6-2.4.918-3.28-2.211-.841-3.406.089-1.6,2.4-.917,3.28" transform="translate(-9.225 -0.321)" fill="#46c9cc"/>
              <path id="Trazado_196318" data-name="Trazado 196318" d="M59.118,4.533l1.105,1.418c2.322.285,3.854-.693,4.322-3.369l-1.1-1.418c1.03,2.525-2.226,4.828-4.323,3.369" transform="translate(-9.085 -0.179)" fill="#46c9cc"/>
              <path id="Trazado_196319" data-name="Trazado 196319" d="M59.762,5.884c.687.881,2.278.79,3.555-.2s1.755-2.516,1.068-3.4-2.278-.789-3.555.207S59.075,5,59.762,5.884" transform="translate(-9.136 -0.258)" fill="#dd5d05"/>
              <path id="Trazado_196320" data-name="Trazado 196320" d="M58.513,4.319l1.105,1.418c2.414.214,4.045-.841,4.623-3.6L63.136.715c.99,2.557-2.485,5.031-4.623,3.6" transform="translate(-8.992 -0.11)" fill="#dd5d05"/>
              <path id="Trazado_196321" data-name="Trazado 196321" d="M58.456,4.209C59.143,5.09,60.734,5,62.011,4s1.755-2.516,1.068-3.4S60.8-.184,59.524.812s-1.755,2.516-1.068,3.4" transform="translate(-8.935 0)" fill="#ff7715"/>
              <path id="Trazado_196322" data-name="Trazado 196322" d="M73.766,7.387l-1.17.5.592,1.838-.71.3L73.2,11.1l-1.646.014,2.256,1.407.617-.017-.906-1.245,1.014-1.5Z" transform="translate(-10.996 -1.135)" fill="#dcfeff"/>
              <path id="Trazado_196323" data-name="Trazado 196323" d="M75.523,15.289l-.2,1.325.317,4.17-1.215-.914-.749.471-.479,4.71,2.683-3.709-.235-4.568L76.191,15Z" transform="translate(-11.248 -2.305)" fill="#dcfeff"/>
              <path id="Trazado_196324" data-name="Trazado 196324" d="M86.025,36.6l-9.265-3.248L75.35,31.928l3.16.426-1.677-1.31,4.232,1.846-1.564.622Z" transform="translate(-11.579 -4.771)" fill="#dcfeff"/>
              <path id="Trazado_196325" data-name="Trazado 196325" d="M8.238,23.006l37.652-1.255-2.373-6.435L1.567,17.895Z" transform="translate(-0.241 -2.354)" fill="#f4d6ae"/>
              <path id="Trazado_196326" data-name="Trazado 196326" d="M53.939,21.919l19.73,1.335,6.694-4.675L57.495,16.417Z" transform="translate(-8.289 -2.523)" fill="#d8a26c"/>
              <path id="Trazado_196327" data-name="Trazado 196327" d="M9.45,24.152l35.728-1.379,21.654,1.379-37.652,2.17Z" transform="translate(-1.452 -3.5)" fill="#b2753f"/>
              <path id="Trazado_196328" data-name="Trazado 196328" d="M70.414,43.318,32.762,46.68V26.573L70.414,24.4Z" transform="translate(-5.035 -3.75)" fill="#f4d6ae"/>
              <path id="Trazado_196329" data-name="Trazado 196329" d="M77.108,16.244,39.274,18.553l-6.512,6.766,37.652-2.17Z" transform="translate(-5.035 -2.496)" fill="#edbf8a"/>
              <path id="Trazado_196330" data-name="Trazado 196330" d="M9.45,43.318l19.73,3.362V26.573L9.45,24.4Z" transform="translate(-1.452 -3.75)" fill="#edbf8a"/>
              <path id="Trazado_196331" data-name="Trazado 196331" d="M2.905,16.362,22.36,18.056l5.814,7.281-19.73-2.17Z" transform="translate(-0.446 -2.514)" fill="#d8a26c"/>
              <path id="Trazado_196332" data-name="Trazado 196332" d="M76.837,50.452,66.228,44.062,78.149,9.605,89.3,14.427Z" transform="translate(-10.178 -1.476)" fill="#f2f0f0"/>
              <path id="Trazado_196333" data-name="Trazado 196333" d="M78.763,51.328l9.023.13L99.623,17.243l-8.4-1.941Z" transform="translate(-12.104 -2.352)" fill="#e2e0e0"/>
              <path id="Trazado_196334" data-name="Trazado 196334" d="M91.464,13.976,80.313,9.154,87.582,6.67l9,3.113Z" transform="translate(-12.342 -1.025)" fill="#fff"/>
              <path id="Trazado_196335" data-name="Trazado 196335" d="M96.394,12.488l5.492,4.322-8.4-1.941Z" transform="translate(-14.367 -1.919)" fill="#d1cfcf"/>
              <path id="Trazado_196336" data-name="Trazado 196336" d="M96.5,14.275c1.733.251,5.383,2.806,5.383,2.806l-8.4-1.941a5.718,5.718,0,0,1,3.013-.866" transform="translate(-14.367 -2.19)" fill="#f2f0f0"/>
              <path id="Trazado_196337" data-name="Trazado 196337" d="M102.413,16.482l-5.492-4.322,2.21-1.812Z" transform="translate(-14.894 -1.59)" fill="#b7b3b3"/>
              <path id="Trazado_196338" data-name="Trazado 196338" d="M97.43,12.559l-.509-.4,2.21-1.812Z" transform="translate(-14.894 -1.59)" fill="#9e9d9d"/>
              <path id="Trazado_196339" data-name="Trazado 196339" d="M97.9,9.337,98.776,6.8,89.75,3.774,88.9,6.225Z" transform="translate(-13.662 -0.58)" fill="#d1cfcf"/>
              <path id="Trazado_196340" data-name="Trazado 196340" d="M92.737,10c.107.515-1.6,1.288-2.808.915s-3.074-1.162-2.9-1.659,1.905-.839,3.165-.731,2.379.684,2.545,1.475" transform="translate(-13.372 -1.307)" fill="#f2f0f0"/>
              <path id="Trazado_196341" data-name="Trazado 196341" d="M91.606,9.417c-.172.5-1.333.812-2.593.7s-2.143-.6-1.971-1.093,1.333-.812,2.593-.7,2.143.6,1.971,1.093" transform="translate(-13.373 -1.276)" fill="#ca2700"/>
              <path id="Trazado_196342" data-name="Trazado 196342" d="M91.6,7.651l0,1.606L87.03,9.063l.011-1.8Z" transform="translate(-13.374 -1.116)" fill="#ca2700"/>
              <path id="Trazado_196343" data-name="Trazado 196343" d="M91.6,7.52c-.172.5-1.333.812-2.593.7s-2.143-.6-1.971-1.093,1.333-.812,2.593-.7,2.143.6,1.971,1.093" transform="translate(-13.373 -0.984)" fill="#ec2700"/>
              <path id="Trazado_196344" data-name="Trazado 196344" d="M34.088,22.566c-.868,1.027-.367,1.681,1.255,2.031-1.028.339-1.211.72-.628,1.138-.89.5-.782.943,0,1.355-.554.37-1.143.735,0,1.273-.665.358-1.011.74,0,1.22-1.02.676-.886,1.05.628,1.061-.68.161-1.187.374-.628.911-1.406.312-1.391.7,0,1.157-1.732,1.638-1.2,2.271.628,2.334-.91.581-1.041,1.2-.628,1.857-.89.723-1.137,1.3.628,1.433-1.071,1.093-.983,1.857.669,2.175-.741.224-1.049.525-.3,1.007-1.358-.007-1.378.823.3,1.088l12.415,1.217L62.3,46.241l5.6-4.912,5.963-3.363c1.551-1.128,1.209-1.462,0-1.433,2.1-.57,2.372-1.118.669-1.644,1.094-.8.859-1.287-.548-1.485,1.171-1.047,1.242-1.681.061-1.847,2.331-1.3,1.968-1.477-.3-.859l.79-1.273c.942-1.055.694-1.831-1.4-2.175,1.789-.375,1.783-1.027.973-1.8,1.36-.594.891-1.2-.487-1.8,1.3-.151,1.8-.455.669-1.077a2.492,2.492,0,0,0,.243-2.935Z" transform="translate(-5.173 -3.017)" fill="#ccc7c2"/>
              <path id="Trazado_196345" data-name="Trazado 196345" d="M34.166,22.141l10.383-1.624c.623-1.3,3.65-2.642,5.719-3.651,6.265,2.394,14.5,3.065,24.344,2.34l-5.477,4.719-8.581,1.983L48.2,25.568s-9.162-2.511-14.035-3.427" transform="translate(-5.25 -2.592)" fill="#edeceb"/>
              <path id="Trazado_196346" data-name="Trazado 196346" d="M73.727,39.8a1.457,1.457,0,0,1-.35.207c-.117.063-.265.133-.435.225l-.586.32a29.228,29.228,0,0,0-3.526,2.365c-1.426,1.091-3.038,2.5-4.865,4.035l-.7.58-.355.293-.084.069-.043.036c-.008,0-.014.015-.023.014l-.028,0-.188-.03-.23-.036-1.884-.3-3.963-.621c-5.43-.848-10.36-1.512-13.941-1.875-1.79-.189-3.241-.3-4.245-.381-.5-.038-.892-.065-1.156-.091a1.482,1.482,0,0,1-.4-.059,1.481,1.481,0,0,1,.405-.025c.266,0,.658,0,1.162.012,1.008.033,2.467.1,4.265.248,3.6.289,8.543.908,13.977,1.757l3.963.63,1.884.308.23.038.041.007s0,0,.008-.006l.357-.289.7-.571c1.835-1.514,3.474-2.907,4.933-3.975A24.964,24.964,0,0,1,72.28,40.41l.608-.288c.177-.08.331-.139.454-.189a1.482,1.482,0,0,1,.385-.13" transform="translate(-5.644 -6.116)" fill="#a09a95"/>
              <path id="Trazado_196347" data-name="Trazado 196347" d="M74.336,38.222a6.118,6.118,0,0,1-.893.528c-.587.326-1.45.788-2.52,1.391s-2.35,1.346-3.736,2.278c-.694.465-1.407.987-2.127,1.564-.362.286-.719.595-1.079.914-.177.162-.358.325-.536.493l-.609.6-1.555-.33-1.5-.293-1.54-.278-1.579-.26c-5.462-.854-10.459-1.255-14.077-1.486-.9-.063-1.723-.1-2.442-.147l-1.846-.1c-.506-.026-.9-.05-1.166-.071a1.512,1.512,0,0,1-.406-.052,1.5,1.5,0,0,1,.408-.032c.267-.006.662-.009,1.17-.008s1.129.014,1.85.029S41.7,43,42.6,43.042a128.286,128.286,0,0,1,14.127,1.369l1.584.262,1.546.283,1.5.3,1.347.294.464-.447c.182-.17.367-.333.548-.5.368-.321.734-.631,1.1-.917.737-.577,1.465-1.1,2.172-1.555,1.413-.92,2.716-1.638,3.805-2.214s1.973-1,2.58-1.291a5.974,5.974,0,0,1,.953-.409" transform="translate(-5.644 -5.873)" fill="#756f6b"/>
              <path id="Trazado_196348" data-name="Trazado 196348" d="M74.237,22.834c.009.012-.094.111-.3.289s-.511.436-.908.764l-1.453,1.187c-.58.467-9.816,3.3-9.816,3.3-9,.762-22.577-1.886-25.681-3.286,9.128,2.922,25.483,2.942,25.255,2.657,0,0,9.525-2.417,10.095-2.854l1.5-1.131c.413-.308.735-.545.957-.7a1.513,1.513,0,0,1,.352-.222" transform="translate(-5.545 -3.509)" fill="#756f6b"/>
              <path id="Trazado_196349" data-name="Trazado 196349" d="M62.353,42.128l-25.986-.791,25.986,1.886,6.633-4.138Z" transform="translate(-5.589 -6.006)" fill="#a09a95"/>
              <path id="Trazado_196350" data-name="Trazado 196350" d="M36.08,39.8l17.283.852,8.4-.427Z" transform="translate(-5.545 -6.117)" fill="#756f6b"/>
              <path id="Trazado_196351" data-name="Trazado 196351" d="M34.149,35.791c-1,1.2-.39,1.686,1.193,1.741a2.908,2.908,0,0,0-.416.317H60.781Z" transform="translate(-5.173 -5.5)" fill="#a09a95"/>
              <path id="Trazado_196352" data-name="Trazado 196352" d="M79.9,30.788,66.784,37.08l12.087-4.728.752-1.213a3.149,3.149,0,0,0,.276-.351" transform="translate(-10.263 -4.731)" fill="#756f6b"/>
              <path id="Trazado_196353" data-name="Trazado 196353" d="M34.907,32.94l26.065.663,12.354-4.97L61.277,34.691Z" transform="translate(-5.364 -4.4)" fill="#a09a95"/>
              <path id="Trazado_196354" data-name="Trazado 196354" d="M34.907,31.391l25.761,1.582-23.19-.481Z" transform="translate(-5.364 -4.824)" fill="#756f6b"/>
              <path id="Trazado_196355" data-name="Trazado 196355" d="M35.217,27.691l12.243,1.7,14.168,1.1L74.1,25.53,61.628,30.794,47.46,29.979,35.947,28.556Z" transform="translate(-5.412 -3.923)" fill="#a09a95"/>
              <path id="Trazado_196356" data-name="Trazado 196356" d="M50.9,44.082a.3.3,0,0,1-.3-.253A59.726,59.726,0,0,1,50.3,25.907a.3.3,0,0,1,.173-.233l13.571-6.305a.3.3,0,1,1,.256.55L50.875,26.154A59.113,59.113,0,0,0,51.2,43.73a.3.3,0,0,1-.25.348.341.341,0,0,1-.05,0" transform="translate(-7.647 -2.972)" fill="#93653b"/>
              <path id="Trazado_196357" data-name="Trazado 196357" d="M69.809,41.815a.3.3,0,0,1-.3-.29,68.7,68.7,0,0,1,1.088-16.709,131.378,131.378,0,0,1-24.288-3.4.3.3,0,0,1,.146-.588,131.443,131.443,0,0,0,24.53,3.4.3.3,0,0,1,.279.368,67.282,67.282,0,0,0-1.149,16.9.3.3,0,0,1-.29.316h-.013" transform="translate(-7.081 -3.2)" fill="#93653b"/>
              <path id="Trazado_196358" data-name="Trazado 196358" d="M57.107,22h-.031a.3.3,0,0,1-.142-.053l-.024-.019a7.7,7.7,0,0,1-2.534-7.37,1.418,1.418,0,0,1,.595-1c.618-.352,1.305.1,1.742.646,1.5,1.859,1.56,3.9,1.014,6.308,1.094-1.206,2.309-2.342,3.491-3.449a46.6,46.6,0,0,0,4.291-4.379.3.3,0,0,1,.469.383,47.04,47.04,0,0,1-4.346,4.438,46.584,46.584,0,0,0-4.289,4.379h0l-.008.008a.3.3,0,0,1-.185.1l-.041,0m-1.671-7.954a.326.326,0,0,0-.165.042.911.911,0,0,0-.3.6,7.093,7.093,0,0,0,1.977,6.46c.935-3.533.4-5.191-.7-6.558-.179-.223-.518-.541-.8-.541" transform="translate(-8.332 -1.933)" fill="#93653b"/>
              <path id="Trazado_196359" data-name="Trazado 196359" d="M55.983,21.767a11.328,11.328,0,0,1-2.74-.493,10.6,10.6,0,0,1-3.853-1.725c-.592-.588-.763-1.22-.455-1.69.186-.285.6-.584,1.531-.4a10.818,10.818,0,0,1,5.89,3.428,70.668,70.668,0,0,0,3.359-9.182.3.3,0,0,1,.587.146,62.33,62.33,0,0,1-3.632,9.694.305.305,0,0,1-.185.156,1.508,1.508,0,0,1-.5.063m-6.058-3.758a.556.556,0,0,0-.483.18c-.153.234.078.635.374.929,1.059,1.051,4.633,1.907,5.963,2.036a10.2,10.2,0,0,0-5.434-3.1,2.166,2.166,0,0,0-.42-.047" transform="translate(-7.497 -1.764)" fill="#93653b"/>
              <path id="Trazado_196360" data-name="Trazado 196360" d="M70.754,24.831l-4-3.651-15.2,5.069Z" transform="translate(-7.922 -3.255)" fill="#ccc7c2"/>
              <path id="Trazado_196361" data-name="Trazado 196361" d="M91.664,45.182c-.146.477-2.019.327-4.184-.336s-3.8-1.586-3.655-2.063,2.019-.327,4.184.336,3.8,1.586,3.655,2.063" transform="translate(-12.88 -6.532)" fill="#d8a26c"/>
              <path id="Trazado_196362" data-name="Trazado 196362" d="M86.527,25.475l-2.7,14.69,7.84,2.4,5.984-13.686Z" transform="translate(-12.882 -3.915)" fill="#d8a26c"/>
              <path id="Trazado_196363" data-name="Trazado 196363" d="M98.713,28.108,86.7,24.432a2.146,2.146,0,0,0-.327.579L98.66,28.77a1.92,1.92,0,0,0,.053-.663" transform="translate(-13.274 -3.755)" fill="#d6d8d8"/>
              <path id="Trazado_196364" data-name="Trazado 196364" d="M98.658,28.823c-.182.595-3.079.235-6.471-.8s-5.994-2.362-5.812-2.956,3.08-.236,6.471.8,5.994,2.361,5.812,2.956" transform="translate(-13.272 -3.808)" fill="#d6d8d8"/>
              <path id="Trazado_196365" data-name="Trazado 196365" d="M98.755,28.161c-.182.595-3.026.251-6.353-.767s-5.876-2.326-5.693-2.92,3.026-.252,6.353.766,5.876,2.326,5.694,2.921" transform="translate(-13.324 -3.716)" fill="#efefef"/>
              <path id="Trazado_196366" data-name="Trazado 196366" d="M98.275,28.031c-.129.423-2.668.022-5.67-.9s-5.331-2.007-5.2-2.43,2.7-.129,5.7.789,5.3,2.115,5.169,2.538" transform="translate(-13.431 -3.767)" fill="#c7c9c9"/>
              <path id="Trazado_196367" data-name="Trazado 196367" d="M88.307,25.559a25.53,25.53,0,0,0,4.437,1.736,25.458,25.458,0,0,0,4.648,1.044,25.89,25.89,0,0,0-9.085-2.78" transform="translate(-13.571 -3.928)" fill="#b2b2b2"/>
              <rect id="Rectángulo_45316" data-name="Rectángulo 45316" width="76.485" height="10.986" transform="translate(6.079 135.175)"/>
              <path id="Trazado_196368" data-name="Trazado 196368" d="M69.839,160.7H20.513a9.493,9.493,0,0,1-9.48-8.995L5.563,47.675H84.789L79.318,151.71a9.493,9.493,0,0,1-9.48,8.995" transform="translate(-0.855 -7.327)" fill="#fff"/>
              <path id="Trazado_196369" data-name="Trazado 196369" d="M66.02,160.7H27.479c-3.946,0-7.2-3.952-7.407-8.995L15.8,47.675H77.7L73.427,151.71c-.207,5.042-3.462,8.995-7.407,8.995" transform="translate(-2.428 -7.327)" fill="#e9ebec"/>
              <path id="Trazado_196370" data-name="Trazado 196370" d="M5.554,172.263H.766A.766.766,0,0,1,0,171.5V158.24a.766.766,0,0,1,.766-.766H5.554a.766.766,0,0,1,.766.766V171.5a.766.766,0,0,1-.766.766" transform="translate(0 -24.2)" fill="#afbec9"/>
              <path id="Trazado_196371" data-name="Trazado 196371" d="M8.339,176.613H2.651a1.126,1.126,0,0,1-1.126-1.126V152.319a1.125,1.125,0,0,1,1.126-1.126H8.339a1.125,1.125,0,0,1,1.126,1.126v23.169a1.126,1.126,0,0,1-1.126,1.126" transform="translate(-0.234 -23.235)" fill="#2d2d2d"/>
              <path id="Trazado_196372" data-name="Trazado 196372" d="M98.037,172.263h4.788a.766.766,0,0,0,.766-.766V158.24a.766.766,0,0,0-.766-.766H98.037a.766.766,0,0,0-.766.766V171.5a.766.766,0,0,0,.766.766" transform="translate(-14.948 -24.2)" fill="#afbec9"/>
              <path id="Trazado_196373" data-name="Trazado 196373" d="M94.958,176.613h5.688a1.126,1.126,0,0,0,1.126-1.126V152.319a1.125,1.125,0,0,0-1.126-1.126H94.958a1.125,1.125,0,0,0-1.126,1.126v23.169a1.126,1.126,0,0,0,1.126,1.126" transform="translate(-14.42 -23.235)" fill="#2d2d2d"/>
              <path id="Trazado_196374" data-name="Trazado 196374" d="M44.24,68.22h-.15c-2.948,0-6.606,6.622-7.256,7.843l7.955,4.5a60.279,60.279,0,0,1,4.95-8.049c-1.633-2.273-3.616-4.3-5.5-4.3" transform="translate(-5.661 -10.484)" fill="#afbec9"/>
              <path id="Trazado_196375" data-name="Trazado 196375" d="M55.415,78.551l.079.173-2.161,1.482h8.738l3.594-7.14-2.155.881-.091-.2c-.026-.055-2.6-5.53-5.828-5.53H47.625c3.963,2,7.616,9.947,7.79,10.331" transform="translate(-7.319 -10.484)" fill="#afbec9"/>
              <path id="Trazado_196376" data-name="Trazado 196376" d="M58.689,98.849l-.19-.019-.19-2.613L53.9,103.762l4.354,6.706.325-2.306.216.02c.061.007,6.088.54,7.713-2.244l5.026-8.608c-3.725,2.415-12.43,1.561-12.85,1.518" transform="translate(-8.284 -14.786)" fill="#afbec9"/>
              <path id="Trazado_196377" data-name="Trazado 196377" d="M70.744,83.543l-7.9,4.6A60.2,60.2,0,0,1,67.3,96.475c2.784-.264,5.532-.954,6.484-2.58l.078-.133c1.486-2.546-2.387-9.042-3.114-10.219" transform="translate(-9.657 -12.839)" fill="#afbec9"/>
              <path id="Trazado_196378" data-name="Trazado 196378" d="M38.932,90.874l.109-.156,2.373,1.11-4.431-7.521-7.491.894,1.362,1.035-.123.178c-.035.051-3.442,5.052-1.807,7.828l5.059,8.588c-.289-4.429,4.7-11.609,4.948-11.955" transform="translate(-4.377 -12.956)" fill="#afbec9"/>
              <path id="Trazado_196379" data-name="Trazado 196379" d="M36.853,99.772c-1.13,2.56-1.869,5.3-.915,6.92v0h0l.076.129c1.5,2.539,9.057,2.332,10.439,2.271L46.3,99.953a60.16,60.16,0,0,1-9.447-.181" transform="translate(-5.455 -15.333)" fill="#afbec9"/>
              <path id="Trazado_196380" data-name="Trazado 196380" d="M87.621,46.012H1.476V40.784a3.93,3.93,0,0,1,3.93-3.93H83.691a3.93,3.93,0,0,1,3.929,3.93Z" transform="translate(-0.227 -5.664)" fill="#afbec9"/>
            </g>
          </g>
        </g>
      </g>
    </g>
  </g>
</svg>
