<svg xmlns="http://www.w3.org/2000/svg" xmlns:xlink="http://www.w3.org/1999/xlink" width="93.12" height="93.12" viewBox="0 0 93.12 93.12">
  <defs>
    <clipPath id="clip-path">
      <rect id="Rectángulo_44372" data-name="Rectángulo 44372" width="93.12" height="93.12" fill="none"/>
    </clipPath>
  </defs>
  <g id="Grupo_145565" data-name="Grupo 145565" transform="translate(-933.789 -372.678)">
    <g id="Grupo_145493" data-name="Grupo 145493" transform="translate(933.789 372.678)" clip-path="url(#clip-path)">
      <path id="Trazado_193787" data-name="Trazado 193787" d="M93.12,46.56A46.56,46.56,0,1,1,46.56,0,46.56,46.56,0,0,1,93.12,46.56" transform="translate(0 0)" fill="#f18385"/>
      <path id="Trazado_193788" data-name="Trazado 193788" d="M91.753,53.365a38.243,38.243,0,1,1-14.94,3.013,38.14,38.14,0,0,1,14.94-3.013m0-3.365A41.608,41.608,0,1,0,108,53.279,41.487,41.487,0,0,0,91.753,50" transform="translate(-45.193 -45.193)" fill="#483c8c"/>
      <path id="Trazado_194234" data-name="Trazado 194234" d="M41.751,47.937l25.956-.393s-.246-9.8-5.392-10.293a135,135,0,0,0-14.606,0s-5.544.684-5.958,8.92S41.751,47.937,41.751,47.937Z" transform="translate(-7.008 -6.244)" fill="#fff" stroke="#707070" stroke-width="1"/>
      <path id="Trazado_194235" data-name="Trazado 194235" d="M41.788,75.58V85.874l2.755.883H66.257L67.776,84.6l-.245-9.019Z" transform="translate(-7.045 -12.742)" fill="#fff"/>
    </g>
    <path id="alcohol-en-gel" d="M136.976,58.686H159.2a2.862,2.862,0,0,0,2.859-2.859V22.385a8.911,8.911,0,0,0-7.821-8.832V9.385a.917.917,0,0,0-.917-.917h-2.05V5.055h4.336a2.527,2.527,0,0,0,0-5.055H141.2a2.505,2.505,0,0,0-1.8.75l-3.563,3.563a2.527,2.527,0,0,0,3.574,3.574l2.833-2.833H144.9V8.468h-2.05a.917.917,0,0,0-.917.917v4.167a8.911,8.911,0,0,0-7.821,8.832V55.827A2.862,2.862,0,0,0,136.976,58.686Zm23.248-12.743H135.951V26.228h24.273ZM159.2,56.852H136.976a1.026,1.026,0,0,1-1.025-1.025v-8.05h24.273v8.05A1.026,1.026,0,0,1,159.2,56.852ZM141.871,3.221a.917.917,0,0,0-.648.269l-3.1,3.1a.693.693,0,0,1-.98-.98l3.568-3.569a.689.689,0,0,1,.495-.208h14.4a.693.693,0,0,1,0,1.387Zm4.868,1.834h2.7V8.468h-2.7ZM152.4,10.3v3.182h-8.63V10.3Zm-9.385,5.016h10.141a7.074,7.074,0,0,1,7.066,7.066v2.009H135.951V22.385a7.074,7.074,0,0,1,7.066-7.066Zm-.163,26a7.4,7.4,0,1,0-2.168-5.233A7.352,7.352,0,0,0,142.854,41.318Zm1.3-9.17a5.567,5.567,0,1,1-1.631,3.937A5.531,5.531,0,0,1,144.151,32.148Zm-.008,3.937a.917.917,0,0,1,.917-.917h2.11v-2.11a.917.917,0,1,1,1.834,0v2.11h2.11a.917.917,0,1,1,0,1.834H149v2.11a.917.917,0,1,1-1.834,0V37h-2.11A.917.917,0,0,1,144.143,36.085Z" transform="translate(833.366 388.807)" fill="#483c8c"/>
  </g>
</svg>
