<svg xmlns="http://www.w3.org/2000/svg" width="295" height="216.137" viewBox="0 0 295 216.137">
  <g id="Grupo_146741" data-name="Grupo 146741" transform="translate(-285 -1112.863)">
    <g id="XMLID_1_" transform="translate(334.886 1112.863)">
      <g id="XMLID_3932_" transform="translate(1.966 1.966)">
        <path id="XMLID_865_" d="M85.195,173H56.1L10.582,246.866A37.694,37.694,0,0,0,42.66,304.3H98.6a37.694,37.694,0,0,0,32.078-57.434Z" transform="translate(-5 -106.957)" fill="#d8d6c0"/>
        <path id="XMLID_863_" d="M153.433,92.021v11.793h-29.09V92.021l-6.8-28.54A3.633,3.633,0,0,1,121.079,59a13.6,13.6,0,0,1,13.484,11.793h8.648A13.575,13.575,0,0,1,156.7,59a3.633,3.633,0,0,1,3.538,4.481Z" transform="translate(-73.238 -37.772)" fill="#d8d6c0"/>
        <path id="XMLID_860_" d="M161,89h8.648l-2.83,21.228h-3.066Z" transform="translate(-99.674 -55.979)" fill="#c5c2a1"/>
        <path id="XMLID_859_" d="M152.3,181.722l-2.2-8.845a8.236,8.236,0,0,1,8.019-10.221h3.341l-4.835-7.862V143h-29.09v11.793l-4.835,7.862a8.278,8.278,0,0,1,8.059,6.447l1.848,8.295,3.97-13.6a1.567,1.567,0,0,1,2.791-.472Z" transform="translate(-76.431 -88.751)" fill="#c5c2a1"/>
        <path id="XMLID_842_" d="M153.918,143H120.9a5.9,5.9,0,1,0,0,11.793h33.021a5.9,5.9,0,0,0,0-11.793Z" transform="translate(-71.758 -88.751)" fill="#35322c"/>
        <path id="XMLID_841_" d="M142.125,143H120.9a5.9,5.9,0,1,0,0,11.793h21.228a5.9,5.9,0,1,0,0-11.793Z" transform="translate(-71.758 -88.751)" fill="#514c43"/>
        <path id="XMLID_824_" d="M240.656,20.724V97.106L221,123.052l19.656-8.216v8.1a15.72,15.72,0,0,0,15.724,15.724h61.326a15.72,15.72,0,0,0,15.724-15.724V20.724A15.72,15.72,0,0,0,317.706,5H256.38A15.72,15.72,0,0,0,240.656,20.724Z" transform="translate(-136.088 -5)" fill="#f18385"/>
        <g id="XMLID_817_" transform="translate(119.892 64.446)">
          <g id="XMLID_818_" transform="translate(17.78 0)">
            <path id="XMLID_736_" d="M0,0H3.931V58.181H0Z" transform="translate(41.134 0) rotate(45)" fill="#df7e07"/>
          </g>
          <path id="XMLID_820_" d="M0,0H7.862V15.724H0Z" transform="translate(16.43 39.748) rotate(45)" fill="#fff"/>
          <path id="XMLID_819_" d="M0,0H15.724V33.808H0Z" transform="translate(37.525 13.064) rotate(45)" fill="#8ee5f6"/>
          <g id="XMLID_823_" transform="translate(0 45.585)">
            <path id="XMLID_738_" d="M0,0H18.869V3.931H0Z" transform="translate(2.779 0) rotate(45)" fill="#faae52"/>
          </g>
          <g id="XMLID_822_" transform="translate(8.068 31.409)">
            <path id="XMLID_737_" d="M0,0H27.518V3.931H0Z" transform="translate(2.779 0) rotate(45)" fill="#faae52"/>
          </g>
        </g>
        <g id="XMLID_787_" transform="translate(32.801 111.172)">
          <g id="XMLID_788_" transform="translate(10.363 8.255)">
            <path id="XMLID_2716_" d="M137.286,353.772a22.486,22.486,0,1,1,22.486-22.486A22.507,22.507,0,0,1,137.286,353.772Zm0-41.041a18.555,18.555,0,1,0,18.555,18.555A18.589,18.589,0,0,0,137.286,312.731Z" transform="translate(-114.8 -308.8)" fill="#db3429"/>
          </g>
          <path id="XMLID_793_" d="M153.876,331.121a13.673,13.673,0,0,0-21.7-4.167c-.118.118-.236.2-.354.314a13.735,13.735,0,0,0,0,19.341,13.263,13.263,0,0,0,3.577,2.555,21.87,21.87,0,0,1-14.073-2.752,22,22,0,0,1-14.624,2.673,13.7,13.7,0,0,0,3.852-2.712,13.494,13.494,0,0,0,3.656-6.6,13.639,13.639,0,0,0-3.656-12.737c-.039-.039-.079-.079-.118-.079a13.667,13.667,0,0,0-19.223.079,13.263,13.263,0,0,0-2.555,3.577,21.9,21.9,0,0,1,6.172-18.555,21.069,21.069,0,0,1,4.8-3.617,22.832,22.832,0,0,1-.2-2.83,21.783,21.783,0,0,1,9.2-17.808,14.042,14.042,0,0,0-.826,4.639,13.68,13.68,0,1,0,27.361,0,12.958,12.958,0,0,0-.708-4.324,21.854,21.854,0,0,1,8.727,17.494,22.829,22.829,0,0,1-.2,2.83,21.07,21.07,0,0,1,4.8,3.617A21.815,21.815,0,0,1,153.876,331.121Z" transform="translate(-88.438 -287.8)" fill="#db3429"/>
          <circle id="XMLID_789_" cx="5.298" cy="5.298" r="5.298" transform="translate(28.024 25.345)" fill="#d8d6c0"/>
        </g>
        <g id="XMLID_825_" transform="translate(111.216 14.674)">
          <g id="XMLID_833_" transform="translate(0 16.413)">
            <path id="XMLID_745_" d="M303.278,116.126a15.363,15.363,0,0,1-14.427-10.1,15.146,15.146,0,0,1,.511-11.715,15.335,15.335,0,0,1,8.648-7.941l5.9-2.162a1.808,1.808,0,0,1,1.494.079,2.145,2.145,0,0,1,1.022,1.1l9.16,25.12A1.808,1.808,0,0,1,315.5,112a2.145,2.145,0,0,1-1.1,1.022l-5.9,2.162a15.312,15.312,0,0,1-5.228.943Zm.157-27.518L299.386,90.1a11.423,11.423,0,0,0,7.823,21.464l4.049-1.494Z" transform="translate(-287.912 -84.08)" fill="#514c43"/>
          </g>
          <g id="XMLID_840_" transform="translate(51.642)">
            <path id="XMLID_2040_" d="M430.413,74.355a2.113,2.113,0,0,1-.826-.2,2.144,2.144,0,0,1-1.022-1.1l-9.16-25.12a1.808,1.808,0,0,1,.079-1.494,2.145,2.145,0,0,1,1.1-1.022l5.9-2.162a15.348,15.348,0,0,1,19.656,9.16,15.146,15.146,0,0,1-.511,11.715,15.335,15.335,0,0,1-8.648,7.941l-5.9,2.162A1.836,1.836,0,0,1,430.413,74.355Zm-6.6-25.906,7.784,21.425,4.049-1.494a11.423,11.423,0,0,0-7.823-21.464Z" transform="translate(-419.28 -42.327)" fill="#514c43"/>
          </g>
          <path id="XMLID_579_" d="M0,0H39.311V26.732H0Z" transform="translate(62.74 30.07) rotate(160.007)" fill="#8ee5f6"/>
          <path id="XMLID_768_" d="M336.413,92.5a1.988,1.988,0,0,1-1.848-1.3l-9.159-25.12a1.808,1.808,0,0,1,.079-1.494,2.144,2.144,0,0,1,1.1-1.022l36.953-13.444a1.969,1.969,0,0,1,2.516,1.179l9.159,25.12a1.808,1.808,0,0,1-.079,1.494,2.145,2.145,0,0,1-1.1,1.022L337.081,92.387A1.837,1.837,0,0,1,336.413,92.5Zm-6.6-25.945,7.784,21.425,33.257-12.108-7.784-21.425Z" transform="translate(-310.59 -46.993)" fill="#514c43"/>
          <path id="XMLID_744_" d="M0,0H3.931V39.311H0Z" transform="translate(56.033 11.647) rotate(70.007)" fill="#514c43"/>
          <g id="XMLID_826_" transform="translate(22.073 19.793)">
            <path id="XMLID_743_" d="M0,0H3.931V39.311H0Z" transform="translate(36.953 0) rotate(70.007)" fill="#514c43"/>
          </g>
        </g>
      </g>
      <g id="XMLID_3634_" transform="translate(0 0)">
        <g id="XMLID_82_" transform="translate(113.182 16.639)">
          <g id="XMLID_1053_" transform="translate(51.642)">
            <path id="XMLID_2377_" d="M430.413,74.355a2.113,2.113,0,0,1-.826-.2,2.144,2.144,0,0,1-1.022-1.1l-9.16-25.12a1.808,1.808,0,0,1,.079-1.494,2.145,2.145,0,0,1,1.1-1.022l5.9-2.162a15.348,15.348,0,0,1,19.656,9.16,15.146,15.146,0,0,1-.511,11.715,15.335,15.335,0,0,1-8.648,7.941l-5.9,2.162A1.836,1.836,0,0,1,430.413,74.355Zm-6.6-25.906,7.784,21.425,4.049-1.494a11.423,11.423,0,0,0-7.823-21.464Z" transform="translate(-419.28 -42.327)" fill="#272525"/>
          </g>
          <g id="XMLID_551_" transform="translate(14.69 3.022)">
            <path id="XMLID_2369_" d="M336.413,92.5a1.988,1.988,0,0,1-1.848-1.3l-9.159-25.12a1.808,1.808,0,0,1,.079-1.494,2.144,2.144,0,0,1,1.1-1.022l36.953-13.444a1.969,1.969,0,0,1,2.516,1.179l9.159,25.12a1.808,1.808,0,0,1-.079,1.494,2.145,2.145,0,0,1-1.1,1.022L337.081,92.387A1.837,1.837,0,0,1,336.413,92.5Zm-6.6-25.945,7.784,21.425,33.257-12.108-7.784-21.425Z" transform="translate(-325.28 -50.016)" fill="#272525"/>
          </g>
          <g id="XMLID_553_" transform="translate(0 16.413)">
            <path id="XMLID_2366_" d="M303.278,116.126a15.363,15.363,0,0,1-14.427-10.1,15.146,15.146,0,0,1,.511-11.715,15.335,15.335,0,0,1,8.648-7.941l5.9-2.162a1.808,1.808,0,0,1,1.494.079,2.145,2.145,0,0,1,1.022,1.1l9.16,25.12A1.808,1.808,0,0,1,315.5,112a2.145,2.145,0,0,1-1.1,1.022l-5.9,2.162a15.312,15.312,0,0,1-5.228.943Zm.157-27.518L299.386,90.1a11.423,11.423,0,0,0,7.823,21.464l4.049-1.494Z" transform="translate(-287.912 -84.08)" fill="#272525"/>
          </g>
          <g id="XMLID_554_" transform="translate(19.08 11.647)">
            <path id="XMLID_2365_" d="M0,0H3.931V39.311H0Z" transform="translate(36.953 0) rotate(70.007)" fill="#272525"/>
          </g>
          <g id="XMLID_555_" transform="translate(22.073 19.793)">
            <path id="XMLID_2364_" d="M0,0H3.931V39.311H0Z" transform="translate(36.953 0) rotate(70.007)" fill="#272525"/>
          </g>
        </g>
        <g id="XMLID_607_" transform="translate(84.893)">
          <path id="XMLID_2361_" d="M314.641,137.589H253.315a17.717,17.717,0,0,1-17.69-17.69v-5.15l-16.943,7.076a2,2,0,0,1-2.319-.59,1.948,1.948,0,0,1,0-2.4L235.625,93.4V17.69A17.717,17.717,0,0,1,253.315,0h61.325a17.717,17.717,0,0,1,17.69,17.69V119.9A17.717,17.717,0,0,1,314.641,137.589Zm-77.05-27.754a2.223,2.223,0,0,1,1.1.314,1.947,1.947,0,0,1,.865,1.651v8.1a13.774,13.774,0,0,0,13.759,13.759h61.325A13.774,13.774,0,0,0,328.4,119.9V17.69A13.774,13.774,0,0,0,314.641,3.931H253.315A13.774,13.774,0,0,0,239.556,17.69V94.072a2.021,2.021,0,0,1-.393,1.179l-15.253,20.127,12.933-5.425a2.289,2.289,0,0,1,.747-.118Z" transform="translate(-215.95 0)" fill="#272525"/>
        </g>
        <g id="XMLID_577_" transform="translate(121.857 66.41)">
          <g id="XMLID_558_" transform="translate(0 45.587)">
            <path id="XMLID_2360_" d="M0,0H18.869V3.931H0Z" transform="translate(2.779 0) rotate(45)" fill="#272525"/>
          </g>
          <g id="XMLID_566_" transform="translate(8.068 31.411)">
            <path id="XMLID_2359_" d="M0,0H27.518V3.931H0Z" transform="translate(2.779 0) rotate(45)" fill="#272525"/>
          </g>
          <g id="XMLID_559_" transform="translate(3.349 37.765)">
            <path id="XMLID_2356_" d="M326.008,285.638a1.844,1.844,0,0,1-1.376-.59l-5.543-5.543a1.946,1.946,0,0,1,0-2.791l11.125-11.125a1.946,1.946,0,0,1,2.791,0l5.543,5.543a1.946,1.946,0,0,1,0,2.791l-11.125,11.125A1.845,1.845,0,0,1,326.008,285.638Zm-2.791-7.508,2.791,2.791,8.334-8.334-2.791-2.791Z" transform="translate(-318.5 -265)" fill="#272525"/>
          </g>
          <g id="XMLID_567_" transform="translate(11.683 11.073)">
            <path id="XMLID_2347_" d="M352.791,236.1a1.844,1.844,0,0,1-1.376-.59L340.29,224.382a1.946,1.946,0,0,1,0-2.791l23.9-23.9a1.946,1.946,0,0,1,2.791,0l11.125,11.125a1.946,1.946,0,0,1,0,2.791l-23.9,23.9A2.137,2.137,0,0,1,352.791,236.1Zm-8.373-13.091,8.334,8.334,21.11-21.11-8.334-8.334Z" transform="translate(-339.7 -197.1)" fill="#272525"/>
          </g>
          <g id="XMLID_561_" transform="translate(41.678 0)">
            <path id="XMLID_2346_" d="M0,0H3.931V24.373H0Z" transform="translate(17.232 0) rotate(45)" fill="#272525"/>
          </g>
        </g>
        <g id="XMLID_675_" transform="translate(32.741 111.162)">
          <g id="XMLID_679_">
            <path id="XMLID_2285_" d="M129.168,348.276a23.826,23.826,0,0,1-11.007-2.673,23.928,23.928,0,0,1-14.938,2.359,1.982,1.982,0,0,1-.511-3.735,12.209,12.209,0,0,0,3.3-2.319,11.646,11.646,0,0,0,0-16.55l-.039-.039a.039.039,0,0,1-.039-.039,11.744,11.744,0,0,0-18.673,3.106,1.926,1.926,0,0,1-2.083,1.061,2,2,0,0,1-1.651-1.651,23.646,23.646,0,0,1,6.762-20.206,22.923,22.923,0,0,1,4.088-3.263c-.039-.59-.079-1.179-.079-1.769a23.9,23.9,0,0,1,10.024-19.42,1.946,1.946,0,0,1,2.319.039,2.02,2.02,0,0,1,.668,2.241,11.427,11.427,0,0,0-.708,3.97,11.715,11.715,0,1,0,22.84-3.7,1.943,1.943,0,0,1,3.027-2.162,23.683,23.683,0,0,1,9.513,19.066c0,.59-.039,1.179-.079,1.769a27.075,27.075,0,0,1,4.088,3.263,23.822,23.822,0,0,1,6.644,20.8,1.982,1.982,0,0,1-3.735.511,12.208,12.208,0,0,0-2.319-3.3,11.679,11.679,0,0,0-16.275-.275l-.275.275a11.767,11.767,0,0,0,3.027,18.791,1.926,1.926,0,0,1,1.061,2.084,1.96,1.96,0,0,1-1.651,1.612c-1.061.079-2.162.157-3.3.157Zm-20.52-25.867.157.157a15.6,15.6,0,0,1,4.167,14.584,15.127,15.127,0,0,1-3.774,7.076,19.715,19.715,0,0,0,7.941-2.595,1.952,1.952,0,0,1,1.966,0,19.348,19.348,0,0,0,7.469,2.516,15.659,15.659,0,0,1,.708-21.385,3.555,3.555,0,0,1,.393-.354,15.558,15.558,0,0,1,21.267-.079,20.2,20.2,0,0,0-5.7-12.029,19.929,19.929,0,0,0-4.364-3.3,1.932,1.932,0,0,1-.983-1.966,19.157,19.157,0,0,0,.157-2.595,19.637,19.637,0,0,0-4.128-12.147,15.649,15.649,0,0,1-31.252-.393,20,20,0,0,0-4.442,12.54,19.156,19.156,0,0,0,.157,2.595A1.932,1.932,0,0,1,97.4,307a20.581,20.581,0,0,0-4.364,3.3A19.463,19.463,0,0,0,87.38,321.82a15.769,15.769,0,0,1,21.267.59Z" transform="translate(-83.287 -282.774)" fill="#272525"/>
          </g>
          <g id="XMLID_677_" transform="translate(27.798 25.681)">
            <path id="XMLID_2282_" d="M161.076,362.252a7.076,7.076,0,1,1,7.076-7.076A7.1,7.1,0,0,1,161.076,362.252Zm0-10.26a3.145,3.145,0,1,0,3.145,3.145A3.154,3.154,0,0,0,161.076,351.992Z" transform="translate(-154 -348.1)" fill="#272525"/>
          </g>
          <g id="XMLID_1776_" transform="translate(12.939 36.727)">
            <path id="XMLID_2281_" d="M130.509,393.34A22.742,22.742,0,0,1,116.2,377.065l3.853-.865a18.718,18.718,0,0,0,11.793,13.405Z" transform="translate(-116.2 -376.2)" fill="#272525"/>
          </g>
          <g id="XMLID_512_" transform="translate(23.356 10.192)">
            <path id="XMLID_2280_" d="M163.928,315.422a18.319,18.319,0,0,0-9.71-2.752,18.8,18.8,0,0,0-9.513,2.595l-2-3.381a22.39,22.39,0,0,1,11.518-3.184,22.07,22.07,0,0,1,11.754,3.341Z" transform="translate(-142.7 -308.7)" fill="#272525"/>
          </g>
          <g id="XMLID_676_" transform="translate(40.81 36.963)">
            <path id="XMLID_2279_" d="M188.358,393.861l-1.258-3.735A18.723,18.723,0,0,0,199.208,376.8l3.813.9A22.524,22.524,0,0,1,188.358,393.861Z" transform="translate(-187.1 -376.8)" fill="#272525"/>
          </g>
        </g>
        <g id="XMLID_2057_" transform="translate(0 66.043)">
          <path id="XMLID_2166_" d="M95.6,303.231H39.626A39.624,39.624,0,0,1,5.9,242.809l45.522-73.866a1.946,1.946,0,0,1,1.69-.943H82.2a2.046,2.046,0,0,1,1.69.943l19.931,32.314-3.341,2.044-19.42-31.37H54.171L9.238,244.853A35.714,35.714,0,0,0,39.626,299.3h55.94a35.73,35.73,0,0,0,31.292-52.913l3.459-1.887A39.62,39.62,0,0,1,95.6,303.231Z" transform="translate(0 -168)" fill="#272525"/>
        </g>
        <g id="XMLID_973_" transform="translate(43.242 54.249)">
          <path id="XMLID_2163_" d="M150.884,153.724H117.862a7.862,7.862,0,1,1,0-15.724h33.021a7.862,7.862,0,1,1,0,15.724Zm-33.021-11.793a3.931,3.931,0,0,0,0,7.862h33.021a3.931,3.931,0,0,0,0-7.862Z" transform="translate(-110 -138)" fill="#272525"/>
        </g>
        <g id="XMLID_527_" transform="translate(44.194 21.228)">
          <path id="XMLID_2162_" d="M152.313,89.459l-3.813-.9,6.8-28.54a1.661,1.661,0,0,0-1.612-2.044,11.619,11.619,0,0,0-11.518,10.1,1.957,1.957,0,0,1-1.966,1.69h-8.648a2.022,2.022,0,0,1-1.966-1.69,11.688,11.688,0,0,0-11.558-10.142,1.8,1.8,0,0,0-1.337.629,1.556,1.556,0,0,0-.314,1.415L121.3,80.653l-3.813.9-4.914-20.678A5.6,5.6,0,0,1,118.034,54a15.58,15.58,0,0,1,15.1,11.793h5.386A15.58,15.58,0,0,1,153.61,54a5.6,5.6,0,0,1,5.464,6.879Z" transform="translate(-112.42 -54)" fill="#272525"/>
        </g>
        <g id="XMLID_971_" transform="translate(61.342 34.705)">
          <path id="XMLID_2161_" d="M0,0H11.518V3.931H0Z" transform="translate(3.896 0) rotate(82.413)" fill="#272525"/>
        </g>
        <g id="XMLID_970_" transform="translate(68.475 34.717)">
          <path id="XMLID_2160_" d="M0,0H3.931V11.518H0Z" transform="translate(1.52 0) rotate(7.587)" fill="#272525"/>
        </g>
        <g id="XMLID_969_" transform="translate(56.35 67.458)">
          <path id="XMLID_2159_" d="M0,0H3.931V23.547H0Z" transform="translate(6.617 0) rotate(16.315)" fill="#272525"/>
        </g>
        <g id="XMLID_968_" transform="translate(69.239 67.575)">
          <path id="XMLID_2158_" d="M0,0H27.754V3.931H0Z" transform="matrix(0.24, 0.971, -0.971, 0.24, 3.817, 0)" fill="#272525"/>
        </g>
      </g>
    </g>
    <rect id="Rectángulo_45231" data-name="Rectángulo 45231" width="295" height="216" transform="translate(285 1113)" fill="none"/>
  </g>
</svg>
