<svg xmlns="http://www.w3.org/2000/svg" xmlns:xlink="http://www.w3.org/1999/xlink" width="189.819" height="184.819" viewBox="0 0 189.819 184.819">
  <defs>
    <linearGradient id="linear-gradient" x1="0.037" y1="0.968" x2="1.103" y2="0.023" gradientUnits="objectBoundingBox">
      <stop offset="0" stop-color="#d4d4d4"/>
      <stop offset="1" stop-color="#fff"/>
    </linearGradient>
    <linearGradient id="linear-gradient-2" x1="0.029" y1="0.973" x2="1.361" y2="-0.324" gradientUnits="objectBoundingBox">
      <stop offset="0" stop-color="#fff"/>
      <stop offset="1" stop-color="#fff"/>
    </linearGradient>
  </defs>
  <g id="Grupo_146957" data-name="Grupo 146957" transform="translate(-495.521 -3633)">
    <g id="Grupo_146650" data-name="Grupo 146650">
      <rect id="Rectángulo_6318" data-name="Rectángulo 6318" width="189.819" height="184.819" rx="12" transform="translate(495.521 3633)" fill="url(#linear-gradient)"/>
      <rect id="Rectángulo_6319" data-name="Rectángulo 6319" width="175.106" height="170.106" rx="11.045" transform="translate(503 3640.356)" fill="url(#linear-gradient-2)"/>
      <path id="Trazado_196784" data-name="Trazado 196784" d="M-26.437-4.746V0h-2.224V-12.8h4.9a4.95,4.95,0,0,1,3.406,1.117A3.757,3.757,0,0,1-19.1-8.723a3.633,3.633,0,0,1-1.235,2.93,5.19,5.19,0,0,1-3.458,1.047Zm0-1.793h2.672A2.632,2.632,0,0,0-21.955-7.1a2.051,2.051,0,0,0,.624-1.613,2.213,2.213,0,0,0-.633-1.657A2.439,2.439,0,0,0-23.7-11h-2.733Zm14.88,3.56h-4.957L-17.552,0h-2.312l4.834-12.8h2L-8.191,0h-2.32Zm-4.333-1.793h3.709l-1.854-5.309ZM-.053-3.3A1.545,1.545,0,0,0-.646-4.6a7.138,7.138,0,0,0-2.14-.923A10.335,10.335,0,0,1-5.247-6.557,3.284,3.284,0,0,1-7-9.422a3.118,3.118,0,0,1,1.261-2.549,5.1,5.1,0,0,1,3.274-1,5.53,5.53,0,0,1,2.382.492,3.909,3.909,0,0,1,1.644,1.4,3.6,3.6,0,0,1,.6,2.017H-.053A2.005,2.005,0,0,0-.681-10.63a2.594,2.594,0,0,0-1.8-.567,2.709,2.709,0,0,0-1.692.466,1.551,1.551,0,0,0-.6,1.3,1.4,1.4,0,0,0,.65,1.173,7.493,7.493,0,0,0,2.145.914,9.865,9.865,0,0,1,2.4,1.011,3.816,3.816,0,0,1,1.327,1.3,3.388,3.388,0,0,1,.422,1.718A3.045,3.045,0,0,1,.945-.769,5.318,5.318,0,0,1-2.382.176,6.251,6.251,0,0,1-4.935-.338,4.289,4.289,0,0,1-6.746-1.758a3.537,3.537,0,0,1-.646-2.109h2.224A2.07,2.07,0,0,0-4.447-2.18a3.156,3.156,0,0,0,2.065.6,2.742,2.742,0,0,0,1.745-.47A1.517,1.517,0,0,0-.053-3.3ZM14.335-6.064a7.851,7.851,0,0,1-.65,3.3,4.918,4.918,0,0,1-1.859,2.18,5.113,5.113,0,0,1-2.782.76,5.125,5.125,0,0,1-2.773-.76A4.993,4.993,0,0,1,4.39-2.751a7.606,7.606,0,0,1-.672-3.243v-.721a7.784,7.784,0,0,1,.664-3.3,4.987,4.987,0,0,1,1.872-2.193,5.1,5.1,0,0,1,2.773-.76,5.142,5.142,0,0,1,2.773.751,4.924,4.924,0,0,1,1.868,2.162,7.767,7.767,0,0,1,.668,3.283Zm-2.224-.668a5.594,5.594,0,0,0-.8-3.261,2.631,2.631,0,0,0-2.281-1.134A2.623,2.623,0,0,0,6.772-10,5.486,5.486,0,0,0,5.941-6.8v.738A5.552,5.552,0,0,0,6.763-2.8,2.646,2.646,0,0,0,9.044-1.652a2.615,2.615,0,0,0,2.272-1.125,5.671,5.671,0,0,0,.8-3.287ZM26.473,0H24.346V-10.281l-3.138,1.07V-11L26.2-12.841h.272Z" transform="translate(591 3781.15)" fill="#12263f"/>
      <rect id="Rectángulo_6321" data-name="Rectángulo 6321" width="48.945" height="1.512" transform="translate(565.959 3755.395)" fill="#483c8c"/>
      <g id="instrumento-quirurgico" transform="translate(551.428 3660.154)">
        <path id="Trazado_195239" data-name="Trazado 195239" d="M294.05,23.322a1.055,1.055,0,0,0-2.109,0V39.965c-.415.037-.205.031-5.176,1.723V35.364a1.831,1.831,0,0,0-1.462-1.786l-2.131-.429a1.438,1.438,0,0,1-1.151-1.406V20.961a9.012,9.012,0,0,1,9-9c.344.042.918-.141.918.253V18.4a1.055,1.055,0,0,0,2.109,0V12.213a2.365,2.365,0,0,0-2.362-2.362h-.665A11.124,11.124,0,0,0,279.91,20.961V31.742a3.553,3.553,0,0,0,2.845,3.474l1.9.382v6.816l-1.507.519a2.7,2.7,0,0,0-1.817,2.547V73.39a5.7,5.7,0,0,0,5.69,5.69h1.34a5.7,5.7,0,0,0,5.69-5.69v-31.5s0,0,0-.007V23.322Zm-5.689,53.649h-1.34a3.585,3.585,0,0,1-3.58-3.58V45.481a.585.585,0,0,1,.394-.553l8.106-2.792V52.174s0,.005,0,.008V73.39A3.585,3.585,0,0,1,288.361,76.971Z" transform="translate(-240.548 -0.003)" fill="#483c8c"/>
        <path id="Trazado_195240" data-name="Trazado 195240" d="M328.793,308.95A1.055,1.055,0,0,0,327.738,310V323.11a1.055,1.055,0,1,0,2.109,0V310A1.055,1.055,0,0,0,328.793,308.95Z" transform="translate(-281.65 -257.043)" fill="#483c8c"/>
        <path id="Trazado_195241" data-name="Trazado 195241" d="M36.024,382.215a5.543,5.543,0,0,0-3.2,1.021,6.242,6.242,0,0,0-2.6,5.128,5.988,5.988,0,0,0,5.8,6.149,5.987,5.987,0,0,0,5.8-6.149,6.243,6.243,0,0,0-2.593-5.126A5.534,5.534,0,0,0,36.024,382.215Zm0,10.189a3.88,3.88,0,0,1-3.688-4.04,4.132,4.132,0,0,1,1.7-3.4,3.418,3.418,0,0,1,3.977,0,4.133,4.133,0,0,1,1.7,3.4A3.88,3.88,0,0,1,36.024,392.4Z" transform="translate(-25.975 -320.005)" fill="#483c8c"/>
        <path id="Trazado_195242" data-name="Trazado 195242" d="M163.937,382.215a5.542,5.542,0,0,0-3.2,1.021,6.242,6.242,0,0,0-2.6,5.128,5.807,5.807,0,1,0,5.8-6.149Zm0,10.189a3.88,3.88,0,0,1-3.688-4.04,4.133,4.133,0,0,1,1.7-3.4,3.444,3.444,0,0,1,1.989-.637,4.057,4.057,0,0,1,0,8.079Z" transform="translate(-135.901 -320.005)" fill="#483c8c"/>
        <path id="Trazado_195243" data-name="Trazado 195243" d="M28.036,57.642a9.531,9.531,0,0,0-1.541.125V52.63c0-10.941-.194-31.925-5.39-41.556a2.347,2.347,0,0,0-4.126,0c-4.852,8.993-5.258,26.68-5.369,37.373a1.055,1.055,0,0,0,1.044,1.066h.011a1.055,1.055,0,0,0,1.054-1.044c.023-2.216.066-4.343.127-6.363l4.141,3.352v22.9c0,4.746-3.561,8.608-7.939,8.608S2.11,73.106,2.11,68.359c0-4.59,3.439-8.608,7.939-8.608a7.4,7.4,0,0,1,1.282.112,2,2,0,0,0,1.639-.441A2.034,2.034,0,0,0,13.7,57.86V53.38a1.055,1.055,0,1,0-2.109,0v4.388a9.511,9.511,0,0,0-1.541-.126A9.856,9.856,0,0,0,2,61.937a11.1,11.1,0,0,0-2,6.422c0,5.909,4.508,10.717,10.048,10.717a10.018,10.018,0,0,0,8.994-5.946,10.019,10.019,0,0,0,8.994,5.946c5.541,0,10.048-4.808,10.048-10.717S33.577,57.642,28.036,57.642ZM18.657,28.3A107.381,107.381,0,0,1,20.338,14.42c1.674,4.176,2.785,10,3.413,18.1-1.646-.9-2.993-1.654-4.018-2.257a2.175,2.175,0,0,1-1.077-1.97Zm9.38,48.671c-4.378,0-7.939-3.862-7.939-8.608v-23.4a1.055,1.055,0,0,0-.391-.82l-5.765-4.668c.323-7.91,1.094-19.831,4.613-26.849a107.825,107.825,0,0,0-2,15.586,4.281,4.281,0,0,0,2.115,3.879c1.281.754,3.05,1.74,5.261,2.932.312,5.026.461,10.855.461,17.614v5.23a2.034,2.034,0,0,0,.728,1.561,2,2,0,0,0,1.639.442,7.42,7.42,0,0,1,1.283-.112c4.378,0,7.939,3.862,7.939,8.608S32.414,76.967,28.036,76.967Z" fill="#483c8c"/>
        <path id="Trazado_195244" data-name="Trazado 195244" d="M420.747,94.922,419.181,93.5a.4.4,0,0,1-.13-.257l-1.806-17.262a2.349,2.349,0,0,0-4.672,0l-1.806,17.262a.4.4,0,0,1-.13.257l-1.566,1.426a4.6,4.6,0,0,0-1.5,3.591l.673,16.725a1.055,1.055,0,1,0,2.108-.085l-.673-16.725a2.49,2.49,0,0,1,.814-1.946l1.566-1.426a2.512,2.512,0,0,0,.808-1.6L414.671,76.2a.239.239,0,0,1,.476,0l1.806,17.262a2.511,2.511,0,0,0,.808,1.6l1.566,1.426a2.49,2.49,0,0,1,.814,1.946l-1.194,29.684a4.041,4.041,0,0,1-8.075,0l-.323-8.039a1.055,1.055,0,1,0-2.108.085l.323,8.039a6.15,6.15,0,0,0,12.291,0l1.194-29.684A4.6,4.6,0,0,0,420.747,94.922Z" transform="translate(-350.253 -55.023)" fill="#483c8c"/>
      </g>
    </g>
  </g>
</svg>
