<svg xmlns="http://www.w3.org/2000/svg" width="170" height="170" viewBox="0 0 170 170">
  <g id="Grupo_146955" data-name="Grupo 146955" transform="translate(-406 -2945)">
    <circle id="Elipse_5479" data-name="Elipse 5479" cx="85" cy="85" r="85" transform="translate(406 2945)" fill="#fff"/>
    <g id="Virus_Cleaning" data-name="Virus Cleaning" transform="translate(406 2957.061)">
      <g id="Filled" transform="translate(12.344 2.408)">
        <circle id="Elipse_5485" data-name="Elipse 5485" cx="9.875" cy="9.875" r="9.875" transform="translate(0 7.406)" fill="#f18385"/>
        <circle id="Elipse_5486" data-name="Elipse 5486" cx="9.875" cy="9.875" r="9.875" transform="translate(37.031 46.906)" fill="#f18385"/>
        <path id="Trazado_194590" data-name="Trazado 194590" d="M296,64V78.813c0,7.263,5.08,12.617,12.344,12.617h7.406V64Z" transform="translate(-217 -46.719)" fill="#ffdfc5"/>
        <path id="Trazado_194591" data-name="Trazado 194591" d="M302.762,163.531V52.711c5.087-9.362,1.786-24.961-8.869-24.961h-5.966s3.136-18.84,21.655-19.723a23.2,23.2,0,0,1,24.376,22.733c.112,10.572-6.856,17.127-16.438,19.978,0,0,12.4,9.106,12.4,21.45v34.977a22.909,22.909,0,0,1-7.406,16.866v39.5Z" transform="translate(-211.418 -8)" fill="#efebe8"/>
        <path id="Trazado_194592" data-name="Trazado 194592" d="M104,304h41.969v9.875H104Z" transform="translate(-84.25 -212.656)" fill="#e2dbd5"/>
        <path id="Trazado_194593" data-name="Trazado 194593" d="M230.564,281.4a12.308,12.308,0,0,0-4.2,18.122l12.85-6.388-5.373-13.463Z" transform="translate(-167.224 -195.836)" fill="#ffdfc5"/>
        <path id="Trazado_194594" data-name="Trazado 194594" d="M293.891,201.3l-10.565-7.833-15.552,20.306-11.908,6.294,5.373,13.463,13.868-6.9Z" transform="translate(-189.252 -136.234)" fill="#efebe8"/>
        <path id="Trazado_194595" data-name="Trazado 194595" d="M355.75,257.655a22.909,22.909,0,0,0,7.406-16.866V205.811a19.349,19.349,0,0,0-.553-4.547A60.643,60.643,0,0,1,336,234.38v62.775h19.75Z" transform="translate(-244.656 -141.624)" fill="#e2dbd5"/>
        <path id="Trazado_194596" data-name="Trazado 194596" d="M63.922,45.124A22.253,22.253,0,0,1,48.786,57.742,9.873,9.873,0,0,0,63.922,45.124Z" transform="translate(-46.075 -33.668)" fill="#f18385"/>
        <path id="Trazado_194597" data-name="Trazado 194597" d="M183.922,173.124a22.253,22.253,0,0,1-15.136,12.618,9.873,9.873,0,0,0,15.136-12.618Z" transform="translate(-129.043 -122.168)" fill="#f18385"/>
        <path id="Trazado_194598" data-name="Trazado 194598" d="M365.467,46.061c-3.917,13.53-16.638,27.592-27.336,31.1-.1.245-.2.486-.309.724l15.278.035c-.672-.567-1.083-.87-1.083-.87,9.582-2.853,16.55-9.406,16.438-19.978a22.6,22.6,0,0,0-2.988-11.014Z" transform="translate(-245.916 -34.316)" fill="#e2dbd5"/>
        <circle id="Elipse_5487" data-name="Elipse 5487" cx="6.172" cy="6.172" r="6.172" transform="translate(86.406 4.938)" fill="#fff"/>
        <circle id="Elipse_5488" data-name="Elipse 5488" cx="3.703" cy="3.703" r="3.703" transform="translate(101.219 14.813)" fill="#fff"/>
        <path id="Trazado_194599" data-name="Trazado 194599" d="M424,232v27.156a7.406,7.406,0,0,0,7.406,7.406h9.875a7.406,7.406,0,0,0,7.406-7.406V232Z" transform="translate(-305.5 -162.875)" fill="#8ee5f6"/>
        <g id="Grupo_145665" data-name="Grupo 145665" transform="translate(118.5 49.375)">
          <path id="Trazado_194600" data-name="Trazado 194600" d="M424,168h24.688v19.75H424Z" transform="translate(-424 -168)" fill="#8ee5f6"/>
          <path id="Trazado_194601" data-name="Trazado 194601" d="M448.688,247.7A32.386,32.386,0,0,1,424,262.795v7.217a7.406,7.406,0,0,0,7.406,7.406h9.875a7.406,7.406,0,0,0,7.406-7.406Z" transform="translate(-424 -223.105)" fill="#7cc1ce"/>
        </g>
      </g>
      <g id="Outline" transform="translate(0 -0.088)">
        <path id="Trazado_194602" data-name="Trazado 194602" d="M282.486,24.68v9.875c0,7.878,5.061,13.807,12.344,14.9v2.38a2.469,2.469,0,0,0,4.938,0V47.778c3.286-6.565,3.117-15.514-.47-21.543-4.816-8.1-12.4-6.237-13.633-6.492,5.061-15.14,20.14-17.861,30.211-11.9,2.812,1.666,5.324-2.587,2.515-4.249a25.523,25.523,0,0,0-38.362,18.214C279.91,22.522,282.455,24.673,282.486,24.68Zm4.938,0a7.628,7.628,0,0,1,7.63,4.078c2.567,4.317,2.811,10.86.73,15.845-4.992-.663-8.36-4.608-8.36-10.049Z" transform="translate(-193.611 0.035)"/>
        <path id="Trazado_194603" data-name="Trazado 194603" d="M52.938,282.511a2.469,2.469,0,0,0-4.937,0A2.469,2.469,0,0,0,52.938,282.511Z" transform="translate(-33.188 -193.609)"/>
        <path id="Trazado_194604" data-name="Trazado 194604" d="M18.507,268.938a2.469,2.469,0,0,0,0-4.937A2.469,2.469,0,0,0,18.507,268.938Z" transform="translate(-11.101 -182.504)"/>
        <path id="Trazado_194605" data-name="Trazado 194605" d="M50.511,344a2.469,2.469,0,0,0,0,4.938A2.469,2.469,0,0,0,50.511,344Z" transform="translate(-33.23 -237.817)"/>
        <path id="Trazado_194606" data-name="Trazado 194606" d="M16,362.507a2.469,2.469,0,0,0,4.937,0A2.469,2.469,0,0,0,16,362.507Z" transform="translate(-11.063 -248.918)"/>
        <path id="Trazado_194607" data-name="Trazado 194607" d="M64,314.507a2.469,2.469,0,0,0,4.938,0A2.469,2.469,0,0,0,64,314.507Z" transform="translate(-44.25 -215.73)"/>
        <path id="Trazado_194608" data-name="Trazado 194608" d="M0,315.955a2.469,2.469,0,0,0,4.937,0C4.937,314.592,0,312.687,0,315.955Z" transform="translate(0 -217.178)"/>
        <path id="Trazado_194609" data-name="Trazado 194609" d="M32,314.507a2.469,2.469,0,0,0,4.938,0A2.469,2.469,0,0,0,32,314.507Z" transform="translate(-22.125 -215.73)"/>
        <path id="Trazado_194610" data-name="Trazado 194610" d="M221.906,92.05H197.219c-2.575,0-2.456,2.751-2.469,2.782a40.528,40.528,0,0,0-5.165-6.079c10.875-4.807,15.658-14.21,13.759-25a2.469,2.469,0,0,0-4.863.856c1.768,10.045-3.468,17.666-14.366,20.909a2.473,2.473,0,0,0-.76,4.355c.114.085,11.4,8.546,11.4,19.463.066,33.12-.162,32.255.191,34.025-.454,1.083.564,9.234-6.8,16-1.356,1.246-.581,2.664-.8,9.224a2.469,2.469,0,0,0,4.938,0v-6.357a25.459,25.459,0,0,0,6.835-12.609,10.055,10.055,0,0,0,5.722,1.685c.866,16.282-7.114,27.156-24.9,27.156-20.454,0-30.229-26.764-31.921-31.92,18.18-9.142,17.9-8.651,18.541-9.52l18.783-25.336a2.469,2.469,0,0,0-3.967-2.941L162.945,133.6l-10.938,5.439-3.557-8.914c10.384-5.574,10.173-5.184,10.753-5.939l15.551-20.305a2.468,2.468,0,0,0-3.919-3l-15.223,19.877c-12.442,7.136-17.075,7.548-20.486,13.263H98.469A2.469,2.469,0,0,0,96,136.487v9.875a2.469,2.469,0,0,0,2.469,2.469h36.463c2.41,4.284,3.912,2.175,8.616-.073,5.8,17.166,18.248,34.635,36.39,34.635,20.766,0,30.783-13.427,29.856-32.094H214.5a9.886,9.886,0,0,0,9.875-9.875V94.518a2.469,2.469,0,0,0-2.469-2.469Zm-88.69,51.844H100.938v-4.937h32.335A14.76,14.76,0,0,0,133.216,143.893Zm5.606,1.7a9.842,9.842,0,0,1,4.391-12.7l.846-.447,3.512,8.8Zm80.615-4.169a4.943,4.943,0,0,1-4.937,4.938h-9.875a4.943,4.943,0,0,1-4.937-4.937V116.737h19.75Zm0-29.625h-19.75V96.987h4.938v4.938a2.469,2.469,0,0,0,4.937,0V96.987h9.875Z" transform="translate(-66.375 -42.648)"/>
        <path id="Trazado_194611" data-name="Trazado 194611" d="M98.511,132.938a2.469,2.469,0,0,0,0-4.937A2.469,2.469,0,0,0,98.511,132.938Z" transform="translate(-66.418 -88.473)"/>
        <path id="Trazado_194612" data-name="Trazado 194612" d="M0,90.511a2.469,2.469,0,0,0,4.937,0A2.469,2.469,0,0,0,0,90.511Z" transform="translate(0 -60.859)"/>
        <path id="Trazado_194613" data-name="Trazado 194613" d="M130.511,88a2.469,2.469,0,0,0,0,4.938A2.469,2.469,0,0,0,130.511,88Z" transform="translate(-88.543 -60.817)"/>
        <path id="Trazado_194614" data-name="Trazado 194614" d="M66.511,56a2.469,2.469,0,0,0,0,4.937A2.469,2.469,0,0,0,66.511,56Z" transform="translate(-44.293 -38.692)"/>
        <path id="Trazado_194615" data-name="Trazado 194615" d="M36.351,30.287l-3.8-3.8a12.271,12.271,0,0,0,1.8-4.334h7.653a2.469,2.469,0,0,0,0-4.937H34.358a12.271,12.271,0,0,0-1.8-4.333l6.264-6.264a2.469,2.469,0,0,0-3.491-3.491L29.065,9.4a12.271,12.271,0,0,0-4.335-1.8V2.408a2.469,2.469,0,0,0-4.937,0V7.594a12.264,12.264,0,0,0-4.12,1.666L9.424.927a2.469,2.469,0,0,0-3.95,2.962l6.614,8.819a12.279,12.279,0,0,0-1.922,4.512H2.511a2.469,2.469,0,0,0,0,4.937h7.655a12.313,12.313,0,0,0,2.876,5.727L8.172,32.756a2.469,2.469,0,0,0,3.491,3.491l5.377-5.377a12.243,12.243,0,0,0,2.752.915V41.908a2.469,2.469,0,0,0,4.937,0V31.786a12.271,12.271,0,0,0,4.333-1.8l3.8,3.8a2.469,2.469,0,0,0,3.492-3.493ZM22.261,27.1a7.406,7.406,0,1,1,7.406-7.406A7.406,7.406,0,0,1,22.261,27.1Z" transform="translate(-0.043 0.088)"/>
        <path id="Trazado_194616" data-name="Trazado 194616" d="M210.511,100.938a2.469,2.469,0,0,0,0-4.937A2.469,2.469,0,0,0,210.511,100.938Z" transform="translate(-143.855 -66.348)"/>
        <path id="Trazado_194617" data-name="Trazado 194617" d="M122.511,220.938a2.469,2.469,0,0,0,0-4.937A2.469,2.469,0,0,0,122.511,220.938Z" transform="translate(-83.011 -149.317)"/>
        <path id="Trazado_194618" data-name="Trazado 194618" d="M248,218.511a2.469,2.469,0,0,0,4.938,0A2.469,2.469,0,0,0,248,218.511Z" transform="translate(-171.469 -149.359)"/>
        <path id="Trazado_194619" data-name="Trazado 194619" d="M188.938,186.511a2.469,2.469,0,0,0-4.937,0A2.469,2.469,0,0,0,188.938,186.511Z" transform="translate(-127.219 -127.234)"/>
        <path id="Trazado_194620" data-name="Trazado 194620" d="M420.938,34.511a2.469,2.469,0,0,0-4.937,0A2.469,2.469,0,0,0,420.938,34.511Z" transform="translate(-287.625 -22.141)"/>
        <path id="Trazado_194621" data-name="Trazado 194621" d="M125.474,131.889l6.614,8.819a12.279,12.279,0,0,0-1.922,4.512h-7.655a2.469,2.469,0,0,0,0,4.937h7.655a12.313,12.313,0,0,0,2.876,5.728l-4.871,4.871a2.469,2.469,0,0,0,3.491,3.491l5.377-5.377a12.243,12.243,0,0,0,2.752.915v10.122a2.469,2.469,0,0,0,4.937,0V159.786a12.271,12.271,0,0,0,4.333-1.8l3.8,3.8c2.291,2.289,5.8-1.178,3.491-3.491l-3.8-3.8a12.271,12.271,0,0,0,1.8-4.335h7.653a2.469,2.469,0,0,0,0-4.937h-7.653a12.271,12.271,0,0,0-1.8-4.333l6.264-6.264a2.469,2.469,0,0,0-3.491-3.491l-6.264,6.264a12.271,12.271,0,0,0-4.335-1.8v-5.186a2.469,2.469,0,0,0-4.937,0v5.186a12.264,12.264,0,0,0-4.12,1.665l-6.249-8.332a2.469,2.469,0,0,0-3.95,2.962Zm16.787,8.394a7.406,7.406,0,1,1-7.406,7.406A7.406,7.406,0,0,1,142.261,140.283Z" transform="translate(-83.011 -88.412)"/>
        <path id="Trazado_194622" data-name="Trazado 194622" d="M328,314.511V339.2a2.469,2.469,0,0,0,4.938,0V314.511A2.469,2.469,0,0,0,328,314.511Z" transform="translate(-226.781 -215.734)"/>
        <path id="Trazado_194623" data-name="Trazado 194623" d="M328,466.511v9.875a2.469,2.469,0,0,0,4.938,0v-9.875A2.469,2.469,0,0,0,328,466.511Z" transform="translate(-226.781 -320.828)"/>
        <path id="Trazado_194624" data-name="Trazado 194624" d="M392,466.511v9.875a2.469,2.469,0,0,0,4.938,0v-9.875A2.469,2.469,0,0,0,392,466.511Z" transform="translate(-271.031 -320.828)"/>
      </g>
    </g>
  </g>
</svg>
