<svg xmlns="http://www.w3.org/2000/svg" xmlns:xlink="http://www.w3.org/1999/xlink" width="189.819" height="184.819" viewBox="0 0 189.819 184.819">
  <defs>
    <linearGradient id="linear-gradient" x1="0.037" y1="0.968" x2="1.103" y2="0.023" gradientUnits="objectBoundingBox">
      <stop offset="0" stop-color="#d4d4d4"/>
      <stop offset="1" stop-color="#fff"/>
    </linearGradient>
    <linearGradient id="linear-gradient-2" x1="0.029" y1="0.973" x2="1.361" y2="-0.324" gradientUnits="objectBoundingBox">
      <stop offset="0" stop-color="#fff"/>
      <stop offset="1" stop-color="#fff"/>
    </linearGradient>
  </defs>
  <g id="Grupo_146958" data-name="Grupo 146958" transform="translate(-705 -3633)">
    <g id="Grupo_146649" data-name="Grupo 146649">
      <g id="Grupo_57021" data-name="Grupo 57021" transform="translate(859.324 4896.525)">
        <rect id="Rectángulo_6318" data-name="Rectángulo 6318" width="189.819" height="184.819" rx="12" transform="translate(-154.324 -1263.525)" fill="url(#linear-gradient)"/>
        <rect id="Rectángulo_6319" data-name="Rectángulo 6319" width="175.106" height="170.106" rx="11.045" transform="translate(-146.968 -1256.169)" fill="url(#linear-gradient-2)"/>
      </g>
      <path id="Trazado_196785" data-name="Trazado 196785" d="M-26.437-4.746V0h-2.224V-12.8h4.9a4.95,4.95,0,0,1,3.406,1.117A3.757,3.757,0,0,1-19.1-8.723a3.633,3.633,0,0,1-1.235,2.93,5.19,5.19,0,0,1-3.458,1.047Zm0-1.793h2.672A2.632,2.632,0,0,0-21.955-7.1a2.051,2.051,0,0,0,.624-1.613,2.213,2.213,0,0,0-.633-1.657A2.439,2.439,0,0,0-23.7-11h-2.733Zm14.88,3.56h-4.957L-17.552,0h-2.312l4.834-12.8h2L-8.191,0h-2.32Zm-4.333-1.793h3.709l-1.854-5.309ZM-.053-3.3A1.545,1.545,0,0,0-.646-4.6a7.138,7.138,0,0,0-2.14-.923A10.335,10.335,0,0,1-5.247-6.557,3.284,3.284,0,0,1-7-9.422a3.118,3.118,0,0,1,1.261-2.549,5.1,5.1,0,0,1,3.274-1,5.53,5.53,0,0,1,2.382.492,3.909,3.909,0,0,1,1.644,1.4,3.6,3.6,0,0,1,.6,2.017H-.053A2.005,2.005,0,0,0-.681-10.63a2.594,2.594,0,0,0-1.8-.567,2.709,2.709,0,0,0-1.692.466,1.551,1.551,0,0,0-.6,1.3,1.4,1.4,0,0,0,.65,1.173,7.493,7.493,0,0,0,2.145.914,9.865,9.865,0,0,1,2.4,1.011,3.816,3.816,0,0,1,1.327,1.3,3.388,3.388,0,0,1,.422,1.718A3.045,3.045,0,0,1,.945-.769,5.318,5.318,0,0,1-2.382.176,6.251,6.251,0,0,1-4.935-.338,4.289,4.289,0,0,1-6.746-1.758a3.537,3.537,0,0,1-.646-2.109h2.224A2.07,2.07,0,0,0-4.447-2.18a3.156,3.156,0,0,0,2.065.6,2.742,2.742,0,0,0,1.745-.47A1.517,1.517,0,0,0-.053-3.3ZM14.335-6.064a7.851,7.851,0,0,1-.65,3.3,4.918,4.918,0,0,1-1.859,2.18,5.113,5.113,0,0,1-2.782.76,5.125,5.125,0,0,1-2.773-.76A4.993,4.993,0,0,1,4.39-2.751a7.606,7.606,0,0,1-.672-3.243v-.721a7.784,7.784,0,0,1,.664-3.3,4.987,4.987,0,0,1,1.872-2.193,5.1,5.1,0,0,1,2.773-.76,5.142,5.142,0,0,1,2.773.751,4.924,4.924,0,0,1,1.868,2.162,7.767,7.767,0,0,1,.668,3.283Zm-2.224-.668a5.594,5.594,0,0,0-.8-3.261,2.631,2.631,0,0,0-2.281-1.134A2.623,2.623,0,0,0,6.772-10,5.486,5.486,0,0,0,5.941-6.8v.738A5.552,5.552,0,0,0,6.763-2.8,2.646,2.646,0,0,0,9.044-1.652a2.615,2.615,0,0,0,2.272-1.125,5.671,5.671,0,0,0,.8-3.287ZM29.294,0h-8.6V-1.468l4.263-4.649a10.615,10.615,0,0,0,1.314-1.718,2.784,2.784,0,0,0,.391-1.384,2.1,2.1,0,0,0-.514-1.477,1.783,1.783,0,0,0-1.384-.562,2.056,2.056,0,0,0-1.608.633,2.489,2.489,0,0,0-.571,1.731H20.443a4.186,4.186,0,0,1,.532-2.1A3.662,3.662,0,0,1,22.5-12.454a4.84,4.84,0,0,1,2.281-.519,4.329,4.329,0,0,1,2.94.936,3.249,3.249,0,0,1,1.077,2.588,4.392,4.392,0,0,1-.541,2.008,11.42,11.42,0,0,1-1.771,2.386L23.353-1.705h5.941Z" transform="translate(799.091 3780.331)" fill="#12263f"/>
      <rect id="Rectángulo_6324" data-name="Rectángulo 6324" width="48.945" height="1.512" transform="translate(774.618 3755.392)" fill="#00357b"/>
      <g id="limpieza" transform="translate(750 3668)">
        <g id="Grupo_146639" data-name="Grupo 146639" transform="translate(16)">
          <g id="Grupo_146638" data-name="Grupo 146638" transform="translate(0)">
            <path id="Trazado_195238" data-name="Trazado 195238" d="M76.2,50.571H74.318a8.55,8.55,0,0,0-3.81.9,6.141,6.141,0,0,1-5.467,0,8.519,8.519,0,0,0-2.167-.722L65.222,32.51h2.554a1.2,1.2,0,0,0,1.2-1.2V26.49a1.2,1.2,0,0,0-1.2-1.2H62.959V21.673a1.2,1.2,0,0,0-.353-.851l-5.668-5.668v-3.74l1.825-1.459,3.117,6.236,2.155-1.076-3.35-6.7,1.489-1.192h4.395a1.2,1.2,0,0,0,1.2-1.2V1.2a1.2,1.2,0,0,0-1.2-1.2H54.53A10.85,10.85,0,0,0,43.694,10.837a1.2,1.2,0,0,0,1.2,1.2h2.408v3.114l-3.259,3.259a1.2,1.2,0,0,0-.353.851v6.02H41.286V15.653a1.19,1.19,0,0,0-.088-.435,1.245,1.245,0,0,0-.075-.136,1.342,1.342,0,0,0-.1-.182L36.469,9.211V1.2a1.2,1.2,0,0,0-1.2-1.2H28.041a1.2,1.2,0,0,0-1.2,1.2V9.211L22.284,14.9a1.341,1.341,0,0,0-.1.182,1.244,1.244,0,0,0-.075.136,1.19,1.19,0,0,0-.088.435v9.633H17.2a1.2,1.2,0,0,0-1.2,1.2v4.816a1.2,1.2,0,0,0,1.2,1.2h2.554l4.68,36.276a1.2,1.2,0,0,0,1.194,1.05H53.977a7.2,7.2,0,0,0,5.37,2.408h1.886a8.55,8.55,0,0,0,3.81-.9,6.141,6.141,0,0,1,5.467,0,8.55,8.55,0,0,0,3.81.9H76.2a7.232,7.232,0,0,0,7.224-7.224V57.8A7.232,7.232,0,0,0,76.2,50.571ZM62.959,2.408h2.408V4.816H62.959Zm3.612,25.286V30.1H49.714V27.694ZM46.187,9.633A8.442,8.442,0,0,1,54.53,2.408h6.02V5.442l-5.239,4.19Zm8.343,2.408v2.408H49.714V12.041ZM46.1,19.764l2.907-2.907h6.227l5.315,5.315v3.114H46.1Zm-1.2,7.93h2.408v8.429a1.2,1.2,0,0,0,.666,1.084L55.2,40.818a1.454,1.454,0,0,1,.741.856,1.549,1.549,0,0,1-.12,1.2,1.406,1.406,0,0,1-1.886.631l0,0-4.889-2.444a1.2,1.2,0,0,0-1.733,1.079V54.184A2.408,2.408,0,0,1,44.9,56.592V45.755H42.49V56.592H40.082V45.755H37.673V56.592H35.265V45.755H32.857V56.592a2.408,2.408,0,0,1-2.408-2.408V27.694ZM29.245,2.408h4.816v6.02H29.245Zm-.626,8.429h6.069l2.89,3.612H25.729Zm-4.19,6.02H38.877v8.429H24.429ZM18.408,30.1V27.694h9.633V30.1ZM52.122,57.8V65.02a7.2,7.2,0,0,0,.421,2.408H26.691L22.185,32.51h5.855V54.184A4.816,4.816,0,0,0,32.857,59H44.9a4.816,4.816,0,0,0,4.816-4.816V44.091l3.145,1.573A3.837,3.837,0,0,0,58,43.921l.012-.024a3.9,3.9,0,0,0,.22-2.98,3.853,3.853,0,0,0-1.951-2.256l-6.566-3.282V32.51h13.08L60.463,50.571H59.347A7.232,7.232,0,0,0,52.122,57.8Zm28.9,7.224A4.816,4.816,0,0,1,76.2,69.837H74.318a6.141,6.141,0,0,1-2.732-.645,8.564,8.564,0,0,0-7.622,0,6.141,6.141,0,0,1-2.732.645H59.347A4.816,4.816,0,0,1,54.53,65.02V63.166a7.187,7.187,0,0,0,4.816,1.854h1.886a8.55,8.55,0,0,0,3.81-.9,6.141,6.141,0,0,1,5.467,0,8.55,8.55,0,0,0,3.81.9H76.2a7.187,7.187,0,0,0,4.816-1.854ZM76.2,62.612H74.318a6.141,6.141,0,0,1-2.732-.645,8.564,8.564,0,0,0-7.622,0,6.141,6.141,0,0,1-2.732.645H59.347a4.816,4.816,0,1,1,0-9.633h1.886a6.141,6.141,0,0,1,2.732.645,8.569,8.569,0,0,0,7.622,0,6.141,6.141,0,0,1,2.732-.645H76.2a4.816,4.816,0,1,1,0,9.633Z" transform="translate(-16)" fill="#483c8c"/>
          </g>
        </g>
        <g id="Grupo_146641" data-name="Grupo 146641" transform="translate(74.75 55.505)">
          <g id="Grupo_146640" data-name="Grupo 146640" transform="translate(0 0)">
            <rect id="Rectángulo_44985" data-name="Rectángulo 44985" width="2.423" height="2.423" fill="#483c8c"/>
          </g>
        </g>
        <g id="Grupo_146643" data-name="Grupo 146643" transform="translate(62.636 55.505)">
          <g id="Grupo_146642" data-name="Grupo 146642" transform="translate(0 0)">
            <rect id="Rectángulo_44986" data-name="Rectángulo 44986" width="2.423" height="2.423" fill="#483c8c"/>
          </g>
        </g>
        <g id="Grupo_146645" data-name="Grupo 146645" transform="translate(57.79 56.312)">
          <g id="Grupo_146644" data-name="Grupo 146644" transform="translate(0 0)">
            <rect id="Rectángulo_44987" data-name="Rectángulo 44987" width="2.423" height="2.423" fill="#483c8c"/>
          </g>
        </g>
        <g id="Grupo_146647" data-name="Grupo 146647" transform="translate(69.904 56.312)">
          <g id="Grupo_146646" data-name="Grupo 146646" transform="translate(0 0)">
            <rect id="Rectángulo_44988" data-name="Rectángulo 44988" width="2.423" height="2.423" fill="#483c8c"/>
          </g>
        </g>
      </g>
    </g>
  </g>
</svg>
