<svg xmlns="http://www.w3.org/2000/svg" width="191.504" height="131.972" viewBox="0 0 191.504 131.972">
  <g id="Grupo_145664" data-name="Grupo 145664" transform="translate(-705.498 -2443.53)">
    <g id="mucama" transform="translate(719 2427.53)">
      <path id="Trazado_194563" data-name="Trazado 194563" d="M376,112h30.774v28.576H376Z" transform="translate(-261.083 -69.622)" fill="#ffc431"/>
      <path id="Trazado_194564" data-name="Trazado 194564" d="M416,264h8.793v37.368H416Z" transform="translate(-290.093 -179.858)" fill="#b1712c"/>
      <path id="Trazado_194565" data-name="Trazado 194565" d="M448,408h10.991v6.594l-4.4,8.793H448Z" transform="translate(-313.3 -284.291)" fill="#d14521"/>
      <path id="Trazado_194566" data-name="Trazado 194566" d="M112.359,89.944V48.18A24.18,24.18,0,0,0,88.18,24h0A24.18,24.18,0,0,0,64,48.18V89.944Z" transform="translate(-34.811 -5.802)" fill="#b1712c"/>
      <path id="Trazado_194567" data-name="Trazado 194567" d="M97.944,243.17l-13.59,6.1v0l-1.8.805v15.077H47.387V250.075l-1.8-.805v0L32,243.17l5.443-16.329a8.785,8.785,0,0,1,4.41-5.083l14.326-7.163,2.2-6.594H71.567l2.2,6.594,14.326,7.163a8.785,8.785,0,0,1,4.41,5.083Z" transform="translate(-11.604 -139.245)" fill="#ffb401"/>
      <path id="Trazado_194568" data-name="Trazado 194568" d="M274.378,311.387,269.981,296H248v15.387Z" transform="translate(-168.254 -203.065)" fill="#556c80"/>
      <path id="Trazado_194569" data-name="Trazado 194569" d="M256,262.594,264.793,256h13.189v10.991H256Z" transform="translate(-174.056 -174.056)" fill="#8098ab"/>
      <path id="Trazado_194570" data-name="Trazado 194570" d="M88,440h35.17v13.189H88Z" transform="translate(-52.217 -307.498)" fill="#f78e00"/>
      <path id="Trazado_194571" data-name="Trazado 194571" d="M216,384h35.17v28.576H216Z" transform="translate(-145.046 -266.885)" fill="#6173e8"/>
      <path id="Trazado_194572" data-name="Trazado 194572" d="M28.7,340.09,24,356.551v8.793l24.18,4.4V354.353l-6.594-1.884v-6.6Z" transform="translate(-5.802 -235.041)" fill="#ffceb6"/>
      <path id="Trazado_194573" data-name="Trazado 194573" d="M115.963,258.087a15.483,15.483,0,0,1-2.6,8.586v0l-1.8,2.693v13.189H76.4V269.369l-1.8-2.693v0a15.491,15.491,0,0,1-2.138-12.343l4.561-18.247L85.189,232v10.991h17.585V232l8.166,4.083L115.5,254.33a15.59,15.59,0,0,1,.462,3.756Z" transform="translate(-40.613 -156.65)" fill="#f78e00"/>
      <path id="Trazado_194574" data-name="Trazado 194574" d="M137.585,214.594l-2.2,1.649a10.991,10.991,0,0,1-13.189,0l-2.2-1.649L122.2,208h13.189Z" transform="translate(-75.424 -139.245)" fill="#ffbfa1"/>
      <path id="Trazado_194575" data-name="Trazado 194575" d="M96,82.991V96.18a15.387,15.387,0,0,0,15.387,15.387h0A15.387,15.387,0,0,0,126.774,96.18V89.585a8.793,8.793,0,0,0-8.793-8.793h-1.16A15.906,15.906,0,0,1,102.594,72Z" transform="translate(-58.019 -40.613)" fill="#ffceb6"/>
      <path id="Trazado_194576" data-name="Trazado 194576" d="M112,403.783V386.2l19.783,4.4L140.576,384h10.991v10.991l-4.4,8.793Z" transform="translate(-69.622 -266.885)" fill="#ef5e3b"/>
      <path id="Trazado_194577" data-name="Trazado 194577" d="M192,352h48.359v8.793H192Z" transform="translate(-127.641 -243.678)" fill="#8899f7"/>
      <path id="Trazado_194578" data-name="Trazado 194578" d="M216,328.793,218.2,320h8.793l2.2,8.793Z" transform="translate(-145.046 -220.471)" fill="#62798c"/>
      <path id="Trazado_194579" data-name="Trazado 194579" d="M208.793,280h13.189v10.991H200v-4.4Z" transform="translate(-133.443 -191.461)" fill="#718799"/>
      <path id="Trazado_194580" data-name="Trazado 194580" d="M280,280l8.793,4.4v6.594H280Z" transform="translate(-191.461 -191.461)" fill="#62798c"/>
      <path id="Trazado_194581" data-name="Trazado 194581" d="M336,256l8.793,4.4v6.594H336Z" transform="translate(-232.074 -174.056)" fill="#718799"/>
      <path id="Trazado_194582" data-name="Trazado 194582" d="M406.774,168v15.387a15.387,15.387,0,0,1-15.387,15.387h0A15.387,15.387,0,0,1,376,183.387v-4.4Z" transform="translate(-261.083 -110.235)" fill="#e3a15b"/>
      <path id="Trazado_194583" data-name="Trazado 194583" d="M416,416h8.793v19.783H416Z" transform="translate(-290.093 -290.093)" fill="#b1712c"/>
      <path id="Trazado_194584" data-name="Trazado 194584" d="M90.564,401.262V385.875l-8.121-2.32v16.231Z" transform="translate(-48.187 -266.563)" fill="#ffceb6"/>
      <path id="Trazado_194585" data-name="Trazado 194585" d="M363.783,397.189h6.594l4.4-6.594v-4.4l-10.991,2.2L350.594,384H344v21.981h19.783Z" transform="translate(-237.876 -266.885)" fill="#ef5e3b"/>
      <circle id="Elipse_5483" data-name="Elipse 5483" cx="2.195" cy="2.195" r="2.195" transform="translate(44.311 46.82)"/>
      <circle id="Elipse_5484" data-name="Elipse 5484" cx="2.195" cy="2.195" r="2.195" transform="translate(57.483 46.82)"/>
      <path id="Trazado_194587" data-name="Trazado 194587" d="M145.691,40.179H114.917a2.2,2.2,0,0,0-2.2,2.2V73.152a17.61,17.61,0,0,0,10.991,16.3v29.012l-8.793-2.931v-7.208a2.2,2.2,0,0,0-2.2-2.2h-4.936l-3.14-10.991h8.076a2.2,2.2,0,0,0,2.2-2.2V86.341a2.2,2.2,0,0,0-1.215-1.966l-8.793-4.4v0a2.186,2.186,0,0,0-.982-.234H90.737a2.2,2.2,0,0,0-1.319.439L82.386,85.46a10.869,10.869,0,0,0-2.64-3.4V42.377a26.378,26.378,0,0,0-52.756,0V82.06A10.922,10.922,0,0,0,23.754,86.9L18.311,103.23a2.2,2.2,0,0,0,1.185,2.7l.768.345-4.18,14.631a2.2,2.2,0,0,0-.085.6V130.3a2.2,2.2,0,0,0,1.8,2.163l15.78,2.869V145.69a2.2,2.2,0,0,0,2.2,2.2h70.341a2.2,2.2,0,0,0,2.2-2.2v-4.4h15.387v4.4a2.2,2.2,0,0,0,2.2,2.2H134.7a2.2,2.2,0,0,0,2.2-2.2v-4.4h4.4a2.2,2.2,0,0,0,1.966-1.215l4.4-8.793a2.2,2.2,0,0,0,.232-.983v-6.594a2.2,2.2,0,0,0-2.2-2.2H139.1v-2.2a2.194,2.194,0,0,0-2.2-2.2V89.449a17.61,17.61,0,0,0,10.991-16.3V42.377a2.2,2.2,0,0,0-2.2-2.2Zm-2.2,4.4v11.64L136.9,58.571V44.576Zm-10.991,0V60.141l-4.4,1.57V44.576Zm-8.793,0V63.281l-6.594,2.355V44.576ZM66.557,114.916v-4.4H110.52v4.4Zm-23.638,2.265-4.938-1.411v-3.052a2.2,2.2,0,0,0-.369-1.219l-1.8-2.694a13.286,13.286,0,0,1-1.835-10.592L38.3,80.946l4.079-2.039V86.34a2.2,2.2,0,0,0,2.2,2.2H62.161a2.2,2.2,0,0,0,2.2-2.2V78.906l4.079,2.04,2.111,8.445-5.311,3.983a2.2,2.2,0,0,0-.879,1.759v4.4a2.2,2.2,0,0,0,2.2,2.2h3.779l-1.1,4.4H64.359a2.2,2.2,0,0,0-2.2,2.2v8.793a2.2,2.2,0,0,0,2.2,2.2h0l-2.708,2.031Zm3.855-37.556a13.284,13.284,0,0,0,13.189,0v4.517H46.774Zm6.594-10.87A13.2,13.2,0,0,1,40.18,55.566V42.986l4.457-7.429A17.991,17.991,0,0,0,58.8,42.378h1.16a6.6,6.6,0,0,1,6.594,6.594v6.594A13.2,13.2,0,0,1,53.368,68.755Zm0,4.4a17.514,17.514,0,0,0,5.456-.871l.75,2.261-.931.7a8.836,8.836,0,0,1-10.551,0l-.931-.7.753-2.26a17.508,17.508,0,0,0,5.453.87ZM75.506,84.48a6.562,6.562,0,0,1,2.259,1.861H75.35a2.2,2.2,0,0,0-.974.231l-.759-3.036Zm19.628,9.814v3.038h-4.4V92.1ZM68.755,97.331v-1.1l7.327-5.5H86.341v6.594Zm11.473,4.4,1.1,4.4H73.769l1.1-4.4ZM44.576,122.053l17.108,3.8a2.2,2.2,0,0,0,1.8-.387l8.206-6.155h8.06v8.274L76.189,134.7H44.576Zm41.283-15.929-1.1-4.4H97.331a2.2,2.2,0,0,0,2.2-2.2v-4.4h.54l3.14,10.991ZM110.52,90.737h-4.4V85.5l4.4,2.2ZM91.469,84.142h10.258v6.594H97.85l-8.328-4.164v0a2.186,2.186,0,0,0-.982-.234ZM53.368,20.4A22.006,22.006,0,0,1,75.35,42.378V79.487l-11.391-5.7-1.136-3.408a17.583,17.583,0,0,0,8.131-14.816V48.972A11,11,0,0,0,59.963,37.981H58.8A13.633,13.633,0,0,1,46.542,30.4a2.2,2.2,0,0,0-3.851-.148L36.1,41.247a2.2,2.2,0,0,0-.313,1.131V55.566a17.583,17.583,0,0,0,8.131,14.816l-1.136,3.408-11.391,5.7V42.377A22.006,22.006,0,0,1,53.368,20.4Zm-25.444,67.9a6.552,6.552,0,0,1,3.307-3.813l1.888-.944-3.4,13.612a17.675,17.675,0,0,0-.007,8.549l-6.6-2.962ZM20.4,121.819l3.921-13.724,8.192,3.676,1.075,1.613v1.13L27.594,112.8l-1.208,4.227,13.793,3.941v11.095l-19.783-3.6Zm17.585,21.674v-7.358l2.2.4v.364a2.2,2.2,0,0,0,2.2,2.2H68.755v4.4Zm35.17,0v-4.4h4.4a2.2,2.2,0,0,0,1.966-1.215l4.4-8.793a2.2,2.2,0,0,0,.232-.983v-8.793h19.783v24.18Zm35.17-6.594V119.313h4.039l12.851,4.284a2.2,2.2,0,0,0,1.126.07l8.362-1.672v1.049l-3.375,5.062h-9.814v4.4h2.2v4.4Zm24.18,6.594h-4.4V132.5h4.4Zm10.991-13.708-3.557,7.113H136.9v-9.226l1.176-1.765h5.418ZM132.5,117.95l-4.4.879V90.594a17.051,17.051,0,0,0,4.4,0Zm10.991-44.8a13.189,13.189,0,1,1-26.378,0V70.3l26.378-9.421Z"/>
      <path id="Trazado_194589" data-name="Trazado 194589" d="M42.238,58.172H68.652S68.1,73.3,54.528,72.479,42.238,58.172,42.238,58.172Z" transform="translate(-2.082 -3.351)" fill="#fff"/>
    </g>
    <path id="Trazado_194588" data-name="Trazado 194588" d="M3957.218-9125.227l187.5-.161" transform="translate(-3249.718 11698.727)" fill="none" stroke="#000" stroke-linecap="round" stroke-width="4"/>
  </g>
</svg>
