<svg xmlns="http://www.w3.org/2000/svg" xmlns:xlink="http://www.w3.org/1999/xlink" width="819.5" height="166.111" viewBox="0 0 819.5 166.111">
  <defs>
    <clipPath id="clip-path">
      <rect id="Rectángulo_44989" data-name="Rectángulo 44989" width="819.5" height="166.109" transform="translate(0 0.001)" fill="none"/>
    </clipPath>
    <clipPath id="clip-path-2">
      <rect id="Rectángulo_44992" data-name="Rectángulo 44992" width="819.5" height="166.111" fill="none"/>
    </clipPath>
  </defs>
  <g id="Grupo_146970" data-name="Grupo 146970" transform="translate(-390 -6287)">
    <g id="Grupo_146663" data-name="Grupo 146663" transform="translate(390 6287)">
      <g id="Grupo_146652" data-name="Grupo 146652">
        <g id="Grupo_146651" data-name="Grupo 146651" clip-path="url(#clip-path)">
          <path id="Trazado_195257" data-name="Trazado 195257" d="M804.642,166.11H629.483a14.858,14.858,0,0,1-14.858-14.858V14.859A14.858,14.858,0,0,1,629.483,0H804.642A14.858,14.858,0,0,1,819.5,14.859V151.252a14.858,14.858,0,0,1-14.858,14.858" fill="#fdeced"/>
          <path id="Trazado_195258" data-name="Trazado 195258" d="M804.642,0H629.483a14.858,14.858,0,0,0-14.858,14.858V31.843H819.5V14.858A14.858,14.858,0,0,0,804.642,0" fill="#f18385"/>
          <path id="Trazado_195259" data-name="Trazado 195259" d="M636.645,83.907s-8.706-2.459-9.651-2.648c-.4-.079-6,7.889-12.369,17.152v51.911a15.752,15.752,0,0,0,6.6,12.821Z" fill="#e3c9cb"/>
          <path id="Trazado_195260" data-name="Trazado 195260" d="M598.838,166.11h-173.3a15.788,15.788,0,0,1-15.788-15.787V15.788A15.788,15.788,0,0,1,425.538,0h173.3A16.117,16.117,0,0,1,611.5,6.245c3.3,4.655,4.361,11.508,5.844,16.9,5.549,20.193,12.773,40,19.281,59.905.463,1.414-1.994,6.164-2.5,7.685q-6.961,20.972-13.728,42.008c-2.262,7.011-4.487,14.034-6.768,21.039-1.662,5.1-5.1,10.178-10.505,11.751a15.411,15.411,0,0,1-4.287.572" fill="#dbffff"/>
          <path id="Trazado_195261" data-name="Trazado 195261" d="M431.77,83.907s-8.706-2.459-9.651-2.648c-.4-.079-6,7.889-12.369,17.152v51.911a15.752,15.752,0,0,0,6.6,12.821Z" fill="#bde0e0"/>
          <path id="Trazado_195262" data-name="Trazado 195262" d="M619.844,31.842q-1.292-4.335-2.5-8.692c-1.483-5.4-2.544-12.25-5.844-16.9A16.117,16.117,0,0,0,598.838,0h-173.3A15.789,15.789,0,0,0,409.75,15.788V31.842Z" fill="#8ee5f6"/>
          <path id="Trazado_195263" data-name="Trazado 195263" d="M393.963,166.11h-173.3a15.788,15.788,0,0,1-15.788-15.787V15.788A15.788,15.788,0,0,1,220.663,0h173.3a16.117,16.117,0,0,1,12.662,6.244c3.3,4.655,4.361,11.508,5.844,16.9,5.549,20.193,12.772,40,19.281,59.905.463,1.414-1.994,6.164-2.5,7.685q-6.961,20.972-13.728,42.008c-2.262,7.011-4.487,14.034-6.768,21.039-1.662,5.1-5.1,10.178-10.505,11.751a15.411,15.411,0,0,1-4.287.572" fill="#fdeced"/>
          <path id="Trazado_195264" data-name="Trazado 195264" d="M414.969,31.842q-1.291-4.335-2.5-8.692c-1.483-5.4-2.544-12.25-5.844-16.9A16.117,16.117,0,0,0,393.963,0h-173.3a15.79,15.79,0,0,0-15.788,15.787V31.842Z" fill="#f18385"/>
          <path id="Trazado_195265" data-name="Trazado 195265" d="M226.9,83.907s-8.706-2.459-9.651-2.648c-.4-.079-6,7.889-12.369,17.152v51.911a15.752,15.752,0,0,0,6.6,12.821Z" fill="#e3c9cb"/>
          <path id="Trazado_195266" data-name="Trazado 195266" d="M189.088,166.11H15.788A15.788,15.788,0,0,1,0,150.323V15.788A15.788,15.788,0,0,1,15.788,0h173.3A16.117,16.117,0,0,1,201.75,6.245c3.3,4.655,4.361,11.508,5.844,16.9,5.549,20.193,12.772,40,19.281,59.905.463,1.414-1.994,6.164-2.5,7.685q-6.962,20.972-13.728,42.008c-2.262,7.011-4.487,14.034-6.768,21.039-1.662,5.1-5.1,10.178-10.505,11.751a15.411,15.411,0,0,1-4.287.572" fill="#dbffff"/>
          <path id="Trazado_195267" data-name="Trazado 195267" d="M210.094,31.842q-1.291-4.335-2.5-8.692c-1.483-5.4-2.544-12.25-5.844-16.9A16.117,16.117,0,0,0,189.088,0H15.788A15.789,15.789,0,0,0,0,15.788V31.842Z" fill="#8ee5f6"/>
        </g>
      </g>
      <g id="Grupo_146654" data-name="Grupo 146654">
        <g id="Grupo_146653" data-name="Grupo 146653" clip-path="url(#clip-path-2)">
          <path id="Trazado_195268" data-name="Trazado 195268" d="M36.32,59.548V64h-1.5V52.625h4.195a4.213,4.213,0,0,1,2.926.953A3.233,3.233,0,0,1,43,56.1a3.191,3.191,0,0,1-1.035,2.55,4.4,4.4,0,0,1-2.965.9Zm0-1.228h2.695a2.7,2.7,0,0,0,1.844-.566,2.078,2.078,0,0,0,.641-1.64,2.149,2.149,0,0,0-.641-1.629,2.526,2.526,0,0,0-1.758-.633H36.32Z" fill="#12263f"/>
          <path id="Trazado_195269" data-name="Trazado 195269" d="M44.2,59.695a4.984,4.984,0,0,1,.488-2.234,3.64,3.64,0,0,1,1.36-1.532,3.7,3.7,0,0,1,1.988-.539,3.565,3.565,0,0,1,2.793,1.2A4.6,4.6,0,0,1,51.9,59.765v.1a5.05,5.05,0,0,1-.472,2.215,3.6,3.6,0,0,1-1.352,1.527,3.748,3.748,0,0,1-2.02.547,3.555,3.555,0,0,1-2.785-1.195A4.576,4.576,0,0,1,44.2,59.8Zm1.453.172a3.618,3.618,0,0,0,.652,2.258,2.211,2.211,0,0,0,3.5-.012,3.95,3.95,0,0,0,.649-2.418,3.61,3.61,0,0,0-.66-2.254,2.1,2.1,0,0,0-1.754-.863,2.078,2.078,0,0,0-1.727.851,3.929,3.929,0,0,0-.656,2.438" fill="#12263f"/>
          <path id="Trazado_195270" data-name="Trazado 195270" d="M55.078,55.547l.047,1.062a3.079,3.079,0,0,1,2.531-1.218q2.679,0,2.7,3.023V64H58.914V58.406a1.947,1.947,0,0,0-.418-1.351,1.673,1.673,0,0,0-1.277-.438,2.087,2.087,0,0,0-1.235.375,2.545,2.545,0,0,0-.828.985V64H53.711V55.547Z" fill="#12263f"/>
          <path id="Trazado_195271" data-name="Trazado 195271" d="M66.047,64.156a3.692,3.692,0,0,1-2.8-1.129,4.189,4.189,0,0,1-1.078-3.019v-.266a5.075,5.075,0,0,1,.48-2.246A3.74,3.74,0,0,1,64,55.949a3.379,3.379,0,0,1,1.871-.558,3.17,3.17,0,0,1,2.563,1.085,4.706,4.706,0,0,1,.914,3.11v.6H63.617a3.008,3.008,0,0,0,.73,2.02,2.3,2.3,0,0,0,1.778.769,2.524,2.524,0,0,0,1.3-.312,3.241,3.241,0,0,0,.929-.828l.883.687a3.548,3.548,0,0,1-3.187,1.633m-.18-7.578a1.928,1.928,0,0,0-1.469.637A3.1,3.1,0,0,0,63.664,59H67.9v-.109a2.752,2.752,0,0,0-.594-1.708,1.816,1.816,0,0,0-1.437-.6" fill="#12263f"/>
          <path id="Trazado_195272" data-name="Trazado 195272" d="M75.1,56.844a4.4,4.4,0,0,0-.712-.055A1.906,1.906,0,0,0,72.46,58v6H71.015V55.547h1.407l.023.977a2.249,2.249,0,0,1,2.015-1.133,1.481,1.481,0,0,1,.642.109Z" fill="#12263f"/>
          <path id="Trazado_195273" data-name="Trazado 195273" d="M83.9,64.156a3.692,3.692,0,0,1-2.8-1.129,4.189,4.189,0,0,1-1.078-3.019v-.266A5.075,5.075,0,0,1,80.5,57.5a3.74,3.74,0,0,1,1.344-1.547,3.379,3.379,0,0,1,1.871-.558,3.17,3.17,0,0,1,2.563,1.085,4.706,4.706,0,0,1,.914,3.11v.6H81.469a3.008,3.008,0,0,0,.73,2.02,2.3,2.3,0,0,0,1.778.769,2.524,2.524,0,0,0,1.3-.312,3.241,3.241,0,0,0,.929-.828l.883.687A3.548,3.548,0,0,1,83.9,64.156m-.18-7.578a1.928,1.928,0,0,0-1.469.637A3.1,3.1,0,0,0,81.516,59H85.75v-.109a2.752,2.752,0,0,0-.594-1.708,1.816,1.816,0,0,0-1.437-.6" fill="#12263f"/>
          <path id="Trazado_195274" data-name="Trazado 195274" d="M90.234,55.547l.047,1.062a3.079,3.079,0,0,1,2.531-1.218q2.679,0,2.7,3.023V64H94.07V58.406a1.947,1.947,0,0,0-.418-1.351,1.673,1.673,0,0,0-1.277-.438,2.087,2.087,0,0,0-1.235.375,2.545,2.545,0,0,0-.828.985V64H88.867V55.547Z" fill="#12263f"/>
          <path id="Trazado_195275" data-name="Trazado 195275" d="M105.742,56.844a4.385,4.385,0,0,0-.711-.055A1.906,1.906,0,0,0,103.1,58v6h-1.445V55.547h1.406l.024.977a2.249,2.249,0,0,1,2.015-1.133,1.476,1.476,0,0,1,.641.109Z" fill="#12263f"/>
          <path id="Trazado_195276" data-name="Trazado 195276" d="M110.43,64.156a3.692,3.692,0,0,1-2.8-1.129,4.189,4.189,0,0,1-1.078-3.019v-.266a5.075,5.075,0,0,1,.48-2.246,3.74,3.74,0,0,1,1.344-1.547,3.379,3.379,0,0,1,1.871-.558,3.17,3.17,0,0,1,2.563,1.085,4.706,4.706,0,0,1,.914,3.11v.6H108a3.008,3.008,0,0,0,.73,2.02,2.3,2.3,0,0,0,1.778.769,2.524,2.524,0,0,0,1.3-.312,3.241,3.241,0,0,0,.929-.828l.883.687a3.548,3.548,0,0,1-3.187,1.633m-.18-7.578a1.928,1.928,0,0,0-1.469.637A3.1,3.1,0,0,0,108.047,59h4.234v-.109a2.752,2.752,0,0,0-.594-1.708,1.816,1.816,0,0,0-1.437-.6" fill="#12263f"/>
          <path id="Trazado_195277" data-name="Trazado 195277" d="M116.758,55.547l.039.937a3.122,3.122,0,0,1,2.508-1.093,2.417,2.417,0,0,1,2.414,1.359,3.2,3.2,0,0,1,1.1-.984,3.24,3.24,0,0,1,1.6-.375q2.781,0,2.828,2.945V64H125.8V58.422a1.939,1.939,0,0,0-.414-1.355,1.822,1.822,0,0,0-1.391-.45,1.914,1.914,0,0,0-1.336.481,1.947,1.947,0,0,0-.617,1.293V64h-1.453V58.461a1.613,1.613,0,0,0-1.805-1.844,1.934,1.934,0,0,0-1.945,1.211V64h-1.445V55.547Z" fill="#12263f"/>
          <path id="Trazado_195278" data-name="Trazado 195278" d="M129.039,59.695a4.984,4.984,0,0,1,.488-2.234,3.641,3.641,0,0,1,1.36-1.532,3.7,3.7,0,0,1,1.988-.539,3.565,3.565,0,0,1,2.793,1.2,4.6,4.6,0,0,1,1.066,3.179v.1a5.05,5.05,0,0,1-.472,2.215,3.6,3.6,0,0,1-1.352,1.527,3.748,3.748,0,0,1-2.02.547,3.555,3.555,0,0,1-2.785-1.195,4.576,4.576,0,0,1-1.066-3.164Zm1.453.172a3.618,3.618,0,0,0,.652,2.258,2.211,2.211,0,0,0,3.5-.012,3.95,3.95,0,0,0,.649-2.418,3.61,3.61,0,0,0-.66-2.254,2.1,2.1,0,0,0-1.754-.863,2.078,2.078,0,0,0-1.727.851,3.929,3.929,0,0,0-.656,2.438" fill="#12263f"/>
          <path id="Trazado_195279" data-name="Trazado 195279" d="M140.039,55.547v9.43q0,2.438-2.211,2.437a2.7,2.7,0,0,1-.883-.139v-1.15a2.777,2.777,0,0,0,.656.063.987.987,0,0,0,.739-.262,1.3,1.3,0,0,0,.253-.911V55.547Zm-1.594-2.242a.864.864,0,0,1,.215-.59.789.789,0,0,1,.629-.246.82.82,0,0,1,.64.242.854.854,0,0,1,.219.594.825.825,0,0,1-.219.586.834.834,0,0,1-.64.234.809.809,0,0,1-.633-.234.842.842,0,0,1-.211-.586" fill="#12263f"/>
          <path id="Trazado_195280" data-name="Trazado 195280" d="M141.984,59.695a4.984,4.984,0,0,1,.488-2.234,3.64,3.64,0,0,1,1.36-1.532,3.7,3.7,0,0,1,1.988-.539,3.565,3.565,0,0,1,2.793,1.2,4.6,4.6,0,0,1,1.066,3.179v.1a5.05,5.05,0,0,1-.472,2.215,3.6,3.6,0,0,1-1.352,1.527,3.748,3.748,0,0,1-2.02.547,3.555,3.555,0,0,1-2.785-1.195,4.576,4.576,0,0,1-1.066-3.164Zm1.453.172a3.618,3.618,0,0,0,.652,2.258,2.211,2.211,0,0,0,3.5-.012,3.95,3.95,0,0,0,.649-2.418,3.61,3.61,0,0,0-.66-2.254,2.1,2.1,0,0,0-1.754-.863,2.078,2.078,0,0,0-1.727.851,3.929,3.929,0,0,0-.656,2.438" fill="#12263f"/>
          <path id="Trazado_195281" data-name="Trazado 195281" d="M158.961,64.156a3.692,3.692,0,0,1-2.8-1.129,4.189,4.189,0,0,1-1.078-3.019v-.266a5.075,5.075,0,0,1,.48-2.246,3.74,3.74,0,0,1,1.344-1.547,3.379,3.379,0,0,1,1.871-.558,3.17,3.17,0,0,1,2.563,1.085,4.706,4.706,0,0,1,.914,3.11v.6h-5.727a3.008,3.008,0,0,0,.73,2.02,2.3,2.3,0,0,0,1.778.769,2.524,2.524,0,0,0,1.3-.312,3.241,3.241,0,0,0,.929-.828l.883.687a3.548,3.548,0,0,1-3.187,1.633m-.18-7.578a1.928,1.928,0,0,0-1.469.637A3.1,3.1,0,0,0,156.578,59h4.234v-.109a2.752,2.752,0,0,0-.594-1.708,1.816,1.816,0,0,0-1.437-.6" fill="#12263f"/>
          <rect id="Rectángulo_44990" data-name="Rectángulo 44990" width="1.445" height="12" transform="translate(164.055 52)" fill="#12263f"/>
          <path id="Trazado_195282" data-name="Trazado 195282" d="M35.953,79.547l.039.937A3.122,3.122,0,0,1,38.5,79.391a2.417,2.417,0,0,1,2.414,1.359,3.2,3.2,0,0,1,1.1-.984,3.24,3.24,0,0,1,1.6-.375q2.781,0,2.828,2.945V88H44.992V82.422a1.939,1.939,0,0,0-.414-1.355,1.822,1.822,0,0,0-1.391-.45,1.914,1.914,0,0,0-1.336.481,1.947,1.947,0,0,0-.617,1.293V88H39.781V82.461a1.613,1.613,0,0,0-1.8-1.844,1.934,1.934,0,0,0-1.945,1.211V88H34.586V79.547Z" fill="#12263f"/>
          <path id="Trazado_195283" data-name="Trazado 195283" d="M53.835,88a3.052,3.052,0,0,1-.2-.891,3.225,3.225,0,0,1-2.406,1.047,2.987,2.987,0,0,1-2.051-.707,2.29,2.29,0,0,1-.8-1.793,2.391,2.391,0,0,1,1-2.051,4.734,4.734,0,0,1,2.825-.73h1.406v-.664A1.627,1.627,0,0,0,53.156,81a1.824,1.824,0,0,0-1.336-.449,2.1,2.1,0,0,0-1.3.391,1.15,1.15,0,0,0-.523.945H48.546A1.99,1.99,0,0,1,49,80.669a3.053,3.053,0,0,1,1.218-.934,4.088,4.088,0,0,1,1.692-.344,3.338,3.338,0,0,1,2.289.731,2.634,2.634,0,0,1,.859,2.011v3.891a4.756,4.756,0,0,0,.3,1.852V88Zm-2.4-1.1a2.534,2.534,0,0,0,1.289-.352,2.13,2.13,0,0,0,.883-.914V83.9H52.476q-2.656,0-2.656,1.555a1.315,1.315,0,0,0,.453,1.062,1.742,1.742,0,0,0,1.164.383" fill="#12263f"/>
          <path id="Trazado_195284" data-name="Trazado 195284" d="M59.281,77.5v2.047h1.578v1.117H59.281v5.249a1.173,1.173,0,0,0,.211.763.89.89,0,0,0,.719.254,3.547,3.547,0,0,0,.687-.094V88a4.234,4.234,0,0,1-1.109.155,1.8,1.8,0,0,1-1.461-.586,2.516,2.516,0,0,1-.492-1.664V80.664H56.3V79.547h1.539V77.5Z" fill="#12263f"/>
          <path id="Trazado_195285" data-name="Trazado 195285" d="M66.055,88.156a3.692,3.692,0,0,1-2.8-1.129,4.189,4.189,0,0,1-1.078-3.019v-.266a5.075,5.075,0,0,1,.48-2.246A3.74,3.74,0,0,1,64,79.949a3.379,3.379,0,0,1,1.871-.558,3.17,3.17,0,0,1,2.563,1.085,4.706,4.706,0,0,1,.914,3.11v.6H63.625a3.008,3.008,0,0,0,.73,2.02,2.3,2.3,0,0,0,1.778.769,2.524,2.524,0,0,0,1.3-.312,3.241,3.241,0,0,0,.929-.828l.883.687a3.548,3.548,0,0,1-3.187,1.633m-.18-7.578a1.928,1.928,0,0,0-1.469.637A3.1,3.1,0,0,0,63.672,83h4.234v-.109a2.752,2.752,0,0,0-.594-1.708,1.816,1.816,0,0,0-1.437-.6" fill="#12263f"/>
          <path id="Trazado_195286" data-name="Trazado 195286" d="M75.109,80.844a4.385,4.385,0,0,0-.711-.055A1.906,1.906,0,0,0,72.468,82v6H71.023V79.547h1.406l.024.977a2.249,2.249,0,0,1,2.015-1.133,1.476,1.476,0,0,1,.641.109Z" fill="#12263f"/>
          <path id="Trazado_195287" data-name="Trazado 195287" d="M76.445,77.305a.864.864,0,0,1,.215-.594.809.809,0,0,1,.637-.242.82.82,0,0,1,.64.242.854.854,0,0,1,.219.594.825.825,0,0,1-.219.586.834.834,0,0,1-.64.234.823.823,0,0,1-.637-.234.836.836,0,0,1-.215-.586M78.008,88H76.563V79.547h1.445Z" fill="#12263f"/>
          <path id="Trazado_195288" data-name="Trazado 195288" d="M85.539,88a3.052,3.052,0,0,1-.2-.891,3.225,3.225,0,0,1-2.406,1.047,2.987,2.987,0,0,1-2.051-.707,2.29,2.29,0,0,1-.8-1.793,2.391,2.391,0,0,1,1-2.051,4.734,4.734,0,0,1,2.825-.73h1.406v-.664A1.627,1.627,0,0,0,84.86,81a1.824,1.824,0,0,0-1.336-.449,2.1,2.1,0,0,0-1.3.391,1.15,1.15,0,0,0-.523.945H80.25a1.99,1.99,0,0,1,.45-1.222,3.053,3.053,0,0,1,1.218-.934,4.088,4.088,0,0,1,1.692-.344,3.338,3.338,0,0,1,2.289.731,2.634,2.634,0,0,1,.859,2.011v3.891a4.756,4.756,0,0,0,.3,1.852V88Zm-2.4-1.1a2.534,2.534,0,0,0,1.289-.352,2.13,2.13,0,0,0,.883-.914V83.9H84.18q-2.657,0-2.656,1.555a1.315,1.315,0,0,0,.453,1.062,1.742,1.742,0,0,0,1.164.383" fill="#12263f"/>
          <rect id="Rectángulo_44991" data-name="Rectángulo 44991" width="1.445" height="12" transform="translate(89.149 76)" fill="#12263f"/>
          <path id="Trazado_195289" data-name="Trazado 195289" d="M100.375,88.156a3.692,3.692,0,0,1-2.8-1.129A4.189,4.189,0,0,1,96.5,84.008v-.266a5.075,5.075,0,0,1,.48-2.246,3.74,3.74,0,0,1,1.344-1.547,3.379,3.379,0,0,1,1.871-.558,3.17,3.17,0,0,1,2.563,1.085,4.706,4.706,0,0,1,.914,3.11v.6H97.945a3.008,3.008,0,0,0,.73,2.02,2.3,2.3,0,0,0,1.778.769,2.524,2.524,0,0,0,1.3-.312,3.241,3.241,0,0,0,.929-.828l.883.687a3.548,3.548,0,0,1-3.187,1.633m-.18-7.578a1.928,1.928,0,0,0-1.469.637A3.1,3.1,0,0,0,97.992,83h4.234v-.109a2.752,2.752,0,0,0-.594-1.708,1.816,1.816,0,0,0-1.437-.6" fill="#12263f"/>
          <path id="Trazado_195290" data-name="Trazado 195290" d="M106.711,79.547l.047,1.062a3.079,3.079,0,0,1,2.531-1.218q2.679,0,2.7,3.023V88h-1.445V82.406a1.947,1.947,0,0,0-.418-1.351,1.673,1.673,0,0,0-1.277-.438,2.087,2.087,0,0,0-1.235.375,2.545,2.545,0,0,0-.828.985V88h-1.445V79.547Z" fill="#12263f"/>
          <path id="Trazado_195291" data-name="Trazado 195291" d="M123.352,87.164a3.073,3.073,0,0,1-2.478.992,2.627,2.627,0,0,1-2.058-.785,3.388,3.388,0,0,1-.714-2.324v-5.5h1.445v5.461q0,1.921,1.562,1.922a2.166,2.166,0,0,0,2.2-1.235V79.547h1.444V88h-1.375Z" fill="#12263f"/>
          <path id="Trazado_195292" data-name="Trazado 195292" d="M128.32,79.547l.047,1.062a3.079,3.079,0,0,1,2.531-1.218q2.679,0,2.7,3.023V88h-1.445V82.406a1.947,1.947,0,0,0-.418-1.351,1.673,1.673,0,0,0-1.277-.438,2.087,2.087,0,0,0-1.235.375,2.545,2.545,0,0,0-.828.985V88h-1.445V79.547Z" fill="#12263f"/>
          <path id="Trazado_195293" data-name="Trazado 195293" d="M38.68,104.844a4.385,4.385,0,0,0-.711-.055A1.906,1.906,0,0,0,36.039,106v6H34.594v-8.453H36l.024.977a2.249,2.249,0,0,1,2.015-1.133,1.476,1.476,0,0,1,.641.109Z" fill="#12263f"/>
          <path id="Trazado_195294" data-name="Trazado 195294" d="M43.367,112.156a3.692,3.692,0,0,1-2.8-1.129,4.189,4.189,0,0,1-1.078-3.019v-.266a5.075,5.075,0,0,1,.48-2.246,3.74,3.74,0,0,1,1.344-1.547,3.379,3.379,0,0,1,1.871-.558,3.17,3.17,0,0,1,2.563,1.085,4.706,4.706,0,0,1,.914,3.11v.6H40.937a3.008,3.008,0,0,0,.73,2.02,2.3,2.3,0,0,0,1.778.769,2.524,2.524,0,0,0,1.3-.312,3.241,3.241,0,0,0,.929-.828l.883.687a3.548,3.548,0,0,1-3.187,1.633m-.18-7.578a1.928,1.928,0,0,0-1.469.637A3.1,3.1,0,0,0,40.984,107h4.234v-.109a2.752,2.752,0,0,0-.594-1.708,1.816,1.816,0,0,0-1.437-.6" fill="#12263f"/>
          <path id="Trazado_195295" data-name="Trazado 195295" d="M51.727,110.977a2.076,2.076,0,0,0,1.351-.469,1.646,1.646,0,0,0,.64-1.172h1.367a2.6,2.6,0,0,1-.5,1.383,3.291,3.291,0,0,1-1.23,1.047,3.542,3.542,0,0,1-1.628.391A3.483,3.483,0,0,1,48.98,111a4.588,4.588,0,0,1-1.02-3.152v-.242a5.087,5.087,0,0,1,.453-2.195,3.452,3.452,0,0,1,1.3-1.493,3.69,3.69,0,0,1,2-.531,3.39,3.39,0,0,1,2.364.852,3.044,3.044,0,0,1,1,2.211H53.718a1.99,1.99,0,0,0-.621-1.348,1.929,1.929,0,0,0-1.379-.527,2.021,2.021,0,0,0-1.706.793,3.713,3.713,0,0,0-.606,2.292v.274a3.65,3.65,0,0,0,.6,2.25,2.035,2.035,0,0,0,1.72.789" fill="#12263f"/>
          <path id="Trazado_195296" data-name="Trazado 195296" d="M56.719,101.305a.86.86,0,0,1,.215-.594.807.807,0,0,1,.636-.242.821.821,0,0,1,.641.242.858.858,0,0,1,.219.594.782.782,0,0,1-.86.82.82.82,0,0,1-.636-.234.831.831,0,0,1-.215-.586M58.281,112H56.836v-8.453h1.445Z" fill="#12263f"/>
          <path id="Trazado_195297" data-name="Trazado 195297" d="M67.734,107.867a5.057,5.057,0,0,1-.883,3.109,2.827,2.827,0,0,1-2.39,1.18,3.1,3.1,0,0,1-2.422-.976v4.07H60.594v-11.7h1.32l.07.937a2.979,2.979,0,0,1,2.453-1.093,2.883,2.883,0,0,1,2.411,1.148,5.125,5.125,0,0,1,.886,3.195Zm-1.445-.164a3.737,3.737,0,0,0-.609-2.258,1.965,1.965,0,0,0-1.672-.828,2.125,2.125,0,0,0-1.969,1.164v4.039a2.128,2.128,0,0,0,1.984,1.156,1.953,1.953,0,0,0,1.653-.824,4.084,4.084,0,0,0,.613-2.449" fill="#12263f"/>
          <path id="Trazado_195298" data-name="Trazado 195298" d="M69.578,101.305a.86.86,0,0,1,.215-.594.807.807,0,0,1,.637-.242.82.82,0,0,1,.64.242.854.854,0,0,1,.219.594.825.825,0,0,1-.219.586.834.834,0,0,1-.64.234.821.821,0,0,1-.637-.234.831.831,0,0,1-.215-.586M71.141,112H69.7v-8.453h1.445Z" fill="#12263f"/>
          <path id="Trazado_195299" data-name="Trazado 195299" d="M76.961,112.156a3.692,3.692,0,0,1-2.8-1.129,4.189,4.189,0,0,1-1.078-3.019v-.266a5.075,5.075,0,0,1,.48-2.246,3.74,3.74,0,0,1,1.344-1.547,3.379,3.379,0,0,1,1.871-.558,3.17,3.17,0,0,1,2.563,1.085,4.706,4.706,0,0,1,.914,3.11v.6H74.531a3.008,3.008,0,0,0,.73,2.02,2.3,2.3,0,0,0,1.778.769,2.524,2.524,0,0,0,1.3-.312,3.241,3.241,0,0,0,.929-.828l.883.687a3.548,3.548,0,0,1-3.187,1.633m-.18-7.578a1.928,1.928,0,0,0-1.469.637A3.1,3.1,0,0,0,74.578,107h4.234v-.109a2.752,2.752,0,0,0-.594-1.708,1.816,1.816,0,0,0-1.437-.6" fill="#12263f"/>
          <path id="Trazado_195300" data-name="Trazado 195300" d="M83.3,103.547l.047,1.062a3.079,3.079,0,0,1,2.531-1.218q2.679,0,2.7,3.023V112H87.133v-5.594a1.947,1.947,0,0,0-.418-1.351,1.673,1.673,0,0,0-1.277-.438,2.087,2.087,0,0,0-1.235.375,2.545,2.545,0,0,0-.828.985V112H81.93v-8.453Z" fill="#12263f"/>
          <path id="Trazado_195301" data-name="Trazado 195301" d="M92.719,101.5v2.047H94.3v1.117H92.719v5.249a1.173,1.173,0,0,0,.211.763.89.89,0,0,0,.719.254,3.547,3.547,0,0,0,.687-.094V112a4.192,4.192,0,0,1-1.109.155,1.8,1.8,0,0,1-1.461-.586,2.516,2.516,0,0,1-.492-1.664v-5.242H89.735v-1.117h1.539V101.5Z" fill="#12263f"/>
          <path id="Trazado_195302" data-name="Trazado 195302" d="M99.492,112.156a3.692,3.692,0,0,1-2.8-1.129,4.189,4.189,0,0,1-1.078-3.019v-.266a5.075,5.075,0,0,1,.48-2.246,3.74,3.74,0,0,1,1.344-1.547,3.379,3.379,0,0,1,1.871-.558,3.17,3.17,0,0,1,2.563,1.085,4.706,4.706,0,0,1,.914,3.11v.6H97.062a3.008,3.008,0,0,0,.73,2.02,2.3,2.3,0,0,0,1.778.769,2.524,2.524,0,0,0,1.3-.312,3.241,3.241,0,0,0,.929-.828l.883.687a3.548,3.548,0,0,1-3.187,1.633m-.18-7.578a1.928,1.928,0,0,0-1.469.637A3.1,3.1,0,0,0,97.109,107h4.234v-.109a2.752,2.752,0,0,0-.594-1.708,1.816,1.816,0,0,0-1.437-.6" fill="#12263f"/>
          <path id="Trazado_195303" data-name="Trazado 195303" d="M111.812,110.977a2.081,2.081,0,0,0,1.352-.469,1.65,1.65,0,0,0,.64-1.172h1.367a2.612,2.612,0,0,1-.5,1.383,3.291,3.291,0,0,1-1.23,1.047,3.544,3.544,0,0,1-1.629.391A3.481,3.481,0,0,1,109.066,111a4.588,4.588,0,0,1-1.02-3.152v-.242a5.087,5.087,0,0,1,.453-2.195,3.457,3.457,0,0,1,1.3-1.493,3.7,3.7,0,0,1,2-.531,3.387,3.387,0,0,1,2.363.852,3.041,3.041,0,0,1,1,2.211H113.8a1.994,1.994,0,0,0-.621-1.348,1.929,1.929,0,0,0-1.379-.527,2.022,2.022,0,0,0-1.707.793,3.719,3.719,0,0,0-.605,2.292v.274a3.65,3.65,0,0,0,.6,2.25,2.033,2.033,0,0,0,1.719.789" fill="#12263f"/>
          <path id="Trazado_195304" data-name="Trazado 195304" d="M116.414,107.695a4.984,4.984,0,0,1,.488-2.234,3.64,3.64,0,0,1,1.36-1.532,3.7,3.7,0,0,1,1.988-.539,3.565,3.565,0,0,1,2.793,1.2,4.6,4.6,0,0,1,1.066,3.179v.1a5.05,5.05,0,0,1-.472,2.215,3.6,3.6,0,0,1-1.352,1.527,3.748,3.748,0,0,1-2.02.547,3.555,3.555,0,0,1-2.785-1.195,4.576,4.576,0,0,1-1.066-3.164Zm1.453.172a3.618,3.618,0,0,0,.652,2.258,2.211,2.211,0,0,0,3.5-.012,3.95,3.95,0,0,0,.649-2.418,3.61,3.61,0,0,0-.66-2.254,2.1,2.1,0,0,0-1.754-.863,2.078,2.078,0,0,0-1.727.851,3.929,3.929,0,0,0-.656,2.438" fill="#12263f"/>
          <path id="Trazado_195305" data-name="Trazado 195305" d="M127.289,103.547l.047,1.062a3.079,3.079,0,0,1,2.531-1.218q2.679,0,2.7,3.023V112h-1.445v-5.594a1.947,1.947,0,0,0-.418-1.351,1.673,1.673,0,0,0-1.277-.438,2.087,2.087,0,0,0-1.235.375,2.545,2.545,0,0,0-.828.985V112h-1.445v-8.453Z" fill="#12263f"/>
          <path id="Trazado_195306" data-name="Trazado 195306" d="M143.929,112a3.052,3.052,0,0,1-.2-.891,3.225,3.225,0,0,1-2.406,1.047,2.987,2.987,0,0,1-2.051-.707,2.29,2.29,0,0,1-.8-1.793,2.391,2.391,0,0,1,1-2.051,4.734,4.734,0,0,1,2.825-.73H143.7v-.664A1.627,1.627,0,0,0,143.25,105a1.824,1.824,0,0,0-1.336-.449,2.1,2.1,0,0,0-1.3.391,1.15,1.15,0,0,0-.523.945H138.64a1.99,1.99,0,0,1,.45-1.222,3.053,3.053,0,0,1,1.218-.934,4.088,4.088,0,0,1,1.692-.344,3.338,3.338,0,0,1,2.289.731,2.634,2.634,0,0,1,.859,2.011v3.891a4.756,4.756,0,0,0,.3,1.852V112Zm-2.4-1.1a2.534,2.534,0,0,0,1.289-.352,2.13,2.13,0,0,0,.883-.914V107.9H142.57q-2.657,0-2.656,1.555a1.315,1.315,0,0,0,.453,1.062,1.742,1.742,0,0,0,1.164.383" fill="#12263f"/>
          <path id="Trazado_195307" data-name="Trazado 195307" d="M147.07,107.7a4.974,4.974,0,0,1,.914-3.145,3.151,3.151,0,0,1,4.836-.074l.07-.937h1.32v8.25a3.441,3.441,0,0,1-.972,2.586,3.592,3.592,0,0,1-2.613.945,4.343,4.343,0,0,1-1.79-.391,3.074,3.074,0,0,1-1.335-1.07l.75-.867a2.825,2.825,0,0,0,2.273,1.148,2.216,2.216,0,0,0,1.645-.594,2.268,2.268,0,0,0,.589-1.671v-.727a2.969,2.969,0,0,1-2.367,1,2.886,2.886,0,0,1-2.4-1.195,5.224,5.224,0,0,1-.918-3.258m1.453.164a3.787,3.787,0,0,0,.586,2.246,1.905,1.905,0,0,0,1.641.817,2.117,2.117,0,0,0,2.007-1.243v-3.859a2.14,2.14,0,0,0-1.992-1.211,1.919,1.919,0,0,0-1.648.82,4.128,4.128,0,0,0-.594,2.43" fill="#12263f"/>
          <path id="Trazado_195308" data-name="Trazado 195308" d="M161.609,111.164a3.071,3.071,0,0,1-2.477.992,2.627,2.627,0,0,1-2.058-.785,3.393,3.393,0,0,1-.715-2.324v-5.5H157.8v5.461q0,1.921,1.563,1.922a2.164,2.164,0,0,0,2.2-1.235v-6.148h1.445V112H161.64Z" fill="#12263f"/>
          <path id="Trazado_195309" data-name="Trazado 195309" d="M170.429,112a3.052,3.052,0,0,1-.2-.891,3.225,3.225,0,0,1-2.406,1.047,2.987,2.987,0,0,1-2.051-.707,2.29,2.29,0,0,1-.8-1.793,2.391,2.391,0,0,1,1-2.051,4.734,4.734,0,0,1,2.825-.73H170.2v-.664A1.627,1.627,0,0,0,169.75,105a1.824,1.824,0,0,0-1.336-.449,2.1,2.1,0,0,0-1.3.391,1.15,1.15,0,0,0-.523.945H165.14a1.99,1.99,0,0,1,.45-1.222,3.053,3.053,0,0,1,1.218-.934,4.088,4.088,0,0,1,1.692-.344,3.338,3.338,0,0,1,2.289.731,2.634,2.634,0,0,1,.859,2.011v3.891a4.756,4.756,0,0,0,.3,1.852V112Zm-2.4-1.1a2.534,2.534,0,0,0,1.289-.352,2.13,2.13,0,0,0,.883-.914V107.9H169.07q-2.657,0-2.656,1.555a1.315,1.315,0,0,0,.453,1.062,1.742,1.742,0,0,0,1.164.383" fill="#12263f"/>
          <path id="Trazado_195310" data-name="Trazado 195310" d="M35.305,136v-7.336H33.969v-1.117h1.336v-.867a2.876,2.876,0,0,1,.727-2.1,2.742,2.742,0,0,1,2.054-.742,3.814,3.814,0,0,1,.992.132L39,125.133a4.138,4.138,0,0,0-.781-.071,1.407,1.407,0,0,0-1.086.412,1.67,1.67,0,0,0-.383,1.179v.894h1.805v1.117H36.75V136Z" fill="#12263f"/>
          <path id="Trazado_195311" data-name="Trazado 195311" d="M44.234,128.844a4.386,4.386,0,0,0-.711-.055A1.906,1.906,0,0,0,41.593,130v6H40.148v-8.453h1.406l.024.977a2.249,2.249,0,0,1,2.015-1.133,1.476,1.476,0,0,1,.641.109Z" fill="#12263f"/>
          <path id="Trazado_195312" data-name="Trazado 195312" d="M47.148,124.024H48.9l-2.093,2.3-1.164,0ZM47.133,136H45.68v-8.453h1.453Z" fill="#12263f"/>
          <path id="Trazado_195313" data-name="Trazado 195313" d="M54.734,136a3.052,3.052,0,0,1-.2-.891,3.225,3.225,0,0,1-2.406,1.047,2.987,2.987,0,0,1-2.051-.707,2.29,2.29,0,0,1-.8-1.793,2.391,2.391,0,0,1,1-2.051,4.734,4.734,0,0,1,2.825-.73h1.406v-.664A1.627,1.627,0,0,0,54.055,129a1.824,1.824,0,0,0-1.336-.449,2.1,2.1,0,0,0-1.3.391,1.15,1.15,0,0,0-.523.945H49.445a1.99,1.99,0,0,1,.45-1.222,3.052,3.052,0,0,1,1.218-.934,4.088,4.088,0,0,1,1.692-.344,3.338,3.338,0,0,1,2.289.731,2.634,2.634,0,0,1,.859,2.011v3.891a4.756,4.756,0,0,0,.3,1.852V136Zm-2.4-1.1a2.534,2.534,0,0,0,1.289-.352,2.13,2.13,0,0,0,.883-.914V131.9H53.375q-2.656,0-2.656,1.555a1.315,1.315,0,0,0,.453,1.062,1.742,1.742,0,0,0,1.164.383" fill="#12263f"/>
          <path id="Trazado_195314" data-name="Trazado 195314" d="M61.8,131.7a4.984,4.984,0,0,1,.488-2.234,3.641,3.641,0,0,1,1.36-1.532,3.7,3.7,0,0,1,1.988-.539,3.565,3.565,0,0,1,2.793,1.2,4.6,4.6,0,0,1,1.066,3.179v.1a5.05,5.05,0,0,1-.472,2.215,3.6,3.6,0,0,1-1.352,1.527,3.748,3.748,0,0,1-2.02.547,3.555,3.555,0,0,1-2.785-1.2A4.576,4.576,0,0,1,61.8,131.8Zm1.453.172a3.618,3.618,0,0,0,.652,2.258,2.211,2.211,0,0,0,3.5-.012,3.95,3.95,0,0,0,.649-2.418,3.61,3.61,0,0,0-.66-2.254,2.1,2.1,0,0,0-1.754-.863,2.078,2.078,0,0,0-1.727.851,3.929,3.929,0,0,0-.656,2.438" fill="#12263f"/>
          <path id="Trazado_195315" data-name="Trazado 195315" d="M77.227,125.5v2.047H78.8v1.117H77.227v5.249a1.173,1.173,0,0,0,.211.763.886.886,0,0,0,.718.254,3.548,3.548,0,0,0,.687-.094V136a4.228,4.228,0,0,1-1.109.155,1.8,1.8,0,0,1-1.461-.586,2.516,2.516,0,0,1-.492-1.664v-5.242H74.243v-1.117h1.538V125.5Z" fill="#12263f"/>
          <path id="Trazado_195316" data-name="Trazado 195316" d="M80.5,125.305a.86.86,0,0,1,.215-.594.807.807,0,0,1,.637-.242.82.82,0,0,1,.64.242.854.854,0,0,1,.219.594.825.825,0,0,1-.219.586.834.834,0,0,1-.64.234.821.821,0,0,1-.637-.234.831.831,0,0,1-.215-.586M82.062,136H80.617v-8.453h1.445Z" fill="#12263f"/>
          <path id="Trazado_195317" data-name="Trazado 195317" d="M91.531,131.867a5.03,5.03,0,0,1-.89,3.113,2.844,2.844,0,0,1-2.391,1.176,2.946,2.946,0,0,1-2.476-1.133L85.7,136H84.375V124H85.82v4.476a2.931,2.931,0,0,1,2.414-1.085,2.861,2.861,0,0,1,2.418,1.164,5.175,5.175,0,0,1,.879,3.187Zm-1.445-.164a3.906,3.906,0,0,0-.57-2.281,1.892,1.892,0,0,0-1.641-.8,2.122,2.122,0,0,0-2.055,1.328V133.6a2.182,2.182,0,0,0,2.071,1.329,1.88,1.88,0,0,0,1.617-.8,4.156,4.156,0,0,0,.578-2.422" fill="#12263f"/>
          <path id="Trazado_195318" data-name="Trazado 195318" d="M93.359,125.305a.864.864,0,0,1,.215-.594.809.809,0,0,1,.637-.242.822.822,0,0,1,.641.242.857.857,0,0,1,.218.594.856.856,0,1,1-1.711,0M94.922,136H93.477v-8.453h1.445Z" fill="#12263f"/>
          <path id="Trazado_195319" data-name="Trazado 195319" d="M102.453,136a3.052,3.052,0,0,1-.2-.891,3.225,3.225,0,0,1-2.406,1.047,2.987,2.987,0,0,1-2.051-.707,2.29,2.29,0,0,1-.8-1.793,2.391,2.391,0,0,1,1-2.051,4.734,4.734,0,0,1,2.825-.73h1.406v-.664a1.627,1.627,0,0,0-.453-1.208,1.824,1.824,0,0,0-1.336-.449,2.1,2.1,0,0,0-1.3.391,1.15,1.15,0,0,0-.523.945H97.164a1.99,1.99,0,0,1,.45-1.222,3.052,3.052,0,0,1,1.218-.934,4.088,4.088,0,0,1,1.692-.344,3.338,3.338,0,0,1,2.289.731,2.634,2.634,0,0,1,.859,2.011v3.891a4.756,4.756,0,0,0,.3,1.852V136Zm-2.4-1.1a2.534,2.534,0,0,0,1.289-.352,2.13,2.13,0,0,0,.883-.914V131.9h-1.133q-2.657,0-2.656,1.555a1.315,1.315,0,0,0,.453,1.062,1.742,1.742,0,0,0,1.164.383" fill="#12263f"/>
          <path id="Trazado_195320" data-name="Trazado 195320" d="M105.969,135.242a.9.9,0,0,1,.223-.625.847.847,0,0,1,.668-.25.871.871,0,0,1,.675.25.886.886,0,0,1,.231.625.841.841,0,0,1-.231.6.89.89,0,0,1-.675.242.8.8,0,0,1-.891-.844" fill="#12263f"/>
        </g>
      </g>
      <path id="Trazado_195321" data-name="Trazado 195321" d="M257.328,62.774h5.391V64h-6.9V52.626h1.508Z" fill="#12263f"/>
      <g id="Grupo_146656" data-name="Grupo 146656">
        <g id="Grupo_146655" data-name="Grupo 146655" clip-path="url(#clip-path-2)">
          <path id="Trazado_195322" data-name="Trazado 195322" d="M269.421,64a3.053,3.053,0,0,1-.2-.891,3.225,3.225,0,0,1-2.406,1.047,2.987,2.987,0,0,1-2.051-.707,2.29,2.29,0,0,1-.8-1.793,2.391,2.391,0,0,1,1-2.051,4.734,4.734,0,0,1,2.825-.73H269.2v-.664A1.627,1.627,0,0,0,268.742,57a1.824,1.824,0,0,0-1.336-.449,2.1,2.1,0,0,0-1.3.391,1.15,1.15,0,0,0-.523.945h-1.454a1.99,1.99,0,0,1,.45-1.222,3.053,3.053,0,0,1,1.218-.934,4.088,4.088,0,0,1,1.692-.344,3.338,3.338,0,0,1,2.289.731,2.634,2.634,0,0,1,.859,2.011v3.891a4.756,4.756,0,0,0,.3,1.852V64Zm-2.4-1.1a2.534,2.534,0,0,0,1.289-.352,2.131,2.131,0,0,0,.883-.914V59.9h-1.133q-2.657,0-2.656,1.555a1.315,1.315,0,0,0,.453,1.062,1.742,1.742,0,0,0,1.164.383" fill="#12263f"/>
          <path id="Trazado_195323" data-name="Trazado 195323" d="M275.578,62.039l2.094-6.492h1.476L276.117,64h-1.1l-3.063-8.453h1.477Z" fill="#12263f"/>
          <path id="Trazado_195324" data-name="Trazado 195324" d="M285.64,64a3.052,3.052,0,0,1-.2-.891,3.225,3.225,0,0,1-2.406,1.047,2.987,2.987,0,0,1-2.051-.707,2.29,2.29,0,0,1-.8-1.793,2.391,2.391,0,0,1,1-2.051,4.734,4.734,0,0,1,2.825-.73h1.406v-.664A1.627,1.627,0,0,0,284.961,57a1.824,1.824,0,0,0-1.336-.449,2.1,2.1,0,0,0-1.3.391,1.15,1.15,0,0,0-.523.945h-1.454a1.99,1.99,0,0,1,.45-1.222,3.053,3.053,0,0,1,1.218-.934,4.088,4.088,0,0,1,1.692-.344,3.338,3.338,0,0,1,2.289.731,2.634,2.634,0,0,1,.859,2.011v3.891a4.756,4.756,0,0,0,.3,1.852V64Zm-2.4-1.1a2.534,2.534,0,0,0,1.289-.352,2.13,2.13,0,0,0,.883-.914V59.9h-1.133q-2.656,0-2.656,1.555a1.315,1.315,0,0,0,.453,1.062,1.742,1.742,0,0,0,1.164.383" fill="#12263f"/>
          <path id="Trazado_195325" data-name="Trazado 195325" d="M293.211,56.844a4.385,4.385,0,0,0-.711-.055A1.906,1.906,0,0,0,290.57,58v6h-1.445V55.547h1.406l.024.977a2.249,2.249,0,0,1,2.015-1.133,1.476,1.476,0,0,1,.641.109Z" fill="#12263f"/>
          <path id="Trazado_195326" data-name="Trazado 195326" d="M302.008,64.156a3.692,3.692,0,0,1-2.8-1.129,4.189,4.189,0,0,1-1.078-3.019v-.266a5.075,5.075,0,0,1,.48-2.246,3.74,3.74,0,0,1,1.344-1.547,3.379,3.379,0,0,1,1.871-.558,3.17,3.17,0,0,1,2.563,1.085,4.706,4.706,0,0,1,.914,3.11v.6h-5.727a3.008,3.008,0,0,0,.73,2.02,2.3,2.3,0,0,0,1.778.769,2.524,2.524,0,0,0,1.3-.312,3.241,3.241,0,0,0,.929-.828l.883.687a3.548,3.548,0,0,1-3.187,1.633m-.18-7.578a1.928,1.928,0,0,0-1.469.637A3.1,3.1,0,0,0,299.625,59h4.234v-.109a2.752,2.752,0,0,0-.594-1.708,1.816,1.816,0,0,0-1.437-.6" fill="#12263f"/>
          <rect id="Rectángulo_44993" data-name="Rectángulo 44993" width="1.445" height="12" transform="translate(307.102 52)" fill="#12263f"/>
          <path id="Trazado_195327" data-name="Trazado 195327" d="M255.6,77.305a.864.864,0,0,1,.214-.594.809.809,0,0,1,.637-.242.822.822,0,0,1,.641.242.857.857,0,0,1,.218.594.855.855,0,1,1-1.71,0M257.164,88h-1.445V79.547h1.445Z" fill="#12263f"/>
          <path id="Trazado_195328" data-name="Trazado 195328" d="M260.844,79.547l.047,1.062a3.079,3.079,0,0,1,2.531-1.218q2.679,0,2.7,3.023V88H264.68V82.406a1.947,1.947,0,0,0-.418-1.351,1.673,1.673,0,0,0-1.277-.438,2.087,2.087,0,0,0-1.235.375,2.545,2.545,0,0,0-.828.985V88h-1.445V79.547Z" fill="#12263f"/>
          <path id="Trazado_195329" data-name="Trazado 195329" d="M273.227,85.758a1.064,1.064,0,0,0-.442-.91,4.276,4.276,0,0,0-1.539-.559,7.266,7.266,0,0,1-1.743-.562,2.5,2.5,0,0,1-.953-.782,1.863,1.863,0,0,1-.308-1.078,2.192,2.192,0,0,1,.879-1.757,3.425,3.425,0,0,1,2.246-.719,3.531,3.531,0,0,1,2.332.742,2.358,2.358,0,0,1,.894,1.9H273.14a1.3,1.3,0,0,0-.5-1.023,1.89,1.89,0,0,0-1.269-.43,1.977,1.977,0,0,0-1.235.344,1.081,1.081,0,0,0-.444.9.878.878,0,0,0,.414.79,5.089,5.089,0,0,0,1.495.507,7.909,7.909,0,0,1,1.755.578,2.554,2.554,0,0,1,.995.809,1.99,1.99,0,0,1,.324,1.152,2.165,2.165,0,0,1-.906,1.817,3.8,3.8,0,0,1-2.351.683,4.26,4.26,0,0,1-1.8-.359,2.905,2.905,0,0,1-1.222-1,2.414,2.414,0,0,1-.442-1.394H269.4a1.5,1.5,0,0,0,.582,1.152,2.258,2.258,0,0,0,1.434.426,2.335,2.335,0,0,0,1.316-.332,1.024,1.024,0,0,0,.5-.887" fill="#12263f"/>
          <path id="Trazado_195330" data-name="Trazado 195330" d="M278.516,77.5v2.047h1.578v1.117h-1.578v5.249a1.173,1.173,0,0,0,.211.763.89.89,0,0,0,.719.254,3.547,3.547,0,0,0,.687-.094V88a4.234,4.234,0,0,1-1.109.155,1.8,1.8,0,0,1-1.461-.586,2.516,2.516,0,0,1-.492-1.664V80.664h-1.539V79.547h1.539V77.5Z" fill="#12263f"/>
          <path id="Trazado_195331" data-name="Trazado 195331" d="M285.867,80.844a4.385,4.385,0,0,0-.711-.055A1.906,1.906,0,0,0,283.226,82v6h-1.445V79.547h1.406l.024.977a2.249,2.249,0,0,1,2.015-1.133,1.476,1.476,0,0,1,.641.109Z" fill="#12263f"/>
          <path id="Trazado_195332" data-name="Trazado 195332" d="M292.414,87.164a3.071,3.071,0,0,1-2.477.992,2.627,2.627,0,0,1-2.058-.785,3.393,3.393,0,0,1-.715-2.324v-5.5h1.445v5.461q0,1.921,1.563,1.922a2.164,2.164,0,0,0,2.2-1.235V79.547h1.445V88h-1.375Z" fill="#12263f"/>
          <path id="Trazado_195333" data-name="Trazado 195333" d="M297.375,79.547l.039.937a3.122,3.122,0,0,1,2.508-1.093,2.417,2.417,0,0,1,2.414,1.359,3.2,3.2,0,0,1,1.1-.984,3.24,3.24,0,0,1,1.6-.375q2.781,0,2.828,2.945V88h-1.445V82.422A1.939,1.939,0,0,0,306,81.067a1.822,1.822,0,0,0-1.391-.45,1.914,1.914,0,0,0-1.336.481,1.947,1.947,0,0,0-.617,1.293V88H301.2V82.461a1.613,1.613,0,0,0-1.8-1.844,1.934,1.934,0,0,0-1.945,1.211V88h-1.445V79.547Z" fill="#12263f"/>
          <path id="Trazado_195334" data-name="Trazado 195334" d="M313.547,88.156a3.692,3.692,0,0,1-2.8-1.129,4.189,4.189,0,0,1-1.078-3.019v-.266a5.075,5.075,0,0,1,.48-2.246,3.74,3.74,0,0,1,1.344-1.547,3.379,3.379,0,0,1,1.871-.558,3.17,3.17,0,0,1,2.563,1.085,4.706,4.706,0,0,1,.914,3.11v.6h-5.727a3.008,3.008,0,0,0,.73,2.02,2.3,2.3,0,0,0,1.778.769,2.524,2.524,0,0,0,1.3-.312,3.241,3.241,0,0,0,.929-.828l.883.687a3.548,3.548,0,0,1-3.187,1.633m-.18-7.578a1.928,1.928,0,0,0-1.469.637A3.1,3.1,0,0,0,311.164,83H315.4v-.109a2.752,2.752,0,0,0-.594-1.708,1.816,1.816,0,0,0-1.437-.6" fill="#12263f"/>
          <path id="Trazado_195335" data-name="Trazado 195335" d="M319.883,79.547l.047,1.062a3.079,3.079,0,0,1,2.531-1.218q2.679,0,2.7,3.023V88h-1.445V82.406a1.947,1.947,0,0,0-.418-1.351,1.673,1.673,0,0,0-1.277-.438,2.087,2.087,0,0,0-1.235.375,2.545,2.545,0,0,0-.828.985V88h-1.445V79.547Z" fill="#12263f"/>
          <path id="Trazado_195336" data-name="Trazado 195336" d="M329.3,77.5v2.047h1.578v1.117H329.3v5.249a1.173,1.173,0,0,0,.211.763.89.89,0,0,0,.719.254,3.547,3.547,0,0,0,.687-.094V88a4.234,4.234,0,0,1-1.109.155,1.8,1.8,0,0,1-1.461-.586,2.516,2.516,0,0,1-.492-1.664V80.664h-1.539V79.547h1.539V77.5Z" fill="#12263f"/>
          <path id="Trazado_195337" data-name="Trazado 195337" d="M337.789,88a3.052,3.052,0,0,1-.2-.891,3.225,3.225,0,0,1-2.406,1.047,2.987,2.987,0,0,1-2.051-.707,2.29,2.29,0,0,1-.8-1.793,2.391,2.391,0,0,1,1-2.051,4.734,4.734,0,0,1,2.825-.73h1.406v-.664A1.627,1.627,0,0,0,337.11,81a1.824,1.824,0,0,0-1.336-.449,2.1,2.1,0,0,0-1.3.391,1.15,1.15,0,0,0-.523.945H332.5a1.99,1.99,0,0,1,.45-1.222,3.052,3.052,0,0,1,1.218-.934,4.088,4.088,0,0,1,1.692-.344,3.338,3.338,0,0,1,2.289.731,2.634,2.634,0,0,1,.859,2.011v3.891a4.756,4.756,0,0,0,.3,1.852V88Zm-2.4-1.1a2.534,2.534,0,0,0,1.289-.352,2.13,2.13,0,0,0,.883-.914V83.9H336.43q-2.656,0-2.656,1.555a1.315,1.315,0,0,0,.453,1.062,1.742,1.742,0,0,0,1.164.383" fill="#12263f"/>
          <rect id="Rectángulo_44994" data-name="Rectángulo 44994" width="1.445" height="12" transform="translate(341.399 76)" fill="#12263f"/>
          <path id="Trazado_195338" data-name="Trazado 195338" d="M354.336,87.164a3.071,3.071,0,0,1-2.477.992,2.627,2.627,0,0,1-2.058-.785,3.393,3.393,0,0,1-.715-2.324v-5.5h1.445v5.461q0,1.921,1.563,1.922a2.164,2.164,0,0,0,2.2-1.235V79.547h1.445V88h-1.375Z" fill="#12263f"/>
          <path id="Trazado_195339" data-name="Trazado 195339" d="M255.211,107.695a4.984,4.984,0,0,1,.488-2.234,3.64,3.64,0,0,1,1.36-1.532,3.7,3.7,0,0,1,1.988-.539,3.565,3.565,0,0,1,2.793,1.2,4.6,4.6,0,0,1,1.066,3.179v.1a5.05,5.05,0,0,1-.472,2.215,3.6,3.6,0,0,1-1.352,1.527,3.748,3.748,0,0,1-2.02.547,3.555,3.555,0,0,1-2.785-1.195,4.576,4.576,0,0,1-1.066-3.164Zm1.453.172a3.618,3.618,0,0,0,.652,2.258,2.211,2.211,0,0,0,3.5-.012,3.95,3.95,0,0,0,.649-2.418,3.61,3.61,0,0,0-.66-2.254,2.1,2.1,0,0,0-1.754-.863,2.078,2.078,0,0,0-1.727.851,3.929,3.929,0,0,0-.656,2.438" fill="#12263f"/>
          <path id="Trazado_195340" data-name="Trazado 195340" d="M271.875,107.867a5.029,5.029,0,0,1-.89,3.113,2.844,2.844,0,0,1-2.391,1.176,2.946,2.946,0,0,1-2.476-1.133l-.071.977h-1.328V100h1.445v4.476a2.932,2.932,0,0,1,2.414-1.085A2.861,2.861,0,0,1,271,104.555a5.175,5.175,0,0,1,.879,3.187Zm-1.445-.164a3.906,3.906,0,0,0-.57-2.281,1.891,1.891,0,0,0-1.641-.805,2.122,2.122,0,0,0-2.055,1.328V109.6a2.182,2.182,0,0,0,2.071,1.329,1.88,1.88,0,0,0,1.617-.805,4.156,4.156,0,0,0,.578-2.422" fill="#12263f"/>
          <path id="Trazado_195341" data-name="Trazado 195341" d="M275.188,103.547v9.43q0,2.438-2.211,2.437a2.7,2.7,0,0,1-.883-.139v-1.15a2.777,2.777,0,0,0,.656.063.987.987,0,0,0,.739-.262,1.3,1.3,0,0,0,.253-.911v-9.468Zm-1.594-2.242a.864.864,0,0,1,.215-.59.789.789,0,0,1,.629-.246.82.82,0,0,1,.64.242.854.854,0,0,1,.219.594.825.825,0,0,1-.219.586.834.834,0,0,1-.64.234.809.809,0,0,1-.633-.234.842.842,0,0,1-.211-.586" fill="#12263f"/>
          <path id="Trazado_195342" data-name="Trazado 195342" d="M281.024,112.156a3.692,3.692,0,0,1-2.8-1.129,4.189,4.189,0,0,1-1.078-3.019v-.266a5.075,5.075,0,0,1,.48-2.246,3.74,3.74,0,0,1,1.344-1.547,3.379,3.379,0,0,1,1.871-.558,3.17,3.17,0,0,1,2.563,1.085,4.706,4.706,0,0,1,.914,3.11v.6h-5.727a3.008,3.008,0,0,0,.73,2.02,2.3,2.3,0,0,0,1.778.769,2.524,2.524,0,0,0,1.3-.312,3.241,3.241,0,0,0,.929-.828l.883.687a3.548,3.548,0,0,1-3.187,1.633m-.18-7.578a1.928,1.928,0,0,0-1.469.637,3.1,3.1,0,0,0-.734,1.785h4.234v-.109a2.752,2.752,0,0,0-.594-1.708,1.816,1.816,0,0,0-1.437-.6" fill="#12263f"/>
          <path id="Trazado_195343" data-name="Trazado 195343" d="M287.953,101.5v2.047h1.578v1.117h-1.578v5.249a1.173,1.173,0,0,0,.211.763.89.89,0,0,0,.719.254,3.547,3.547,0,0,0,.687-.094V112a4.192,4.192,0,0,1-1.109.155A1.8,1.8,0,0,1,287,111.57a2.516,2.516,0,0,1-.492-1.664v-5.242h-1.539v-1.117h1.539V101.5Z" fill="#12263f"/>
          <path id="Trazado_195344" data-name="Trazado 195344" d="M290.68,107.695a4.984,4.984,0,0,1,.488-2.234,3.641,3.641,0,0,1,1.36-1.532,3.7,3.7,0,0,1,1.988-.539,3.565,3.565,0,0,1,2.793,1.2,4.6,4.6,0,0,1,1.066,3.179v.1a5.05,5.05,0,0,1-.472,2.215,3.6,3.6,0,0,1-1.352,1.527,3.748,3.748,0,0,1-2.02.547,3.555,3.555,0,0,1-2.785-1.195,4.576,4.576,0,0,1-1.066-3.164Zm1.453.172a3.618,3.618,0,0,0,.652,2.258,2.211,2.211,0,0,0,3.5-.012,3.95,3.95,0,0,0,.649-2.418,3.61,3.61,0,0,0-.66-2.254,2.1,2.1,0,0,0-1.754-.863,2.078,2.078,0,0,0-1.727.851,3.929,3.929,0,0,0-.656,2.438" fill="#12263f"/>
          <path id="Trazado_195345" data-name="Trazado 195345" d="M307.539,110.977a2.081,2.081,0,0,0,1.352-.469,1.65,1.65,0,0,0,.64-1.172H310.9a2.612,2.612,0,0,1-.5,1.383,3.291,3.291,0,0,1-1.23,1.047,3.544,3.544,0,0,1-1.629.391A3.481,3.481,0,0,1,304.793,111a4.588,4.588,0,0,1-1.02-3.152v-.242a5.087,5.087,0,0,1,.453-2.195,3.457,3.457,0,0,1,1.3-1.493,3.7,3.7,0,0,1,2-.531,3.387,3.387,0,0,1,2.363.852,3.041,3.041,0,0,1,1,2.211h-1.367a1.994,1.994,0,0,0-.621-1.348,1.929,1.929,0,0,0-1.379-.527,2.022,2.022,0,0,0-1.707.793,3.719,3.719,0,0,0-.605,2.292v.274a3.65,3.65,0,0,0,.6,2.25,2.033,2.033,0,0,0,1.719.789" fill="#12263f"/>
          <path id="Trazado_195346" data-name="Trazado 195346" d="M312.141,107.695a4.984,4.984,0,0,1,.488-2.234,3.641,3.641,0,0,1,1.36-1.532,3.7,3.7,0,0,1,1.988-.539,3.565,3.565,0,0,1,2.793,1.2,4.6,4.6,0,0,1,1.066,3.179v.1a5.05,5.05,0,0,1-.472,2.215,3.6,3.6,0,0,1-1.352,1.527,3.748,3.748,0,0,1-2.02.547,3.555,3.555,0,0,1-2.785-1.195,4.576,4.576,0,0,1-1.066-3.164Zm1.453.172a3.618,3.618,0,0,0,.652,2.258,2.211,2.211,0,0,0,3.5-.012,3.95,3.95,0,0,0,.649-2.418,3.61,3.61,0,0,0-.66-2.254,2.1,2.1,0,0,0-1.754-.863,2.078,2.078,0,0,0-1.727.851,3.929,3.929,0,0,0-.656,2.438" fill="#12263f"/>
          <path id="Trazado_195347" data-name="Trazado 195347" d="M323.016,103.547l.047,1.062a3.079,3.079,0,0,1,2.531-1.218q2.679,0,2.7,3.023V112h-1.445v-5.594a1.947,1.947,0,0,0-.418-1.351,1.672,1.672,0,0,0-1.277-.438,2.087,2.087,0,0,0-1.235.375,2.545,2.545,0,0,0-.828.985V112h-1.445v-8.453Z" fill="#12263f"/>
          <path id="Trazado_195348" data-name="Trazado 195348" d="M255.242,131.7a4.949,4.949,0,0,1,.922-3.129,3.135,3.135,0,0,1,4.765-.168V124h1.445v12h-1.328l-.07-.906a2.944,2.944,0,0,1-2.414,1.062,2.889,2.889,0,0,1-2.4-1.2,5.009,5.009,0,0,1-.925-3.141Zm1.445.164a3.75,3.75,0,0,0,.594,2.25,1.917,1.917,0,0,0,1.64.813,2.109,2.109,0,0,0,2.008-1.235v-3.883a2.123,2.123,0,0,0-1.992-1.195,1.927,1.927,0,0,0-1.656.82,4.128,4.128,0,0,0-.594,2.43" fill="#12263f"/>
          <path id="Trazado_195349" data-name="Trazado 195349" d="M268.125,136.156a3.692,3.692,0,0,1-2.8-1.129,4.189,4.189,0,0,1-1.078-3.019v-.266a5.075,5.075,0,0,1,.48-2.246,3.74,3.74,0,0,1,1.344-1.547,3.379,3.379,0,0,1,1.871-.558,3.17,3.17,0,0,1,2.563,1.085,4.706,4.706,0,0,1,.914,3.11v.6H265.7a3.008,3.008,0,0,0,.73,2.02,2.3,2.3,0,0,0,1.778.769,2.524,2.524,0,0,0,1.3-.312,3.241,3.241,0,0,0,.929-.828l.883.687a3.548,3.548,0,0,1-3.187,1.633m-.18-7.578a1.928,1.928,0,0,0-1.469.637,3.1,3.1,0,0,0-.734,1.785h4.234v-.109a2.752,2.752,0,0,0-.594-1.708,1.816,1.816,0,0,0-1.437-.6" fill="#12263f"/>
          <path id="Trazado_195350" data-name="Trazado 195350" d="M275.055,125.5v2.047h1.578v1.117h-1.578v5.249a1.173,1.173,0,0,0,.211.763.89.89,0,0,0,.719.254,3.548,3.548,0,0,0,.687-.094V136a4.234,4.234,0,0,1-1.109.155,1.8,1.8,0,0,1-1.461-.586,2.516,2.516,0,0,1-.492-1.664v-5.242h-1.539v-1.117h1.539V125.5Z" fill="#12263f"/>
          <path id="Trazado_195351" data-name="Trazado 195351" d="M281.828,136.156a3.692,3.692,0,0,1-2.8-1.129,4.189,4.189,0,0,1-1.078-3.019v-.266a5.075,5.075,0,0,1,.48-2.246,3.74,3.74,0,0,1,1.344-1.547,3.379,3.379,0,0,1,1.871-.558,3.17,3.17,0,0,1,2.563,1.085,4.706,4.706,0,0,1,.914,3.11v.6H279.4a3.008,3.008,0,0,0,.73,2.02,2.3,2.3,0,0,0,1.778.769,2.524,2.524,0,0,0,1.3-.312,3.241,3.241,0,0,0,.929-.828l.883.687a3.548,3.548,0,0,1-3.187,1.633m-.18-7.578a1.928,1.928,0,0,0-1.469.637,3.1,3.1,0,0,0-.734,1.785h4.234v-.109a2.752,2.752,0,0,0-.594-1.708,1.816,1.816,0,0,0-1.437-.6" fill="#12263f"/>
          <path id="Trazado_195352" data-name="Trazado 195352" d="M290.883,128.844a4.386,4.386,0,0,0-.711-.055,1.906,1.906,0,0,0-1.93,1.211v6H286.8v-8.453H288.2l.024.977a2.249,2.249,0,0,1,2.015-1.133,1.476,1.476,0,0,1,.641.109Z" fill="#12263f"/>
          <path id="Trazado_195353" data-name="Trazado 195353" d="M291.719,131.7a4.974,4.974,0,0,1,.914-3.145,3.151,3.151,0,0,1,4.836-.074l.07-.937h1.32v8.25a3.441,3.441,0,0,1-.972,2.586,3.591,3.591,0,0,1-2.613.945,4.343,4.343,0,0,1-1.79-.391,3.074,3.074,0,0,1-1.335-1.07l.75-.867a2.826,2.826,0,0,0,2.273,1.148,2.216,2.216,0,0,0,1.645-.594,2.268,2.268,0,0,0,.589-1.671v-.727a2.969,2.969,0,0,1-2.367,1,2.886,2.886,0,0,1-2.4-1.2,5.224,5.224,0,0,1-.918-3.258m1.453.164a3.787,3.787,0,0,0,.586,2.246,1.905,1.905,0,0,0,1.641.817,2.117,2.117,0,0,0,2.007-1.243v-3.859a2.14,2.14,0,0,0-1.992-1.211,1.919,1.919,0,0,0-1.648.82,4.128,4.128,0,0,0-.594,2.43" fill="#12263f"/>
          <path id="Trazado_195354" data-name="Trazado 195354" d="M304.547,136.156a3.692,3.692,0,0,1-2.8-1.129,4.189,4.189,0,0,1-1.078-3.019v-.266a5.075,5.075,0,0,1,.48-2.246,3.74,3.74,0,0,1,1.344-1.547,3.379,3.379,0,0,1,1.871-.558,3.17,3.17,0,0,1,2.563,1.085,4.706,4.706,0,0,1,.914,3.11v.6h-5.727a3.008,3.008,0,0,0,.73,2.02,2.3,2.3,0,0,0,1.778.769,2.524,2.524,0,0,0,1.3-.312,3.241,3.241,0,0,0,.929-.828l.883.687a3.548,3.548,0,0,1-3.187,1.633m-.18-7.578a1.928,1.928,0,0,0-1.469.637,3.1,3.1,0,0,0-.734,1.785H306.4v-.109a2.752,2.752,0,0,0-.594-1.708,1.816,1.816,0,0,0-1.437-.6" fill="#12263f"/>
          <path id="Trazado_195355" data-name="Trazado 195355" d="M310.883,127.547l.047,1.062a3.079,3.079,0,0,1,2.531-1.218q2.679,0,2.7,3.023V136h-1.445v-5.594a1.947,1.947,0,0,0-.418-1.351,1.673,1.673,0,0,0-1.277-.438,2.087,2.087,0,0,0-1.235.375,2.545,2.545,0,0,0-.828.985V136h-1.445v-8.453Z" fill="#12263f"/>
          <path id="Trazado_195356" data-name="Trazado 195356" d="M320.3,125.5v2.047h1.578v1.117H320.3v5.249a1.173,1.173,0,0,0,.211.763.89.89,0,0,0,.719.254,3.548,3.548,0,0,0,.687-.094V136a4.234,4.234,0,0,1-1.109.155,1.8,1.8,0,0,1-1.461-.586,2.516,2.516,0,0,1-.492-1.664v-5.242h-1.539v-1.117h1.539V125.5Z" fill="#12263f"/>
          <path id="Trazado_195357" data-name="Trazado 195357" d="M327.078,136.156a3.692,3.692,0,0,1-2.8-1.129,4.189,4.189,0,0,1-1.078-3.019v-.266a5.075,5.075,0,0,1,.48-2.246,3.74,3.74,0,0,1,1.344-1.547,3.379,3.379,0,0,1,1.871-.558,3.17,3.17,0,0,1,2.563,1.085,4.706,4.706,0,0,1,.914,3.11v.6h-5.727a3.008,3.008,0,0,0,.73,2.02,2.3,2.3,0,0,0,1.778.769,2.524,2.524,0,0,0,1.3-.312,3.241,3.241,0,0,0,.929-.828l.883.687a3.548,3.548,0,0,1-3.187,1.633m-.18-7.578a1.928,1.928,0,0,0-1.469.637A3.1,3.1,0,0,0,324.7,131h4.234v-.109a2.752,2.752,0,0,0-.594-1.708,1.816,1.816,0,0,0-1.437-.6" fill="#12263f"/>
          <path id="Trazado_195358" data-name="Trazado 195358" d="M332.078,135.242a.9.9,0,0,1,.223-.625.847.847,0,0,1,.668-.25.871.871,0,0,1,.675.25.886.886,0,0,1,.231.625.841.841,0,0,1-.231.6.89.89,0,0,1-.675.242.8.8,0,0,1-.891-.844" fill="#12263f"/>
        </g>
      </g>
      <path id="Trazado_195359" data-name="Trazado 195359" d="M469.25,58.742h-4.93v4.031h5.727V64H462.82V52.625h7.149v1.226H464.32v3.664h4.93Z" fill="#12263f"/>
      <g id="Grupo_146658" data-name="Grupo 146658">
        <g id="Grupo_146657" data-name="Grupo 146657" clip-path="url(#clip-path-2)">
          <path id="Trazado_195360" data-name="Trazado 195360" d="M473.055,55.547l.047,1.062a3.079,3.079,0,0,1,2.531-1.218q2.679,0,2.7,3.023V64h-1.445V58.406a1.947,1.947,0,0,0-.418-1.351,1.672,1.672,0,0,0-1.277-.438,2.087,2.087,0,0,0-1.235.375,2.545,2.545,0,0,0-.828.985V64h-1.445V55.547Z" fill="#12263f"/>
          <path id="Trazado_195361" data-name="Trazado 195361" d="M482.008,55.547v9.43q0,2.438-2.211,2.437a2.7,2.7,0,0,1-.883-.139v-1.15a2.777,2.777,0,0,0,.656.063.987.987,0,0,0,.739-.262,1.3,1.3,0,0,0,.253-.911V55.547Zm-1.594-2.242a.864.864,0,0,1,.215-.59.789.789,0,0,1,.629-.246.82.82,0,0,1,.64.242.854.854,0,0,1,.219.594.825.825,0,0,1-.219.586.834.834,0,0,1-.64.234.809.809,0,0,1-.633-.234.842.842,0,0,1-.211-.586" fill="#12263f"/>
          <path id="Trazado_195362" data-name="Trazado 195362" d="M489.555,63.164a3.071,3.071,0,0,1-2.477.992,2.627,2.627,0,0,1-2.058-.785,3.393,3.393,0,0,1-.715-2.324v-5.5h1.445v5.461q0,1.922,1.563,1.922a2.164,2.164,0,0,0,2.2-1.235V55.547h1.445V64h-1.375Z" fill="#12263f"/>
          <path id="Trazado_195363" data-name="Trazado 195363" d="M498.374,64a3.052,3.052,0,0,1-.2-.891,3.225,3.225,0,0,1-2.406,1.047,2.987,2.987,0,0,1-2.051-.707,2.29,2.29,0,0,1-.8-1.793,2.391,2.391,0,0,1,1-2.051,4.734,4.734,0,0,1,2.825-.73h1.406v-.664A1.627,1.627,0,0,0,497.7,57a1.824,1.824,0,0,0-1.336-.449,2.1,2.1,0,0,0-1.3.391,1.152,1.152,0,0,0-.524.945h-1.454a1.99,1.99,0,0,1,.45-1.222,3.053,3.053,0,0,1,1.218-.934,4.088,4.088,0,0,1,1.692-.344,3.338,3.338,0,0,1,2.289.731,2.634,2.634,0,0,1,.859,2.011v3.891a4.756,4.756,0,0,0,.3,1.852V64Zm-2.4-1.1a2.533,2.533,0,0,0,1.288-.352,2.131,2.131,0,0,0,.883-.914V59.9h-1.133q-2.657,0-2.656,1.555a1.312,1.312,0,0,0,.454,1.062,1.739,1.739,0,0,0,1.164.383" fill="#12263f"/>
          <path id="Trazado_195364" data-name="Trazado 195364" d="M501.516,59.7a4.974,4.974,0,0,1,.914-3.145,3.151,3.151,0,0,1,4.836-.074l.07-.937h1.32V63.8a3.441,3.441,0,0,1-.972,2.586,3.591,3.591,0,0,1-2.613.945,4.343,4.343,0,0,1-1.79-.391,3.074,3.074,0,0,1-1.335-1.07L502.7,65a2.825,2.825,0,0,0,2.273,1.148,2.217,2.217,0,0,0,1.645-.594,2.268,2.268,0,0,0,.589-1.671v-.727a2.969,2.969,0,0,1-2.367,1,2.886,2.886,0,0,1-2.4-1.195,5.224,5.224,0,0,1-.918-3.258m1.453.164a3.787,3.787,0,0,0,.586,2.246,1.905,1.905,0,0,0,1.641.817,2.117,2.117,0,0,0,2.007-1.243V57.828a2.14,2.14,0,0,0-1.992-1.211,1.919,1.919,0,0,0-1.648.82,4.128,4.128,0,0,0-.594,2.43" fill="#12263f"/>
          <path id="Trazado_195365" data-name="Trazado 195365" d="M516.054,64a3.052,3.052,0,0,1-.2-.891,3.225,3.225,0,0,1-2.406,1.047,2.987,2.987,0,0,1-2.051-.707,2.29,2.29,0,0,1-.8-1.793,2.391,2.391,0,0,1,1-2.051,4.734,4.734,0,0,1,2.825-.73h1.406v-.664A1.627,1.627,0,0,0,515.375,57a1.824,1.824,0,0,0-1.336-.449,2.1,2.1,0,0,0-1.3.391,1.15,1.15,0,0,0-.523.945h-1.454a1.99,1.99,0,0,1,.45-1.222,3.053,3.053,0,0,1,1.218-.934,4.088,4.088,0,0,1,1.692-.344,3.338,3.338,0,0,1,2.289.731,2.634,2.634,0,0,1,.859,2.011v3.891a4.756,4.756,0,0,0,.3,1.852V64Zm-2.4-1.1a2.534,2.534,0,0,0,1.289-.352,2.13,2.13,0,0,0,.883-.914V59.9H514.7q-2.656,0-2.656,1.555a1.315,1.315,0,0,0,.453,1.062,1.742,1.742,0,0,0,1.164.383" fill="#12263f"/>
          <path id="Trazado_195366" data-name="Trazado 195366" d="M523.625,56.844a4.385,4.385,0,0,0-.711-.055A1.906,1.906,0,0,0,520.984,58v6h-1.445V55.547h1.406l.024.977a2.249,2.249,0,0,1,2.015-1.133,1.476,1.476,0,0,1,.641.109Z" fill="#12263f"/>
          <path id="Trazado_195367" data-name="Trazado 195367" d="M532.3,62.977a2.081,2.081,0,0,0,1.352-.469,1.65,1.65,0,0,0,.64-1.172h1.367a2.612,2.612,0,0,1-.5,1.383,3.29,3.29,0,0,1-1.23,1.047,3.544,3.544,0,0,1-1.629.391A3.48,3.48,0,0,1,529.559,63a4.588,4.588,0,0,1-1.02-3.152V59.61a5.087,5.087,0,0,1,.453-2.195,3.457,3.457,0,0,1,1.3-1.493,3.7,3.7,0,0,1,2-.531,3.387,3.387,0,0,1,2.363.852,3.041,3.041,0,0,1,1,2.211H534.3a1.994,1.994,0,0,0-.621-1.348,1.929,1.929,0,0,0-1.379-.527,2.021,2.021,0,0,0-1.707.793,3.719,3.719,0,0,0-.605,2.292v.274a3.65,3.65,0,0,0,.6,2.25,2.033,2.033,0,0,0,1.719.789" fill="#12263f"/>
          <path id="Trazado_195368" data-name="Trazado 195368" d="M536.906,59.695a4.984,4.984,0,0,1,.488-2.234,3.64,3.64,0,0,1,1.36-1.532,3.7,3.7,0,0,1,1.988-.539,3.565,3.565,0,0,1,2.793,1.2,4.6,4.6,0,0,1,1.066,3.179v.1a5.051,5.051,0,0,1-.472,2.215,3.6,3.6,0,0,1-1.352,1.527,3.748,3.748,0,0,1-2.02.547,3.555,3.555,0,0,1-2.785-1.195,4.576,4.576,0,0,1-1.066-3.164Zm1.453.172a3.618,3.618,0,0,0,.652,2.258,2.211,2.211,0,0,0,3.5-.012,3.95,3.95,0,0,0,.649-2.418,3.61,3.61,0,0,0-.66-2.254,2.1,2.1,0,0,0-1.754-.863,2.078,2.078,0,0,0-1.727.851,3.929,3.929,0,0,0-.656,2.438" fill="#12263f"/>
          <path id="Trazado_195369" data-name="Trazado 195369" d="M547.781,55.547l.047,1.062a3.079,3.079,0,0,1,2.531-1.218q2.679,0,2.7,3.023V64h-1.445V58.406a1.947,1.947,0,0,0-.418-1.351,1.672,1.672,0,0,0-1.277-.438,2.087,2.087,0,0,0-1.235.375,2.545,2.545,0,0,0-.828.985V64h-1.445V55.547Z" fill="#12263f"/>
          <path id="Trazado_195370" data-name="Trazado 195370" d="M467.812,88a3.052,3.052,0,0,1-.2-.891,3.225,3.225,0,0,1-2.406,1.047,2.987,2.987,0,0,1-2.051-.707,2.29,2.29,0,0,1-.8-1.793,2.391,2.391,0,0,1,1-2.051,4.734,4.734,0,0,1,2.825-.73h1.406v-.664A1.627,1.627,0,0,0,467.133,81a1.824,1.824,0,0,0-1.336-.449,2.1,2.1,0,0,0-1.3.391,1.15,1.15,0,0,0-.523.945h-1.454a1.99,1.99,0,0,1,.45-1.222,3.053,3.053,0,0,1,1.218-.934,4.088,4.088,0,0,1,1.692-.344,3.338,3.338,0,0,1,2.289.731,2.634,2.634,0,0,1,.859,2.011v3.891a4.756,4.756,0,0,0,.3,1.852V88Zm-2.4-1.1a2.534,2.534,0,0,0,1.289-.352,2.13,2.13,0,0,0,.883-.914V83.9h-1.133q-2.656,0-2.656,1.555a1.315,1.315,0,0,0,.453,1.062,1.742,1.742,0,0,0,1.164.383" fill="#12263f"/>
          <path id="Trazado_195371" data-name="Trazado 195371" d="M478.453,83.867a5.029,5.029,0,0,1-.89,3.113,2.844,2.844,0,0,1-2.391,1.176,2.946,2.946,0,0,1-2.476-1.133l-.071.977H471.3V76h1.445v4.476a2.932,2.932,0,0,1,2.414-1.085,2.861,2.861,0,0,1,2.418,1.164,5.175,5.175,0,0,1,.879,3.187Zm-1.445-.164a3.906,3.906,0,0,0-.57-2.281,1.891,1.891,0,0,0-1.641-.805,2.122,2.122,0,0,0-2.055,1.328V85.6a2.182,2.182,0,0,0,2.071,1.329,1.88,1.88,0,0,0,1.617-.805,4.156,4.156,0,0,0,.578-2.422" fill="#12263f"/>
          <path id="Trazado_195372" data-name="Trazado 195372" d="M485.492,87.164a3.071,3.071,0,0,1-2.477.992,2.627,2.627,0,0,1-2.058-.785,3.393,3.393,0,0,1-.715-2.324v-5.5h1.445v5.461q0,1.921,1.563,1.922a2.164,2.164,0,0,0,2.2-1.235V79.547H486.9V88h-1.375Z" fill="#12263f"/>
          <path id="Trazado_195373" data-name="Trazado 195373" d="M490.461,79.547l.047,1.062a3.079,3.079,0,0,1,2.531-1.218q2.679,0,2.7,3.023V88H494.3V82.406a1.947,1.947,0,0,0-.418-1.351,1.673,1.673,0,0,0-1.277-.438,2.087,2.087,0,0,0-1.235.375,2.545,2.545,0,0,0-.828.985V88h-1.445V79.547Z" fill="#12263f"/>
          <path id="Trazado_195374" data-name="Trazado 195374" d="M497.571,83.7a4.949,4.949,0,0,1,.922-3.129,3.135,3.135,0,0,1,4.765-.168V76H504.7V88h-1.328l-.07-.906a2.944,2.944,0,0,1-2.414,1.062,2.889,2.889,0,0,1-2.395-1.2,5.009,5.009,0,0,1-.925-3.141Zm1.445.164a3.75,3.75,0,0,0,.594,2.25,1.917,1.917,0,0,0,1.64.813,2.109,2.109,0,0,0,2.008-1.235V81.812a2.123,2.123,0,0,0-1.992-1.195,1.927,1.927,0,0,0-1.656.82,4.128,4.128,0,0,0-.594,2.43" fill="#12263f"/>
          <path id="Trazado_195375" data-name="Trazado 195375" d="M512.164,88a3.052,3.052,0,0,1-.2-.891,3.225,3.225,0,0,1-2.406,1.047,2.987,2.987,0,0,1-2.051-.707,2.29,2.29,0,0,1-.8-1.793,2.391,2.391,0,0,1,1-2.051,4.734,4.734,0,0,1,2.825-.73h1.406v-.664A1.627,1.627,0,0,0,511.485,81a1.824,1.824,0,0,0-1.336-.449,2.1,2.1,0,0,0-1.3.391,1.15,1.15,0,0,0-.523.945h-1.454a1.99,1.99,0,0,1,.45-1.222,3.052,3.052,0,0,1,1.218-.934,4.088,4.088,0,0,1,1.692-.344,3.338,3.338,0,0,1,2.289.731,2.634,2.634,0,0,1,.859,2.011v3.891a4.756,4.756,0,0,0,.3,1.852V88Zm-2.4-1.1a2.534,2.534,0,0,0,1.289-.352,2.13,2.13,0,0,0,.883-.914V83.9H510.8q-2.656,0-2.656,1.555a1.315,1.315,0,0,0,.453,1.062,1.742,1.742,0,0,0,1.164.383" fill="#12263f"/>
          <path id="Trazado_195376" data-name="Trazado 195376" d="M517.016,79.547l.047,1.062a3.079,3.079,0,0,1,2.531-1.218q2.679,0,2.7,3.023V88h-1.445V82.406a1.947,1.947,0,0,0-.418-1.351,1.673,1.673,0,0,0-1.277-.438,2.087,2.087,0,0,0-1.235.375,2.545,2.545,0,0,0-.828.985V88h-1.445V79.547Z" fill="#12263f"/>
          <path id="Trazado_195377" data-name="Trazado 195377" d="M526.437,77.5v2.047h1.578v1.117h-1.578v5.249a1.173,1.173,0,0,0,.211.763.89.89,0,0,0,.719.254,3.547,3.547,0,0,0,.687-.094V88a4.234,4.234,0,0,1-1.109.155,1.8,1.8,0,0,1-1.461-.586,2.516,2.516,0,0,1-.492-1.664V80.664h-1.539V79.547h1.539V77.5Z" fill="#12263f"/>
          <path id="Trazado_195378" data-name="Trazado 195378" d="M533.211,88.156a3.692,3.692,0,0,1-2.8-1.129,4.189,4.189,0,0,1-1.078-3.019v-.266a5.075,5.075,0,0,1,.48-2.246,3.74,3.74,0,0,1,1.344-1.547,3.379,3.379,0,0,1,1.871-.558,3.17,3.17,0,0,1,2.563,1.085,4.706,4.706,0,0,1,.914,3.11v.6h-5.727a3.008,3.008,0,0,0,.73,2.02,2.3,2.3,0,0,0,1.778.769,2.524,2.524,0,0,0,1.3-.312,3.241,3.241,0,0,0,.929-.828l.883.687a3.548,3.548,0,0,1-3.187,1.633m-.18-7.578a1.928,1.928,0,0,0-1.469.637A3.1,3.1,0,0,0,530.828,83h4.234v-.109a2.752,2.752,0,0,0-.594-1.708,1.816,1.816,0,0,0-1.437-.6" fill="#12263f"/>
          <path id="Trazado_195379" data-name="Trazado 195379" d="M467.812,112a3.052,3.052,0,0,1-.2-.891,3.225,3.225,0,0,1-2.406,1.047,2.987,2.987,0,0,1-2.051-.707,2.29,2.29,0,0,1-.8-1.793,2.391,2.391,0,0,1,1-2.051,4.734,4.734,0,0,1,2.825-.73h1.406v-.664a1.627,1.627,0,0,0-.453-1.208,1.824,1.824,0,0,0-1.336-.449,2.1,2.1,0,0,0-1.3.391,1.15,1.15,0,0,0-.523.945h-1.454a1.99,1.99,0,0,1,.45-1.222,3.053,3.053,0,0,1,1.218-.934,4.088,4.088,0,0,1,1.692-.344,3.338,3.338,0,0,1,2.289.731,2.634,2.634,0,0,1,.859,2.011v3.891a4.756,4.756,0,0,0,.3,1.852V112Zm-2.4-1.1a2.534,2.534,0,0,0,1.289-.352,2.13,2.13,0,0,0,.883-.914V107.9h-1.133q-2.656,0-2.656,1.555a1.315,1.315,0,0,0,.453,1.062,1.742,1.742,0,0,0,1.164.383" fill="#12263f"/>
          <path id="Trazado_195380" data-name="Trazado 195380" d="M470.953,107.7a4.974,4.974,0,0,1,.914-3.145,3.151,3.151,0,0,1,4.836-.074l.07-.937h1.32v8.25a3.441,3.441,0,0,1-.972,2.586,3.592,3.592,0,0,1-2.613.945,4.343,4.343,0,0,1-1.79-.391,3.074,3.074,0,0,1-1.335-1.07l.75-.867a2.826,2.826,0,0,0,2.273,1.148,2.216,2.216,0,0,0,1.645-.594,2.268,2.268,0,0,0,.589-1.671v-.727a2.969,2.969,0,0,1-2.367,1,2.886,2.886,0,0,1-2.4-1.195,5.224,5.224,0,0,1-.918-3.258m1.453.164a3.787,3.787,0,0,0,.586,2.246,1.905,1.905,0,0,0,1.641.817,2.117,2.117,0,0,0,2.007-1.243v-3.859a2.14,2.14,0,0,0-1.992-1.211,1.919,1.919,0,0,0-1.648.82,4.128,4.128,0,0,0-.594,2.43" fill="#12263f"/>
          <path id="Trazado_195381" data-name="Trazado 195381" d="M485.492,111.164a3.071,3.071,0,0,1-2.477.992,2.627,2.627,0,0,1-2.058-.785,3.393,3.393,0,0,1-.715-2.324v-5.5h1.445v5.461q0,1.921,1.563,1.922a2.164,2.164,0,0,0,2.2-1.235v-6.148H486.9V112h-1.375Z" fill="#12263f"/>
          <path id="Trazado_195382" data-name="Trazado 195382" d="M494.312,112a3.052,3.052,0,0,1-.2-.891,3.225,3.225,0,0,1-2.406,1.047,2.987,2.987,0,0,1-2.051-.707,2.29,2.29,0,0,1-.8-1.793,2.391,2.391,0,0,1,1-2.051,4.734,4.734,0,0,1,2.825-.73h1.406v-.664a1.627,1.627,0,0,0-.453-1.208,1.824,1.824,0,0,0-1.336-.449,2.1,2.1,0,0,0-1.3.391,1.15,1.15,0,0,0-.523.945h-1.454a1.99,1.99,0,0,1,.45-1.222,3.053,3.053,0,0,1,1.218-.934,4.088,4.088,0,0,1,1.692-.344,3.338,3.338,0,0,1,2.289.731,2.634,2.634,0,0,1,.859,2.011v3.891a4.756,4.756,0,0,0,.3,1.852V112Zm-2.4-1.1a2.534,2.534,0,0,0,1.289-.352,2.13,2.13,0,0,0,.883-.914V107.9h-1.133q-2.656,0-2.656,1.555a1.315,1.315,0,0,0,.453,1.062,1.742,1.742,0,0,0,1.164.383" fill="#12263f"/>
          <path id="Trazado_195383" data-name="Trazado 195383" d="M497.828,111.242a.9.9,0,0,1,.223-.625.847.847,0,0,1,.668-.25.871.871,0,0,1,.675.25.886.886,0,0,1,.231.625.841.841,0,0,1-.231.6.89.89,0,0,1-.675.242.8.8,0,0,1-.891-.844" fill="#12263f"/>
          <path id="Trazado_195384" data-name="Trazado 195384" d="M664.172,58.93a7.056,7.056,0,0,1-2.809-1.363,2.6,2.6,0,0,1-.879-2,2.75,2.75,0,0,1,1.075-2.223,4.268,4.268,0,0,1,2.793-.879,4.666,4.666,0,0,1,2.09.453,3.442,3.442,0,0,1,1.421,1.25,3.2,3.2,0,0,1,.5,1.742H666.86a2.081,2.081,0,0,0-.657-1.627,2.669,2.669,0,0,0-1.851-.591,2.734,2.734,0,0,0-1.731.489A1.63,1.63,0,0,0,662,55.542a1.467,1.467,0,0,0,.59,1.179,5.793,5.793,0,0,0,2.008.88,9.352,9.352,0,0,1,2.219.88A3.373,3.373,0,0,1,668,59.6a2.861,2.861,0,0,1,.387,1.508,2.66,2.66,0,0,1-1.078,2.215,4.6,4.6,0,0,1-2.883.832,5.342,5.342,0,0,1-2.188-.45,3.681,3.681,0,0,1-1.566-1.23,3.005,3.005,0,0,1-.551-1.774h1.508a1.958,1.958,0,0,0,.762,1.629,3.2,3.2,0,0,0,2.035.6,2.948,2.948,0,0,0,1.82-.484,1.575,1.575,0,0,0,.633-1.321,1.544,1.544,0,0,0-.586-1.293,6.78,6.78,0,0,0-2.125-.9" fill="#12263f"/>
          <path id="Trazado_195385" data-name="Trazado 195385" d="M673.594,64.156a3.692,3.692,0,0,1-2.8-1.129,4.189,4.189,0,0,1-1.078-3.019v-.266a5.076,5.076,0,0,1,.48-2.246,3.74,3.74,0,0,1,1.344-1.547,3.379,3.379,0,0,1,1.871-.558,3.17,3.17,0,0,1,2.563,1.085,4.706,4.706,0,0,1,.914,3.11v.6h-5.727a3.008,3.008,0,0,0,.73,2.02,2.3,2.3,0,0,0,1.778.769,2.524,2.524,0,0,0,1.3-.312,3.241,3.241,0,0,0,.929-.828l.883.687a3.548,3.548,0,0,1-3.187,1.633m-.18-7.578a1.928,1.928,0,0,0-1.469.637A3.1,3.1,0,0,0,671.211,59h4.234v-.109a2.752,2.752,0,0,0-.594-1.708,1.816,1.816,0,0,0-1.437-.6" fill="#12263f"/>
          <path id="Trazado_195386" data-name="Trazado 195386" d="M681.953,62.977a2.081,2.081,0,0,0,1.352-.469,1.65,1.65,0,0,0,.64-1.172h1.367a2.612,2.612,0,0,1-.5,1.383,3.291,3.291,0,0,1-1.23,1.047,3.543,3.543,0,0,1-1.629.391A3.481,3.481,0,0,1,679.207,63a4.588,4.588,0,0,1-1.02-3.152V59.61a5.087,5.087,0,0,1,.453-2.195,3.457,3.457,0,0,1,1.3-1.493,3.7,3.7,0,0,1,2-.531,3.387,3.387,0,0,1,2.363.852,3.041,3.041,0,0,1,1,2.211h-1.367a1.994,1.994,0,0,0-.621-1.348,1.929,1.929,0,0,0-1.379-.527,2.022,2.022,0,0,0-1.707.793,3.719,3.719,0,0,0-.6,2.292v.274a3.65,3.65,0,0,0,.6,2.25,2.033,2.033,0,0,0,1.719.789" fill="#12263f"/>
          <path id="Trazado_195387" data-name="Trazado 195387" d="M692.156,64a3.052,3.052,0,0,1-.2-.891,3.225,3.225,0,0,1-2.406,1.047,2.987,2.987,0,0,1-2.051-.707,2.29,2.29,0,0,1-.8-1.793,2.391,2.391,0,0,1,1-2.051,4.734,4.734,0,0,1,2.825-.73h1.406v-.664A1.627,1.627,0,0,0,691.477,57a1.824,1.824,0,0,0-1.336-.449,2.1,2.1,0,0,0-1.3.391,1.15,1.15,0,0,0-.523.945h-1.454a1.99,1.99,0,0,1,.45-1.222,3.053,3.053,0,0,1,1.218-.934,4.088,4.088,0,0,1,1.692-.344,3.338,3.338,0,0,1,2.289.731,2.634,2.634,0,0,1,.859,2.011v3.891a4.756,4.756,0,0,0,.3,1.852V64Zm-2.4-1.1a2.534,2.534,0,0,0,1.289-.352,2.13,2.13,0,0,0,.883-.914V59.9H690.8q-2.656,0-2.656,1.555a1.315,1.315,0,0,0,.453,1.062,1.742,1.742,0,0,0,1.164.383" fill="#12263f"/>
          <path id="Trazado_195388" data-name="Trazado 195388" d="M699.727,56.844a4.406,4.406,0,0,0-.712-.055A1.906,1.906,0,0,0,697.085,58v6H695.64V55.547h1.406l.024.977a2.249,2.249,0,0,1,2.015-1.133,1.484,1.484,0,0,1,.642.109Z" fill="#12263f"/>
          <path id="Trazado_195389" data-name="Trazado 195389" d="M707.781,61.883l1.969-6.336H711.3l-3.4,9.758q-.789,2.109-2.508,2.109l-.273-.023-.539-.1V66.117l.39.032a1.922,1.922,0,0,0,1.145-.3,2.152,2.152,0,0,0,.676-1.086l.32-.86-3.016-8.359h1.579Z" fill="#12263f"/>
          <path id="Trazado_195390" data-name="Trazado 195390" d="M667.734,83.867a5.057,5.057,0,0,1-.883,3.109,2.827,2.827,0,0,1-2.39,1.18,3.1,3.1,0,0,1-2.422-.976v4.07h-1.445v-11.7h1.32l.07.937a2.979,2.979,0,0,1,2.453-1.093,2.883,2.883,0,0,1,2.411,1.148,5.125,5.125,0,0,1,.886,3.195Zm-1.445-.164a3.737,3.737,0,0,0-.609-2.258,1.965,1.965,0,0,0-1.672-.828,2.125,2.125,0,0,0-1.969,1.164V85.82a2.128,2.128,0,0,0,1.984,1.156,1.953,1.953,0,0,0,1.653-.824,4.084,4.084,0,0,0,.613-2.449" fill="#12263f"/>
          <path id="Trazado_195391" data-name="Trazado 195391" d="M673.656,80.844a4.385,4.385,0,0,0-.711-.055A1.906,1.906,0,0,0,671.015,82v6H669.57V79.547h1.406l.024.977a2.249,2.249,0,0,1,2.015-1.133,1.476,1.476,0,0,1,.641.109Z" fill="#12263f"/>
          <path id="Trazado_195392" data-name="Trazado 195392" d="M678.344,88.156a3.692,3.692,0,0,1-2.8-1.129,4.189,4.189,0,0,1-1.078-3.019v-.266a5.076,5.076,0,0,1,.48-2.246,3.74,3.74,0,0,1,1.344-1.547,3.379,3.379,0,0,1,1.871-.558,3.17,3.17,0,0,1,2.563,1.085,4.706,4.706,0,0,1,.914,3.11v.6h-5.727a3.008,3.008,0,0,0,.73,2.02,2.3,2.3,0,0,0,1.778.769,2.524,2.524,0,0,0,1.3-.312,3.241,3.241,0,0,0,.929-.828l.883.687a3.548,3.548,0,0,1-3.187,1.633m-.18-7.578a1.928,1.928,0,0,0-1.469.637A3.1,3.1,0,0,0,675.961,83H680.2v-.109a2.752,2.752,0,0,0-.594-1.708,1.816,1.816,0,0,0-1.437-.6" fill="#12263f"/>
          <path id="Trazado_195393" data-name="Trazado 195393" d="M690.453,83.867a5.057,5.057,0,0,1-.883,3.109,2.827,2.827,0,0,1-2.39,1.18,3.1,3.1,0,0,1-2.422-.976v4.07h-1.445v-11.7h1.32l.07.937a2.979,2.979,0,0,1,2.453-1.093,2.883,2.883,0,0,1,2.411,1.148,5.125,5.125,0,0,1,.886,3.195Zm-1.445-.164a3.737,3.737,0,0,0-.609-2.258,1.965,1.965,0,0,0-1.672-.828,2.125,2.125,0,0,0-1.969,1.164V85.82a2.128,2.128,0,0,0,1.984,1.156,1.953,1.953,0,0,0,1.653-.824,4.084,4.084,0,0,0,.613-2.449" fill="#12263f"/>
          <path id="Trazado_195394" data-name="Trazado 195394" d="M697.507,88a3.052,3.052,0,0,1-.2-.891,3.225,3.225,0,0,1-2.406,1.047,2.987,2.987,0,0,1-2.051-.707,2.29,2.29,0,0,1-.8-1.793,2.391,2.391,0,0,1,1-2.051,4.734,4.734,0,0,1,2.825-.73h1.406v-.664A1.627,1.627,0,0,0,696.828,81a1.824,1.824,0,0,0-1.336-.449,2.1,2.1,0,0,0-1.3.391,1.15,1.15,0,0,0-.523.945h-1.454a1.99,1.99,0,0,1,.45-1.222,3.052,3.052,0,0,1,1.218-.934,4.088,4.088,0,0,1,1.692-.344,3.338,3.338,0,0,1,2.289.731,2.634,2.634,0,0,1,.859,2.011v3.891a4.756,4.756,0,0,0,.3,1.852V88Zm-2.4-1.1a2.534,2.534,0,0,0,1.289-.352,2.13,2.13,0,0,0,.883-.914V83.9h-1.133q-2.656,0-2.656,1.555a1.315,1.315,0,0,0,.453,1.062,1.742,1.742,0,0,0,1.164.383" fill="#12263f"/>
          <path id="Trazado_195395" data-name="Trazado 195395" d="M705.078,80.844a4.385,4.385,0,0,0-.711-.055A1.906,1.906,0,0,0,702.437,82v6h-1.445V79.547H702.4l.024.977a2.249,2.249,0,0,1,2.015-1.133,1.476,1.476,0,0,1,.641.109Z" fill="#12263f"/>
          <path id="Trazado_195396" data-name="Trazado 195396" d="M711.313,88a3.02,3.02,0,0,1-.2-.891,3.228,3.228,0,0,1-2.407,1.047,2.987,2.987,0,0,1-2.051-.707,2.29,2.29,0,0,1-.8-1.793,2.391,2.391,0,0,1,1-2.051,4.734,4.734,0,0,1,2.825-.73h1.406v-.664A1.627,1.627,0,0,0,710.633,81a1.824,1.824,0,0,0-1.336-.449,2.1,2.1,0,0,0-1.3.391,1.15,1.15,0,0,0-.523.945h-1.454a1.99,1.99,0,0,1,.45-1.222,3.052,3.052,0,0,1,1.218-.934,4.088,4.088,0,0,1,1.692-.344,3.338,3.338,0,0,1,2.289.731,2.638,2.638,0,0,1,.86,2.011v3.891a4.738,4.738,0,0,0,.3,1.852V88Zm-2.4-1.1a2.534,2.534,0,0,0,1.289-.352,2.125,2.125,0,0,0,.883-.914V83.9h-1.133q-2.656,0-2.656,1.555a1.315,1.315,0,0,0,.453,1.062,1.742,1.742,0,0,0,1.164.383" fill="#12263f"/>
          <path id="Trazado_195397" data-name="Trazado 195397" d="M718.883,80.844a4.385,4.385,0,0,0-.711-.055A1.9,1.9,0,0,0,716.242,82v6H714.8V79.547H716.2l.024.977a2.249,2.249,0,0,1,2.015-1.133,1.476,1.476,0,0,1,.641.109Z" fill="#12263f"/>
          <rect id="Rectángulo_44996" data-name="Rectángulo 44996" width="1.445" height="12" transform="translate(720.337 76)" fill="#12263f"/>
          <path id="Trazado_195398" data-name="Trazado 195398" d="M723.711,83.695a4.984,4.984,0,0,1,.488-2.234,3.64,3.64,0,0,1,1.36-1.532,3.7,3.7,0,0,1,1.988-.539,3.567,3.567,0,0,1,2.793,1.2,4.6,4.6,0,0,1,1.066,3.179v.1a5.051,5.051,0,0,1-.472,2.215,3.6,3.6,0,0,1-1.352,1.527,3.751,3.751,0,0,1-2.02.547,3.555,3.555,0,0,1-2.785-1.195,4.576,4.576,0,0,1-1.066-3.164Zm1.453.172a3.618,3.618,0,0,0,.652,2.258,2.211,2.211,0,0,0,3.5-.012,3.956,3.956,0,0,0,.649-2.418,3.616,3.616,0,0,0-.66-2.254,2.1,2.1,0,0,0-1.754-.863,2.078,2.078,0,0,0-1.727.851,3.929,3.929,0,0,0-.656,2.438" fill="#12263f"/>
          <path id="Trazado_195399" data-name="Trazado 195399" d="M744.32,83.867a5.064,5.064,0,0,1-.883,3.109,2.827,2.827,0,0,1-2.39,1.18,3.1,3.1,0,0,1-2.422-.976v4.07H737.18v-11.7h1.32l.07.937a2.977,2.977,0,0,1,2.453-1.093,2.883,2.883,0,0,1,2.411,1.148,5.125,5.125,0,0,1,.886,3.195Zm-1.445-.164a3.737,3.737,0,0,0-.609-2.258,1.965,1.965,0,0,0-1.672-.828,2.125,2.125,0,0,0-1.969,1.164V85.82a2.128,2.128,0,0,0,1.984,1.156,1.953,1.953,0,0,0,1.653-.824,4.084,4.084,0,0,0,.613-2.449" fill="#12263f"/>
          <path id="Trazado_195400" data-name="Trazado 195400" d="M751.375,88a3.02,3.02,0,0,1-.2-.891,3.225,3.225,0,0,1-2.406,1.047,2.983,2.983,0,0,1-2.051-.707,2.29,2.29,0,0,1-.8-1.793,2.389,2.389,0,0,1,1-2.051,4.734,4.734,0,0,1,2.825-.73h1.406v-.664A1.627,1.627,0,0,0,750.7,81a1.825,1.825,0,0,0-1.336-.449,2.1,2.1,0,0,0-1.3.391,1.148,1.148,0,0,0-.523.945h-1.454a1.99,1.99,0,0,1,.45-1.222,3.046,3.046,0,0,1,1.218-.934,4.088,4.088,0,0,1,1.692-.344,3.34,3.34,0,0,1,2.289.731,2.634,2.634,0,0,1,.859,2.011v3.891a4.756,4.756,0,0,0,.3,1.852V88Zm-2.4-1.1a2.534,2.534,0,0,0,1.289-.352,2.13,2.13,0,0,0,.883-.914V83.9h-1.133q-2.656,0-2.656,1.555a1.312,1.312,0,0,0,.453,1.062,1.741,1.741,0,0,0,1.164.383" fill="#12263f"/>
          <path id="Trazado_195401" data-name="Trazado 195401" d="M758.946,80.844a4.385,4.385,0,0,0-.711-.055A1.9,1.9,0,0,0,756.3,82v6H754.86V79.547h1.406l.024.977a2.249,2.249,0,0,1,2.015-1.133,1.476,1.476,0,0,1,.641.109Z" fill="#12263f"/>
          <path id="Trazado_195402" data-name="Trazado 195402" d="M765.18,88a3.02,3.02,0,0,1-.2-.891,3.225,3.225,0,0,1-2.406,1.047,2.983,2.983,0,0,1-2.051-.707,2.29,2.29,0,0,1-.8-1.793,2.389,2.389,0,0,1,1-2.051,4.734,4.734,0,0,1,2.825-.73h1.406v-.664A1.627,1.627,0,0,0,764.5,81a1.825,1.825,0,0,0-1.336-.449,2.1,2.1,0,0,0-1.3.391,1.148,1.148,0,0,0-.523.945h-1.454a1.99,1.99,0,0,1,.45-1.222,3.046,3.046,0,0,1,1.218-.934,4.088,4.088,0,0,1,1.692-.344,3.34,3.34,0,0,1,2.289.731,2.634,2.634,0,0,1,.859,2.011v3.891a4.756,4.756,0,0,0,.3,1.852V88Zm-2.4-1.1a2.534,2.534,0,0,0,1.289-.352,2.13,2.13,0,0,0,.883-.914V83.9h-1.133q-2.656,0-2.656,1.555a1.312,1.312,0,0,0,.453,1.062,1.741,1.741,0,0,0,1.164.383" fill="#12263f"/>
        </g>
      </g>
      <rect id="Rectángulo_44998" data-name="Rectángulo 44998" width="1.445" height="12" transform="translate(660.719 100)" fill="#12263f"/>
      <g id="Grupo_146660" data-name="Grupo 146660">
        <g id="Grupo_146659" data-name="Grupo 146659" clip-path="url(#clip-path-2)">
          <path id="Trazado_195403" data-name="Trazado 195403" d="M669.7,112a3.052,3.052,0,0,1-.2-.891,3.225,3.225,0,0,1-2.406,1.047,2.987,2.987,0,0,1-2.051-.707,2.29,2.29,0,0,1-.8-1.793,2.391,2.391,0,0,1,1-2.051,4.734,4.734,0,0,1,2.825-.73h1.406v-.664a1.627,1.627,0,0,0-.453-1.208,1.824,1.824,0,0,0-1.336-.449,2.1,2.1,0,0,0-1.3.391,1.15,1.15,0,0,0-.523.945h-1.454a1.99,1.99,0,0,1,.45-1.222,3.053,3.053,0,0,1,1.218-.934,4.088,4.088,0,0,1,1.692-.344,3.338,3.338,0,0,1,2.289.731,2.634,2.634,0,0,1,.859,2.011v3.891a4.756,4.756,0,0,0,.3,1.852V112Zm-2.4-1.1a2.534,2.534,0,0,0,1.289-.352,2.13,2.13,0,0,0,.883-.914V107.9h-1.133q-2.656,0-2.656,1.555a1.315,1.315,0,0,0,.453,1.062,1.742,1.742,0,0,0,1.164.383" fill="#12263f"/>
          <path id="Trazado_195404" data-name="Trazado 195404" d="M676.789,107.7a4.949,4.949,0,0,1,.922-3.129,3.135,3.135,0,0,1,4.765-.168V100h1.445v12h-1.328l-.07-.906a2.944,2.944,0,0,1-2.414,1.062,2.889,2.889,0,0,1-2.4-1.2,5.009,5.009,0,0,1-.925-3.141Zm1.445.164a3.75,3.75,0,0,0,.594,2.25,1.917,1.917,0,0,0,1.64.813,2.109,2.109,0,0,0,2.008-1.235v-3.883a2.123,2.123,0,0,0-1.992-1.195,1.927,1.927,0,0,0-1.656.82,4.128,4.128,0,0,0-.594,2.43" fill="#12263f"/>
          <path id="Trazado_195405" data-name="Trazado 195405" d="M689.672,112.156a3.692,3.692,0,0,1-2.8-1.129,4.189,4.189,0,0,1-1.078-3.019v-.266a5.075,5.075,0,0,1,.48-2.246,3.74,3.74,0,0,1,1.344-1.547,3.379,3.379,0,0,1,1.871-.558,3.17,3.17,0,0,1,2.563,1.085,4.706,4.706,0,0,1,.914,3.11v.6h-5.727a3.008,3.008,0,0,0,.73,2.02,2.3,2.3,0,0,0,1.778.769,2.524,2.524,0,0,0,1.3-.312,3.241,3.241,0,0,0,.929-.828l.883.687a3.548,3.548,0,0,1-3.187,1.633m-.18-7.578a1.928,1.928,0,0,0-1.469.637,3.1,3.1,0,0,0-.734,1.785h4.234v-.109a2.752,2.752,0,0,0-.594-1.708,1.816,1.816,0,0,0-1.437-.6" fill="#12263f"/>
          <path id="Trazado_195406" data-name="Trazado 195406" d="M699.562,109.758a1.063,1.063,0,0,0-.441-.91,4.275,4.275,0,0,0-1.539-.559,7.265,7.265,0,0,1-1.743-.562,2.489,2.489,0,0,1-.953-.782,1.863,1.863,0,0,1-.308-1.078,2.192,2.192,0,0,1,.879-1.757,3.425,3.425,0,0,1,2.246-.719,3.532,3.532,0,0,1,2.332.742,2.358,2.358,0,0,1,.894,1.9h-1.453a1.3,1.3,0,0,0-.5-1.023,1.89,1.89,0,0,0-1.269-.43,1.977,1.977,0,0,0-1.235.344,1.081,1.081,0,0,0-.445.9.878.878,0,0,0,.414.79,5.109,5.109,0,0,0,1.5.507,7.881,7.881,0,0,1,1.754.578,2.558,2.558,0,0,1,1,.809,1.99,1.99,0,0,1,.324,1.152,2.165,2.165,0,0,1-.906,1.817,3.8,3.8,0,0,1-2.351.683,4.261,4.261,0,0,1-1.8-.359,2.914,2.914,0,0,1-1.223-1,2.42,2.42,0,0,1-.441-1.394h1.445a1.5,1.5,0,0,0,.582,1.152,2.258,2.258,0,0,0,1.434.426,2.335,2.335,0,0,0,1.316-.332,1.023,1.023,0,0,0,.5-.887" fill="#12263f"/>
          <path id="Trazado_195407" data-name="Trazado 195407" d="M702.9,101.305a.864.864,0,0,1,.215-.594.809.809,0,0,1,.637-.242.822.822,0,0,1,.641.242.857.857,0,0,1,.218.594.856.856,0,1,1-1.711,0M704.461,112h-1.445v-8.453h1.445Z" fill="#12263f"/>
          <path id="Trazado_195408" data-name="Trazado 195408" d="M708.141,103.547l.047,1.062a3.079,3.079,0,0,1,2.531-1.218q2.68,0,2.7,3.023V112h-1.446v-5.594a1.942,1.942,0,0,0-.418-1.351,1.673,1.673,0,0,0-1.277-.438,2.087,2.087,0,0,0-1.235.375,2.545,2.545,0,0,0-.828.985V112h-1.445v-8.453Z" fill="#12263f"/>
          <path id="Trazado_195409" data-name="Trazado 195409" d="M716.313,112v-7.336h-1.336v-1.117h1.336v-.867a2.876,2.876,0,0,1,.727-2.1,2.742,2.742,0,0,1,2.054-.742,3.814,3.814,0,0,1,.992.132l-.078,1.165a4.146,4.146,0,0,0-.781-.071,1.407,1.407,0,0,0-1.086.412,1.665,1.665,0,0,0-.383,1.179v.894h1.8v1.117h-1.8V112Z" fill="#12263f"/>
          <path id="Trazado_195410" data-name="Trazado 195410" d="M724.477,112.156a3.691,3.691,0,0,1-2.8-1.129,4.189,4.189,0,0,1-1.078-3.019v-.266a5.076,5.076,0,0,1,.48-2.246,3.74,3.74,0,0,1,1.344-1.547,3.379,3.379,0,0,1,1.871-.558,3.17,3.17,0,0,1,2.563,1.085,4.706,4.706,0,0,1,.914,3.11v.6h-5.727a3.008,3.008,0,0,0,.73,2.02,2.3,2.3,0,0,0,1.778.769,2.524,2.524,0,0,0,1.3-.312,3.254,3.254,0,0,0,.929-.828l.883.687a3.55,3.55,0,0,1-3.187,1.633m-.18-7.578a1.926,1.926,0,0,0-1.469.637,3.1,3.1,0,0,0-.734,1.785h4.234v-.109a2.758,2.758,0,0,0-.594-1.708,1.816,1.816,0,0,0-1.437-.6" fill="#12263f"/>
          <path id="Trazado_195411" data-name="Trazado 195411" d="M732.836,110.977a2.081,2.081,0,0,0,1.352-.469,1.653,1.653,0,0,0,.64-1.172H736.2a2.62,2.62,0,0,1-.5,1.383,3.291,3.291,0,0,1-1.23,1.047,3.55,3.55,0,0,1-1.629.391A3.48,3.48,0,0,1,730.09,111a4.587,4.587,0,0,1-1.02-3.152v-.242a5.087,5.087,0,0,1,.453-2.195,3.457,3.457,0,0,1,1.3-1.493,3.7,3.7,0,0,1,2-.531,3.389,3.389,0,0,1,2.363.852,3.045,3.045,0,0,1,1,2.211h-1.367a1.994,1.994,0,0,0-.621-1.348,1.931,1.931,0,0,0-1.379-.527,2.022,2.022,0,0,0-1.707.793,3.719,3.719,0,0,0-.6,2.292v.274a3.65,3.65,0,0,0,.6,2.25,2.033,2.033,0,0,0,1.719.789" fill="#12263f"/>
          <path id="Trazado_195412" data-name="Trazado 195412" d="M741.211,110.977a2.081,2.081,0,0,0,1.352-.469,1.653,1.653,0,0,0,.64-1.172h1.367a2.62,2.62,0,0,1-.5,1.383,3.291,3.291,0,0,1-1.23,1.047,3.55,3.55,0,0,1-1.629.391A3.48,3.48,0,0,1,738.465,111a4.587,4.587,0,0,1-1.02-3.152v-.242a5.087,5.087,0,0,1,.453-2.195,3.457,3.457,0,0,1,1.3-1.493,3.7,3.7,0,0,1,2-.531,3.389,3.389,0,0,1,2.363.852,3.045,3.045,0,0,1,1,2.211H743.2a1.994,1.994,0,0,0-.621-1.348,1.931,1.931,0,0,0-1.379-.527,2.022,2.022,0,0,0-1.707.793,3.719,3.719,0,0,0-.6,2.292v.274a3.65,3.65,0,0,0,.6,2.25,2.033,2.033,0,0,0,1.719.789" fill="#12263f"/>
          <path id="Trazado_195413" data-name="Trazado 195413" d="M746.2,101.305a.864.864,0,0,1,.214-.594.809.809,0,0,1,.637-.242.824.824,0,0,1,.641.242.857.857,0,0,1,.218.594.829.829,0,0,1-.218.586.838.838,0,0,1-.641.234.822.822,0,0,1-.637-.234.835.835,0,0,1-.214-.586M747.766,112h-1.445v-8.453h1.445Z" fill="#12263f"/>
          <path id="Trazado_195414" data-name="Trazado 195414" d="M749.7,107.7a4.987,4.987,0,0,1,.488-2.235,3.636,3.636,0,0,1,1.359-1.531,3.706,3.706,0,0,1,1.989-.539,3.566,3.566,0,0,1,2.793,1.195,4.6,4.6,0,0,1,1.066,3.18v.1a5.033,5.033,0,0,1-.473,2.214,3.583,3.583,0,0,1-1.351,1.528,3.751,3.751,0,0,1-2.02.547,3.556,3.556,0,0,1-2.785-1.2A4.574,4.574,0,0,1,749.7,107.8Zm1.453.172a3.613,3.613,0,0,0,.652,2.257,2.21,2.21,0,0,0,3.5-.011,3.958,3.958,0,0,0,.649-2.418,3.616,3.616,0,0,0-.66-2.254,2.1,2.1,0,0,0-1.754-.863,2.078,2.078,0,0,0-1.727.851,3.927,3.927,0,0,0-.656,2.438m3.039-7.852h1.75l-2.094,2.3-1.164,0Z" fill="#12263f"/>
          <path id="Trazado_195415" data-name="Trazado 195415" d="M760.571,103.547l.047,1.062a3.079,3.079,0,0,1,2.531-1.218q2.679,0,2.7,3.023V112h-1.445v-5.594a1.952,1.952,0,0,0-.418-1.351,1.673,1.673,0,0,0-1.277-.438,2.087,2.087,0,0,0-1.235.375,2.536,2.536,0,0,0-.828.985V112H759.2v-8.453Z" fill="#12263f"/>
          <path id="Trazado_195416" data-name="Trazado 195416" d="M660.211,131.7a4.984,4.984,0,0,1,.488-2.234,3.64,3.64,0,0,1,1.36-1.532,3.7,3.7,0,0,1,1.988-.539,3.565,3.565,0,0,1,2.793,1.2,4.6,4.6,0,0,1,1.066,3.179v.1a5.051,5.051,0,0,1-.472,2.215,3.6,3.6,0,0,1-1.352,1.527,3.748,3.748,0,0,1-2.02.547,3.555,3.555,0,0,1-2.785-1.2,4.576,4.576,0,0,1-1.066-3.164Zm1.453.172a3.618,3.618,0,0,0,.652,2.258,2.211,2.211,0,0,0,3.5-.012,3.95,3.95,0,0,0,.649-2.418,3.61,3.61,0,0,0-.66-2.254,2.1,2.1,0,0,0-1.754-.863,2.078,2.078,0,0,0-1.727.851,3.929,3.929,0,0,0-.656,2.438" fill="#12263f"/>
          <path id="Trazado_195417" data-name="Trazado 195417" d="M677.188,136.156a3.692,3.692,0,0,1-2.8-1.129,4.189,4.189,0,0,1-1.078-3.019v-.266a5.075,5.075,0,0,1,.48-2.246,3.739,3.739,0,0,1,1.344-1.547,3.379,3.379,0,0,1,1.871-.558,3.17,3.17,0,0,1,2.563,1.085,4.706,4.706,0,0,1,.914,3.11v.6h-5.727a3.008,3.008,0,0,0,.73,2.02,2.3,2.3,0,0,0,1.778.769,2.524,2.524,0,0,0,1.3-.312,3.241,3.241,0,0,0,.929-.828l.883.687a3.548,3.548,0,0,1-3.187,1.633m-.18-7.578a1.928,1.928,0,0,0-1.469.637A3.1,3.1,0,0,0,674.8,131h4.234v-.109a2.752,2.752,0,0,0-.594-1.708,1.816,1.816,0,0,0-1.437-.6" fill="#12263f"/>
          <path id="Trazado_195418" data-name="Trazado 195418" d="M687.078,133.758a1.063,1.063,0,0,0-.441-.91,4.276,4.276,0,0,0-1.539-.559,7.266,7.266,0,0,1-1.743-.562,2.49,2.49,0,0,1-.953-.782,1.863,1.863,0,0,1-.308-1.078,2.192,2.192,0,0,1,.879-1.757,3.425,3.425,0,0,1,2.246-.719,3.533,3.533,0,0,1,2.332.742,2.359,2.359,0,0,1,.894,1.9h-1.453a1.3,1.3,0,0,0-.5-1.023,1.89,1.89,0,0,0-1.269-.43,1.977,1.977,0,0,0-1.235.344,1.081,1.081,0,0,0-.445.9.878.878,0,0,0,.414.79,5.11,5.11,0,0,0,1.5.507,7.881,7.881,0,0,1,1.754.578,2.558,2.558,0,0,1,1,.809,1.99,1.99,0,0,1,.324,1.152,2.165,2.165,0,0,1-.906,1.817,3.8,3.8,0,0,1-2.351.683,4.261,4.261,0,0,1-1.8-.359,2.914,2.914,0,0,1-1.223-1,2.421,2.421,0,0,1-.441-1.394h1.445a1.5,1.5,0,0,0,.582,1.152,2.258,2.258,0,0,0,1.434.426,2.335,2.335,0,0,0,1.316-.332,1.023,1.023,0,0,0,.5-.887" fill="#12263f"/>
          <path id="Trazado_195419" data-name="Trazado 195419" d="M692.367,125.5v2.047h1.578v1.117h-1.578v5.249a1.173,1.173,0,0,0,.211.763.89.89,0,0,0,.719.254,3.548,3.548,0,0,0,.687-.094V136a4.234,4.234,0,0,1-1.109.155,1.8,1.8,0,0,1-1.461-.586,2.516,2.516,0,0,1-.492-1.664v-5.242h-1.539v-1.117h1.539V125.5Z" fill="#12263f"/>
          <path id="Trazado_195420" data-name="Trazado 195420" d="M699.141,136.156a3.692,3.692,0,0,1-2.8-1.129,4.189,4.189,0,0,1-1.078-3.019v-.266a5.076,5.076,0,0,1,.48-2.246,3.74,3.74,0,0,1,1.344-1.547,3.379,3.379,0,0,1,1.871-.558,3.17,3.17,0,0,1,2.563,1.085,4.706,4.706,0,0,1,.914,3.11v.6h-5.727a3.008,3.008,0,0,0,.73,2.02,2.3,2.3,0,0,0,1.778.769,2.524,2.524,0,0,0,1.3-.312,3.241,3.241,0,0,0,.929-.828l.883.687a3.548,3.548,0,0,1-3.187,1.633m-.18-7.578a1.928,1.928,0,0,0-1.469.637,3.1,3.1,0,0,0-.734,1.785h4.234v-.109a2.752,2.752,0,0,0-.594-1.708,1.816,1.816,0,0,0-1.437-.6" fill="#12263f"/>
          <path id="Trazado_195421" data-name="Trazado 195421" d="M708.2,128.844a4.386,4.386,0,0,0-.711-.055,1.906,1.906,0,0,0-1.93,1.211v6h-1.445v-8.453h1.406l.024.977a2.249,2.249,0,0,1,2.015-1.133,1.476,1.476,0,0,1,.641.109Z" fill="#12263f"/>
          <path id="Trazado_195422" data-name="Trazado 195422" d="M709.531,125.305a.86.86,0,0,1,.215-.594.809.809,0,0,1,.637-.242.824.824,0,0,1,.641.242.858.858,0,0,1,.219.594.856.856,0,1,1-1.712,0M711.094,136h-1.446v-8.453h1.446Z" fill="#12263f"/>
          <rect id="Rectángulo_44999" data-name="Rectángulo 44999" width="1.445" height="12" transform="translate(713.532 124)" fill="#12263f"/>
          <path id="Trazado_195423" data-name="Trazado 195423" d="M717.3,125.305a.864.864,0,0,1,.215-.594.809.809,0,0,1,.637-.242.82.82,0,0,1,.64.242.854.854,0,0,1,.219.594.825.825,0,0,1-.219.586.834.834,0,0,1-.64.234.822.822,0,0,1-.637-.234.836.836,0,0,1-.215-.586M718.86,136h-1.445v-8.453h1.445Z" fill="#12263f"/>
          <path id="Trazado_195424" data-name="Trazado 195424" d="M722.532,134.82h4.945V136h-6.711v-1.063l4.664-6.2h-4.593v-1.195h6.406v1.023Z" fill="#12263f"/>
          <path id="Trazado_195425" data-name="Trazado 195425" d="M734.32,136a3.02,3.02,0,0,1-.2-.891,3.225,3.225,0,0,1-2.406,1.047,2.984,2.984,0,0,1-2.051-.707,2.29,2.29,0,0,1-.8-1.793,2.389,2.389,0,0,1,1-2.051,4.734,4.734,0,0,1,2.825-.73h1.406v-.664a1.627,1.627,0,0,0-.453-1.208,1.825,1.825,0,0,0-1.336-.449,2.1,2.1,0,0,0-1.3.391,1.148,1.148,0,0,0-.523.945h-1.454a1.99,1.99,0,0,1,.45-1.222,3.045,3.045,0,0,1,1.218-.934,4.088,4.088,0,0,1,1.692-.344,3.34,3.34,0,0,1,2.289.731,2.634,2.634,0,0,1,.859,2.011v3.891a4.756,4.756,0,0,0,.3,1.852V136Zm-2.4-1.1a2.534,2.534,0,0,0,1.289-.352,2.13,2.13,0,0,0,.883-.914V131.9h-1.133q-2.656,0-2.656,1.555a1.312,1.312,0,0,0,.453,1.062,1.741,1.741,0,0,0,1.164.383" fill="#12263f"/>
          <path id="Trazado_195426" data-name="Trazado 195426" d="M741.2,134.977a2.081,2.081,0,0,0,1.352-.469,1.653,1.653,0,0,0,.64-1.172h1.367a2.62,2.62,0,0,1-.5,1.383,3.291,3.291,0,0,1-1.23,1.047,3.55,3.55,0,0,1-1.629.391A3.48,3.48,0,0,1,738.45,135a4.588,4.588,0,0,1-1.02-3.152v-.242a5.087,5.087,0,0,1,.453-2.2,3.457,3.457,0,0,1,1.3-1.493,3.7,3.7,0,0,1,2-.531,3.389,3.389,0,0,1,2.363.852,3.045,3.045,0,0,1,1,2.211h-1.367a1.994,1.994,0,0,0-.621-1.348,1.931,1.931,0,0,0-1.379-.527,2.021,2.021,0,0,0-1.707.793,3.719,3.719,0,0,0-.605,2.292v.274a3.65,3.65,0,0,0,.6,2.25,2.033,2.033,0,0,0,1.719.789" fill="#12263f"/>
          <path id="Trazado_195427" data-name="Trazado 195427" d="M746.188,125.305a.86.86,0,0,1,.215-.594.805.805,0,0,1,.636-.242.821.821,0,0,1,.641.242.854.854,0,0,1,.219.594.825.825,0,0,1-.219.586.835.835,0,0,1-.641.234.819.819,0,0,1-.636-.234.831.831,0,0,1-.215-.586M747.75,136H746.3v-8.453h1.445Z" fill="#12263f"/>
          <path id="Trazado_195428" data-name="Trazado 195428" d="M749.68,131.7a4.987,4.987,0,0,1,.488-2.235,3.636,3.636,0,0,1,1.359-1.531,3.706,3.706,0,0,1,1.989-.539,3.566,3.566,0,0,1,2.793,1.195,4.6,4.6,0,0,1,1.066,3.18v.1a5.032,5.032,0,0,1-.473,2.214,3.589,3.589,0,0,1-1.351,1.528,3.751,3.751,0,0,1-2.02.547,3.556,3.556,0,0,1-2.785-1.2,4.574,4.574,0,0,1-1.066-3.164Zm1.453.172a3.613,3.613,0,0,0,.652,2.257,2.21,2.21,0,0,0,3.5-.011,3.958,3.958,0,0,0,.649-2.418,3.616,3.616,0,0,0-.66-2.254,2.1,2.1,0,0,0-1.754-.864,2.079,2.079,0,0,0-1.727.852,3.927,3.927,0,0,0-.656,2.438m3.039-7.852h1.75l-2.094,2.3-1.164,0Z" fill="#12263f"/>
          <path id="Trazado_195429" data-name="Trazado 195429" d="M760.555,127.547l.047,1.062a3.079,3.079,0,0,1,2.531-1.218q2.679,0,2.7,3.023V136h-1.445v-5.594a1.952,1.952,0,0,0-.418-1.351,1.673,1.673,0,0,0-1.277-.438,2.087,2.087,0,0,0-1.235.375,2.536,2.536,0,0,0-.828.985V136h-1.445v-8.453Z" fill="#12263f"/>
          <path id="Trazado_195430" data-name="Trazado 195430" d="M768.047,135.242a.9.9,0,0,1,.223-.625.846.846,0,0,1,.668-.25.873.873,0,0,1,.675.25.886.886,0,0,1,.231.625.84.84,0,0,1-.231.6.891.891,0,0,1-.675.242.8.8,0,0,1-.891-.844" fill="#12263f"/>
          <path id="Trazado_195431" data-name="Trazado 195431" d="M43.125,10.625v7.492a3.836,3.836,0,0,1-1.168,2.953,4.5,4.5,0,0,1-3.191,1.086A4.553,4.553,0,0,1,35.6,21.1a3.771,3.771,0,0,1-1.2-2.9V10.625H36.75v7.508a2.166,2.166,0,0,0,.535,1.629,2.055,2.055,0,0,0,1.481.511q1.976,0,2.007-2.078v-7.57Z" fill="#12263f"/>
          <path id="Trazado_195432" data-name="Trazado 195432" d="M47.3,13.547l.07.977a2.952,2.952,0,0,1,2.43-1.133,2.45,2.45,0,0,1,2,.789,3.686,3.686,0,0,1,.672,2.359V22H50.21V16.581a1.474,1.474,0,0,0-.312-1.045,1.4,1.4,0,0,0-1.04-.325,1.552,1.552,0,0,0-1.429.815V22H45.171V13.547Z" fill="#12263f"/>
          <path id="Trazado_195433" data-name="Trazado 195433" d="M54.148,17.7a5,5,0,0,1,.485-2.242,3.539,3.539,0,0,1,1.394-1.524,4.072,4.072,0,0,1,2.113-.539,3.848,3.848,0,0,1,2.793,1.047,4.2,4.2,0,0,1,1.207,2.844l.016.578a4.418,4.418,0,0,1-1.086,3.121,4.208,4.208,0,0,1-5.832,0,4.494,4.494,0,0,1-1.09-3.188Zm2.258.16a3.16,3.16,0,0,0,.453,1.843,1.629,1.629,0,0,0,2.578.008,3.461,3.461,0,0,0,.461-2.015,3.13,3.13,0,0,0-.461-1.831,1.5,1.5,0,0,0-1.3-.65,1.472,1.472,0,0,0-1.281.646,3.518,3.518,0,0,0-.453,2" fill="#12263f"/>
          <path id="Trazado_195434" data-name="Trazado 195434" d="M255.515,22V10.626h3.5a5.321,5.321,0,0,1,2.684.675,4.708,4.708,0,0,1,1.847,1.922,5.926,5.926,0,0,1,.665,2.832v.524a5.943,5.943,0,0,1-.653,2.82,4.67,4.67,0,0,1-1.84,1.914,5.355,5.355,0,0,1-2.679.688Zm2.344-9.477v7.594h1.133a2.545,2.545,0,0,0,2.1-.9,4.058,4.058,0,0,0,.743-2.57v-.6a4.122,4.122,0,0,0-.719-2.628,2.537,2.537,0,0,0-2.1-.895Z" fill="#12263f"/>
          <path id="Trazado_195435" data-name="Trazado 195435" d="M265.734,17.7a5,5,0,0,1,.485-2.242,3.539,3.539,0,0,1,1.394-1.524,4.072,4.072,0,0,1,2.113-.539,3.848,3.848,0,0,1,2.793,1.047,4.2,4.2,0,0,1,1.207,2.844l.016.578a4.418,4.418,0,0,1-1.086,3.121,4.208,4.208,0,0,1-5.832,0,4.494,4.494,0,0,1-1.09-3.188Zm2.258.16a3.16,3.16,0,0,0,.453,1.843,1.629,1.629,0,0,0,2.578.008,3.461,3.461,0,0,0,.461-2.015,3.13,3.13,0,0,0-.461-1.831,1.5,1.5,0,0,0-1.3-.65,1.472,1.472,0,0,0-1.281.646,3.518,3.518,0,0,0-.453,2" fill="#12263f"/>
          <path id="Trazado_195436" data-name="Trazado 195436" d="M280.031,19.664a.728.728,0,0,0-.41-.652,4.635,4.635,0,0,0-1.317-.426q-3.015-.633-3.015-2.563a2.324,2.324,0,0,1,.933-1.879,3.769,3.769,0,0,1,2.442-.753,4.055,4.055,0,0,1,2.574.757,2.39,2.39,0,0,1,.965,1.969h-2.258a1.094,1.094,0,0,0-.312-.8,1.325,1.325,0,0,0-.977-.316,1.351,1.351,0,0,0-.883.258.814.814,0,0,0-.312.656.694.694,0,0,0,.355.6,3.65,3.65,0,0,0,1.2.4,9.72,9.72,0,0,1,1.422.379,2.335,2.335,0,0,1,1.789,2.273,2.2,2.2,0,0,1-.992,1.871,4.274,4.274,0,0,1-2.562.715,4.462,4.462,0,0,1-1.887-.379,3.155,3.155,0,0,1-1.293-1.039,2.41,2.41,0,0,1-.469-1.426h2.141a1.176,1.176,0,0,0,.445.922,1.765,1.765,0,0,0,1.11.321,1.636,1.636,0,0,0,.98-.246.768.768,0,0,0,.332-.645" fill="#12263f"/>
        </g>
      </g>
      <path id="Trazado_195437" data-name="Trazado 195437" d="M471.078,12.524h-3.484V22H465.25V12.524h-3.438v-1.9h9.266Z" fill="#12263f"/>
      <g id="Grupo_146662" data-name="Grupo 146662">
        <g id="Grupo_146661" data-name="Grupo 146661" clip-path="url(#clip-path-2)">
          <path id="Trazado_195438" data-name="Trazado 195438" d="M476.828,15.664a6.076,6.076,0,0,0-.812-.062,1.653,1.653,0,0,0-1.68.867V22h-2.258V13.547h2.133l.062,1.008a2.09,2.09,0,0,1,1.883-1.164,2.385,2.385,0,0,1,.7.1Z" fill="#12263f"/>
          <path id="Trazado_195439" data-name="Trazado 195439" d="M481.976,22.156a4.152,4.152,0,0,1-3.028-1.14,4.059,4.059,0,0,1-1.168-3.039v-.219a5.1,5.1,0,0,1,.493-2.277,3.616,3.616,0,0,1,1.394-1.547,3.907,3.907,0,0,1,2.059-.543,3.507,3.507,0,0,1,2.73,1.093,4.446,4.446,0,0,1,1,3.1v.922H480.07a2.093,2.093,0,0,0,.66,1.328,2,2,0,0,0,1.394.5,2.436,2.436,0,0,0,2.039-.945l1.11,1.242a3.4,3.4,0,0,1-1.375,1.121,4.5,4.5,0,0,1-1.922.4m-.258-6.945a1.408,1.408,0,0,0-1.09.455,2.356,2.356,0,0,0-.535,1.3h3.141v-.181a1.681,1.681,0,0,0-.407-1.165,1.457,1.457,0,0,0-1.109-.412" fill="#12263f"/>
          <path id="Trazado_195440" data-name="Trazado 195440" d="M491.632,19.664a.728.728,0,0,0-.41-.652,4.634,4.634,0,0,0-1.317-.426q-3.015-.633-3.015-2.563a2.324,2.324,0,0,1,.933-1.879,3.769,3.769,0,0,1,2.442-.753,4.055,4.055,0,0,1,2.574.757,2.39,2.39,0,0,1,.965,1.969h-2.258a1.094,1.094,0,0,0-.312-.8,1.325,1.325,0,0,0-.977-.316,1.351,1.351,0,0,0-.883.258.813.813,0,0,0-.312.656.694.694,0,0,0,.355.6,3.65,3.65,0,0,0,1.2.4,9.719,9.719,0,0,1,1.422.379,2.335,2.335,0,0,1,1.789,2.273,2.2,2.2,0,0,1-.992,1.871,4.274,4.274,0,0,1-2.562.715,4.462,4.462,0,0,1-1.887-.379,3.155,3.155,0,0,1-1.293-1.039,2.41,2.41,0,0,1-.469-1.426h2.141a1.175,1.175,0,0,0,.445.922,1.765,1.765,0,0,0,1.11.321,1.636,1.636,0,0,0,.98-.246.768.768,0,0,0,.332-.645" fill="#12263f"/>
          <path id="Trazado_195441" data-name="Trazado 195441" d="M669.445,18.211A4.031,4.031,0,0,1,668.09,21.1a4.764,4.764,0,0,1-3.223,1.054,4.283,4.283,0,0,1-3.442-1.472,6.043,6.043,0,0,1-1.253-4.043v-.7a6.808,6.808,0,0,1,.578-2.89,4.33,4.33,0,0,1,1.652-1.918,5.163,5.163,0,0,1,5.668.387,4.325,4.325,0,0,1,1.391,2.96h-2.344a2.381,2.381,0,0,0-.613-1.6,2.272,2.272,0,0,0-1.606-.5,1.992,1.992,0,0,0-1.754.84,4.7,4.7,0,0,0-.6,2.605v.859a5.043,5.043,0,0,0,.558,2.7,1.956,1.956,0,0,0,1.762.851,2.313,2.313,0,0,0,1.621-.5,2.245,2.245,0,0,0,.613-1.535Z" fill="#12263f"/>
          <path id="Trazado_195442" data-name="Trazado 195442" d="M676.218,21.141a2.833,2.833,0,0,1-2.313,1.016,2.671,2.671,0,0,1-2.074-.782,3.334,3.334,0,0,1-.73-2.289V13.547h2.258v5.467q0,1.323,1.2,1.322a1.629,1.629,0,0,0,1.578-.8V13.547h2.266V22H676.28Z" fill="#12263f"/>
          <path id="Trazado_195443" data-name="Trazado 195443" d="M685.327,22a2.488,2.488,0,0,1-.226-.758,2.731,2.731,0,0,1-2.133.915,3,3,0,0,1-2.059-.719,2.313,2.313,0,0,1-.816-1.813,2.389,2.389,0,0,1,1-2.062,4.906,4.906,0,0,1,2.879-.727h1.039v-.484a1.4,1.4,0,0,0-.3-.938,1.185,1.185,0,0,0-.949-.351,1.348,1.348,0,0,0-.9.273.931.931,0,0,0-.324.75H680.28a2.27,2.27,0,0,1,.453-1.359,3,3,0,0,1,1.282-.981,4.665,4.665,0,0,1,1.859-.355,3.694,3.694,0,0,1,2.481.785,2.75,2.75,0,0,1,.918,2.207v3.664a4.034,4.034,0,0,0,.335,1.82V22Zm-1.867-1.57a1.939,1.939,0,0,0,.922-.223,1.463,1.463,0,0,0,.625-.6V18.157h-.844q-1.7,0-1.805,1.171l-.007.133a.9.9,0,0,0,.3.7,1.151,1.151,0,0,0,.812.273" fill="#12263f"/>
          <path id="Trazado_195444" data-name="Trazado 195444" d="M692.03,11.469v2.078h1.445V15.2H692.03v4.219a1.007,1.007,0,0,0,.18.672.9.9,0,0,0,.687.2,3.554,3.554,0,0,0,.664-.055v1.711a4.628,4.628,0,0,1-1.367.2,2.156,2.156,0,0,1-2.422-2.4V15.2h-1.234V13.547h1.234V11.469Z" fill="#12263f"/>
          <path id="Trazado_195445" data-name="Trazado 195445" d="M699.8,15.664a6.075,6.075,0,0,0-.812-.062,1.653,1.653,0,0,0-1.68.867V22h-2.258V13.547h2.133l.062,1.008a2.09,2.09,0,0,1,1.883-1.164,2.384,2.384,0,0,1,.7.1Z" fill="#12263f"/>
          <path id="Trazado_195446" data-name="Trazado 195446" d="M700.576,17.7a5,5,0,0,1,.485-2.242,3.539,3.539,0,0,1,1.394-1.524,4.072,4.072,0,0,1,2.113-.539,3.848,3.848,0,0,1,2.793,1.047,4.2,4.2,0,0,1,1.207,2.844l.016.578a4.418,4.418,0,0,1-1.086,3.121,4.208,4.208,0,0,1-5.832,0,4.494,4.494,0,0,1-1.09-3.188Zm2.258.16a3.16,3.16,0,0,0,.453,1.843,1.629,1.629,0,0,0,2.578.008,3.461,3.461,0,0,0,.461-2.015,3.13,3.13,0,0,0-.461-1.831,1.5,1.5,0,0,0-1.3-.65,1.472,1.472,0,0,0-1.281.646,3.518,3.518,0,0,0-.453,2" fill="#12263f"/>
        </g>
      </g>
    </g>
  </g>
</svg>
