<svg xmlns="http://www.w3.org/2000/svg" width="28.416" height="37.547" viewBox="0 0 28.416 37.547">
  <path id="Trazado_194891" data-name="Trazado 194891" d="M451.5,36.547V1h12.451q6.468,0,9.814,2.478a8.473,8.473,0,0,1,3.345,7.263,8.033,8.033,0,0,1-1.343,4.6,7.748,7.748,0,0,1-3.735,2.917,7.512,7.512,0,0,1,4.309,2.759A8.162,8.162,0,0,1,477.92,26.1q0,5.127-3.272,7.764t-9.326,2.686Zm7.324-20.655h5.42q5.541-.1,5.542-4.419a4.088,4.088,0,0,0-1.4-3.479,7.391,7.391,0,0,0-4.431-1.062h-5.127Zm0,5.176v9.595H465.1a6.048,6.048,0,0,0,4.04-1.234,4.224,4.224,0,0,0,1.454-3.405q0-4.883-5.054-4.956Z" transform="translate(-450.504)" fill="none" stroke="#5e8cd2" stroke-linecap="round" stroke-linejoin="round" stroke-width="2"/>
</svg>
