<svg xmlns="http://www.w3.org/2000/svg" width="31.028" height="38.523" viewBox="0 0 31.028 38.523">
  <path id="Trazado_194889" data-name="Trazado 194889" d="M31.908,153.706a12.58,12.58,0,0,1-4.236,9.033q-3.821,3.3-10.071,3.3-6.836,0-10.754-4.6T2.929,148.8v-2.173a21.313,21.313,0,0,1,1.806-9.033A13.521,13.521,0,0,1,9.9,131.6a14.452,14.452,0,0,1,7.8-2.088q6.153,0,9.912,3.3a13.522,13.522,0,0,1,4.346,9.252H24.633a7.428,7.428,0,0,0-1.917-4.992,7.1,7.1,0,0,0-5.017-1.55,6.223,6.223,0,0,0-5.481,2.625q-1.82,2.623-1.868,8.141v2.686q0,5.762,1.746,8.423a6.108,6.108,0,0,0,5.505,2.661,7.233,7.233,0,0,0,5.066-1.55,7.005,7.005,0,0,0,1.917-4.8Z" transform="translate(-1.929 -128.512)" fill="none" stroke="#5e8cd2" stroke-linecap="round" stroke-linejoin="round" stroke-width="2"/>
</svg>
