<svg id="Grupo_146943" data-name="Grupo 146943" xmlns="http://www.w3.org/2000/svg" xmlns:xlink="http://www.w3.org/1999/xlink" width="1239.586" height="491" viewBox="0 0 1239.586 491">
  <defs>
    <clipPath id="clip-path">
      <rect id="Rectángulo_45333" data-name="Rectángulo 45333" width="1239.586" height="491" fill="none"/>
    </clipPath>
  </defs>
  <path id="Trazado_196626" data-name="Trazado 196626" d="M569.083,134.414h-5.238V138.7h6.085V140h-7.679V127.914h7.6v1.3h-6v3.893h5.238Z" fill="#12263f"/>
  <g id="Grupo_146944" data-name="Grupo 146944">
    <g id="Grupo_146943-2" data-name="Grupo 146943" clip-path="url(#clip-path)">
      <path id="Trazado_196627" data-name="Trazado 196627" d="M576.9,137.617a1.13,1.13,0,0,0-.47-.967,4.523,4.523,0,0,0-1.634-.594,7.736,7.736,0,0,1-1.851-.6,2.624,2.624,0,0,1-1.013-.83,1.98,1.98,0,0,1-.328-1.145,2.334,2.334,0,0,1,.933-1.868,3.651,3.651,0,0,1,2.387-.764,3.753,3.753,0,0,1,2.477.788,2.5,2.5,0,0,1,.951,2.018h-1.543a1.388,1.388,0,0,0-.536-1.088,2.009,2.009,0,0,0-1.349-.456,2.1,2.1,0,0,0-1.312.365,1.147,1.147,0,0,0-.472.954.931.931,0,0,0,.44.839,5.384,5.384,0,0,0,1.589.54,8.269,8.269,0,0,1,1.864.614,2.725,2.725,0,0,1,1.058.859,2.118,2.118,0,0,1,.344,1.225,2.3,2.3,0,0,1-.962,1.929,4.039,4.039,0,0,1-2.5.727,4.512,4.512,0,0,1-1.909-.382,3.118,3.118,0,0,1-1.3-1.066,2.578,2.578,0,0,1-.469-1.482h1.537a1.589,1.589,0,0,0,.617,1.224,2.4,2.4,0,0,0,1.524.452,2.469,2.469,0,0,0,1.4-.353,1.082,1.082,0,0,0,.528-.942" fill="#12263f"/>
      <path id="Trazado_196628" data-name="Trazado 196628" d="M582.522,128.844v2.175H584.2v1.186h-1.677v5.577a1.25,1.25,0,0,0,.224.811.945.945,0,0,0,.764.271,3.754,3.754,0,0,0,.73-.1V140a4.436,4.436,0,0,1-1.178.165,1.912,1.912,0,0,1-1.553-.623,2.674,2.674,0,0,1-.523-1.767v-5.571h-1.635v-1.186h1.635v-2.175Z" fill="#12263f"/>
      <path id="Trazado_196629" data-name="Trazado 196629" d="M590.333,132.4a4.562,4.562,0,0,0-.755-.059,2.025,2.025,0,0,0-2.051,1.288V140h-1.535v-8.982h1.494l.025,1.038a2.389,2.389,0,0,1,2.141-1.2,1.578,1.578,0,0,1,.681.116Z" fill="#12263f"/>
      <path id="Trazado_196630" data-name="Trazado 196630" d="M597.289,139.111a3.262,3.262,0,0,1-2.631,1.055,2.793,2.793,0,0,1-2.187-.834,3.61,3.61,0,0,1-.76-2.47v-5.844h1.536v5.8q0,2.041,1.66,2.043a2.3,2.3,0,0,0,2.34-1.313v-6.532h1.536V140h-1.461Z" fill="#12263f"/>
      <path id="Trazado_196631" data-name="Trazado 196631" d="M604.718,138.912a2.213,2.213,0,0,0,1.436-.5,1.751,1.751,0,0,0,.681-1.244h1.452a2.779,2.779,0,0,1-.531,1.469,3.507,3.507,0,0,1-1.308,1.112,3.774,3.774,0,0,1-1.73.415,3.7,3.7,0,0,1-2.918-1.225,4.875,4.875,0,0,1-1.083-3.349v-.257A5.425,5.425,0,0,1,601.2,133a3.67,3.67,0,0,1,1.382-1.585,3.933,3.933,0,0,1,2.13-.565,3.6,3.6,0,0,1,2.511.906,3.23,3.23,0,0,1,1.066,2.348h-1.452a2.115,2.115,0,0,0-.66-1.431,2.052,2.052,0,0,0-1.465-.561,2.149,2.149,0,0,0-1.814.843,3.951,3.951,0,0,0-.643,2.435v.291a3.876,3.876,0,0,0,.639,2.391,2.158,2.158,0,0,0,1.826.838" fill="#12263f"/>
      <path id="Trazado_196632" data-name="Trazado 196632" d="M612.1,128.844v2.175h1.677v1.186H612.1v5.577a1.249,1.249,0,0,0,.224.811.945.945,0,0,0,.764.271,3.754,3.754,0,0,0,.73-.1V140a4.436,4.436,0,0,1-1.178.165,1.912,1.912,0,0,1-1.553-.623,2.674,2.674,0,0,1-.523-1.767v-5.571h-1.635v-1.186h1.635v-2.175Z" fill="#12263f"/>
      <path id="Trazado_196633" data-name="Trazado 196633" d="M621.112,139.111a3.262,3.262,0,0,1-2.631,1.055,2.793,2.793,0,0,1-2.187-.834,3.611,3.611,0,0,1-.76-2.47v-5.844h1.536v5.8q0,2.041,1.66,2.043a2.3,2.3,0,0,0,2.34-1.313v-6.532h1.536V140h-1.461Z" fill="#12263f"/>
      <path id="Trazado_196634" data-name="Trazado 196634" d="M629.28,132.4a4.563,4.563,0,0,0-.755-.059,2.025,2.025,0,0,0-2.051,1.288V140h-1.535v-8.982h1.494l.025,1.038a2.389,2.389,0,0,1,2.141-1.2,1.578,1.578,0,0,1,.681.116Z" fill="#12263f"/>
      <path id="Trazado_196635" data-name="Trazado 196635" d="M635.9,140a3.233,3.233,0,0,1-.215-.946,3.428,3.428,0,0,1-2.557,1.112,3.17,3.17,0,0,1-2.179-.751,2.432,2.432,0,0,1-.851-1.9,2.539,2.539,0,0,1,1.067-2.179,5.023,5.023,0,0,1,3-.776h1.495v-.7a1.728,1.728,0,0,0-.482-1.284,1.935,1.935,0,0,0-1.419-.476,2.235,2.235,0,0,0-1.378.414,1.223,1.223,0,0,0-.556,1.005h-1.544a2.118,2.118,0,0,1,.477-1.3,3.251,3.251,0,0,1,1.295-.992,4.364,4.364,0,0,1,1.8-.366,3.546,3.546,0,0,1,2.432.777,2.8,2.8,0,0,1,.913,2.137V137.9a5.036,5.036,0,0,0,.316,1.967V140Zm-2.548-1.17a2.7,2.7,0,0,0,1.37-.374,2.264,2.264,0,0,0,.938-.972v-1.842h-1.2q-2.822,0-2.822,1.652a1.4,1.4,0,0,0,.481,1.129,1.853,1.853,0,0,0,1.237.407" fill="#12263f"/>
      <path id="Trazado_196636" data-name="Trazado 196636" d="M639.233,135.434a5.259,5.259,0,0,1,.98-3.324,3.332,3.332,0,0,1,5.063-.179V127.25h1.536V140H645.4l-.075-.963a3.126,3.126,0,0,1-2.565,1.129,3.067,3.067,0,0,1-2.544-1.279,5.32,5.32,0,0,1-.984-3.337Zm1.536.175A3.985,3.985,0,0,0,641.4,138a2.039,2.039,0,0,0,1.743.863,2.24,2.24,0,0,0,2.133-1.313v-4.125a2.257,2.257,0,0,0-2.116-1.269,2.048,2.048,0,0,0-1.76.871,4.382,4.382,0,0,0-.631,2.582" fill="#12263f"/>
      <path id="Trazado_196637" data-name="Trazado 196637" d="M648.787,135.425a5.3,5.3,0,0,1,.519-2.373,3.864,3.864,0,0,1,1.444-1.627,3.93,3.93,0,0,1,2.113-.573,3.786,3.786,0,0,1,2.968,1.271,4.887,4.887,0,0,1,1.132,3.378v.108a5.349,5.349,0,0,1-.5,2.353,3.819,3.819,0,0,1-1.436,1.623,3.979,3.979,0,0,1-2.146.581,3.78,3.78,0,0,1-2.959-1.27,4.862,4.862,0,0,1-1.133-3.362Zm1.544.184a3.84,3.84,0,0,0,.693,2.4,2.349,2.349,0,0,0,3.715-.012,4.206,4.206,0,0,0,.689-2.57,3.832,3.832,0,0,0-.7-2.394,2.229,2.229,0,0,0-1.863-.917,2.206,2.206,0,0,0-1.835.9,4.168,4.168,0,0,0-.7,2.59" fill="#12263f"/>
      <path id="Trazado_196638" data-name="Trazado 196638" d="M666.825,140.166a3.928,3.928,0,0,1-2.972-1.2,4.457,4.457,0,0,1-1.145-3.209v-.282a5.391,5.391,0,0,1,.51-2.386,3.981,3.981,0,0,1,1.428-1.644,3.6,3.6,0,0,1,1.988-.594,3.367,3.367,0,0,1,2.723,1.154,5,5,0,0,1,.971,3.3v.639h-6.085a3.184,3.184,0,0,0,.777,2.145,2.438,2.438,0,0,0,1.888.818,2.681,2.681,0,0,0,1.378-.332,3.472,3.472,0,0,0,.988-.879l.938.73a3.772,3.772,0,0,1-3.387,1.735m-.191-8.052a2.05,2.05,0,0,0-1.561.677,3.293,3.293,0,0,0-.78,1.9h4.5v-.116a2.916,2.916,0,0,0-.631-1.813,1.927,1.927,0,0,0-1.527-.644" fill="#12263f"/>
      <path id="Trazado_196639" data-name="Trazado 196639" d="M673.557,131.018l.05,1.129a3.272,3.272,0,0,1,2.689-1.295q2.847,0,2.872,3.212V140h-1.535v-5.943a2.064,2.064,0,0,0-.445-1.435,1.773,1.773,0,0,0-1.357-.465,2.218,2.218,0,0,0-1.311.4,2.7,2.7,0,0,0-.88,1.045V140H672.1v-8.981Z" fill="#12263f"/>
    </g>
  </g>
  <rect id="Rectángulo_45334" data-name="Rectángulo 45334" width="400" height="77" transform="translate(419.586)" fill="#483c8c"/>
  <g id="Grupo_146946" data-name="Grupo 146946">
    <g id="Grupo_146945" data-name="Grupo 146945" clip-path="url(#clip-path)">
      <path id="Trazado_196640" data-name="Trazado 196640" d="M504.9,40.99V46h-2.93V31.781h5.547a6.415,6.415,0,0,1,2.818.586,4.318,4.318,0,0,1,1.87,1.665,4.645,4.645,0,0,1,.654,2.456,4.081,4.081,0,0,1-1.431,3.3,5.958,5.958,0,0,1-3.96,1.206Zm0-2.373h2.617a2.577,2.577,0,0,0,1.773-.547,1.991,1.991,0,0,0,.61-1.562,2.347,2.347,0,0,0-.615-1.69,2.3,2.3,0,0,0-1.7-.664H504.9Z" fill="#fff"/>
      <path id="Trazado_196641" data-name="Trazado 196641" d="M520.624,38.08A7.683,7.683,0,0,0,519.608,38a2.066,2.066,0,0,0-2.1,1.084V46h-2.822V35.434h2.666l.078,1.259a2.616,2.616,0,0,1,2.353-1.455,2.942,2.942,0,0,1,.879.127Z" fill="#fff"/>
      <path id="Trazado_196642" data-name="Trazado 196642" d="M521.191,40.619a6.262,6.262,0,0,1,.605-2.8,4.437,4.437,0,0,1,1.743-1.9,5.092,5.092,0,0,1,2.642-.674,4.809,4.809,0,0,1,3.491,1.309,5.248,5.248,0,0,1,1.509,3.554l.019.723a5.52,5.52,0,0,1-1.357,3.9,5.261,5.261,0,0,1-7.29.005,5.62,5.62,0,0,1-1.362-3.984Zm2.822.2a3.959,3.959,0,0,0,.566,2.3,2.035,2.035,0,0,0,3.223.009,4.322,4.322,0,0,0,.576-2.518,3.913,3.913,0,0,0-.576-2.289,1.873,1.873,0,0,0-1.621-.812,1.844,1.844,0,0,0-1.6.807,4.4,4.4,0,0,0-.566,2.5" fill="#fff"/>
      <path id="Trazado_196643" data-name="Trazado 196643" d="M536.318,32.836v2.6h1.806V37.5h-1.806v5.273a1.257,1.257,0,0,0,.224.84,1.13,1.13,0,0,0,.859.254,4.463,4.463,0,0,0,.83-.068v2.138a5.817,5.817,0,0,1-1.709.254q-2.968,0-3.027-3V37.5h-1.543v-2.07h1.543v-2.6Z" fill="#fff"/>
      <path id="Trazado_196644" data-name="Trazado 196644" d="M538.964,40.619a6.262,6.262,0,0,1,.6-2.8,4.437,4.437,0,0,1,1.743-1.9,5.092,5.092,0,0,1,2.642-.674,4.809,4.809,0,0,1,3.491,1.309,5.248,5.248,0,0,1,1.509,3.554l.019.723a5.52,5.52,0,0,1-1.357,3.9,5.261,5.261,0,0,1-7.29.005,5.62,5.62,0,0,1-1.362-3.984Zm2.822.2a3.958,3.958,0,0,0,.566,2.3,2.035,2.035,0,0,0,3.223.009,4.322,4.322,0,0,0,.576-2.518,3.913,3.913,0,0,0-.576-2.289,1.873,1.873,0,0,0-1.621-.812,1.844,1.844,0,0,0-1.6.807,4.4,4.4,0,0,0-.566,2.5" fill="#fff"/>
      <path id="Trazado_196645" data-name="Trazado 196645" d="M555.107,43.92a1.855,1.855,0,0,0,1.27-.43,1.5,1.5,0,0,0,.507-1.142h2.647a3.628,3.628,0,0,1-.586,1.968,3.873,3.873,0,0,1-1.577,1.386,4.936,4.936,0,0,1-2.212.493,4.588,4.588,0,0,1-3.574-1.44,5.7,5.7,0,0,1-1.309-3.98V40.59a5.635,5.635,0,0,1,1.3-3.9,4.537,4.537,0,0,1,3.564-1.455,4.443,4.443,0,0,1,3.179,1.128,4,4,0,0,1,1.216,3h-2.647a1.941,1.941,0,0,0-.507-1.34,1.889,1.889,0,0,0-2.779.2,4.167,4.167,0,0,0-.5,2.333v.292a4.219,4.219,0,0,0,.5,2.348,1.722,1.722,0,0,0,1.514.714" fill="#fff"/>
      <path id="Trazado_196646" data-name="Trazado 196646" d="M560.7,40.619a6.262,6.262,0,0,1,.6-2.8,4.437,4.437,0,0,1,1.743-1.9,5.092,5.092,0,0,1,2.642-.674,4.809,4.809,0,0,1,3.491,1.309,5.248,5.248,0,0,1,1.509,3.554l.019.723a5.52,5.52,0,0,1-1.357,3.9,5.26,5.26,0,0,1-7.29.005,5.62,5.62,0,0,1-1.362-3.984Zm2.822.2a3.958,3.958,0,0,0,.566,2.3,2.035,2.035,0,0,0,3.223.009,4.321,4.321,0,0,0,.576-2.518,3.913,3.913,0,0,0-.576-2.289,1.873,1.873,0,0,0-1.621-.812,1.844,1.844,0,0,0-1.6.807,4.4,4.4,0,0,0-.566,2.5" fill="#fff"/>
      <rect id="Rectángulo_45335" data-name="Rectángulo 45335" width="2.832" height="15" transform="translate(572.597 31)" fill="#fff"/>
      <path id="Trazado_196647" data-name="Trazado 196647" d="M577.314,40.619a6.262,6.262,0,0,1,.6-2.8,4.437,4.437,0,0,1,1.743-1.9,5.092,5.092,0,0,1,2.642-.674,4.809,4.809,0,0,1,3.491,1.309A5.248,5.248,0,0,1,587.3,40.1l.019.723a5.52,5.52,0,0,1-1.357,3.9,5.26,5.26,0,0,1-7.29.005,5.62,5.62,0,0,1-1.362-3.984Zm2.822.2a3.958,3.958,0,0,0,.566,2.3,2.035,2.035,0,0,0,3.223.009,4.321,4.321,0,0,0,.576-2.518,3.913,3.913,0,0,0-.576-2.289,1.873,1.873,0,0,0-1.621-.812,1.844,1.844,0,0,0-1.6.807,4.4,4.4,0,0,0-.566,2.5" fill="#fff"/>
      <path id="Trazado_196648" data-name="Trazado 196648" d="M593.6,40.639a6.368,6.368,0,0,1,1.108-3.936,3.6,3.6,0,0,1,3.032-1.465,3.233,3.233,0,0,1,2.549,1.153V31h2.832V46h-2.549l-.136-1.123a3.32,3.32,0,0,1-2.715,1.318,3.587,3.587,0,0,1-2.993-1.469,6.573,6.573,0,0,1-1.128-4.087m2.822.2a4.181,4.181,0,0,0,.518,2.285,1.684,1.684,0,0,0,1.5.795,1.887,1.887,0,0,0,1.846-1.108v-4.19a1.86,1.86,0,0,0-1.826-1.108q-2.042,0-2.041,3.326" fill="#fff"/>
      <path id="Trazado_196649" data-name="Trazado 196649" d="M610.175,46.195a5.189,5.189,0,0,1-3.784-1.425,5.071,5.071,0,0,1-1.46-3.8V40.7a6.389,6.389,0,0,1,.615-2.848,4.51,4.51,0,0,1,1.744-1.933,4.893,4.893,0,0,1,2.573-.679,4.39,4.39,0,0,1,3.413,1.367,5.56,5.56,0,0,1,1.245,3.878v1.151h-6.729a2.62,2.62,0,0,0,.826,1.66,2.488,2.488,0,0,0,1.743.625,3.046,3.046,0,0,0,2.549-1.181L614.3,44.29a4.239,4.239,0,0,1-1.718,1.4,5.662,5.662,0,0,1-2.4.5m-.322-8.682a1.763,1.763,0,0,0-1.362.569,2.949,2.949,0,0,0-.669,1.629h3.926v-.225a2.106,2.106,0,0,0-.508-1.457,1.822,1.822,0,0,0-1.387-.516" fill="#fff"/>
      <path id="Trazado_196650" data-name="Trazado 196650" d="M630.624,40.814a6.4,6.4,0,0,1-1.084,3.96,3.591,3.591,0,0,1-3.027,1.421,3.3,3.3,0,0,1-2.744-1.319L623.642,46H621.1V31h2.822V36.38a3.215,3.215,0,0,1,2.568-1.142,3.621,3.621,0,0,1,3.033,1.421,6.409,6.409,0,0,1,1.1,4ZM627.8,40.6a4.226,4.226,0,0,0-.508-2.347,1.714,1.714,0,0,0-1.513-.739,1.861,1.861,0,0,0-1.856,1.107V42.8a1.886,1.886,0,0,0,1.875,1.116,1.743,1.743,0,0,0,1.8-1.351A6.986,6.986,0,0,0,627.8,40.6" fill="#fff"/>
      <path id="Trazado_196651" data-name="Trazado 196651" d="M632.343,32.7a1.388,1.388,0,0,1,.425-1.045,1.83,1.83,0,0,1,2.309,0,1.491,1.491,0,0,1-.005,2.1,1.811,1.811,0,0,1-2.3,0,1.389,1.389,0,0,1-.434-1.055m3,13.3h-2.832V35.434h2.832Z" fill="#fff"/>
      <path id="Trazado_196652" data-name="Trazado 196652" d="M637.226,40.619a6.262,6.262,0,0,1,.6-2.8,4.437,4.437,0,0,1,1.743-1.9,5.092,5.092,0,0,1,2.642-.674,4.809,4.809,0,0,1,3.491,1.309,5.248,5.248,0,0,1,1.509,3.554l.019.723a5.52,5.52,0,0,1-1.357,3.9,5.26,5.26,0,0,1-7.29.005,5.62,5.62,0,0,1-1.362-3.984Zm2.822.2a3.958,3.958,0,0,0,.566,2.3,2.035,2.035,0,0,0,3.223.009,4.321,4.321,0,0,0,.576-2.518,3.913,3.913,0,0,0-.576-2.289,1.873,1.873,0,0,0-1.621-.812,1.844,1.844,0,0,0-1.6.807,4.4,4.4,0,0,0-.566,2.5" fill="#fff"/>
      <path id="Trazado_196653" data-name="Trazado 196653" d="M654.7,43.08a.908.908,0,0,0-.513-.815,5.819,5.819,0,0,0-1.645-.533q-3.77-.79-3.77-3.2a2.9,2.9,0,0,1,1.167-2.348,4.711,4.711,0,0,1,3.052-.943,5.071,5.071,0,0,1,3.218.947,2.988,2.988,0,0,1,1.206,2.461h-2.822a1.369,1.369,0,0,0-.391-1,1.657,1.657,0,0,0-1.221-.4,1.686,1.686,0,0,0-1.1.322,1.016,1.016,0,0,0-.391.821.869.869,0,0,0,.444.756,4.534,4.534,0,0,0,1.5.5,12.2,12.2,0,0,1,1.778.474,2.92,2.92,0,0,1,2.236,2.842A2.756,2.756,0,0,1,656.2,45.3a5.356,5.356,0,0,1-3.2.893,5.6,5.6,0,0,1-2.359-.473,3.962,3.962,0,0,1-1.616-1.3,3.024,3.024,0,0,1-.586-1.782h2.676a1.471,1.471,0,0,0,.557,1.152,2.212,2.212,0,0,0,1.386.4,2.045,2.045,0,0,0,1.226-.307.957.957,0,0,0,.415-.806" fill="#fff"/>
      <path id="Trazado_196654" data-name="Trazado 196654" d="M664.12,46.195a5.189,5.189,0,0,1-3.784-1.425,5.071,5.071,0,0,1-1.46-3.8V40.7a6.389,6.389,0,0,1,.615-2.848,4.509,4.509,0,0,1,1.744-1.933,4.893,4.893,0,0,1,2.573-.679,4.39,4.39,0,0,1,3.413,1.367,5.56,5.56,0,0,1,1.245,3.878v1.151h-6.729a2.62,2.62,0,0,0,.826,1.66,2.488,2.488,0,0,0,1.743.625,3.046,3.046,0,0,0,2.549-1.181l1.386,1.552a4.239,4.239,0,0,1-1.718,1.4,5.662,5.662,0,0,1-2.4.5m-.322-8.682a1.763,1.763,0,0,0-1.362.569,2.949,2.949,0,0,0-.669,1.629h3.926v-.225a2.106,2.106,0,0,0-.508-1.457,1.823,1.823,0,0,0-1.387-.516" fill="#fff"/>
      <path id="Trazado_196655" data-name="Trazado 196655" d="M669.658,40.639a6.189,6.189,0,0,1,1.157-3.916,3.75,3.75,0,0,1,3.12-1.485,3.289,3.289,0,0,1,2.705,1.192l.117-1h2.559V45.649a4.517,4.517,0,0,1-.63,2.412,4.051,4.051,0,0,1-1.772,1.562,6.22,6.22,0,0,1-2.676.537,5.783,5.783,0,0,1-2.266-.464,4.022,4.022,0,0,1-1.67-1.2l1.25-1.719a3.306,3.306,0,0,0,2.559,1.182,2.419,2.419,0,0,0,1.748-.6,2.254,2.254,0,0,0,.625-1.7v-.566a3.266,3.266,0,0,1-2.568,1.1,3.741,3.741,0,0,1-3.082-1.489,6.193,6.193,0,0,1-1.176-3.95Zm2.822.2a3.877,3.877,0,0,0,.576,2.261,1.832,1.832,0,0,0,1.582.819,1.956,1.956,0,0,0,1.846-.972V38.486a1.953,1.953,0,0,0-1.826-.972,1.842,1.842,0,0,0-1.6.834,4.372,4.372,0,0,0-.581,2.492" fill="#fff"/>
      <path id="Trazado_196656" data-name="Trazado 196656" d="M687.812,44.926a3.538,3.538,0,0,1-2.891,1.27,3.337,3.337,0,0,1-2.592-.977,4.167,4.167,0,0,1-.913-2.861V35.434h2.822v6.834q0,1.651,1.5,1.652a2.036,2.036,0,0,0,1.972-1V35.434h2.832V46H687.89Z" fill="#fff"/>
      <path id="Trazado_196657" data-name="Trazado 196657" d="M698.612,38.08A7.682,7.682,0,0,0,697.6,38a2.066,2.066,0,0,0-2.1,1.084V46h-2.822V35.434h2.666l.078,1.259a2.616,2.616,0,0,1,2.353-1.455,2.942,2.942,0,0,1,.879.127Z" fill="#fff"/>
      <path id="Trazado_196658" data-name="Trazado 196658" d="M699.95,32.7a1.392,1.392,0,0,1,.425-1.045,1.832,1.832,0,0,1,2.31,0,1.493,1.493,0,0,1-.005,2.1,1.811,1.811,0,0,1-2.295,0,1.386,1.386,0,0,1-.435-1.055m3,13.3h-2.832V35.434h2.832Z" fill="#fff"/>
      <path id="Trazado_196659" data-name="Trazado 196659" d="M704.833,40.639a6.368,6.368,0,0,1,1.108-3.936,3.6,3.6,0,0,1,3.032-1.465,3.233,3.233,0,0,1,2.549,1.153V31h2.832V46H711.8l-.136-1.123a3.32,3.32,0,0,1-2.715,1.318,3.587,3.587,0,0,1-2.993-1.469,6.573,6.573,0,0,1-1.128-4.087m2.822.2a4.181,4.181,0,0,0,.518,2.285,1.684,1.684,0,0,0,1.5.795,1.887,1.887,0,0,0,1.846-1.108v-4.19a1.86,1.86,0,0,0-1.826-1.108q-2.041,0-2.041,3.326" fill="#fff"/>
      <path id="Trazado_196660" data-name="Trazado 196660" d="M722.665,46a3.118,3.118,0,0,1-.283-.947,3.417,3.417,0,0,1-2.666,1.142,3.755,3.755,0,0,1-2.573-.9,2.889,2.889,0,0,1-1.021-2.266,2.986,2.986,0,0,1,1.245-2.578,6.148,6.148,0,0,1,3.6-.908h1.3v-.606a1.746,1.746,0,0,0-.376-1.172,1.483,1.483,0,0,0-1.187-.439,1.681,1.681,0,0,0-1.118.342,1.16,1.16,0,0,0-.4.937h-2.823a2.833,2.833,0,0,1,.567-1.7,3.735,3.735,0,0,1,1.6-1.225,5.842,5.842,0,0,1,2.325-.445,4.606,4.606,0,0,1,3.1.982,3.433,3.433,0,0,1,1.148,2.758v4.58a5.04,5.04,0,0,0,.42,2.276V46Zm-2.334-1.963a2.433,2.433,0,0,0,1.152-.278,1.837,1.837,0,0,0,.782-.747V41.195H721.21q-2.12,0-2.256,1.465l-.01.166a1.129,1.129,0,0,0,.371.869,1.442,1.442,0,0,0,1.016.342" fill="#fff"/>
      <path id="Trazado_196661" data-name="Trazado 196661" d="M726.826,40.639a6.368,6.368,0,0,1,1.108-3.936,3.6,3.6,0,0,1,3.032-1.465,3.234,3.234,0,0,1,2.549,1.153V31h2.832V46H733.8l-.136-1.123a3.32,3.32,0,0,1-2.715,1.318,3.587,3.587,0,0,1-2.993-1.469,6.573,6.573,0,0,1-1.128-4.087m2.822.2a4.181,4.181,0,0,0,.518,2.285,1.684,1.684,0,0,0,1.5.795,1.887,1.887,0,0,0,1.846-1.108v-4.19a1.86,1.86,0,0,0-1.826-1.108q-2.042,0-2.041,3.326" fill="#fff"/>
    </g>
  </g>
  <line id="Línea_252" data-name="Línea 252" y2="30.246" transform="translate(620.086 77)" fill="none" stroke="#483c8c" stroke-width="2"/>
  <line id="Línea_253" data-name="Línea 253" y2="30.246" transform="translate(620.086 150)" fill="none" stroke="#483c8c" stroke-width="2"/>
  <line id="Línea_254" data-name="Línea 254" y2="30.246" transform="translate(620.086 268)" fill="none" stroke="#483c8c" stroke-width="2"/>
  <line id="Línea_255" data-name="Línea 255" y2="26.437" transform="translate(620.086 339.564)" fill="none" stroke="#483c8c" stroke-width="2"/>
  <path id="Trazado_196662" data-name="Trazado 196662" d="M147.5,396.249V366h946.012" fill="none" stroke="#483c8c" stroke-width="2"/>
  <line id="Línea_256" data-name="Línea 256" y2="30.246" transform="translate(462.086 366)" fill="none" stroke="#483c8c" stroke-width="2"/>
  <line id="Línea_257" data-name="Línea 257" y2="30.246" transform="translate(777.086 366)" fill="none" stroke="#483c8c" stroke-width="2"/>
  <path id="Trazado_196663" data-name="Trazado 196663" d="M620.086,117.449l-8.5-15h17Z" fill="#483c8c"/>
  <path id="Trazado_196664" data-name="Trazado 196664" d="M620.086,190.449l-8.5-15h17Z" fill="#483c8c"/>
  <path id="Trazado_196665" data-name="Trazado 196665" d="M620.086,308.449l-8.5-15h17Z" fill="#483c8c"/>
  <path id="Trazado_196666" data-name="Trazado 196666" d="M147.5,406.449l-8.5-15h17Z" fill="#483c8c"/>
  <path id="Trazado_196667" data-name="Trazado 196667" d="M462.086,406.449l-8.5-15h17Z" fill="#483c8c"/>
  <path id="Trazado_196668" data-name="Trazado 196668" d="M777.086,406.449l-8.5-15h17Z" fill="#483c8c"/>
  <path id="Trazado_196669" data-name="Trazado 196669" d="M1092.5,406.449l-8.5-15h17Z" fill="#483c8c"/>
  <path id="Trazado_196670" data-name="Trazado 196670" d="M601.653,224.851H598V235H596.5V224.851h-3.649v-1.227h8.8Z" fill="#12263f"/>
  <g id="Grupo_146948" data-name="Grupo 146948">
    <g id="Grupo_146947" data-name="Grupo 146947" clip-path="url(#clip-path)">
      <path id="Trazado_196671" data-name="Trazado 196671" d="M605.848,235.156a3.692,3.692,0,0,1-2.8-1.129,4.189,4.189,0,0,1-1.078-3.019v-.266a5.075,5.075,0,0,1,.48-2.246,3.74,3.74,0,0,1,1.344-1.547,3.379,3.379,0,0,1,1.871-.558,3.17,3.17,0,0,1,2.563,1.085,4.706,4.706,0,0,1,.914,3.11v.6h-5.727a3.008,3.008,0,0,0,.73,2.02,2.3,2.3,0,0,0,1.778.769,2.524,2.524,0,0,0,1.3-.312,3.24,3.24,0,0,0,.929-.828l.883.687a3.548,3.548,0,0,1-3.187,1.633m-.18-7.578a1.928,1.928,0,0,0-1.469.637,3.1,3.1,0,0,0-.734,1.785H607.7v-.109a2.752,2.752,0,0,0-.594-1.708,1.816,1.816,0,0,0-1.437-.6" fill="#12263f"/>
      <path id="Trazado_196672" data-name="Trazado 196672" d="M612.176,226.547l.039.937a3.122,3.122,0,0,1,2.508-1.093,2.417,2.417,0,0,1,2.414,1.359,3.2,3.2,0,0,1,1.1-.984,3.24,3.24,0,0,1,1.6-.375q2.781,0,2.828,2.945V235h-1.445v-5.578a1.939,1.939,0,0,0-.414-1.355,1.823,1.823,0,0,0-1.391-.45,1.914,1.914,0,0,0-1.336.481,1.947,1.947,0,0,0-.617,1.293V235H616v-5.539a1.613,1.613,0,0,0-1.805-1.844,1.934,1.934,0,0,0-1.945,1.211V235h-1.445v-8.453Z" fill="#12263f"/>
      <path id="Trazado_196673" data-name="Trazado 196673" d="M630.058,235a3.052,3.052,0,0,1-.2-.891,3.225,3.225,0,0,1-2.406,1.047,2.987,2.987,0,0,1-2.051-.707,2.29,2.29,0,0,1-.8-1.793,2.391,2.391,0,0,1,1-2.051,4.734,4.734,0,0,1,2.825-.73h1.406v-.664a1.627,1.627,0,0,0-.453-1.208,1.824,1.824,0,0,0-1.336-.449,2.1,2.1,0,0,0-1.3.391,1.15,1.15,0,0,0-.523.945h-1.454a1.99,1.99,0,0,1,.45-1.222,3.053,3.053,0,0,1,1.218-.934,4.088,4.088,0,0,1,1.692-.344,3.338,3.338,0,0,1,2.289.731,2.634,2.634,0,0,1,.859,2.011v3.891a4.756,4.756,0,0,0,.3,1.852V235Zm-2.4-1.1a2.534,2.534,0,0,0,1.289-.352,2.13,2.13,0,0,0,.883-.914V230.9H628.7q-2.656,0-2.656,1.555a1.315,1.315,0,0,0,.453,1.062,1.742,1.742,0,0,0,1.164.383" fill="#12263f"/>
      <path id="Trazado_196674" data-name="Trazado 196674" d="M638.465,232.758a1.063,1.063,0,0,0-.441-.91,4.275,4.275,0,0,0-1.539-.559,7.266,7.266,0,0,1-1.743-.562,2.49,2.49,0,0,1-.953-.782,1.863,1.863,0,0,1-.308-1.078,2.192,2.192,0,0,1,.879-1.757,3.425,3.425,0,0,1,2.246-.719,3.532,3.532,0,0,1,2.332.742,2.358,2.358,0,0,1,.894,1.9h-1.453a1.3,1.3,0,0,0-.5-1.023,1.89,1.89,0,0,0-1.269-.43,1.978,1.978,0,0,0-1.235.344,1.081,1.081,0,0,0-.445.9.878.878,0,0,0,.414.79,5.11,5.11,0,0,0,1.5.507,7.881,7.881,0,0,1,1.754.578,2.558,2.558,0,0,1,1,.809,1.99,1.99,0,0,1,.324,1.152,2.165,2.165,0,0,1-.906,1.817,3.8,3.8,0,0,1-2.351.683,4.26,4.26,0,0,1-1.8-.359,2.914,2.914,0,0,1-1.223-1,2.42,2.42,0,0,1-.441-1.394h1.445a1.5,1.5,0,0,0,.582,1.152,2.258,2.258,0,0,0,1.434.426,2.335,2.335,0,0,0,1.316-.332,1.023,1.023,0,0,0,.5-.887" fill="#12263f"/>
    </g>
  </g>
  <rect id="Rectángulo_45338" data-name="Rectángulo 45338" width="189" height="58" transform="translate(525.086 200.5)" fill="none" stroke="#483c8c" stroke-width="1"/>
  <path id="Trazado_196675" data-name="Trazado 196675" d="M588.473,317.851h-3.656V328h-1.492V317.851h-3.649v-1.227h8.8Z" fill="#12263f"/>
  <g id="Grupo_146950" data-name="Grupo 146950">
    <g id="Grupo_146949" data-name="Grupo 146949" clip-path="url(#clip-path)">
      <path id="Trazado_196676" data-name="Trazado 196676" d="M594.269,328a3.052,3.052,0,0,1-.2-.891,3.225,3.225,0,0,1-2.406,1.047,2.987,2.987,0,0,1-2.051-.707,2.29,2.29,0,0,1-.8-1.793,2.391,2.391,0,0,1,1-2.051,4.734,4.734,0,0,1,2.825-.73h1.406v-.664A1.627,1.627,0,0,0,593.59,321a1.824,1.824,0,0,0-1.336-.449,2.1,2.1,0,0,0-1.3.391,1.15,1.15,0,0,0-.523.945H588.98a1.99,1.99,0,0,1,.45-1.222,3.053,3.053,0,0,1,1.218-.934,4.088,4.088,0,0,1,1.692-.344,3.338,3.338,0,0,1,2.289.731,2.634,2.634,0,0,1,.859,2.011v3.891a4.756,4.756,0,0,0,.3,1.852V328Zm-2.4-1.1a2.534,2.534,0,0,0,1.289-.352,2.131,2.131,0,0,0,.883-.914V323.9H592.91q-2.656,0-2.656,1.555a1.315,1.315,0,0,0,.453,1.062,1.743,1.743,0,0,0,1.164.383" fill="#12263f"/>
      <rect id="Rectángulo_45339" data-name="Rectángulo 45339" width="1.445" height="12" transform="translate(597.879 316)" fill="#12263f"/>
      <path id="Trazado_196677" data-name="Trazado 196677" d="M605.145,328.156a3.692,3.692,0,0,1-2.8-1.129,4.189,4.189,0,0,1-1.078-3.019v-.266a5.075,5.075,0,0,1,.48-2.246,3.74,3.74,0,0,1,1.344-1.547,3.379,3.379,0,0,1,1.871-.558,3.17,3.17,0,0,1,2.563,1.085,4.706,4.706,0,0,1,.914,3.11v.6h-5.727a3.008,3.008,0,0,0,.73,2.02,2.3,2.3,0,0,0,1.778.769,2.524,2.524,0,0,0,1.3-.312,3.24,3.24,0,0,0,.929-.828l.883.687a3.548,3.548,0,0,1-3.187,1.633m-.18-7.578a1.928,1.928,0,0,0-1.469.637,3.1,3.1,0,0,0-.734,1.785H607v-.109a2.752,2.752,0,0,0-.594-1.708,1.816,1.816,0,0,0-1.437-.605" fill="#12263f"/>
      <path id="Trazado_196678" data-name="Trazado 196678" d="M615.035,325.758a1.063,1.063,0,0,0-.441-.91,4.276,4.276,0,0,0-1.539-.559,7.264,7.264,0,0,1-1.743-.562,2.489,2.489,0,0,1-.953-.782,1.863,1.863,0,0,1-.308-1.078,2.192,2.192,0,0,1,.879-1.757,3.425,3.425,0,0,1,2.246-.719,3.533,3.533,0,0,1,2.332.742,2.358,2.358,0,0,1,.894,1.9h-1.453a1.3,1.3,0,0,0-.5-1.023,1.89,1.89,0,0,0-1.269-.43,1.977,1.977,0,0,0-1.235.344,1.081,1.081,0,0,0-.445.9.878.878,0,0,0,.414.79,5.109,5.109,0,0,0,1.5.507,7.879,7.879,0,0,1,1.754.578,2.558,2.558,0,0,1,1,.809,1.99,1.99,0,0,1,.324,1.152,2.165,2.165,0,0,1-.906,1.817,3.8,3.8,0,0,1-2.351.683,4.26,4.26,0,0,1-1.8-.359,2.914,2.914,0,0,1-1.223-1,2.42,2.42,0,0,1-.441-1.394h1.445a1.5,1.5,0,0,0,.582,1.152,2.258,2.258,0,0,0,1.434.426,2.335,2.335,0,0,0,1.316-.332,1.023,1.023,0,0,0,.5-.887" fill="#12263f"/>
      <path id="Trazado_196679" data-name="Trazado 196679" d="M625.715,326.976a2.081,2.081,0,0,0,1.352-.469,1.65,1.65,0,0,0,.64-1.172h1.367a2.611,2.611,0,0,1-.5,1.383,3.29,3.29,0,0,1-1.23,1.047,3.544,3.544,0,0,1-1.629.391A3.481,3.481,0,0,1,622.969,327a4.588,4.588,0,0,1-1.02-3.152v-.242a5.087,5.087,0,0,1,.453-2.2,3.457,3.457,0,0,1,1.3-1.493,3.7,3.7,0,0,1,2-.531,3.387,3.387,0,0,1,2.363.852,3.041,3.041,0,0,1,1,2.211h-1.367a1.994,1.994,0,0,0-.621-1.348,1.929,1.929,0,0,0-1.379-.527,2.022,2.022,0,0,0-1.707.793,3.719,3.719,0,0,0-.6,2.292v.274a3.65,3.65,0,0,0,.6,2.25,2.033,2.033,0,0,0,1.719.789" fill="#12263f"/>
      <path id="Trazado_196680" data-name="Trazado 196680" d="M630.317,323.7a4.984,4.984,0,0,1,.488-2.234,3.641,3.641,0,0,1,1.36-1.532,3.7,3.7,0,0,1,1.988-.539,3.565,3.565,0,0,1,2.793,1.2,4.6,4.6,0,0,1,1.066,3.179v.1a5.05,5.05,0,0,1-.472,2.215,3.6,3.6,0,0,1-1.352,1.527,3.748,3.748,0,0,1-2.02.547,3.555,3.555,0,0,1-2.785-1.2,4.576,4.576,0,0,1-1.066-3.164Zm1.453.172a3.618,3.618,0,0,0,.652,2.258,2.211,2.211,0,0,0,3.5-.012,3.95,3.95,0,0,0,.649-2.418,3.61,3.61,0,0,0-.66-2.254,2.1,2.1,0,0,0-1.754-.863,2.078,2.078,0,0,0-1.727.851,3.929,3.929,0,0,0-.656,2.438" fill="#12263f"/>
      <path id="Trazado_196681" data-name="Trazado 196681" d="M641.184,319.547l.039.937a3.122,3.122,0,0,1,2.508-1.093,2.417,2.417,0,0,1,2.414,1.359,3.2,3.2,0,0,1,1.1-.984,3.24,3.24,0,0,1,1.6-.375q2.781,0,2.828,2.945V328h-1.445v-5.578a1.939,1.939,0,0,0-.414-1.355,1.823,1.823,0,0,0-1.391-.45,1.915,1.915,0,0,0-1.336.481,1.947,1.947,0,0,0-.617,1.293V328h-1.453v-5.539a1.613,1.613,0,0,0-1.805-1.844,1.934,1.934,0,0,0-1.945,1.211V328h-1.445v-8.453Z" fill="#12263f"/>
      <path id="Trazado_196682" data-name="Trazado 196682" d="M653.465,323.7a4.984,4.984,0,0,1,.488-2.234,3.641,3.641,0,0,1,1.36-1.532,3.7,3.7,0,0,1,1.988-.539,3.565,3.565,0,0,1,2.793,1.2,4.6,4.6,0,0,1,1.066,3.179v.1a5.05,5.05,0,0,1-.472,2.215,3.6,3.6,0,0,1-1.352,1.527,3.749,3.749,0,0,1-2.02.547,3.555,3.555,0,0,1-2.785-1.2,4.576,4.576,0,0,1-1.066-3.164Zm1.453.172a3.618,3.618,0,0,0,.652,2.258,2.211,2.211,0,0,0,3.5-.012,3.95,3.95,0,0,0,.649-2.418,3.61,3.61,0,0,0-.66-2.254,2.1,2.1,0,0,0-1.754-.863,2.078,2.078,0,0,0-1.727.851,3.93,3.93,0,0,0-.656,2.438" fill="#12263f"/>
    </g>
  </g>
  <rect id="Rectángulo_45341" data-name="Rectángulo 45341" width="294.586" height="63" transform="translate(0 428)" fill="#fde9e0"/>
  <rect id="Rectángulo_45342" data-name="Rectángulo 45342" width="294.586" height="63" transform="translate(314.586 428)" fill="#fde9e0"/>
  <rect id="Rectángulo_45343" data-name="Rectángulo 45343" width="294.586" height="63" transform="translate(629.586 428)" fill="#fde9e0"/>
  <rect id="Rectángulo_45344" data-name="Rectángulo 45344" width="294.586" height="63" transform="translate(945 428)" fill="#fde9e0"/>
  <path id="Trazado_196683" data-name="Trazado 196683" d="M51.656,465H49.765v-9.139l-2.789.951v-1.593l4.438-1.633h.242Z" fill="#12263f"/>
  <g id="Grupo_146952" data-name="Grupo 146952">
    <g id="Grupo_146951" data-name="Grupo 146951" clip-path="url(#clip-path)">
      <path id="Trazado_196684" data-name="Trazado 196684" d="M56.914,463a1.087,1.087,0,0,1,.82.3,1.043,1.043,0,0,1,.289.754,1.006,1.006,0,0,1-.289.738,1.28,1.28,0,0,1-1.625,0,.992.992,0,0,1-.3-.742,1.044,1.044,0,0,1,.29-.754,1.074,1.074,0,0,1,.812-.3" fill="#12263f"/>
      <path id="Trazado_196685" data-name="Trazado 196685" d="M66.344,460.781V465H64.367V453.625h4.352a4.4,4.4,0,0,1,3.027.993,3.341,3.341,0,0,1,1.121,2.628,3.229,3.229,0,0,1-1.1,2.6,4.617,4.617,0,0,1-3.074.931Zm0-1.594h2.375a2.337,2.337,0,0,0,1.609-.5,1.824,1.824,0,0,0,.555-1.434,1.966,1.966,0,0,0-.562-1.472,2.168,2.168,0,0,0-1.547-.567h-2.43Z" fill="#12263f"/>
      <path id="Trazado_196686" data-name="Trazado 196686" d="M74.414,454.344a1.017,1.017,0,0,1,.278-.733,1.046,1.046,0,0,1,.793-.291,1.059,1.059,0,0,1,.8.291,1.012,1.012,0,0,1,.282.733.985.985,0,0,1-.282.72,1.061,1.061,0,0,1-.8.287,1.048,1.048,0,0,1-.793-.287.99.99,0,0,1-.278-.72M76.43,465h-1.9v-8.453h1.9Z" fill="#12263f"/>
      <rect id="Rectángulo_45345" data-name="Rectángulo 45345" width="1.898" height="12" transform="translate(78.618 453)" fill="#12263f"/>
      <path id="Trazado_196687" data-name="Trazado 196687" d="M87.633,465a2.923,2.923,0,0,1-.219-.789,3.195,3.195,0,0,1-4.3.219,2.326,2.326,0,0,1-.8-1.8,2.4,2.4,0,0,1,1-2.074,4.86,4.86,0,0,1,2.871-.723h1.164v-.555a1.477,1.477,0,0,0-.368-1.05,1.456,1.456,0,0,0-1.117-.395,1.678,1.678,0,0,0-1.062.324,1,1,0,0,0-.414.825h-1.9a2.107,2.107,0,0,1,.461-1.3,3.062,3.062,0,0,1,1.254-.949,4.387,4.387,0,0,1,1.77-.344,3.55,3.55,0,0,1,2.367.746,2.659,2.659,0,0,1,.906,2.1v3.812a4.326,4.326,0,0,0,.32,1.82V465Zm-2.086-1.367a2.164,2.164,0,0,0,1.059-.273,1.834,1.834,0,0,0,.746-.735v-1.594H86.328a2.8,2.8,0,0,0-1.586.368,1.189,1.189,0,0,0-.531,1.039,1.11,1.11,0,0,0,.363.871,1.41,1.41,0,0,0,.973.324" fill="#12263f"/>
      <path id="Trazado_196688" data-name="Trazado 196688" d="M95.664,458.281a4.663,4.663,0,0,0-.773-.062,1.741,1.741,0,0,0-1.758,1V465h-1.9v-8.453h1.813l.047.945A2.139,2.139,0,0,1,95,456.39a1.778,1.778,0,0,1,.672.11Z" fill="#12263f"/>
      <path id="Trazado_196689" data-name="Trazado 196689" d="M100.438,465.156a3.926,3.926,0,0,1-2.926-1.137,4.118,4.118,0,0,1-1.121-3.027v-.234a5.066,5.066,0,0,1,.488-2.262,3.712,3.712,0,0,1,1.371-1.551,3.622,3.622,0,0,1,1.969-.554,3.319,3.319,0,0,1,2.668,1.1,4.661,4.661,0,0,1,.941,3.117v.766H98.305a2.535,2.535,0,0,0,.7,1.656,2.1,2.1,0,0,0,1.543.61,2.571,2.571,0,0,0,2.125-1.055l1.023.976a3.411,3.411,0,0,1-1.355,1.176,4.241,4.241,0,0,1-1.9.418m-.227-7.242a1.6,1.6,0,0,0-1.262.547,2.829,2.829,0,0,0-.613,1.523h3.617v-.14a2.308,2.308,0,0,0-.508-1.442,1.587,1.587,0,0,0-1.234-.488" fill="#12263f"/>
      <path id="Trazado_196690" data-name="Trazado 196690" d="M110.039,462.7a.86.86,0,0,0-.418-.773,4.466,4.466,0,0,0-1.387-.469,7.163,7.163,0,0,1-1.617-.516,2.158,2.158,0,0,1-1.422-1.992,2.248,2.248,0,0,1,.922-1.828,3.647,3.647,0,0,1,2.344-.734,3.792,3.792,0,0,1,2.449.75,2.381,2.381,0,0,1,.934,1.945h-1.9a1.169,1.169,0,0,0-.406-.91,1.553,1.553,0,0,0-1.078-.364,1.688,1.688,0,0,0-1.02.289.912.912,0,0,0-.394.774.77.77,0,0,0,.367.68,5.059,5.059,0,0,0,1.484.488,7.012,7.012,0,0,1,1.754.586,2.485,2.485,0,0,1,.946.816,2.088,2.088,0,0,1,.308,1.156,2.2,2.2,0,0,1-.945,1.848,4.027,4.027,0,0,1-2.477.707,4.365,4.365,0,0,1-1.851-.375,3.049,3.049,0,0,1-1.266-1.031,2.443,2.443,0,0,1-.453-1.414h1.844a1.335,1.335,0,0,0,.508,1.035,1.972,1.972,0,0,0,1.242.363,1.91,1.91,0,0,0,1.14-.285.88.88,0,0,0,.391-.746" fill="#12263f"/>
      <path id="Trazado_196691" data-name="Trazado 196691" d="M117.188,460.711a5.021,5.021,0,0,1,.906-3.137,2.9,2.9,0,0,1,2.429-1.183,2.759,2.759,0,0,1,2.172.937V453h1.9v12h-1.719l-.094-.875a2.8,2.8,0,0,1-2.273,1.031,2.884,2.884,0,0,1-2.4-1.2,5.2,5.2,0,0,1-.918-3.25m1.9.164a3.519,3.519,0,0,0,.5,2.012,1.611,1.611,0,0,0,1.41.722,1.792,1.792,0,0,0,1.7-1.039v-3.609a1.765,1.765,0,0,0-1.687-1.016,1.619,1.619,0,0,0-1.422.731,3.921,3.921,0,0,0-.5,2.2" fill="#12263f"/>
      <path id="Trazado_196692" data-name="Trazado 196692" d="M130.3,465.156a3.926,3.926,0,0,1-2.926-1.137,4.118,4.118,0,0,1-1.121-3.027v-.234a5.066,5.066,0,0,1,.488-2.262,3.712,3.712,0,0,1,1.371-1.551,3.622,3.622,0,0,1,1.969-.554,3.319,3.319,0,0,1,2.668,1.1,4.661,4.661,0,0,1,.941,3.117v.766h-5.523a2.535,2.535,0,0,0,.7,1.656,2.1,2.1,0,0,0,1.543.61,2.571,2.571,0,0,0,2.125-1.055l1.023.976a3.411,3.411,0,0,1-1.355,1.176,4.241,4.241,0,0,1-1.9.418m-.227-7.242a1.6,1.6,0,0,0-1.262.547,2.829,2.829,0,0,0-.613,1.523h3.617v-.14a2.308,2.308,0,0,0-.508-1.442,1.587,1.587,0,0,0-1.234-.488" fill="#12263f"/>
      <rect id="Rectángulo_45346" data-name="Rectángulo 45346" width="1.898" height="12" transform="translate(139.266 453)" fill="#12263f"/>
      <path id="Trazado_196693" data-name="Trazado 196693" d="M148.281,465a2.923,2.923,0,0,1-.219-.789,3.195,3.195,0,0,1-4.3.219,2.326,2.326,0,0,1-.8-1.8,2.4,2.4,0,0,1,1-2.074,4.86,4.86,0,0,1,2.871-.723H148v-.555a1.477,1.477,0,0,0-.368-1.05,1.456,1.456,0,0,0-1.117-.395,1.678,1.678,0,0,0-1.062.324,1,1,0,0,0-.414.825h-1.9a2.107,2.107,0,0,1,.461-1.3,3.062,3.062,0,0,1,1.254-.949,4.388,4.388,0,0,1,1.77-.344,3.551,3.551,0,0,1,2.367.746,2.659,2.659,0,0,1,.906,2.1v3.812a4.326,4.326,0,0,0,.32,1.82V465Zm-2.086-1.367a2.164,2.164,0,0,0,1.059-.273,1.834,1.834,0,0,0,.746-.735v-1.594h-1.024a2.8,2.8,0,0,0-1.586.368,1.189,1.189,0,0,0-.531,1.039,1.11,1.11,0,0,0,.363.871,1.41,1.41,0,0,0,.973.324" fill="#12263f"/>
      <path id="Trazado_196694" data-name="Trazado 196694" d="M163.289,460.859a5.083,5.083,0,0,1-.878,3.133,2.865,2.865,0,0,1-2.418,1.164,2.759,2.759,0,0,1-2.313-1.07l-.094.914h-1.718V453h1.9v4.359a2.751,2.751,0,0,1,2.211-.969,2.9,2.9,0,0,1,2.43,1.149,5.164,5.164,0,0,1,.882,3.211Zm-1.9-.164a3.6,3.6,0,0,0-.484-2.063,1.616,1.616,0,0,0-1.407-.687,1.761,1.761,0,0,0-1.734,1.078v3.484a1.78,1.78,0,0,0,1.75,1.1,1.6,1.6,0,0,0,1.375-.664,3.48,3.48,0,0,0,.5-2.008Z" fill="#12263f"/>
      <path id="Trazado_196695" data-name="Trazado 196695" d="M164.883,454.344a1.021,1.021,0,0,1,.277-.733,1.047,1.047,0,0,1,.793-.291,1.06,1.06,0,0,1,.8.291,1.011,1.011,0,0,1,.281.733.984.984,0,0,1-.281.72,1.062,1.062,0,0,1-.8.287,1.049,1.049,0,0,1-.793-.287.993.993,0,0,1-.277-.72M166.9,465H165v-8.453h1.9Z" fill="#12263f"/>
      <path id="Trazado_196696" data-name="Trazado 196696" d="M168.61,460.7a4.985,4.985,0,0,1,.492-2.238,3.6,3.6,0,0,1,1.383-1.532,3.9,3.9,0,0,1,2.046-.535,3.691,3.691,0,0,1,2.778,1.1,4.329,4.329,0,0,1,1.152,2.922l.008.445a5.018,5.018,0,0,1-.481,2.234,3.546,3.546,0,0,1-1.375,1.524,3.926,3.926,0,0,1-2.066.539,3.667,3.667,0,0,1-2.863-1.192,4.554,4.554,0,0,1-1.074-3.175Zm1.9.164a3.408,3.408,0,0,0,.539,2.043,1.752,1.752,0,0,0,1.5.738,1.733,1.733,0,0,0,1.5-.75,3.758,3.758,0,0,0,.535-2.2,3.361,3.361,0,0,0-.55-2.031,1.762,1.762,0,0,0-1.5-.75,1.741,1.741,0,0,0-1.476.738,3.688,3.688,0,0,0-.547,2.207" fill="#12263f"/>
      <path id="Trazado_196697" data-name="Trazado 196697" d="M182.813,462.7a.86.86,0,0,0-.418-.773,4.466,4.466,0,0,0-1.387-.469,7.163,7.163,0,0,1-1.617-.516,2.158,2.158,0,0,1-1.422-1.992,2.248,2.248,0,0,1,.922-1.828,3.647,3.647,0,0,1,2.344-.734,3.792,3.792,0,0,1,2.449.75,2.381,2.381,0,0,1,.934,1.945h-1.9a1.169,1.169,0,0,0-.406-.91,1.553,1.553,0,0,0-1.078-.364,1.688,1.688,0,0,0-1.02.289.912.912,0,0,0-.394.774.77.77,0,0,0,.367.68,5.059,5.059,0,0,0,1.484.488,7.011,7.011,0,0,1,1.754.586,2.485,2.485,0,0,1,.946.816,2.088,2.088,0,0,1,.308,1.156,2.2,2.2,0,0,1-.945,1.848,4.027,4.027,0,0,1-2.477.707,4.365,4.365,0,0,1-1.851-.375,3.049,3.049,0,0,1-1.266-1.031,2.443,2.443,0,0,1-.453-1.414h1.844a1.336,1.336,0,0,0,.508,1.035,1.972,1.972,0,0,0,1.242.363,1.91,1.91,0,0,0,1.14-.285.88.88,0,0,0,.391-.746" fill="#12263f"/>
      <path id="Trazado_196698" data-name="Trazado 196698" d="M190.055,465.156a3.926,3.926,0,0,1-2.926-1.137,4.118,4.118,0,0,1-1.121-3.027v-.234a5.066,5.066,0,0,1,.488-2.262,3.712,3.712,0,0,1,1.371-1.551,3.622,3.622,0,0,1,1.969-.554,3.319,3.319,0,0,1,2.668,1.1,4.661,4.661,0,0,1,.941,3.117v.766h-5.523a2.535,2.535,0,0,0,.7,1.656,2.1,2.1,0,0,0,1.543.61,2.571,2.571,0,0,0,2.125-1.055l1.023.976a3.411,3.411,0,0,1-1.355,1.176,4.241,4.241,0,0,1-1.9.418m-.227-7.242a1.6,1.6,0,0,0-1.262.547,2.829,2.829,0,0,0-.613,1.523h3.617v-.14a2.308,2.308,0,0,0-.508-1.442,1.587,1.587,0,0,0-1.234-.488" fill="#12263f"/>
      <path id="Trazado_196699" data-name="Trazado 196699" d="M194.586,460.711a4.948,4.948,0,0,1,.926-3.145,2.97,2.97,0,0,1,2.457-1.175,2.787,2.787,0,0,1,2.274,1.007l.086-.851h1.71v8.2A3.4,3.4,0,0,1,201,467.367a3.941,3.941,0,0,1-2.793.961,4.5,4.5,0,0,1-1.816-.387,3.217,3.217,0,0,1-1.348-1.011l.9-1.141a2.715,2.715,0,0,0,2.156,1.039,2.1,2.1,0,0,0,1.492-.512,1.96,1.96,0,0,0,.547-1.5v-.571a2.793,2.793,0,0,1-2.187.914,2.964,2.964,0,0,1-2.426-1.179,5.1,5.1,0,0,1-.942-3.266m1.891.164a3.4,3.4,0,0,0,.52,2,1.669,1.669,0,0,0,1.441.73,1.827,1.827,0,0,0,1.7-.984v-3.719a1.8,1.8,0,0,0-1.687-.961,1.676,1.676,0,0,0-1.457.742,3.809,3.809,0,0,0-.52,2.188" fill="#12263f"/>
      <path id="Trazado_196700" data-name="Trazado 196700" d="M209.109,464.172a2.946,2.946,0,0,1-2.375.984,2.624,2.624,0,0,1-2.082-.8,3.42,3.42,0,0,1-.707-2.328v-5.477h1.9V462q0,1.609,1.336,1.61a1.879,1.879,0,0,0,1.868-.993v-6.07h1.9V465h-1.789Z" fill="#12263f"/>
      <path id="Trazado_196701" data-name="Trazado 196701" d="M217.3,458.281a4.663,4.663,0,0,0-.773-.062,1.741,1.741,0,0,0-1.758,1V465h-1.9v-8.453h1.813l.047.945a2.139,2.139,0,0,1,1.906-1.1,1.778,1.778,0,0,1,.672.11Z" fill="#12263f"/>
      <path id="Trazado_196702" data-name="Trazado 196702" d="M218.508,454.344a1.021,1.021,0,0,1,.277-.733,1.047,1.047,0,0,1,.793-.291,1.06,1.06,0,0,1,.8.291,1.011,1.011,0,0,1,.281.733.984.984,0,0,1-.281.72,1.062,1.062,0,0,1-.8.287,1.049,1.049,0,0,1-.793-.287.993.993,0,0,1-.277-.72M220.524,465h-1.9v-8.453h1.9Z" fill="#12263f"/>
      <path id="Trazado_196703" data-name="Trazado 196703" d="M222.235,460.711a5.021,5.021,0,0,1,.906-3.137,2.9,2.9,0,0,1,2.429-1.183,2.759,2.759,0,0,1,2.172.937V453h1.9v12h-1.719l-.094-.875a2.8,2.8,0,0,1-2.273,1.031,2.884,2.884,0,0,1-2.4-1.2,5.2,5.2,0,0,1-.918-3.25m1.9.164a3.519,3.519,0,0,0,.5,2.012,1.611,1.611,0,0,0,1.41.722,1.792,1.792,0,0,0,1.7-1.039v-3.609a1.765,1.765,0,0,0-1.687-1.016,1.619,1.619,0,0,0-1.422.731,3.921,3.921,0,0,0-.5,2.2" fill="#12263f"/>
      <path id="Trazado_196704" data-name="Trazado 196704" d="M236.672,465a2.923,2.923,0,0,1-.219-.789,3.195,3.195,0,0,1-4.3.219,2.326,2.326,0,0,1-.8-1.8,2.4,2.4,0,0,1,1-2.074,4.86,4.86,0,0,1,2.871-.723h1.164v-.555a1.477,1.477,0,0,0-.368-1.05,1.456,1.456,0,0,0-1.117-.395,1.678,1.678,0,0,0-1.062.324,1,1,0,0,0-.414.825h-1.9a2.107,2.107,0,0,1,.461-1.3,3.062,3.062,0,0,1,1.254-.949,4.387,4.387,0,0,1,1.77-.344,3.55,3.55,0,0,1,2.367.746,2.659,2.659,0,0,1,.906,2.1v3.812a4.326,4.326,0,0,0,.32,1.82V465Zm-2.086-1.367a2.164,2.164,0,0,0,1.059-.273,1.834,1.834,0,0,0,.746-.735v-1.594h-1.024a2.8,2.8,0,0,0-1.586.368,1.189,1.189,0,0,0-.531,1.039,1.11,1.11,0,0,0,.363.871,1.41,1.41,0,0,0,.973.324" fill="#12263f"/>
      <path id="Trazado_196705" data-name="Trazado 196705" d="M239.922,460.711a5.021,5.021,0,0,1,.906-3.137,2.9,2.9,0,0,1,2.429-1.183,2.759,2.759,0,0,1,2.172.937V453h1.9v12h-1.719l-.094-.875a2.8,2.8,0,0,1-2.273,1.031,2.884,2.884,0,0,1-2.4-1.2,5.2,5.2,0,0,1-.918-3.25m1.9.164a3.519,3.519,0,0,0,.5,2.012,1.611,1.611,0,0,0,1.41.722,1.792,1.792,0,0,0,1.7-1.039v-3.609a1.765,1.765,0,0,0-1.687-1.016,1.619,1.619,0,0,0-1.422.731,3.921,3.921,0,0,0-.5,2.2" fill="#12263f"/>
      <path id="Trazado_196706" data-name="Trazado 196706" d="M342.531,465h-7.648v-1.3l3.789-4.132a9.522,9.522,0,0,0,1.168-1.528,2.482,2.482,0,0,0,.347-1.23,1.868,1.868,0,0,0-.457-1.313,1.585,1.585,0,0,0-1.23-.5,1.827,1.827,0,0,0-1.43.563,2.208,2.208,0,0,0-.508,1.539h-1.9a3.719,3.719,0,0,1,.472-1.871,3.251,3.251,0,0,1,1.352-1.293,4.294,4.294,0,0,1,2.027-.461,3.85,3.85,0,0,1,2.614.832,2.89,2.89,0,0,1,.957,2.3,3.9,3.9,0,0,1-.481,1.785,10.162,10.162,0,0,1-1.574,2.121l-2.781,2.976h5.281Z" fill="#12263f"/>
      <path id="Trazado_196707" data-name="Trazado 196707" d="M345.281,463a1.087,1.087,0,0,1,.82.3,1.043,1.043,0,0,1,.289.754,1.006,1.006,0,0,1-.289.738,1.28,1.28,0,0,1-1.625,0,.992.992,0,0,1-.3-.742,1.044,1.044,0,0,1,.29-.754,1.074,1.074,0,0,1,.812-.3" fill="#12263f"/>
      <path id="Trazado_196708" data-name="Trazado 196708" d="M354.711,460.781V465h-1.977V453.625h4.352a4.4,4.4,0,0,1,3.027.993,3.341,3.341,0,0,1,1.121,2.628,3.229,3.229,0,0,1-1.1,2.6,4.617,4.617,0,0,1-3.074.931Zm0-1.594h2.375a2.337,2.337,0,0,0,1.609-.5,1.824,1.824,0,0,0,.555-1.434,1.966,1.966,0,0,0-.562-1.472,2.168,2.168,0,0,0-1.547-.567h-2.43Z" fill="#12263f"/>
      <path id="Trazado_196709" data-name="Trazado 196709" d="M367.2,458.281a4.663,4.663,0,0,0-.773-.062,1.741,1.741,0,0,0-1.758,1V465h-1.9v-8.453h1.813l.047.945a2.139,2.139,0,0,1,1.906-1.1,1.778,1.778,0,0,1,.672.11Z" fill="#12263f"/>
      <path id="Trazado_196710" data-name="Trazado 196710" d="M367.766,460.7a4.985,4.985,0,0,1,.492-2.238,3.6,3.6,0,0,1,1.383-1.532,3.9,3.9,0,0,1,2.046-.535,3.691,3.691,0,0,1,2.778,1.1,4.329,4.329,0,0,1,1.152,2.922l.008.445a5.019,5.019,0,0,1-.481,2.234,3.546,3.546,0,0,1-1.375,1.524,3.926,3.926,0,0,1-2.066.539,3.667,3.667,0,0,1-2.863-1.192,4.554,4.554,0,0,1-1.074-3.175Zm1.9.164a3.408,3.408,0,0,0,.539,2.043,1.752,1.752,0,0,0,1.5.738,1.733,1.733,0,0,0,1.5-.75,3.758,3.758,0,0,0,.535-2.2,3.361,3.361,0,0,0-.55-2.031,1.762,1.762,0,0,0-1.5-.75,1.741,1.741,0,0,0-1.476.738,3.688,3.688,0,0,0-.547,2.207" fill="#12263f"/>
      <path id="Trazado_196711" data-name="Trazado 196711" d="M379.609,454.492v2.055H381.1v1.406h-1.492v4.719a1.038,1.038,0,0,0,.191.7.89.89,0,0,0,.684.215,2.985,2.985,0,0,0,.664-.078v1.468a4.673,4.673,0,0,1-1.25.18q-2.187,0-2.187-2.414v-4.789H376.32v-1.406h1.391v-2.055Z" fill="#12263f"/>
      <path id="Trazado_196712" data-name="Trazado 196712" d="M381.961,460.7a4.985,4.985,0,0,1,.492-2.238,3.6,3.6,0,0,1,1.383-1.532,3.9,3.9,0,0,1,2.046-.535,3.691,3.691,0,0,1,2.778,1.1,4.329,4.329,0,0,1,1.152,2.922l.008.445a5.018,5.018,0,0,1-.481,2.234,3.546,3.546,0,0,1-1.375,1.524,3.926,3.926,0,0,1-2.066.539,3.667,3.667,0,0,1-2.863-1.192,4.554,4.554,0,0,1-1.074-3.175Zm1.9.164a3.408,3.408,0,0,0,.539,2.043,1.752,1.752,0,0,0,1.5.738,1.733,1.733,0,0,0,1.5-.75,3.758,3.758,0,0,0,.535-2.2,3.361,3.361,0,0,0-.55-2.031,1.762,1.762,0,0,0-1.5-.75,1.741,1.741,0,0,0-1.476.738,3.688,3.688,0,0,0-.547,2.207" fill="#12263f"/>
      <path id="Trazado_196713" data-name="Trazado 196713" d="M394.9,463.64a1.718,1.718,0,0,0,1.18-.414,1.416,1.416,0,0,0,.5-1.023h1.789a2.791,2.791,0,0,1-.492,1.472,3.233,3.233,0,0,1-1.25,1.082,3.725,3.725,0,0,1-1.7.4,3.6,3.6,0,0,1-2.812-1.149,4.553,4.553,0,0,1-1.039-3.172v-.195a4.484,4.484,0,0,1,1.031-3.09,3.574,3.574,0,0,1,2.813-1.16,3.473,3.473,0,0,1,2.457.879,3.15,3.15,0,0,1,1,2.309h-1.789a1.745,1.745,0,0,0-.5-1.2,1.6,1.6,0,0,0-1.184-.469,1.671,1.671,0,0,0-1.422.668,3.411,3.411,0,0,0-.508,2.028v.3a3.462,3.462,0,0,0,.5,2.051,1.672,1.672,0,0,0,1.434.676" fill="#12263f"/>
      <path id="Trazado_196714" data-name="Trazado 196714" d="M399.445,460.7a4.985,4.985,0,0,1,.492-2.238,3.6,3.6,0,0,1,1.383-1.532,3.9,3.9,0,0,1,2.046-.535,3.691,3.691,0,0,1,2.778,1.1,4.329,4.329,0,0,1,1.152,2.922l.008.445a5.018,5.018,0,0,1-.481,2.234,3.546,3.546,0,0,1-1.375,1.524,3.926,3.926,0,0,1-2.066.539,3.667,3.667,0,0,1-2.863-1.192,4.554,4.554,0,0,1-1.074-3.175Zm1.9.164a3.408,3.408,0,0,0,.539,2.043,1.752,1.752,0,0,0,1.5.738,1.733,1.733,0,0,0,1.5-.75,3.758,3.758,0,0,0,.535-2.2,3.361,3.361,0,0,0-.55-2.031,1.762,1.762,0,0,0-1.5-.75,1.741,1.741,0,0,0-1.476.738,3.688,3.688,0,0,0-.547,2.207" fill="#12263f"/>
      <rect id="Rectángulo_45347" data-name="Rectángulo 45347" width="1.898" height="12" transform="translate(409.031 453)" fill="#12263f"/>
      <path id="Trazado_196715" data-name="Trazado 196715" d="M412.641,460.7a4.985,4.985,0,0,1,.492-2.238,3.6,3.6,0,0,1,1.383-1.532,3.9,3.9,0,0,1,2.046-.535,3.691,3.691,0,0,1,2.778,1.1,4.329,4.329,0,0,1,1.152,2.922l.008.445a5.019,5.019,0,0,1-.481,2.234,3.546,3.546,0,0,1-1.375,1.524,3.926,3.926,0,0,1-2.066.539,3.667,3.667,0,0,1-2.863-1.192,4.554,4.554,0,0,1-1.074-3.175Zm1.9.164a3.408,3.408,0,0,0,.539,2.043,1.752,1.752,0,0,0,1.5.738,1.733,1.733,0,0,0,1.5-.75,3.758,3.758,0,0,0,.535-2.2,3.361,3.361,0,0,0-.55-2.031,1.762,1.762,0,0,0-1.5-.75,1.741,1.741,0,0,0-1.476.738,3.688,3.688,0,0,0-.547,2.207" fill="#12263f"/>
      <path id="Trazado_196716" data-name="Trazado 196716" d="M425.734,460.711a5.021,5.021,0,0,1,.906-3.137,2.9,2.9,0,0,1,2.429-1.183,2.759,2.759,0,0,1,2.172.937V453h1.9v12h-1.719l-.094-.875a2.8,2.8,0,0,1-2.273,1.031,2.884,2.884,0,0,1-2.4-1.2,5.2,5.2,0,0,1-.918-3.25m1.9.164a3.519,3.519,0,0,0,.5,2.012,1.611,1.611,0,0,0,1.41.722,1.792,1.792,0,0,0,1.7-1.039v-3.609a1.765,1.765,0,0,0-1.687-1.016,1.619,1.619,0,0,0-1.422.731,3.921,3.921,0,0,0-.5,2.2" fill="#12263f"/>
      <path id="Trazado_196717" data-name="Trazado 196717" d="M438.844,465.156a3.926,3.926,0,0,1-2.926-1.137,4.118,4.118,0,0,1-1.121-3.027v-.234a5.066,5.066,0,0,1,.488-2.262,3.711,3.711,0,0,1,1.371-1.551,3.622,3.622,0,0,1,1.969-.554,3.319,3.319,0,0,1,2.668,1.1,4.661,4.661,0,0,1,.941,3.117v.766h-5.523a2.535,2.535,0,0,0,.7,1.656,2.1,2.1,0,0,0,1.543.61,2.571,2.571,0,0,0,2.125-1.055l1.023.976a3.411,3.411,0,0,1-1.355,1.176,4.241,4.241,0,0,1-1.9.418m-.227-7.242a1.6,1.6,0,0,0-1.262.547,2.829,2.829,0,0,0-.613,1.523h3.617v-.14a2.308,2.308,0,0,0-.508-1.442,1.588,1.588,0,0,0-1.234-.488" fill="#12263f"/>
      <path id="Trazado_196718" data-name="Trazado 196718" d="M455.094,460.859a5.029,5.029,0,0,1-.891,3.129,3.094,3.094,0,0,1-4.617.254v4.008h-1.9v-11.7h1.75l.078.859a2.79,2.79,0,0,1,2.274-1.016,2.881,2.881,0,0,1,2.426,1.153,5.167,5.167,0,0,1,.879,3.2ZM453.2,460.7a3.526,3.526,0,0,0-.5-2.008,1.637,1.637,0,0,0-1.441-.742,1.745,1.745,0,0,0-1.672.961v3.75a1.763,1.763,0,0,0,1.687.984,1.636,1.636,0,0,0,1.418-.73,3.884,3.884,0,0,0,.512-2.215" fill="#12263f"/>
      <path id="Trazado_196719" data-name="Trazado 196719" d="M461.125,458.281a4.663,4.663,0,0,0-.773-.062,1.741,1.741,0,0,0-1.758,1V465h-1.9v-8.453h1.813l.047.945a2.139,2.139,0,0,1,1.906-1.1,1.778,1.778,0,0,1,.672.11Z" fill="#12263f"/>
      <path id="Trazado_196720" data-name="Trazado 196720" d="M461.688,460.7a4.985,4.985,0,0,1,.492-2.238,3.6,3.6,0,0,1,1.383-1.532,3.9,3.9,0,0,1,2.046-.535,3.691,3.691,0,0,1,2.778,1.1,4.329,4.329,0,0,1,1.152,2.922l.008.445a5.019,5.019,0,0,1-.481,2.234,3.546,3.546,0,0,1-1.375,1.524,3.926,3.926,0,0,1-2.066.539,3.667,3.667,0,0,1-2.863-1.192,4.555,4.555,0,0,1-1.074-3.175Zm1.9.164a3.408,3.408,0,0,0,.539,2.043,1.752,1.752,0,0,0,1.5.738,1.733,1.733,0,0,0,1.5-.75,3.758,3.758,0,0,0,.535-2.2,3.361,3.361,0,0,0-.55-2.031,1.761,1.761,0,0,0-1.5-.75,1.741,1.741,0,0,0-1.476.738,3.688,3.688,0,0,0-.547,2.207" fill="#12263f"/>
      <path id="Trazado_196721" data-name="Trazado 196721" d="M473.531,454.492v2.055h1.492v1.406h-1.492v4.719a1.038,1.038,0,0,0,.191.7.89.89,0,0,0,.684.215,2.985,2.985,0,0,0,.664-.078v1.468a4.673,4.673,0,0,1-1.25.18q-2.187,0-2.187-2.414v-4.789h-1.391v-1.406h1.391v-2.055Z" fill="#12263f"/>
      <path id="Trazado_196722" data-name="Trazado 196722" d="M480.2,465.156a3.926,3.926,0,0,1-2.926-1.137,4.118,4.118,0,0,1-1.121-3.027v-.234a5.066,5.066,0,0,1,.488-2.262,3.712,3.712,0,0,1,1.371-1.551,3.622,3.622,0,0,1,1.969-.554,3.319,3.319,0,0,1,2.668,1.1,4.661,4.661,0,0,1,.941,3.117v.766h-5.523a2.535,2.535,0,0,0,.7,1.656,2.1,2.1,0,0,0,1.543.61,2.571,2.571,0,0,0,2.125-1.055l1.023.976a3.411,3.411,0,0,1-1.355,1.176,4.24,4.24,0,0,1-1.9.418m-.227-7.242a1.6,1.6,0,0,0-1.262.547,2.829,2.829,0,0,0-.613,1.523h3.617v-.14a2.308,2.308,0,0,0-.508-1.442,1.587,1.587,0,0,0-1.234-.488" fill="#12263f"/>
      <path id="Trazado_196723" data-name="Trazado 196723" d="M488.531,463.64a1.718,1.718,0,0,0,1.18-.414,1.416,1.416,0,0,0,.5-1.023H492a2.791,2.791,0,0,1-.492,1.472,3.233,3.233,0,0,1-1.25,1.082,3.725,3.725,0,0,1-1.7.4,3.6,3.6,0,0,1-2.812-1.149,4.553,4.553,0,0,1-1.039-3.172v-.195a4.484,4.484,0,0,1,1.031-3.09,3.574,3.574,0,0,1,2.813-1.16,3.473,3.473,0,0,1,2.457.879,3.15,3.15,0,0,1,1,2.309h-1.789a1.745,1.745,0,0,0-.5-1.2,1.6,1.6,0,0,0-1.184-.469,1.671,1.671,0,0,0-1.422.668,3.411,3.411,0,0,0-.508,2.028v.3a3.462,3.462,0,0,0,.5,2.051,1.672,1.672,0,0,0,1.434.676" fill="#12263f"/>
      <path id="Trazado_196724" data-name="Trazado 196724" d="M496.906,463.64a1.718,1.718,0,0,0,1.18-.414,1.416,1.416,0,0,0,.5-1.023h1.789a2.791,2.791,0,0,1-.492,1.472,3.233,3.233,0,0,1-1.25,1.082,3.725,3.725,0,0,1-1.7.4,3.6,3.6,0,0,1-2.812-1.149,4.553,4.553,0,0,1-1.039-3.172v-.195a4.484,4.484,0,0,1,1.031-3.09,3.574,3.574,0,0,1,2.813-1.16,3.473,3.473,0,0,1,2.457.879,3.15,3.15,0,0,1,1,2.309h-1.789a1.745,1.745,0,0,0-.5-1.2,1.6,1.6,0,0,0-1.184-.469,1.671,1.671,0,0,0-1.422.668,3.411,3.411,0,0,0-.508,2.028v.3a3.462,3.462,0,0,0,.5,2.051,1.672,1.672,0,0,0,1.434.676" fill="#12263f"/>
      <path id="Trazado_196725" data-name="Trazado 196725" d="M501.812,454.344a1.02,1.02,0,0,1,.277-.733,1.049,1.049,0,0,1,.793-.291,1.06,1.06,0,0,1,.8.291,1.012,1.012,0,0,1,.282.733.985.985,0,0,1-.282.72,1.062,1.062,0,0,1-.8.287,1.051,1.051,0,0,1-.793-.287.993.993,0,0,1-.277-.72M503.828,465h-1.9v-8.453h1.9Z" fill="#12263f"/>
      <path id="Trazado_196726" data-name="Trazado 196726" d="M505.539,460.7a4.985,4.985,0,0,1,.492-2.238,3.588,3.588,0,0,1,1.383-1.531,3.892,3.892,0,0,1,2.047-.535,3.693,3.693,0,0,1,2.777,1.1,4.331,4.331,0,0,1,1.152,2.922l.008.445a5.037,5.037,0,0,1-.48,2.235,3.557,3.557,0,0,1-1.375,1.523,3.923,3.923,0,0,1-2.067.539,3.666,3.666,0,0,1-2.863-1.191,4.564,4.564,0,0,1-1.074-3.176Zm1.9.164a3.408,3.408,0,0,0,.539,2.043,1.753,1.753,0,0,0,1.5.739,1.733,1.733,0,0,0,1.5-.75,3.762,3.762,0,0,0,.535-2.2,3.363,3.363,0,0,0-.55-2.031,1.761,1.761,0,0,0-1.5-.75,1.741,1.741,0,0,0-1.477.738,3.69,3.69,0,0,0-.547,2.207M509.984,453h2.164l-2.164,2.367-1.523,0Z" fill="#12263f"/>
      <path id="Trazado_196727" data-name="Trazado 196727" d="M516.765,456.547l.055.977a3.04,3.04,0,0,1,2.461-1.133q2.64,0,2.687,3.023V465h-1.9v-5.476a1.746,1.746,0,0,0-.348-1.192,1.463,1.463,0,0,0-1.137-.387,1.83,1.83,0,0,0-1.711,1.04V465h-1.9v-8.453Z" fill="#12263f"/>
      <path id="Trazado_196728" data-name="Trazado 196728" d="M535.289,460.859a5.029,5.029,0,0,1-.891,3.129,3.094,3.094,0,0,1-4.617.254v4.008h-1.9v-11.7h1.75l.078.859a2.79,2.79,0,0,1,2.274-1.016,2.881,2.881,0,0,1,2.426,1.153,5.167,5.167,0,0,1,.879,3.2ZM533.4,460.7a3.526,3.526,0,0,0-.5-2.008,1.637,1.637,0,0,0-1.441-.742,1.745,1.745,0,0,0-1.672.961v3.75a1.763,1.763,0,0,0,1.687.984,1.636,1.636,0,0,0,1.418-.73,3.884,3.884,0,0,0,.512-2.215" fill="#12263f"/>
      <path id="Trazado_196729" data-name="Trazado 196729" d="M540.617,465.156a3.926,3.926,0,0,1-2.926-1.137,4.118,4.118,0,0,1-1.121-3.027v-.234a5.066,5.066,0,0,1,.488-2.262,3.712,3.712,0,0,1,1.371-1.551,3.622,3.622,0,0,1,1.969-.554,3.319,3.319,0,0,1,2.668,1.1,4.661,4.661,0,0,1,.941,3.117v.766h-5.523a2.535,2.535,0,0,0,.7,1.656,2.1,2.1,0,0,0,1.543.61,2.571,2.571,0,0,0,2.125-1.055l1.023.976a3.411,3.411,0,0,1-1.355,1.176,4.24,4.24,0,0,1-1.9.418m-.227-7.242a1.6,1.6,0,0,0-1.262.547,2.829,2.829,0,0,0-.613,1.523h3.617v-.14a2.308,2.308,0,0,0-.508-1.442,1.587,1.587,0,0,0-1.234-.488" fill="#12263f"/>
      <path id="Trazado_196730" data-name="Trazado 196730" d="M549.906,458.281a4.663,4.663,0,0,0-.773-.062,1.741,1.741,0,0,0-1.758,1V465h-1.9v-8.453h1.813l.047.945a2.139,2.139,0,0,1,1.906-1.1,1.778,1.778,0,0,1,.672.11Z" fill="#12263f"/>
      <path id="Trazado_196731" data-name="Trazado 196731" d="M555.843,462.7a.86.86,0,0,0-.418-.773,4.465,4.465,0,0,0-1.387-.469,7.163,7.163,0,0,1-1.617-.516A2.158,2.158,0,0,1,551,458.953a2.248,2.248,0,0,1,.922-1.828,3.647,3.647,0,0,1,2.344-.734,3.791,3.791,0,0,1,2.449.75,2.381,2.381,0,0,1,.934,1.945h-1.9a1.169,1.169,0,0,0-.406-.91,1.553,1.553,0,0,0-1.078-.364,1.688,1.688,0,0,0-1.02.289.912.912,0,0,0-.394.774.77.77,0,0,0,.367.68,5.059,5.059,0,0,0,1.484.488,7.011,7.011,0,0,1,1.754.586,2.485,2.485,0,0,1,.946.816,2.088,2.088,0,0,1,.308,1.156,2.2,2.2,0,0,1-.945,1.848,4.027,4.027,0,0,1-2.477.707,4.365,4.365,0,0,1-1.851-.375,3.049,3.049,0,0,1-1.266-1.031,2.443,2.443,0,0,1-.453-1.414h1.844a1.336,1.336,0,0,0,.508,1.035,1.972,1.972,0,0,0,1.242.363,1.91,1.91,0,0,0,1.14-.285.88.88,0,0,0,.391-.746" fill="#12263f"/>
      <path id="Trazado_196732" data-name="Trazado 196732" d="M559.008,460.7a4.985,4.985,0,0,1,.492-2.238,3.6,3.6,0,0,1,1.383-1.532,3.9,3.9,0,0,1,2.046-.535,3.691,3.691,0,0,1,2.778,1.1,4.329,4.329,0,0,1,1.152,2.922l.008.445a5.019,5.019,0,0,1-.481,2.234,3.546,3.546,0,0,1-1.375,1.524,3.926,3.926,0,0,1-2.066.539,3.667,3.667,0,0,1-2.863-1.192,4.555,4.555,0,0,1-1.074-3.175Zm1.9.164a3.408,3.408,0,0,0,.539,2.043,1.752,1.752,0,0,0,1.5.738,1.733,1.733,0,0,0,1.5-.75,3.758,3.758,0,0,0,.535-2.2,3.361,3.361,0,0,0-.55-2.031,1.762,1.762,0,0,0-1.5-.75,1.741,1.741,0,0,0-1.476.738,3.688,3.688,0,0,0-.547,2.207" fill="#12263f"/>
      <path id="Trazado_196733" data-name="Trazado 196733" d="M570.234,456.547l.055.977a3.04,3.04,0,0,1,2.461-1.133q2.64,0,2.687,3.023V465h-1.9v-5.476a1.746,1.746,0,0,0-.348-1.192,1.463,1.463,0,0,0-1.137-.387,1.83,1.83,0,0,0-1.711,1.04V465h-1.9v-8.453Z" fill="#12263f"/>
      <path id="Trazado_196734" data-name="Trazado 196734" d="M582.422,465a2.923,2.923,0,0,1-.219-.789,3.195,3.195,0,0,1-4.3.219,2.326,2.326,0,0,1-.8-1.8,2.4,2.4,0,0,1,1-2.074,4.86,4.86,0,0,1,2.871-.723h1.164v-.555a1.477,1.477,0,0,0-.368-1.05,1.456,1.456,0,0,0-1.117-.395,1.678,1.678,0,0,0-1.062.324,1,1,0,0,0-.414.825h-1.9a2.107,2.107,0,0,1,.461-1.3,3.062,3.062,0,0,1,1.254-.949,4.388,4.388,0,0,1,1.77-.344,3.55,3.55,0,0,1,2.367.746,2.659,2.659,0,0,1,.906,2.1v3.812a4.326,4.326,0,0,0,.32,1.82V465Zm-2.086-1.367a2.164,2.164,0,0,0,1.059-.273,1.834,1.834,0,0,0,.746-.735v-1.594h-1.024a2.8,2.8,0,0,0-1.586.368,1.189,1.189,0,0,0-.531,1.039,1.11,1.11,0,0,0,.363.871,1.41,1.41,0,0,0,.973.324" fill="#12263f"/>
      <rect id="Rectángulo_45348" data-name="Rectángulo 45348" width="1.898" height="12" transform="translate(586.149 453)" fill="#12263f"/>
      <path id="Trazado_196735" data-name="Trazado 196735" d="M702.375,458.445h1.156a2.069,2.069,0,0,0,1.387-.453,1.618,1.618,0,0,0,.512-1.289,1.762,1.762,0,0,0-.426-1.262,1.713,1.713,0,0,0-1.3-.449,1.813,1.813,0,0,0-1.258.441,1.476,1.476,0,0,0-.492,1.153h-1.9a2.866,2.866,0,0,1,.465-1.594,3.111,3.111,0,0,1,1.3-1.121,4.217,4.217,0,0,1,1.864-.4,3.912,3.912,0,0,1,2.675.856,3,3,0,0,1,.973,2.379,2.417,2.417,0,0,1-.488,1.441,3.076,3.076,0,0,1-1.262,1.02A2.8,2.8,0,0,1,707,460.172a2.759,2.759,0,0,1,.488,1.64,3.055,3.055,0,0,1-1.051,2.438,4.613,4.613,0,0,1-5.449.031,2.88,2.88,0,0,1-1.047-2.328h1.9a1.589,1.589,0,0,0,.5,1.219,1.911,1.911,0,0,0,1.355.468,1.974,1.974,0,0,0,1.391-.468,1.762,1.762,0,0,0,.508-1.36,1.781,1.781,0,0,0-.532-1.383,2.27,2.27,0,0,0-1.578-.484h-1.117Z" fill="#12263f"/>
      <path id="Trazado_196736" data-name="Trazado 196736" d="M710.578,463a1.087,1.087,0,0,1,.82.3,1.043,1.043,0,0,1,.289.754,1.006,1.006,0,0,1-.289.738,1.28,1.28,0,0,1-1.625,0,.992.992,0,0,1-.3-.742,1.044,1.044,0,0,1,.29-.754,1.074,1.074,0,0,1,.812-.3" fill="#12263f"/>
      <path id="Trazado_196737" data-name="Trazado 196737" d="M725.781,455.219h-3.547V465h-1.961v-9.781h-3.515v-1.594h9.023Z" fill="#12263f"/>
      <path id="Trazado_196738" data-name="Trazado 196738" d="M730.117,465.156a3.93,3.93,0,0,1-2.926-1.136,4.126,4.126,0,0,1-1.121-3.028v-.234a5.079,5.079,0,0,1,.488-2.262,3.719,3.719,0,0,1,1.371-1.551,3.624,3.624,0,0,1,1.969-.554,3.319,3.319,0,0,1,2.668,1.1,4.658,4.658,0,0,1,.942,3.117v.766h-5.524a2.535,2.535,0,0,0,.7,1.656,2.1,2.1,0,0,0,1.543.61,2.571,2.571,0,0,0,2.125-1.055l1.024.977a3.426,3.426,0,0,1-1.356,1.175,4.237,4.237,0,0,1-1.9.418m-.227-7.242a1.6,1.6,0,0,0-1.261.547,2.829,2.829,0,0,0-.614,1.523h3.617v-.14a2.3,2.3,0,0,0-.507-1.442,1.59,1.59,0,0,0-1.235-.488m.43-4.914h2.164l-2.164,2.367-1.523,0Z" fill="#12263f"/>
      <path id="Trazado_196739" data-name="Trazado 196739" d="M738.453,463.64a1.718,1.718,0,0,0,1.18-.414,1.416,1.416,0,0,0,.5-1.023h1.789a2.791,2.791,0,0,1-.492,1.472,3.233,3.233,0,0,1-1.25,1.082,3.725,3.725,0,0,1-1.7.4,3.6,3.6,0,0,1-2.812-1.149,4.553,4.553,0,0,1-1.039-3.172v-.195a4.484,4.484,0,0,1,1.031-3.09,3.574,3.574,0,0,1,2.813-1.16,3.473,3.473,0,0,1,2.457.879,3.15,3.15,0,0,1,1,2.309h-1.789a1.745,1.745,0,0,0-.5-1.2,1.6,1.6,0,0,0-1.184-.469,1.671,1.671,0,0,0-1.422.668,3.411,3.411,0,0,0-.508,2.028v.3a3.462,3.462,0,0,0,.5,2.051,1.672,1.672,0,0,0,1.434.676" fill="#12263f"/>
      <path id="Trazado_196740" data-name="Trazado 196740" d="M745.117,456.547l.055.977a3.04,3.04,0,0,1,2.461-1.133q2.64,0,2.687,3.023V465h-1.9v-5.476a1.746,1.746,0,0,0-.348-1.192,1.463,1.463,0,0,0-1.137-.387,1.83,1.83,0,0,0-1.711,1.04V465h-1.9v-8.453Z" fill="#12263f"/>
      <path id="Trazado_196741" data-name="Trazado 196741" d="M752.257,454.344a1.021,1.021,0,0,1,.278-.733,1.046,1.046,0,0,1,.793-.291,1.061,1.061,0,0,1,.8.291,1.015,1.015,0,0,1,.281.733.988.988,0,0,1-.281.72,1.063,1.063,0,0,1-.8.287,1.048,1.048,0,0,1-.793-.287.994.994,0,0,1-.278-.72M754.273,465h-1.9v-8.453h1.9Z" fill="#12263f"/>
      <path id="Trazado_196742" data-name="Trazado 196742" d="M759.812,463.64a1.718,1.718,0,0,0,1.18-.414,1.416,1.416,0,0,0,.5-1.023h1.789a2.791,2.791,0,0,1-.492,1.472,3.233,3.233,0,0,1-1.25,1.082,3.725,3.725,0,0,1-1.7.4,3.6,3.6,0,0,1-2.812-1.149,4.553,4.553,0,0,1-1.039-3.172v-.195a4.484,4.484,0,0,1,1.031-3.09,3.574,3.574,0,0,1,2.813-1.16,3.473,3.473,0,0,1,2.457.879,3.15,3.15,0,0,1,1,2.309h-1.789a1.745,1.745,0,0,0-.5-1.2,1.6,1.6,0,0,0-1.184-.469,1.671,1.671,0,0,0-1.422.668,3.411,3.411,0,0,0-.508,2.028v.3a3.462,3.462,0,0,0,.5,2.051,1.672,1.672,0,0,0,1.434.676" fill="#12263f"/>
      <path id="Trazado_196743" data-name="Trazado 196743" d="M769.765,465a2.923,2.923,0,0,1-.219-.789,3.195,3.195,0,0,1-4.3.219,2.326,2.326,0,0,1-.8-1.8,2.4,2.4,0,0,1,1-2.074,4.86,4.86,0,0,1,2.871-.723h1.164v-.555a1.477,1.477,0,0,0-.368-1.05,1.456,1.456,0,0,0-1.117-.395,1.678,1.678,0,0,0-1.062.324,1,1,0,0,0-.414.825h-1.9a2.107,2.107,0,0,1,.461-1.3,3.062,3.062,0,0,1,1.254-.949,4.388,4.388,0,0,1,1.77-.344,3.55,3.55,0,0,1,2.367.746,2.659,2.659,0,0,1,.906,2.1v3.812a4.326,4.326,0,0,0,.32,1.82V465Zm-2.086-1.367a2.164,2.164,0,0,0,1.059-.273,1.834,1.834,0,0,0,.746-.735v-1.594H768.46a2.8,2.8,0,0,0-1.586.368,1.189,1.189,0,0,0-.531,1.039,1.11,1.11,0,0,0,.363.871,1.41,1.41,0,0,0,.973.324" fill="#12263f"/>
      <path id="Trazado_196744" data-name="Trazado 196744" d="M778.109,462.7a.86.86,0,0,0-.418-.773,4.465,4.465,0,0,0-1.387-.469,7.163,7.163,0,0,1-1.617-.516,2.158,2.158,0,0,1-1.422-1.992,2.248,2.248,0,0,1,.922-1.828,3.647,3.647,0,0,1,2.344-.734,3.791,3.791,0,0,1,2.449.75,2.381,2.381,0,0,1,.934,1.945h-1.9a1.169,1.169,0,0,0-.406-.91,1.553,1.553,0,0,0-1.078-.364,1.688,1.688,0,0,0-1.02.289.912.912,0,0,0-.394.774.77.77,0,0,0,.367.68,5.06,5.06,0,0,0,1.484.488,7.011,7.011,0,0,1,1.754.586,2.485,2.485,0,0,1,.946.816,2.088,2.088,0,0,1,.308,1.156,2.2,2.2,0,0,1-.945,1.848,4.027,4.027,0,0,1-2.477.707,4.365,4.365,0,0,1-1.851-.375,3.049,3.049,0,0,1-1.266-1.031,2.443,2.443,0,0,1-.453-1.414h1.844a1.336,1.336,0,0,0,.508,1.035,1.972,1.972,0,0,0,1.242.363,1.91,1.91,0,0,0,1.14-.285.88.88,0,0,0,.391-.746" fill="#12263f"/>
      <path id="Trazado_196745" data-name="Trazado 196745" d="M790.664,465a2.923,2.923,0,0,1-.219-.789,3.195,3.195,0,0,1-4.3.219,2.326,2.326,0,0,1-.8-1.8,2.4,2.4,0,0,1,1-2.074,4.86,4.86,0,0,1,2.871-.723h1.164v-.555a1.477,1.477,0,0,0-.368-1.05,1.456,1.456,0,0,0-1.117-.395,1.678,1.678,0,0,0-1.062.324,1,1,0,0,0-.414.825h-1.9a2.107,2.107,0,0,1,.461-1.3,3.062,3.062,0,0,1,1.254-.949,4.388,4.388,0,0,1,1.77-.344,3.55,3.55,0,0,1,2.367.746,2.659,2.659,0,0,1,.906,2.1v3.812a4.326,4.326,0,0,0,.32,1.82V465Zm-2.086-1.367a2.164,2.164,0,0,0,1.059-.273,1.834,1.834,0,0,0,.746-.735v-1.594h-1.024a2.8,2.8,0,0,0-1.586.368,1.189,1.189,0,0,0-.531,1.039,1.11,1.11,0,0,0,.363.871,1.41,1.41,0,0,0,.973.324" fill="#12263f"/>
      <path id="Trazado_196746" data-name="Trazado 196746" d="M799.007,462.7a.86.86,0,0,0-.418-.773,4.465,4.465,0,0,0-1.387-.469,7.163,7.163,0,0,1-1.617-.516,2.158,2.158,0,0,1-1.422-1.992,2.248,2.248,0,0,1,.922-1.828,3.647,3.647,0,0,1,2.344-.734,3.791,3.791,0,0,1,2.449.75,2.381,2.381,0,0,1,.934,1.945h-1.9a1.169,1.169,0,0,0-.406-.91,1.553,1.553,0,0,0-1.078-.364,1.688,1.688,0,0,0-1.02.289.912.912,0,0,0-.394.774.77.77,0,0,0,.367.68,5.059,5.059,0,0,0,1.484.488,7.011,7.011,0,0,1,1.754.586,2.485,2.485,0,0,1,.946.816,2.088,2.088,0,0,1,.308,1.156,2.2,2.2,0,0,1-.945,1.848,4.027,4.027,0,0,1-2.477.707,4.365,4.365,0,0,1-1.851-.375,3.049,3.049,0,0,1-1.266-1.031,2.443,2.443,0,0,1-.453-1.414h1.844a1.336,1.336,0,0,0,.508,1.035,1.972,1.972,0,0,0,1.242.363,1.91,1.91,0,0,0,1.14-.285.88.88,0,0,0,.391-.746" fill="#12263f"/>
      <path id="Trazado_196747" data-name="Trazado 196747" d="M806.25,465.156a3.93,3.93,0,0,1-2.926-1.136,4.126,4.126,0,0,1-1.121-3.028v-.234a5.08,5.08,0,0,1,.488-2.262,3.719,3.719,0,0,1,1.371-1.551,3.624,3.624,0,0,1,1.969-.554,3.319,3.319,0,0,1,2.668,1.1,4.658,4.658,0,0,1,.942,3.117v.766h-5.524a2.535,2.535,0,0,0,.7,1.656,2.1,2.1,0,0,0,1.543.61,2.571,2.571,0,0,0,2.125-1.055l1.024.977a3.426,3.426,0,0,1-1.356,1.175,4.237,4.237,0,0,1-1.9.418m-.227-7.242a1.6,1.6,0,0,0-1.261.547,2.829,2.829,0,0,0-.614,1.523h3.617v-.14a2.3,2.3,0,0,0-.507-1.442,1.59,1.59,0,0,0-1.235-.488m.43-4.914h2.164l-2.164,2.367-1.523,0Z" fill="#12263f"/>
      <path id="Trazado_196748" data-name="Trazado 196748" d="M818.516,460.859a5.029,5.029,0,0,1-.891,3.129,3.094,3.094,0,0,1-4.617.254v4.008h-1.9v-11.7h1.75l.078.859a2.79,2.79,0,0,1,2.274-1.016,2.881,2.881,0,0,1,2.426,1.153,5.167,5.167,0,0,1,.879,3.2Zm-1.891-.164a3.526,3.526,0,0,0-.5-2.008,1.637,1.637,0,0,0-1.441-.742,1.745,1.745,0,0,0-1.672.961v3.75a1.763,1.763,0,0,0,1.687.984,1.636,1.636,0,0,0,1.418-.73,3.884,3.884,0,0,0,.512-2.215" fill="#12263f"/>
      <path id="Trazado_196749" data-name="Trazado 196749" d="M822.5,454.492v2.055h1.492v1.406H822.5v4.719a1.038,1.038,0,0,0,.191.7.89.89,0,0,0,.684.215,2.985,2.985,0,0,0,.664-.078v1.468a4.672,4.672,0,0,1-1.25.18q-2.187,0-2.187-2.414v-4.789h-1.391v-1.406H820.6v-2.055Z" fill="#12263f"/>
      <path id="Trazado_196750" data-name="Trazado 196750" d="M825.445,454.344a1.02,1.02,0,0,1,.277-.733,1.049,1.049,0,0,1,.793-.291,1.06,1.06,0,0,1,.8.291,1.011,1.011,0,0,1,.281.733.984.984,0,0,1-.281.72,1.062,1.062,0,0,1-.8.287,1.051,1.051,0,0,1-.793-.287.993.993,0,0,1-.277-.72M827.461,465h-1.9v-8.453h1.9Z" fill="#12263f"/>
      <path id="Trazado_196751" data-name="Trazado 196751" d="M833,463.64a1.718,1.718,0,0,0,1.18-.414,1.416,1.416,0,0,0,.5-1.023h1.789a2.791,2.791,0,0,1-.492,1.472,3.233,3.233,0,0,1-1.25,1.082,3.725,3.725,0,0,1-1.7.4,3.6,3.6,0,0,1-2.812-1.149,4.553,4.553,0,0,1-1.039-3.172v-.195a4.484,4.484,0,0,1,1.031-3.09,3.574,3.574,0,0,1,2.813-1.16,3.473,3.473,0,0,1,2.457.879,3.15,3.15,0,0,1,1,2.309H834.68a1.745,1.745,0,0,0-.5-1.2,1.6,1.6,0,0,0-1.184-.469,1.671,1.671,0,0,0-1.422.668,3.411,3.411,0,0,0-.508,2.028v.3a3.462,3.462,0,0,0,.5,2.051,1.672,1.672,0,0,0,1.434.676" fill="#12263f"/>
      <path id="Trazado_196752" data-name="Trazado 196752" d="M842.953,465a2.923,2.923,0,0,1-.219-.789,3.195,3.195,0,0,1-4.3.219,2.326,2.326,0,0,1-.8-1.8,2.4,2.4,0,0,1,1-2.074,4.86,4.86,0,0,1,2.871-.723h1.164v-.555a1.477,1.477,0,0,0-.368-1.05,1.456,1.456,0,0,0-1.117-.395,1.678,1.678,0,0,0-1.062.324,1,1,0,0,0-.414.825h-1.9a2.107,2.107,0,0,1,.461-1.3,3.062,3.062,0,0,1,1.254-.949,4.388,4.388,0,0,1,1.77-.344,3.55,3.55,0,0,1,2.367.746,2.659,2.659,0,0,1,.906,2.1v3.812a4.326,4.326,0,0,0,.32,1.82V465Zm-2.086-1.367a2.165,2.165,0,0,0,1.059-.273,1.834,1.834,0,0,0,.746-.735v-1.594h-1.024a2.8,2.8,0,0,0-1.586.368,1.189,1.189,0,0,0-.531,1.039,1.11,1.11,0,0,0,.363.871,1.41,1.41,0,0,0,.973.324" fill="#12263f"/>
      <path id="Trazado_196753" data-name="Trazado 196753" d="M851.3,462.7a.86.86,0,0,0-.419-.773,4.465,4.465,0,0,0-1.387-.469,7.162,7.162,0,0,1-1.617-.516,2.158,2.158,0,0,1-1.422-1.992,2.248,2.248,0,0,1,.922-1.828,3.65,3.65,0,0,1,2.345-.734,3.79,3.79,0,0,1,2.448.75,2.381,2.381,0,0,1,.935,1.945h-1.9a1.169,1.169,0,0,0-.405-.91,1.555,1.555,0,0,0-1.078-.364,1.689,1.689,0,0,0-1.021.289.911.911,0,0,0-.393.774.768.768,0,0,0,.367.68,5.05,5.05,0,0,0,1.483.488,7.011,7.011,0,0,1,1.754.586,2.485,2.485,0,0,1,.946.816,2.088,2.088,0,0,1,.308,1.156,2.2,2.2,0,0,1-.944,1.848,4.03,4.03,0,0,1-2.478.707,4.358,4.358,0,0,1-1.85-.375,3.046,3.046,0,0,1-1.267-1.031,2.442,2.442,0,0,1-.452-1.414h1.844a1.335,1.335,0,0,0,.507,1.035,1.973,1.973,0,0,0,1.243.363,1.905,1.905,0,0,0,1.139-.285.879.879,0,0,0,.392-.746" fill="#12263f"/>
    </g>
  </g>
  <path id="Trazado_196754" data-name="Trazado 196754" d="M971.665,460.945h1.414v1.523h-1.414V465h-1.9v-2.532h-4.914l-.055-1.156,4.906-7.687h1.961Zm-4.875,0h2.977V456.2l-.141.25Z" fill="#12263f"/>
  <g id="Grupo_146954" data-name="Grupo 146954">
    <g id="Grupo_146953" data-name="Grupo 146953" clip-path="url(#clip-path)">
      <path id="Trazado_196755" data-name="Trazado 196755" d="M975.641,463a1.087,1.087,0,0,1,.82.3,1.043,1.043,0,0,1,.289.754,1.006,1.006,0,0,1-.289.738,1.28,1.28,0,0,1-1.625,0,.992.992,0,0,1-.3-.742,1.04,1.04,0,0,1,.29-.754,1.072,1.072,0,0,1,.812-.3" fill="#12263f"/>
      <path id="Trazado_196756" data-name="Trazado 196756" d="M985.657,453.625l3.281,8.719,3.274-8.719h2.554V465H992.8v-3.75l.2-5.016L989.634,465H988.22l-3.352-8.758.195,5.008V465h-1.969V453.625Z" fill="#12263f"/>
      <path id="Trazado_196757" data-name="Trazado 196757" d="M1001.969,465a2.923,2.923,0,0,1-.219-.789,3.195,3.195,0,0,1-4.3.219,2.323,2.323,0,0,1-.8-1.8,2.4,2.4,0,0,1,1-2.074,4.86,4.86,0,0,1,2.871-.723h1.164v-.555a1.477,1.477,0,0,0-.368-1.05,1.456,1.456,0,0,0-1.117-.395,1.676,1.676,0,0,0-1.062.324,1,1,0,0,0-.414.825h-1.9a2.107,2.107,0,0,1,.461-1.3,3.062,3.062,0,0,1,1.254-.949,4.387,4.387,0,0,1,1.77-.344,3.55,3.55,0,0,1,2.367.746,2.659,2.659,0,0,1,.906,2.1v3.812a4.326,4.326,0,0,0,.32,1.82V465Zm-2.086-1.367a2.164,2.164,0,0,0,1.059-.273,1.834,1.834,0,0,0,.746-.735v-1.594h-1.024a2.8,2.8,0,0,0-1.586.368,1.189,1.189,0,0,0-.531,1.039,1.11,1.11,0,0,0,.363.871,1.41,1.41,0,0,0,.973.324" fill="#12263f"/>
      <path id="Trazado_196758" data-name="Trazado 196758" d="M1007.336,456.547l.055.977a3.04,3.04,0,0,1,2.461-1.133q2.639,0,2.687,3.023V465h-1.9v-5.476a1.746,1.746,0,0,0-.348-1.192,1.463,1.463,0,0,0-1.137-.387,1.83,1.83,0,0,0-1.711,1.04V465h-1.9v-8.453Z" fill="#12263f"/>
      <path id="Trazado_196759" data-name="Trazado 196759" d="M1018.2,465.156a3.926,3.926,0,0,1-2.926-1.137,4.118,4.118,0,0,1-1.121-3.027v-.234a5.065,5.065,0,0,1,.488-2.262,3.711,3.711,0,0,1,1.371-1.551,3.62,3.62,0,0,1,1.969-.554,3.321,3.321,0,0,1,2.668,1.1,4.662,4.662,0,0,1,.941,3.117v.766h-5.523a2.53,2.53,0,0,0,.7,1.656,2.1,2.1,0,0,0,1.543.61,2.572,2.572,0,0,0,2.125-1.055l1.023.976a3.418,3.418,0,0,1-1.355,1.176,4.241,4.241,0,0,1-1.9.418m-.227-7.242a1.6,1.6,0,0,0-1.262.547,2.83,2.83,0,0,0-.613,1.523h3.617v-.14a2.308,2.308,0,0,0-.508-1.442,1.589,1.589,0,0,0-1.234-.488" fill="#12263f"/>
      <path id="Trazado_196760" data-name="Trazado 196760" d="M1025.04,456.547v9.2a2.781,2.781,0,0,1-.645,1.981,2.47,2.47,0,0,1-1.887.683,3.824,3.824,0,0,1-1.008-.132v-1.5a2.984,2.984,0,0,0,.672.07q.945,0,.969-1.031v-9.273Zm-2.063-2.2a1.02,1.02,0,0,1,.277-.732,1.045,1.045,0,0,1,.793-.291,1.056,1.056,0,0,1,.8.291,1.01,1.01,0,0,1,.281.732.986.986,0,0,1-.281.721,1.062,1.062,0,0,1-.8.288,1.051,1.051,0,0,1-.793-.288,1,1,0,0,1-.277-.721" fill="#12263f"/>
      <path id="Trazado_196761" data-name="Trazado 196761" d="M1026.712,460.7a4.985,4.985,0,0,1,.492-2.238,3.6,3.6,0,0,1,1.383-1.532,3.9,3.9,0,0,1,2.046-.535,3.691,3.691,0,0,1,2.778,1.1,4.33,4.33,0,0,1,1.152,2.922l.008.445a5.018,5.018,0,0,1-.481,2.234,3.552,3.552,0,0,1-1.375,1.524,3.926,3.926,0,0,1-2.066.539,3.667,3.667,0,0,1-2.863-1.192,4.554,4.554,0,0,1-1.074-3.175Zm1.9.164a3.408,3.408,0,0,0,.539,2.043,1.752,1.752,0,0,0,1.5.738,1.733,1.733,0,0,0,1.5-.75,3.759,3.759,0,0,0,.535-2.2,3.361,3.361,0,0,0-.55-2.031,1.762,1.762,0,0,0-1.5-.75,1.741,1.741,0,0,0-1.476.738,3.688,3.688,0,0,0-.547,2.207" fill="#12263f"/>
      <path id="Trazado_196762" data-name="Trazado 196762" d="M1039.806,460.711a5.021,5.021,0,0,1,.906-3.137,2.9,2.9,0,0,1,2.429-1.183,2.759,2.759,0,0,1,2.172.937V453h1.9v12h-1.719l-.094-.875a2.8,2.8,0,0,1-2.273,1.031,2.884,2.884,0,0,1-2.4-1.2,5.2,5.2,0,0,1-.918-3.25m1.9.164a3.519,3.519,0,0,0,.5,2.012,1.61,1.61,0,0,0,1.41.722,1.792,1.792,0,0,0,1.7-1.039v-3.609a1.766,1.766,0,0,0-1.687-1.016,1.619,1.619,0,0,0-1.422.731,3.913,3.913,0,0,0-.5,2.2" fill="#12263f"/>
      <path id="Trazado_196763" data-name="Trazado 196763" d="M1052.915,465.156a3.926,3.926,0,0,1-2.926-1.137,4.118,4.118,0,0,1-1.121-3.027v-.234a5.067,5.067,0,0,1,.488-2.262,3.712,3.712,0,0,1,1.371-1.551,3.619,3.619,0,0,1,1.969-.554,3.321,3.321,0,0,1,2.668,1.1,4.662,4.662,0,0,1,.941,3.117v.766h-5.523a2.53,2.53,0,0,0,.7,1.656,2.1,2.1,0,0,0,1.543.61,2.573,2.573,0,0,0,2.125-1.055l1.023.976a3.418,3.418,0,0,1-1.355,1.176,4.241,4.241,0,0,1-1.9.418m-.227-7.242a1.6,1.6,0,0,0-1.262.547,2.829,2.829,0,0,0-.613,1.523h3.617v-.14a2.309,2.309,0,0,0-.508-1.442,1.589,1.589,0,0,0-1.234-.488" fill="#12263f"/>
      <path id="Trazado_196764" data-name="Trazado 196764" d="M1066.188,458.281a4.662,4.662,0,0,0-.773-.062,1.741,1.741,0,0,0-1.758,1V465h-1.9v-8.453h1.813l.047.945a2.139,2.139,0,0,1,1.906-1.1,1.782,1.782,0,0,1,.672.11Z" fill="#12263f"/>
      <path id="Trazado_196765" data-name="Trazado 196765" d="M1070.962,465.156a3.926,3.926,0,0,1-2.926-1.137,4.118,4.118,0,0,1-1.121-3.027v-.234a5.067,5.067,0,0,1,.488-2.262,3.713,3.713,0,0,1,1.371-1.551,3.619,3.619,0,0,1,1.969-.554,3.321,3.321,0,0,1,2.668,1.1,4.662,4.662,0,0,1,.941,3.117v.766h-5.523a2.53,2.53,0,0,0,.7,1.656,2.1,2.1,0,0,0,1.543.61,2.573,2.573,0,0,0,2.125-1.055l1.023.976a3.418,3.418,0,0,1-1.355,1.176,4.241,4.241,0,0,1-1.9.418m-.227-7.242a1.6,1.6,0,0,0-1.262.547,2.829,2.829,0,0,0-.613,1.523h3.617v-.14a2.308,2.308,0,0,0-.508-1.442,1.589,1.589,0,0,0-1.234-.488" fill="#12263f"/>
      <path id="Trazado_196766" data-name="Trazado 196766" d="M1080.563,462.7a.86.86,0,0,0-.418-.773,4.466,4.466,0,0,0-1.387-.469,7.164,7.164,0,0,1-1.617-.516,2.158,2.158,0,0,1-1.422-1.992,2.248,2.248,0,0,1,.922-1.828,3.647,3.647,0,0,1,2.344-.734,3.793,3.793,0,0,1,2.449.75,2.38,2.38,0,0,1,.934,1.945h-1.9a1.169,1.169,0,0,0-.406-.91,1.555,1.555,0,0,0-1.078-.364,1.688,1.688,0,0,0-1.02.289.912.912,0,0,0-.394.774.77.77,0,0,0,.367.68,5.049,5.049,0,0,0,1.484.488,7.013,7.013,0,0,1,1.754.586,2.492,2.492,0,0,1,.946.816,2.087,2.087,0,0,1,.308,1.156,2.2,2.2,0,0,1-.945,1.848,4.029,4.029,0,0,1-2.477.707,4.365,4.365,0,0,1-1.851-.375,3.049,3.049,0,0,1-1.266-1.031,2.436,2.436,0,0,1-.453-1.414h1.844a1.333,1.333,0,0,0,.508,1.035,1.972,1.972,0,0,0,1.242.363,1.91,1.91,0,0,0,1.14-.285.883.883,0,0,0,.391-.746" fill="#12263f"/>
      <path id="Trazado_196767" data-name="Trazado 196767" d="M1084.087,454.344a1.016,1.016,0,0,1,.277-.733,1.046,1.046,0,0,1,.793-.291,1.061,1.061,0,0,1,.8.291,1.015,1.015,0,0,1,.281.733.988.988,0,0,1-.281.72,1.063,1.063,0,0,1-.8.287,1.047,1.047,0,0,1-.793-.287.989.989,0,0,1-.277-.72M1086.1,465h-1.9v-8.453h1.9Z" fill="#12263f"/>
      <path id="Trazado_196768" data-name="Trazado 196768" d="M1087.813,460.711a5.027,5.027,0,0,1,.906-3.137,2.9,2.9,0,0,1,2.429-1.183,2.759,2.759,0,0,1,2.172.937V453h1.9v12H1093.5l-.094-.875a2.8,2.8,0,0,1-2.272,1.031,2.886,2.886,0,0,1-2.4-1.2,5.21,5.21,0,0,1-.918-3.25m1.9.164a3.511,3.511,0,0,0,.5,2.012,1.608,1.608,0,0,0,1.409.722,1.791,1.791,0,0,0,1.7-1.039v-3.609a1.766,1.766,0,0,0-1.686-1.016,1.617,1.617,0,0,0-1.422.731,3.9,3.9,0,0,0-.5,2.2" fill="#12263f"/>
      <path id="Trazado_196769" data-name="Trazado 196769" d="M1102.321,464.172a2.947,2.947,0,0,1-2.375.984,2.624,2.624,0,0,1-2.082-.8,3.42,3.42,0,0,1-.707-2.328v-5.477h1.9V462q0,1.609,1.336,1.61a1.88,1.88,0,0,0,1.868-.993v-6.07h1.9V465h-1.789Z" fill="#12263f"/>
      <path id="Trazado_196770" data-name="Trazado 196770" d="M1105.735,460.7a4.985,4.985,0,0,1,.492-2.238,3.6,3.6,0,0,1,1.383-1.532,3.9,3.9,0,0,1,2.046-.535,3.691,3.691,0,0,1,2.778,1.1,4.329,4.329,0,0,1,1.152,2.922l.008.445a5.019,5.019,0,0,1-.481,2.234,3.553,3.553,0,0,1-1.375,1.524,3.927,3.927,0,0,1-2.066.539,3.667,3.667,0,0,1-2.863-1.192,4.555,4.555,0,0,1-1.074-3.175Zm1.9.164a3.408,3.408,0,0,0,.539,2.043,1.752,1.752,0,0,0,1.5.738,1.733,1.733,0,0,0,1.5-.75,3.758,3.758,0,0,0,.535-2.2,3.36,3.36,0,0,0-.55-2.031,1.761,1.761,0,0,0-1.5-.75,1.741,1.741,0,0,0-1.476.738,3.687,3.687,0,0,0-.547,2.207" fill="#12263f"/>
      <path id="Trazado_196771" data-name="Trazado 196771" d="M1119.938,462.7a.86.86,0,0,0-.418-.773,4.466,4.466,0,0,0-1.387-.469,7.164,7.164,0,0,1-1.617-.516,2.158,2.158,0,0,1-1.422-1.992,2.248,2.248,0,0,1,.922-1.828,3.647,3.647,0,0,1,2.344-.734,3.793,3.793,0,0,1,2.449.75,2.38,2.38,0,0,1,.934,1.945h-1.9a1.169,1.169,0,0,0-.406-.91,1.555,1.555,0,0,0-1.078-.364,1.688,1.688,0,0,0-1.02.289.912.912,0,0,0-.394.774.77.77,0,0,0,.367.68,5.049,5.049,0,0,0,1.484.488,7.013,7.013,0,0,1,1.754.586,2.492,2.492,0,0,1,.946.816,2.087,2.087,0,0,1,.308,1.156,2.2,2.2,0,0,1-.945,1.848,4.029,4.029,0,0,1-2.477.707,4.365,4.365,0,0,1-1.851-.375,3.049,3.049,0,0,1-1.266-1.031,2.436,2.436,0,0,1-.453-1.414h1.844a1.333,1.333,0,0,0,.508,1.035,1.972,1.972,0,0,0,1.242.363,1.91,1.91,0,0,0,1.14-.285.883.883,0,0,0,.391-.746" fill="#12263f"/>
      <path id="Trazado_196772" data-name="Trazado 196772" d="M1129.313,457.468a2.972,2.972,0,0,1,2.352-1.078q2.7,0,2.742,3.086V465h-1.9v-5.453a1.673,1.673,0,0,0-.379-1.238,1.555,1.555,0,0,0-1.113-.363,1.829,1.829,0,0,0-1.7,1.015V465h-1.9V453h1.9Z" fill="#12263f"/>
      <path id="Trazado_196773" data-name="Trazado 196773" d="M1135.97,460.7a4.985,4.985,0,0,1,.492-2.238,3.6,3.6,0,0,1,1.383-1.532,3.9,3.9,0,0,1,2.046-.535,3.691,3.691,0,0,1,2.778,1.1,4.329,4.329,0,0,1,1.152,2.922l.008.445a5.019,5.019,0,0,1-.481,2.234,3.553,3.553,0,0,1-1.375,1.524,3.927,3.927,0,0,1-2.066.539,3.667,3.667,0,0,1-2.863-1.192,4.555,4.555,0,0,1-1.074-3.175Zm1.9.164a3.408,3.408,0,0,0,.539,2.043,1.752,1.752,0,0,0,1.5.738,1.733,1.733,0,0,0,1.5-.75,3.758,3.758,0,0,0,.535-2.2,3.36,3.36,0,0,0-.55-2.031,1.761,1.761,0,0,0-1.5-.75,1.741,1.741,0,0,0-1.476.738,3.688,3.688,0,0,0-.547,2.207" fill="#12263f"/>
      <path id="Trazado_196774" data-name="Trazado 196774" d="M1150.172,462.7a.86.86,0,0,0-.418-.773,4.467,4.467,0,0,0-1.387-.469,7.163,7.163,0,0,1-1.617-.516,2.158,2.158,0,0,1-1.422-1.992,2.248,2.248,0,0,1,.922-1.828,3.647,3.647,0,0,1,2.344-.734,3.793,3.793,0,0,1,2.449.75,2.38,2.38,0,0,1,.934,1.945h-1.9a1.169,1.169,0,0,0-.406-.91,1.555,1.555,0,0,0-1.078-.364,1.688,1.688,0,0,0-1.02.289.912.912,0,0,0-.394.774.77.77,0,0,0,.367.68,5.049,5.049,0,0,0,1.484.488,7.013,7.013,0,0,1,1.754.586,2.492,2.492,0,0,1,.946.816,2.087,2.087,0,0,1,.308,1.156,2.2,2.2,0,0,1-.945,1.848,4.029,4.029,0,0,1-2.477.707,4.365,4.365,0,0,1-1.851-.375,3.049,3.049,0,0,1-1.266-1.031,2.436,2.436,0,0,1-.453-1.414h1.844a1.333,1.333,0,0,0,.508,1.035,1.972,1.972,0,0,0,1.242.363,1.91,1.91,0,0,0,1.14-.285.883.883,0,0,0,.391-.746" fill="#12263f"/>
      <path id="Trazado_196775" data-name="Trazado 196775" d="M1161.095,460.859a5.029,5.029,0,0,1-.891,3.129,3.094,3.094,0,0,1-4.617.254v4.008h-1.9v-11.7h1.75l.078.859a2.789,2.789,0,0,1,2.274-1.016,2.881,2.881,0,0,1,2.426,1.153,5.166,5.166,0,0,1,.879,3.2Zm-1.891-.164a3.525,3.525,0,0,0-.5-2.008,1.637,1.637,0,0,0-1.441-.742,1.745,1.745,0,0,0-1.672.961v3.75a1.763,1.763,0,0,0,1.687.984,1.637,1.637,0,0,0,1.418-.73,3.884,3.884,0,0,0,.512-2.215" fill="#12263f"/>
      <path id="Trazado_196776" data-name="Trazado 196776" d="M1162.7,454.344a1.021,1.021,0,0,1,.277-.733,1.048,1.048,0,0,1,.793-.291,1.061,1.061,0,0,1,.8.291,1.015,1.015,0,0,1,.281.733.988.988,0,0,1-.281.72,1.063,1.063,0,0,1-.8.287,1.049,1.049,0,0,1-.793-.287.993.993,0,0,1-.277-.72M1164.719,465h-1.9v-8.453h1.9Z" fill="#12263f"/>
      <path id="Trazado_196777" data-name="Trazado 196777" d="M1169.165,454.492v2.055h1.492v1.406h-1.492v4.719a1.038,1.038,0,0,0,.191.7.889.889,0,0,0,.684.215,2.991,2.991,0,0,0,.664-.078v1.468a4.678,4.678,0,0,1-1.25.18q-2.188,0-2.187-2.414v-4.789h-1.391v-1.406h1.391v-2.055Z" fill="#12263f"/>
      <path id="Trazado_196778" data-name="Trazado 196778" d="M1177.157,465a2.923,2.923,0,0,1-.219-.789,3.195,3.195,0,0,1-4.3.219,2.323,2.323,0,0,1-.8-1.8,2.4,2.4,0,0,1,1-2.074,4.86,4.86,0,0,1,2.871-.723h1.164v-.555a1.477,1.477,0,0,0-.368-1.05,1.456,1.456,0,0,0-1.117-.395,1.676,1.676,0,0,0-1.062.324,1,1,0,0,0-.414.825h-1.9a2.107,2.107,0,0,1,.461-1.3,3.062,3.062,0,0,1,1.254-.949,4.388,4.388,0,0,1,1.77-.344,3.551,3.551,0,0,1,2.367.746,2.659,2.659,0,0,1,.906,2.1v3.812a4.326,4.326,0,0,0,.32,1.82V465Zm-2.086-1.367a2.164,2.164,0,0,0,1.059-.273,1.834,1.834,0,0,0,.746-.735v-1.594h-1.024a2.8,2.8,0,0,0-1.586.368,1.189,1.189,0,0,0-.531,1.039,1.11,1.11,0,0,0,.363.871,1.41,1.41,0,0,0,.973.324" fill="#12263f"/>
      <rect id="Rectángulo_45350" data-name="Rectángulo 45350" width="1.898" height="12" transform="translate(1180.884 453)" fill="#12263f"/>
      <path id="Trazado_196779" data-name="Trazado 196779" d="M1189.9,465a2.918,2.918,0,0,1-.219-.789,3.195,3.195,0,0,1-4.3.219,2.322,2.322,0,0,1-.8-1.8,2.4,2.4,0,0,1,1-2.074,4.86,4.86,0,0,1,2.871-.723h1.164v-.555a1.477,1.477,0,0,0-.368-1.05,1.456,1.456,0,0,0-1.117-.395,1.676,1.676,0,0,0-1.062.324,1,1,0,0,0-.414.825h-1.9a2.107,2.107,0,0,1,.461-1.3,3.062,3.062,0,0,1,1.254-.949,4.387,4.387,0,0,1,1.77-.344,3.55,3.55,0,0,1,2.367.746,2.659,2.659,0,0,1,.906,2.1v3.812a4.326,4.326,0,0,0,.32,1.82V465Zm-2.086-1.367a2.164,2.164,0,0,0,1.059-.273,1.834,1.834,0,0,0,.746-.735v-1.594h-1.024a2.8,2.8,0,0,0-1.586.368,1.189,1.189,0,0,0-.531,1.039,1.11,1.11,0,0,0,.363.871,1.41,1.41,0,0,0,.973.324" fill="#12263f"/>
      <path id="Trazado_196780" data-name="Trazado 196780" d="M1197.93,458.281a4.664,4.664,0,0,0-.773-.062,1.741,1.741,0,0,0-1.758,1V465h-1.9v-8.453h1.813l.047.945a2.139,2.139,0,0,1,1.906-1.1,1.782,1.782,0,0,1,.672.11Z" fill="#12263f"/>
      <path id="Trazado_196781" data-name="Trazado 196781" d="M1199.133,454.344a1.017,1.017,0,0,1,.278-.733,1.046,1.046,0,0,1,.793-.291,1.063,1.063,0,0,1,.8.291,1.015,1.015,0,0,1,.281.733.988.988,0,0,1-.281.72,1.065,1.065,0,0,1-.8.287,1.047,1.047,0,0,1-.793-.287.989.989,0,0,1-.278-.72M1201.149,465h-1.9v-8.453h1.9Z" fill="#12263f"/>
      <path id="Trazado_196782" data-name="Trazado 196782" d="M1202.86,460.7a4.985,4.985,0,0,1,.492-2.238,3.6,3.6,0,0,1,1.383-1.532,3.9,3.9,0,0,1,2.046-.535,3.691,3.691,0,0,1,2.778,1.1,4.329,4.329,0,0,1,1.152,2.922l.008.445a5.019,5.019,0,0,1-.481,2.234,3.553,3.553,0,0,1-1.375,1.524,3.927,3.927,0,0,1-2.066.539,3.667,3.667,0,0,1-2.863-1.192,4.555,4.555,0,0,1-1.074-3.175Zm1.9.164a3.408,3.408,0,0,0,.539,2.043,1.752,1.752,0,0,0,1.5.738,1.733,1.733,0,0,0,1.5-.75,3.758,3.758,0,0,0,.535-2.2,3.36,3.36,0,0,0-.55-2.031,1.761,1.761,0,0,0-1.5-.75,1.741,1.741,0,0,0-1.476.738,3.687,3.687,0,0,0-.547,2.207" fill="#12263f"/>
      <path id="Trazado_196783" data-name="Trazado 196783" d="M1217.063,462.7a.86.86,0,0,0-.418-.773,4.466,4.466,0,0,0-1.387-.469,7.164,7.164,0,0,1-1.617-.516,2.158,2.158,0,0,1-1.422-1.992,2.248,2.248,0,0,1,.922-1.828,3.647,3.647,0,0,1,2.344-.734,3.793,3.793,0,0,1,2.449.75,2.38,2.38,0,0,1,.934,1.945h-1.9a1.169,1.169,0,0,0-.406-.91,1.555,1.555,0,0,0-1.078-.364,1.688,1.688,0,0,0-1.02.289.912.912,0,0,0-.394.774.77.77,0,0,0,.367.68,5.049,5.049,0,0,0,1.484.488,7.013,7.013,0,0,1,1.754.586,2.492,2.492,0,0,1,.946.816,2.087,2.087,0,0,1,.308,1.156,2.2,2.2,0,0,1-.945,1.848,4.029,4.029,0,0,1-2.477.707,4.365,4.365,0,0,1-1.851-.375,3.049,3.049,0,0,1-1.266-1.031,2.436,2.436,0,0,1-.453-1.414h1.844a1.333,1.333,0,0,0,.508,1.035,1.972,1.972,0,0,0,1.242.363,1.91,1.91,0,0,0,1.14-.285.883.883,0,0,0,.391-.746" fill="#12263f"/>
    </g>
  </g>
</svg>
